G04 #@! TF.GenerationSoftware,KiCad,Pcbnew,(5.1.4)-1*
G04 #@! TF.CreationDate,2019-10-12T15:48:51-04:00*
G04 #@! TF.ProjectId,helvetica-sao,68656c76-6574-4696-9361-2d73616f2e6b,rev?*
G04 #@! TF.SameCoordinates,Original*
G04 #@! TF.FileFunction,Legend,Bot*
G04 #@! TF.FilePolarity,Positive*
%FSLAX46Y46*%
G04 Gerber Fmt 4.6, Leading zero omitted, Abs format (unit mm)*
G04 Created by KiCad (PCBNEW (5.1.4)-1) date 2019-10-12 15:48:51*
%MOMM*%
%LPD*%
G04 APERTURE LIST*
%ADD10C,0.254000*%
%ADD11C,0.127000*%
%ADD12C,0.120000*%
%ADD13C,0.150000*%
%ADD14C,0.100000*%
%ADD15R,2.812000X2.512000*%
%ADD16C,0.977000*%
%ADD17C,1.102000*%
%ADD18R,1.162000X0.752000*%
%ADD19C,0.702000*%
%ADD20R,0.702000X1.302000*%
%ADD21R,1.302000X0.702000*%
%ADD22R,1.602000X1.602000*%
%ADD23C,1.602000*%
%ADD24R,2.002000X1.277000*%
%ADD25R,2.002000X2.477000*%
%ADD26R,2.202000X1.577000*%
%ADD27R,1.482000X0.552000*%
%ADD28R,2.502000X0.842000*%
%ADD29R,1.202000X1.602000*%
%ADD30R,0.902000X0.752000*%
%ADD31C,0.752000*%
%ADD32R,0.752000X0.902000*%
G04 APERTURE END LIST*
D10*
X129890000Y-56515000D02*
G75*
G03X129890000Y-56515000I-200000J0D01*
G01*
D11*
X120590000Y-50515000D02*
X125790000Y-50515000D01*
X120590000Y-52815000D02*
X120590000Y-50515000D01*
X125790000Y-50515000D02*
X125790000Y-52815000D01*
D12*
X133187221Y-62355000D02*
X133512779Y-62355000D01*
X133187221Y-63375000D02*
X133512779Y-63375000D01*
X113818379Y-67341076D02*
X114539628Y-66619828D01*
X110141424Y-63664121D02*
X110862672Y-62942872D01*
X112022328Y-69137128D02*
X112743576Y-68415879D01*
X108345372Y-65460172D02*
X109066621Y-64738924D01*
X115614430Y-65545025D02*
X116017481Y-65141974D01*
X111937475Y-61868070D02*
X112340526Y-61465019D01*
X110544474Y-70614981D02*
X110947525Y-70211930D01*
X106867519Y-66938026D02*
X107270570Y-66534975D01*
X106252336Y-65516741D02*
X107270570Y-66534975D01*
X112340526Y-61465019D02*
X116017481Y-65141974D01*
X106867519Y-66938026D02*
X110544474Y-70614981D01*
X102182500Y-90510000D02*
X99732500Y-90510000D01*
X100382500Y-87290000D02*
X102182500Y-87290000D01*
X132450000Y-58080000D02*
X134900000Y-58080000D01*
X134250000Y-61300000D02*
X132450000Y-61300000D01*
X108660000Y-86175000D02*
X108660000Y-84500000D01*
X108400000Y-86175000D02*
X108660000Y-86175000D01*
X108400000Y-88900000D02*
X108400000Y-86175000D01*
X108400000Y-91625000D02*
X108660000Y-91625000D01*
X108400000Y-88900000D02*
X108400000Y-91625000D01*
X113850000Y-86175000D02*
X113590000Y-86175000D01*
X113850000Y-88900000D02*
X113850000Y-86175000D01*
X113850000Y-91625000D02*
X113590000Y-91625000D01*
X113850000Y-88900000D02*
X113850000Y-91625000D01*
D13*
X128402500Y-75975000D02*
X129627500Y-75975000D01*
X121152500Y-75750000D02*
X121452500Y-75750000D01*
X121152500Y-83000000D02*
X121452500Y-83000000D01*
X128402500Y-83000000D02*
X128102500Y-83000000D01*
X128402500Y-75750000D02*
X128102500Y-75750000D01*
X128402500Y-83000000D02*
X128402500Y-82700000D01*
X121152500Y-83000000D02*
X121152500Y-82700000D01*
X121152500Y-75750000D02*
X121152500Y-76050000D01*
X128402500Y-75750000D02*
X128402500Y-75975000D01*
D12*
X96257500Y-66560000D02*
X99957500Y-66560000D01*
X96257500Y-60440000D02*
X96257500Y-66560000D01*
X99957500Y-60440000D02*
X96257500Y-60440000D01*
X99957500Y-66560000D02*
X99957500Y-60440000D01*
X114185000Y-54555000D02*
X114185000Y-50855000D01*
X108065000Y-54555000D02*
X114185000Y-54555000D01*
X108065000Y-50855000D02*
X108065000Y-54555000D01*
X114185000Y-50855000D02*
X108065000Y-50855000D01*
X114003106Y-72928099D02*
X116619401Y-75544394D01*
X118330599Y-68600606D02*
X114003106Y-72928099D01*
X120946894Y-71216901D02*
X118330599Y-68600606D01*
X116619401Y-75544394D02*
X120946894Y-71216901D01*
X129665000Y-59852779D02*
X129665000Y-59527221D01*
X130685000Y-59852779D02*
X130685000Y-59527221D01*
X137035000Y-59527221D02*
X137035000Y-59852779D01*
X136015000Y-59527221D02*
X136015000Y-59852779D01*
X114772221Y-80770000D02*
X115097779Y-80770000D01*
X114772221Y-81790000D02*
X115097779Y-81790000D01*
X114772221Y-82357500D02*
X115097779Y-82357500D01*
X114772221Y-83377500D02*
X115097779Y-83377500D01*
X114772221Y-79182500D02*
X115097779Y-79182500D01*
X114772221Y-80202500D02*
X115097779Y-80202500D01*
X132560279Y-77662500D02*
X132234721Y-77662500D01*
X132560279Y-76642500D02*
X132234721Y-76642500D01*
X132560279Y-76075000D02*
X132234721Y-76075000D01*
X132560279Y-75055000D02*
X132234721Y-75055000D01*
X103032779Y-77980000D02*
X102707221Y-77980000D01*
X103032779Y-76960000D02*
X102707221Y-76960000D01*
X103032779Y-79885000D02*
X102707221Y-79885000D01*
X103032779Y-78865000D02*
X102707221Y-78865000D01*
X121039478Y-67785727D02*
X120809273Y-67555522D01*
X121760727Y-67064478D02*
X121530522Y-66834273D01*
X150014721Y-122045000D02*
X150340279Y-122045000D01*
X150014721Y-123065000D02*
X150340279Y-123065000D01*
X97952779Y-73217500D02*
X97627221Y-73217500D01*
X97952779Y-72197500D02*
X97627221Y-72197500D01*
X131917221Y-122045000D02*
X132242779Y-122045000D01*
X131917221Y-123065000D02*
X132242779Y-123065000D01*
X113502221Y-122045000D02*
X113827779Y-122045000D01*
X113502221Y-123065000D02*
X113827779Y-123065000D01*
X120808227Y-101210522D02*
X120578022Y-101440727D01*
X120086978Y-100489273D02*
X119856773Y-100719478D01*
X136365727Y-85653022D02*
X136135522Y-85883227D01*
X135644478Y-84931773D02*
X135414273Y-85161978D01*
X150970727Y-71048022D02*
X150740522Y-71278227D01*
X150249478Y-70326773D02*
X150019273Y-70556978D01*
X167130000Y-76997779D02*
X167130000Y-76672221D01*
X168150000Y-76997779D02*
X168150000Y-76672221D01*
X167130000Y-96047779D02*
X167130000Y-95722221D01*
X168150000Y-96047779D02*
X168150000Y-95722221D01*
X167130000Y-113510279D02*
X167130000Y-113184721D01*
X168150000Y-113510279D02*
X168150000Y-113184721D01*
X95190000Y-82232500D02*
X95450000Y-82232500D01*
X97730000Y-82232500D02*
X99500000Y-82232500D01*
X99500000Y-82232500D02*
X99500000Y-81852500D01*
X99500000Y-74612500D02*
X97730000Y-74612500D01*
X95450000Y-74612500D02*
X95190000Y-74612500D01*
X99500000Y-74612500D02*
X99500000Y-74992500D01*
X133845000Y-66680000D02*
X133845000Y-66615000D01*
X130315000Y-66680000D02*
X130315000Y-66615000D01*
X133845000Y-73085000D02*
X133845000Y-73020000D01*
X130315000Y-73085000D02*
X130315000Y-73020000D01*
X128990000Y-73020000D02*
X130315000Y-73020000D01*
X130315000Y-66615000D02*
X133845000Y-66615000D01*
X130315000Y-73085000D02*
X133845000Y-73085000D01*
X109625000Y-83230000D02*
X109625000Y-79330000D01*
X112625000Y-83780044D02*
X112625000Y-79330000D01*
X111825000Y-83780000D02*
X112625000Y-83780000D01*
D13*
X152537500Y-122755000D02*
G75*
G03X152537500Y-122755000I-50000J0D01*
G01*
X154287500Y-121805000D02*
X153687500Y-121805000D01*
X154787500Y-122305000D02*
G75*
G03X154287500Y-121805000I-500000J0D01*
G01*
X153687500Y-121805000D02*
G75*
G03X153187500Y-122305000I0J-500000D01*
G01*
X154487500Y-122805000D02*
X153487500Y-122805000D01*
X134757500Y-122755000D02*
G75*
G03X134757500Y-122755000I-50000J0D01*
G01*
X136507500Y-121805000D02*
X135907500Y-121805000D01*
X137007500Y-122305000D02*
G75*
G03X136507500Y-121805000I-500000J0D01*
G01*
X135907500Y-121805000D02*
G75*
G03X135407500Y-122305000I0J-500000D01*
G01*
X136707500Y-122805000D02*
X135707500Y-122805000D01*
X116025000Y-122755000D02*
G75*
G03X116025000Y-122755000I-50000J0D01*
G01*
X117775000Y-121805000D02*
X117175000Y-121805000D01*
X118275000Y-122305000D02*
G75*
G03X117775000Y-121805000I-500000J0D01*
G01*
X117175000Y-121805000D02*
G75*
G03X116675000Y-122305000I0J-500000D01*
G01*
X117975000Y-122805000D02*
X116975000Y-122805000D01*
X119079239Y-101985418D02*
G75*
G03X119079239Y-101985418I-50000J0D01*
G01*
X118428198Y-103929962D02*
X118852462Y-103505698D01*
X117721092Y-103929962D02*
G75*
G03X118428198Y-103929962I353553J353553D01*
G01*
X118852463Y-103505698D02*
G75*
G03X118852462Y-102798591I-353554J353553D01*
G01*
X117579670Y-103364277D02*
X118286777Y-102657170D01*
X134319239Y-86745418D02*
G75*
G03X134319239Y-86745418I-50000J0D01*
G01*
X133668198Y-88689962D02*
X134092462Y-88265698D01*
X132961092Y-88689962D02*
G75*
G03X133668198Y-88689962I353553J353553D01*
G01*
X134092463Y-88265698D02*
G75*
G03X134092462Y-87558591I-353554J353553D01*
G01*
X132819670Y-88124277D02*
X133526777Y-87417170D01*
X149241739Y-71822918D02*
G75*
G03X149241739Y-71822918I-50000J0D01*
G01*
X148590698Y-73767462D02*
X149014962Y-73343198D01*
X147883592Y-73767462D02*
G75*
G03X148590698Y-73767462I353553J353553D01*
G01*
X149014963Y-73343198D02*
G75*
G03X149014962Y-72636091I-353554J353553D01*
G01*
X147742170Y-73201777D02*
X148449277Y-72494670D01*
X167890000Y-74207500D02*
G75*
G03X167890000Y-74207500I-50000J0D01*
G01*
X166890000Y-72407500D02*
X166890000Y-73007500D01*
X167390000Y-71907500D02*
G75*
G03X166890000Y-72407500I0J-500000D01*
G01*
X166890000Y-73007500D02*
G75*
G03X167390000Y-73507500I500000J0D01*
G01*
X167890000Y-72207500D02*
X167890000Y-73207500D01*
X167890000Y-93257500D02*
G75*
G03X167890000Y-93257500I-50000J0D01*
G01*
X166890000Y-91457500D02*
X166890000Y-92057500D01*
X167390000Y-90957500D02*
G75*
G03X166890000Y-91457500I0J-500000D01*
G01*
X166890000Y-92057500D02*
G75*
G03X167390000Y-92557500I500000J0D01*
G01*
X167890000Y-91257500D02*
X167890000Y-92257500D01*
X167890000Y-111037500D02*
G75*
G03X167890000Y-111037500I-50000J0D01*
G01*
X166890000Y-109237500D02*
X166890000Y-109837500D01*
X167390000Y-108737500D02*
G75*
G03X166890000Y-109237500I0J-500000D01*
G01*
X166890000Y-109837500D02*
G75*
G03X167390000Y-110337500I500000J0D01*
G01*
X167890000Y-109037500D02*
X167890000Y-110037500D01*
D12*
X103947500Y-89062779D02*
X103947500Y-88737221D01*
X104967500Y-89062779D02*
X104967500Y-88737221D01*
X98617500Y-88737221D02*
X98617500Y-89062779D01*
X97597500Y-88737221D02*
X97597500Y-89062779D01*
X138940000Y-59527221D02*
X138940000Y-59852779D01*
X137920000Y-59527221D02*
X137920000Y-59852779D01*
X106487500Y-89062779D02*
X106487500Y-88737221D01*
X107507500Y-89062779D02*
X107507500Y-88737221D01*
X128145000Y-86197221D02*
X128145000Y-86522779D01*
X127125000Y-86197221D02*
X127125000Y-86522779D01*
X125855000Y-72235279D02*
X125855000Y-71909721D01*
X126875000Y-72235279D02*
X126875000Y-71909721D01*
X124267500Y-72235279D02*
X124267500Y-71909721D01*
X125287500Y-72235279D02*
X125287500Y-71909721D01*
X97627221Y-83627500D02*
X97952779Y-83627500D01*
X97627221Y-84647500D02*
X97952779Y-84647500D01*
D13*
X133516666Y-64652142D02*
X133564285Y-64699761D01*
X133707142Y-64747380D01*
X133802380Y-64747380D01*
X133945238Y-64699761D01*
X134040476Y-64604523D01*
X134088095Y-64509285D01*
X134135714Y-64318809D01*
X134135714Y-64175952D01*
X134088095Y-63985476D01*
X134040476Y-63890238D01*
X133945238Y-63795000D01*
X133802380Y-63747380D01*
X133707142Y-63747380D01*
X133564285Y-63795000D01*
X133516666Y-63842619D01*
X133040476Y-64747380D02*
X132850000Y-64747380D01*
X132754761Y-64699761D01*
X132707142Y-64652142D01*
X132611904Y-64509285D01*
X132564285Y-64318809D01*
X132564285Y-63937857D01*
X132611904Y-63842619D01*
X132659523Y-63795000D01*
X132754761Y-63747380D01*
X132945238Y-63747380D01*
X133040476Y-63795000D01*
X133088095Y-63842619D01*
X133135714Y-63937857D01*
X133135714Y-64175952D01*
X133088095Y-64271190D01*
X133040476Y-64318809D01*
X132945238Y-64366428D01*
X132754761Y-64366428D01*
X132659523Y-64318809D01*
X132611904Y-64271190D01*
X132564285Y-64175952D01*
X108958534Y-69668804D02*
X107780023Y-69904506D01*
X108487130Y-69197400D02*
X108251428Y-70375911D01*
X107140260Y-69264743D02*
X107544321Y-69668804D01*
X107342290Y-69466774D02*
X108049397Y-68759667D01*
X108015725Y-68928026D01*
X108015725Y-69062713D01*
X108049397Y-69163728D01*
X102044404Y-91252380D02*
X102044404Y-92061904D01*
X101996785Y-92157142D01*
X101949166Y-92204761D01*
X101853928Y-92252380D01*
X101663452Y-92252380D01*
X101568214Y-92204761D01*
X101520595Y-92157142D01*
X101472976Y-92061904D01*
X101472976Y-91252380D01*
X100568214Y-91585714D02*
X100568214Y-92252380D01*
X100806309Y-91204761D02*
X101044404Y-91919047D01*
X100425357Y-91919047D01*
X134111904Y-56242380D02*
X134111904Y-57051904D01*
X134064285Y-57147142D01*
X134016666Y-57194761D01*
X133921428Y-57242380D01*
X133730952Y-57242380D01*
X133635714Y-57194761D01*
X133588095Y-57147142D01*
X133540476Y-57051904D01*
X133540476Y-56242380D01*
X133159523Y-56242380D02*
X132540476Y-56242380D01*
X132873809Y-56623333D01*
X132730952Y-56623333D01*
X132635714Y-56670952D01*
X132588095Y-56718571D01*
X132540476Y-56813809D01*
X132540476Y-57051904D01*
X132588095Y-57147142D01*
X132635714Y-57194761D01*
X132730952Y-57242380D01*
X133016666Y-57242380D01*
X133111904Y-57194761D01*
X133159523Y-57147142D01*
X107017380Y-84836095D02*
X107826904Y-84836095D01*
X107922142Y-84883714D01*
X107969761Y-84931333D01*
X108017380Y-85026571D01*
X108017380Y-85217047D01*
X107969761Y-85312285D01*
X107922142Y-85359904D01*
X107826904Y-85407523D01*
X107017380Y-85407523D01*
X107112619Y-85836095D02*
X107065000Y-85883714D01*
X107017380Y-85978952D01*
X107017380Y-86217047D01*
X107065000Y-86312285D01*
X107112619Y-86359904D01*
X107207857Y-86407523D01*
X107303095Y-86407523D01*
X107445952Y-86359904D01*
X108017380Y-85788476D01*
X108017380Y-86407523D01*
X130301904Y-74382380D02*
X130301904Y-75191904D01*
X130254285Y-75287142D01*
X130206666Y-75334761D01*
X130111428Y-75382380D01*
X129920952Y-75382380D01*
X129825714Y-75334761D01*
X129778095Y-75287142D01*
X129730476Y-75191904D01*
X129730476Y-74382380D01*
X128730476Y-75382380D02*
X129301904Y-75382380D01*
X129016190Y-75382380D02*
X129016190Y-74382380D01*
X129111428Y-74525238D01*
X129206666Y-74620476D01*
X129301904Y-74668095D01*
X101112261Y-62166666D02*
X101159880Y-62309523D01*
X101159880Y-62547619D01*
X101112261Y-62642857D01*
X101064642Y-62690476D01*
X100969404Y-62738095D01*
X100874166Y-62738095D01*
X100778928Y-62690476D01*
X100731309Y-62642857D01*
X100683690Y-62547619D01*
X100636071Y-62357142D01*
X100588452Y-62261904D01*
X100540833Y-62214285D01*
X100445595Y-62166666D01*
X100350357Y-62166666D01*
X100255119Y-62214285D01*
X100207500Y-62261904D01*
X100159880Y-62357142D01*
X100159880Y-62595238D01*
X100207500Y-62738095D01*
X100159880Y-63071428D02*
X101159880Y-63309523D01*
X100445595Y-63500000D01*
X101159880Y-63690476D01*
X100159880Y-63928571D01*
X100159880Y-64214285D02*
X100159880Y-64833333D01*
X100540833Y-64500000D01*
X100540833Y-64642857D01*
X100588452Y-64738095D01*
X100636071Y-64785714D01*
X100731309Y-64833333D01*
X100969404Y-64833333D01*
X101064642Y-64785714D01*
X101112261Y-64738095D01*
X101159880Y-64642857D01*
X101159880Y-64357142D01*
X101112261Y-64261904D01*
X101064642Y-64214285D01*
X112458333Y-56030761D02*
X112315476Y-56078380D01*
X112077380Y-56078380D01*
X111982142Y-56030761D01*
X111934523Y-55983142D01*
X111886904Y-55887904D01*
X111886904Y-55792666D01*
X111934523Y-55697428D01*
X111982142Y-55649809D01*
X112077380Y-55602190D01*
X112267857Y-55554571D01*
X112363095Y-55506952D01*
X112410714Y-55459333D01*
X112458333Y-55364095D01*
X112458333Y-55268857D01*
X112410714Y-55173619D01*
X112363095Y-55126000D01*
X112267857Y-55078380D01*
X112029761Y-55078380D01*
X111886904Y-55126000D01*
X111553571Y-55078380D02*
X111315476Y-56078380D01*
X111125000Y-55364095D01*
X110934523Y-56078380D01*
X110696428Y-55078380D01*
X110363095Y-55173619D02*
X110315476Y-55126000D01*
X110220238Y-55078380D01*
X109982142Y-55078380D01*
X109886904Y-55126000D01*
X109839285Y-55173619D01*
X109791666Y-55268857D01*
X109791666Y-55364095D01*
X109839285Y-55506952D01*
X110410714Y-56078380D01*
X109791666Y-56078380D01*
X120542496Y-73254378D02*
X120475153Y-73389065D01*
X120306794Y-73557424D01*
X120205779Y-73591096D01*
X120138435Y-73591096D01*
X120037420Y-73557424D01*
X119970077Y-73490081D01*
X119936405Y-73389065D01*
X119936405Y-73321722D01*
X119970077Y-73220707D01*
X120071092Y-73052348D01*
X120104764Y-72951333D01*
X120104764Y-72883989D01*
X120071092Y-72782974D01*
X120003748Y-72715630D01*
X119902733Y-72681959D01*
X119835390Y-72681959D01*
X119734374Y-72715630D01*
X119566016Y-72883989D01*
X119498672Y-73018676D01*
X119229298Y-73220707D02*
X119768046Y-74096172D01*
X119128283Y-73725783D01*
X119498672Y-74365546D01*
X118623207Y-73826798D01*
X118690550Y-75173668D02*
X119094611Y-74769607D01*
X118892581Y-74971638D02*
X118185474Y-74264531D01*
X118353833Y-74298203D01*
X118488520Y-74298203D01*
X118589535Y-74264531D01*
X130944857Y-57856380D02*
X131278190Y-57380190D01*
X131516285Y-57856380D02*
X131516285Y-56856380D01*
X131135333Y-56856380D01*
X131040095Y-56904000D01*
X130992476Y-56951619D01*
X130944857Y-57046857D01*
X130944857Y-57189714D01*
X130992476Y-57284952D01*
X131040095Y-57332571D01*
X131135333Y-57380190D01*
X131516285Y-57380190D01*
X130563904Y-56951619D02*
X130516285Y-56904000D01*
X130421047Y-56856380D01*
X130182952Y-56856380D01*
X130087714Y-56904000D01*
X130040095Y-56951619D01*
X129992476Y-57046857D01*
X129992476Y-57142095D01*
X130040095Y-57284952D01*
X130611523Y-57856380D01*
X129992476Y-57856380D01*
X129373428Y-56856380D02*
X129278190Y-56856380D01*
X129182952Y-56904000D01*
X129135333Y-56951619D01*
X129087714Y-57046857D01*
X129040095Y-57237333D01*
X129040095Y-57475428D01*
X129087714Y-57665904D01*
X129135333Y-57761142D01*
X129182952Y-57808761D01*
X129278190Y-57856380D01*
X129373428Y-57856380D01*
X129468666Y-57808761D01*
X129516285Y-57761142D01*
X129563904Y-57665904D01*
X129611523Y-57475428D01*
X129611523Y-57237333D01*
X129563904Y-57046857D01*
X129516285Y-56951619D01*
X129468666Y-56904000D01*
X129373428Y-56856380D01*
X137294857Y-62428380D02*
X137628190Y-61952190D01*
X137866285Y-62428380D02*
X137866285Y-61428380D01*
X137485333Y-61428380D01*
X137390095Y-61476000D01*
X137342476Y-61523619D01*
X137294857Y-61618857D01*
X137294857Y-61761714D01*
X137342476Y-61856952D01*
X137390095Y-61904571D01*
X137485333Y-61952190D01*
X137866285Y-61952190D01*
X136342476Y-62428380D02*
X136913904Y-62428380D01*
X136628190Y-62428380D02*
X136628190Y-61428380D01*
X136723428Y-61571238D01*
X136818666Y-61666476D01*
X136913904Y-61714095D01*
X135866285Y-62428380D02*
X135675809Y-62428380D01*
X135580571Y-62380761D01*
X135532952Y-62333142D01*
X135437714Y-62190285D01*
X135390095Y-61999809D01*
X135390095Y-61618857D01*
X135437714Y-61523619D01*
X135485333Y-61476000D01*
X135580571Y-61428380D01*
X135771047Y-61428380D01*
X135866285Y-61476000D01*
X135913904Y-61523619D01*
X135961523Y-61618857D01*
X135961523Y-61856952D01*
X135913904Y-61952190D01*
X135866285Y-61999809D01*
X135771047Y-62047428D01*
X135580571Y-62047428D01*
X135485333Y-61999809D01*
X135437714Y-61952190D01*
X135390095Y-61856952D01*
X118498857Y-81732380D02*
X118832190Y-81256190D01*
X119070285Y-81732380D02*
X119070285Y-80732380D01*
X118689333Y-80732380D01*
X118594095Y-80780000D01*
X118546476Y-80827619D01*
X118498857Y-80922857D01*
X118498857Y-81065714D01*
X118546476Y-81160952D01*
X118594095Y-81208571D01*
X118689333Y-81256190D01*
X119070285Y-81256190D01*
X117546476Y-81732380D02*
X118117904Y-81732380D01*
X117832190Y-81732380D02*
X117832190Y-80732380D01*
X117927428Y-80875238D01*
X118022666Y-80970476D01*
X118117904Y-81018095D01*
X116975047Y-81160952D02*
X117070285Y-81113333D01*
X117117904Y-81065714D01*
X117165523Y-80970476D01*
X117165523Y-80922857D01*
X117117904Y-80827619D01*
X117070285Y-80780000D01*
X116975047Y-80732380D01*
X116784571Y-80732380D01*
X116689333Y-80780000D01*
X116641714Y-80827619D01*
X116594095Y-80922857D01*
X116594095Y-80970476D01*
X116641714Y-81065714D01*
X116689333Y-81113333D01*
X116784571Y-81160952D01*
X116975047Y-81160952D01*
X117070285Y-81208571D01*
X117117904Y-81256190D01*
X117165523Y-81351428D01*
X117165523Y-81541904D01*
X117117904Y-81637142D01*
X117070285Y-81684761D01*
X116975047Y-81732380D01*
X116784571Y-81732380D01*
X116689333Y-81684761D01*
X116641714Y-81637142D01*
X116594095Y-81541904D01*
X116594095Y-81351428D01*
X116641714Y-81256190D01*
X116689333Y-81208571D01*
X116784571Y-81160952D01*
X118498857Y-83256380D02*
X118832190Y-82780190D01*
X119070285Y-83256380D02*
X119070285Y-82256380D01*
X118689333Y-82256380D01*
X118594095Y-82304000D01*
X118546476Y-82351619D01*
X118498857Y-82446857D01*
X118498857Y-82589714D01*
X118546476Y-82684952D01*
X118594095Y-82732571D01*
X118689333Y-82780190D01*
X119070285Y-82780190D01*
X117546476Y-83256380D02*
X118117904Y-83256380D01*
X117832190Y-83256380D02*
X117832190Y-82256380D01*
X117927428Y-82399238D01*
X118022666Y-82494476D01*
X118117904Y-82542095D01*
X117213142Y-82256380D02*
X116546476Y-82256380D01*
X116975047Y-83256380D01*
X118498857Y-80208380D02*
X118832190Y-79732190D01*
X119070285Y-80208380D02*
X119070285Y-79208380D01*
X118689333Y-79208380D01*
X118594095Y-79256000D01*
X118546476Y-79303619D01*
X118498857Y-79398857D01*
X118498857Y-79541714D01*
X118546476Y-79636952D01*
X118594095Y-79684571D01*
X118689333Y-79732190D01*
X119070285Y-79732190D01*
X117546476Y-80208380D02*
X118117904Y-80208380D01*
X117832190Y-80208380D02*
X117832190Y-79208380D01*
X117927428Y-79351238D01*
X118022666Y-79446476D01*
X118117904Y-79494095D01*
X116689333Y-79208380D02*
X116879809Y-79208380D01*
X116975047Y-79256000D01*
X117022666Y-79303619D01*
X117117904Y-79446476D01*
X117165523Y-79636952D01*
X117165523Y-80017904D01*
X117117904Y-80113142D01*
X117070285Y-80160761D01*
X116975047Y-80208380D01*
X116784571Y-80208380D01*
X116689333Y-80160761D01*
X116641714Y-80113142D01*
X116594095Y-80017904D01*
X116594095Y-79779809D01*
X116641714Y-79684571D01*
X116689333Y-79636952D01*
X116784571Y-79589333D01*
X116975047Y-79589333D01*
X117070285Y-79636952D01*
X117117904Y-79684571D01*
X117165523Y-79779809D01*
X136024857Y-77668380D02*
X136358190Y-77192190D01*
X136596285Y-77668380D02*
X136596285Y-76668380D01*
X136215333Y-76668380D01*
X136120095Y-76716000D01*
X136072476Y-76763619D01*
X136024857Y-76858857D01*
X136024857Y-77001714D01*
X136072476Y-77096952D01*
X136120095Y-77144571D01*
X136215333Y-77192190D01*
X136596285Y-77192190D01*
X135072476Y-77668380D02*
X135643904Y-77668380D01*
X135358190Y-77668380D02*
X135358190Y-76668380D01*
X135453428Y-76811238D01*
X135548666Y-76906476D01*
X135643904Y-76954095D01*
X134167714Y-76668380D02*
X134643904Y-76668380D01*
X134691523Y-77144571D01*
X134643904Y-77096952D01*
X134548666Y-77049333D01*
X134310571Y-77049333D01*
X134215333Y-77096952D01*
X134167714Y-77144571D01*
X134120095Y-77239809D01*
X134120095Y-77477904D01*
X134167714Y-77573142D01*
X134215333Y-77620761D01*
X134310571Y-77668380D01*
X134548666Y-77668380D01*
X134643904Y-77620761D01*
X134691523Y-77573142D01*
X136024857Y-76144380D02*
X136358190Y-75668190D01*
X136596285Y-76144380D02*
X136596285Y-75144380D01*
X136215333Y-75144380D01*
X136120095Y-75192000D01*
X136072476Y-75239619D01*
X136024857Y-75334857D01*
X136024857Y-75477714D01*
X136072476Y-75572952D01*
X136120095Y-75620571D01*
X136215333Y-75668190D01*
X136596285Y-75668190D01*
X135072476Y-76144380D02*
X135643904Y-76144380D01*
X135358190Y-76144380D02*
X135358190Y-75144380D01*
X135453428Y-75287238D01*
X135548666Y-75382476D01*
X135643904Y-75430095D01*
X134215333Y-75477714D02*
X134215333Y-76144380D01*
X134453428Y-75096761D02*
X134691523Y-75811047D01*
X134072476Y-75811047D01*
X103512857Y-76492380D02*
X103846190Y-76016190D01*
X104084285Y-76492380D02*
X104084285Y-75492380D01*
X103703333Y-75492380D01*
X103608095Y-75540000D01*
X103560476Y-75587619D01*
X103512857Y-75682857D01*
X103512857Y-75825714D01*
X103560476Y-75920952D01*
X103608095Y-75968571D01*
X103703333Y-76016190D01*
X104084285Y-76016190D01*
X102560476Y-76492380D02*
X103131904Y-76492380D01*
X102846190Y-76492380D02*
X102846190Y-75492380D01*
X102941428Y-75635238D01*
X103036666Y-75730476D01*
X103131904Y-75778095D01*
X102227142Y-75492380D02*
X101608095Y-75492380D01*
X101941428Y-75873333D01*
X101798571Y-75873333D01*
X101703333Y-75920952D01*
X101655714Y-75968571D01*
X101608095Y-76063809D01*
X101608095Y-76301904D01*
X101655714Y-76397142D01*
X101703333Y-76444761D01*
X101798571Y-76492380D01*
X102084285Y-76492380D01*
X102179523Y-76444761D01*
X102227142Y-76397142D01*
X103512857Y-81478380D02*
X103846190Y-81002190D01*
X104084285Y-81478380D02*
X104084285Y-80478380D01*
X103703333Y-80478380D01*
X103608095Y-80526000D01*
X103560476Y-80573619D01*
X103512857Y-80668857D01*
X103512857Y-80811714D01*
X103560476Y-80906952D01*
X103608095Y-80954571D01*
X103703333Y-81002190D01*
X104084285Y-81002190D01*
X102560476Y-81478380D02*
X103131904Y-81478380D01*
X102846190Y-81478380D02*
X102846190Y-80478380D01*
X102941428Y-80621238D01*
X103036666Y-80716476D01*
X103131904Y-80764095D01*
X102179523Y-80573619D02*
X102131904Y-80526000D01*
X102036666Y-80478380D01*
X101798571Y-80478380D01*
X101703333Y-80526000D01*
X101655714Y-80573619D01*
X101608095Y-80668857D01*
X101608095Y-80764095D01*
X101655714Y-80906952D01*
X102227142Y-81478380D01*
X101608095Y-81478380D01*
X122430850Y-67073287D02*
X123003269Y-66972272D01*
X122834911Y-67477348D02*
X123542017Y-66770241D01*
X123272643Y-66500867D01*
X123171628Y-66467195D01*
X123104285Y-66467195D01*
X123003269Y-66500867D01*
X122902254Y-66601882D01*
X122868582Y-66702898D01*
X122868582Y-66770241D01*
X122902254Y-66871256D01*
X123171628Y-67140630D01*
X121757414Y-66399852D02*
X122161475Y-66803913D01*
X121959445Y-66601882D02*
X122666552Y-65894775D01*
X122632880Y-66063134D01*
X122632880Y-66197821D01*
X122666552Y-66298837D01*
X121083979Y-65726417D02*
X121488040Y-66130478D01*
X121286010Y-65928447D02*
X121993117Y-65221340D01*
X121959445Y-65389699D01*
X121959445Y-65524386D01*
X121993117Y-65625401D01*
X150820357Y-124437380D02*
X151153690Y-123961190D01*
X151391785Y-124437380D02*
X151391785Y-123437380D01*
X151010833Y-123437380D01*
X150915595Y-123485000D01*
X150867976Y-123532619D01*
X150820357Y-123627857D01*
X150820357Y-123770714D01*
X150867976Y-123865952D01*
X150915595Y-123913571D01*
X151010833Y-123961190D01*
X151391785Y-123961190D01*
X149867976Y-124437380D02*
X150439404Y-124437380D01*
X150153690Y-124437380D02*
X150153690Y-123437380D01*
X150248928Y-123580238D01*
X150344166Y-123675476D01*
X150439404Y-123723095D01*
X149248928Y-123437380D02*
X149153690Y-123437380D01*
X149058452Y-123485000D01*
X149010833Y-123532619D01*
X148963214Y-123627857D01*
X148915595Y-123818333D01*
X148915595Y-124056428D01*
X148963214Y-124246904D01*
X149010833Y-124342142D01*
X149058452Y-124389761D01*
X149153690Y-124437380D01*
X149248928Y-124437380D01*
X149344166Y-124389761D01*
X149391785Y-124342142D01*
X149439404Y-124246904D01*
X149487023Y-124056428D01*
X149487023Y-123818333D01*
X149439404Y-123627857D01*
X149391785Y-123532619D01*
X149344166Y-123485000D01*
X149248928Y-123437380D01*
X97956666Y-71729880D02*
X98290000Y-71253690D01*
X98528095Y-71729880D02*
X98528095Y-70729880D01*
X98147142Y-70729880D01*
X98051904Y-70777500D01*
X98004285Y-70825119D01*
X97956666Y-70920357D01*
X97956666Y-71063214D01*
X98004285Y-71158452D01*
X98051904Y-71206071D01*
X98147142Y-71253690D01*
X98528095Y-71253690D01*
X97480476Y-71729880D02*
X97290000Y-71729880D01*
X97194761Y-71682261D01*
X97147142Y-71634642D01*
X97051904Y-71491785D01*
X97004285Y-71301309D01*
X97004285Y-70920357D01*
X97051904Y-70825119D01*
X97099523Y-70777500D01*
X97194761Y-70729880D01*
X97385238Y-70729880D01*
X97480476Y-70777500D01*
X97528095Y-70825119D01*
X97575714Y-70920357D01*
X97575714Y-71158452D01*
X97528095Y-71253690D01*
X97480476Y-71301309D01*
X97385238Y-71348928D01*
X97194761Y-71348928D01*
X97099523Y-71301309D01*
X97051904Y-71253690D01*
X97004285Y-71158452D01*
X132246666Y-124437380D02*
X132580000Y-123961190D01*
X132818095Y-124437380D02*
X132818095Y-123437380D01*
X132437142Y-123437380D01*
X132341904Y-123485000D01*
X132294285Y-123532619D01*
X132246666Y-123627857D01*
X132246666Y-123770714D01*
X132294285Y-123865952D01*
X132341904Y-123913571D01*
X132437142Y-123961190D01*
X132818095Y-123961190D01*
X131675238Y-123865952D02*
X131770476Y-123818333D01*
X131818095Y-123770714D01*
X131865714Y-123675476D01*
X131865714Y-123627857D01*
X131818095Y-123532619D01*
X131770476Y-123485000D01*
X131675238Y-123437380D01*
X131484761Y-123437380D01*
X131389523Y-123485000D01*
X131341904Y-123532619D01*
X131294285Y-123627857D01*
X131294285Y-123675476D01*
X131341904Y-123770714D01*
X131389523Y-123818333D01*
X131484761Y-123865952D01*
X131675238Y-123865952D01*
X131770476Y-123913571D01*
X131818095Y-123961190D01*
X131865714Y-124056428D01*
X131865714Y-124246904D01*
X131818095Y-124342142D01*
X131770476Y-124389761D01*
X131675238Y-124437380D01*
X131484761Y-124437380D01*
X131389523Y-124389761D01*
X131341904Y-124342142D01*
X131294285Y-124246904D01*
X131294285Y-124056428D01*
X131341904Y-123961190D01*
X131389523Y-123913571D01*
X131484761Y-123865952D01*
X113831666Y-124437380D02*
X114165000Y-123961190D01*
X114403095Y-124437380D02*
X114403095Y-123437380D01*
X114022142Y-123437380D01*
X113926904Y-123485000D01*
X113879285Y-123532619D01*
X113831666Y-123627857D01*
X113831666Y-123770714D01*
X113879285Y-123865952D01*
X113926904Y-123913571D01*
X114022142Y-123961190D01*
X114403095Y-123961190D01*
X113498333Y-123437380D02*
X112831666Y-123437380D01*
X113260238Y-124437380D01*
X119759069Y-100155867D02*
X119658054Y-99583447D01*
X120163130Y-99751806D02*
X119456024Y-99044699D01*
X119186649Y-99314073D01*
X119152978Y-99415088D01*
X119152978Y-99482432D01*
X119186649Y-99583447D01*
X119287665Y-99684462D01*
X119388680Y-99718134D01*
X119456024Y-99718134D01*
X119557039Y-99684462D01*
X119826413Y-99415088D01*
X118445871Y-100054852D02*
X118580558Y-99920165D01*
X118681573Y-99886493D01*
X118748917Y-99886493D01*
X118917275Y-99920165D01*
X119085634Y-100021180D01*
X119355008Y-100290554D01*
X119388680Y-100391569D01*
X119388680Y-100458913D01*
X119355008Y-100559928D01*
X119220321Y-100694615D01*
X119119306Y-100728287D01*
X119051962Y-100728287D01*
X118950947Y-100694615D01*
X118782588Y-100526256D01*
X118748917Y-100425241D01*
X118748917Y-100357898D01*
X118782588Y-100256882D01*
X118917275Y-100122195D01*
X119018291Y-100088524D01*
X119085634Y-100088524D01*
X119186649Y-100122195D01*
X135316569Y-84598367D02*
X135215554Y-84025947D01*
X135720630Y-84194306D02*
X135013524Y-83487199D01*
X134744149Y-83756573D01*
X134710478Y-83857588D01*
X134710478Y-83924932D01*
X134744149Y-84025947D01*
X134845165Y-84126962D01*
X134946180Y-84160634D01*
X135013524Y-84160634D01*
X135114539Y-84126962D01*
X135383913Y-83857588D01*
X133969699Y-84531024D02*
X134306417Y-84194306D01*
X134676806Y-84497352D01*
X134609462Y-84497352D01*
X134508447Y-84531024D01*
X134340088Y-84699382D01*
X134306417Y-84800398D01*
X134306417Y-84867741D01*
X134340088Y-84968756D01*
X134508447Y-85137115D01*
X134609462Y-85170787D01*
X134676806Y-85170787D01*
X134777821Y-85137115D01*
X134946180Y-84968756D01*
X134979852Y-84867741D01*
X134979852Y-84800398D01*
X149921569Y-69993367D02*
X149820554Y-69420947D01*
X150325630Y-69589306D02*
X149618524Y-68882199D01*
X149349149Y-69151573D01*
X149315478Y-69252588D01*
X149315478Y-69319932D01*
X149349149Y-69420947D01*
X149450165Y-69521962D01*
X149551180Y-69555634D01*
X149618524Y-69555634D01*
X149719539Y-69521962D01*
X149988913Y-69252588D01*
X148844073Y-70128054D02*
X149315478Y-70599459D01*
X148743058Y-69690321D02*
X149416493Y-70027039D01*
X148978760Y-70464772D01*
X169522380Y-76668333D02*
X169046190Y-76335000D01*
X169522380Y-76096904D02*
X168522380Y-76096904D01*
X168522380Y-76477857D01*
X168570000Y-76573095D01*
X168617619Y-76620714D01*
X168712857Y-76668333D01*
X168855714Y-76668333D01*
X168950952Y-76620714D01*
X168998571Y-76573095D01*
X169046190Y-76477857D01*
X169046190Y-76096904D01*
X168522380Y-77001666D02*
X168522380Y-77620714D01*
X168903333Y-77287380D01*
X168903333Y-77430238D01*
X168950952Y-77525476D01*
X168998571Y-77573095D01*
X169093809Y-77620714D01*
X169331904Y-77620714D01*
X169427142Y-77573095D01*
X169474761Y-77525476D01*
X169522380Y-77430238D01*
X169522380Y-77144523D01*
X169474761Y-77049285D01*
X169427142Y-77001666D01*
X169522380Y-95718333D02*
X169046190Y-95385000D01*
X169522380Y-95146904D02*
X168522380Y-95146904D01*
X168522380Y-95527857D01*
X168570000Y-95623095D01*
X168617619Y-95670714D01*
X168712857Y-95718333D01*
X168855714Y-95718333D01*
X168950952Y-95670714D01*
X168998571Y-95623095D01*
X169046190Y-95527857D01*
X169046190Y-95146904D01*
X168617619Y-96099285D02*
X168570000Y-96146904D01*
X168522380Y-96242142D01*
X168522380Y-96480238D01*
X168570000Y-96575476D01*
X168617619Y-96623095D01*
X168712857Y-96670714D01*
X168808095Y-96670714D01*
X168950952Y-96623095D01*
X169522380Y-96051666D01*
X169522380Y-96670714D01*
X169522380Y-113180833D02*
X169046190Y-112847500D01*
X169522380Y-112609404D02*
X168522380Y-112609404D01*
X168522380Y-112990357D01*
X168570000Y-113085595D01*
X168617619Y-113133214D01*
X168712857Y-113180833D01*
X168855714Y-113180833D01*
X168950952Y-113133214D01*
X168998571Y-113085595D01*
X169046190Y-112990357D01*
X169046190Y-112609404D01*
X169522380Y-114133214D02*
X169522380Y-113561785D01*
X169522380Y-113847500D02*
X168522380Y-113847500D01*
X168665238Y-113752261D01*
X168760476Y-113657023D01*
X168808095Y-113561785D01*
X99528380Y-73834666D02*
X100242666Y-73834666D01*
X100385523Y-73787047D01*
X100480761Y-73691809D01*
X100528380Y-73548952D01*
X100528380Y-73453714D01*
X99623619Y-74263238D02*
X99576000Y-74310857D01*
X99528380Y-74406095D01*
X99528380Y-74644190D01*
X99576000Y-74739428D01*
X99623619Y-74787047D01*
X99718857Y-74834666D01*
X99814095Y-74834666D01*
X99956952Y-74787047D01*
X100528380Y-74215619D01*
X100528380Y-74834666D01*
X132413333Y-73537380D02*
X132413333Y-74251666D01*
X132460952Y-74394523D01*
X132556190Y-74489761D01*
X132699047Y-74537380D01*
X132794285Y-74537380D01*
X131413333Y-74537380D02*
X131984761Y-74537380D01*
X131699047Y-74537380D02*
X131699047Y-73537380D01*
X131794285Y-73680238D01*
X131889523Y-73775476D01*
X131984761Y-73823095D01*
X109164380Y-80065714D02*
X108164380Y-80065714D01*
X108164380Y-80303809D01*
X108212000Y-80446666D01*
X108307238Y-80541904D01*
X108402476Y-80589523D01*
X108592952Y-80637142D01*
X108735809Y-80637142D01*
X108926285Y-80589523D01*
X109021523Y-80541904D01*
X109116761Y-80446666D01*
X109164380Y-80303809D01*
X109164380Y-80065714D01*
X109164380Y-81589523D02*
X109164380Y-81018095D01*
X109164380Y-81303809D02*
X108164380Y-81303809D01*
X108307238Y-81208571D01*
X108402476Y-81113333D01*
X108450095Y-81018095D01*
X108164380Y-82208571D02*
X108164380Y-82303809D01*
X108212000Y-82399047D01*
X108259619Y-82446666D01*
X108354857Y-82494285D01*
X108545333Y-82541904D01*
X108783428Y-82541904D01*
X108973904Y-82494285D01*
X109069142Y-82446666D01*
X109116761Y-82399047D01*
X109164380Y-82303809D01*
X109164380Y-82208571D01*
X109116761Y-82113333D01*
X109069142Y-82065714D01*
X108973904Y-82018095D01*
X108783428Y-81970476D01*
X108545333Y-81970476D01*
X108354857Y-82018095D01*
X108259619Y-82065714D01*
X108212000Y-82113333D01*
X108164380Y-82208571D01*
X154725595Y-124057380D02*
X154725595Y-123057380D01*
X154487500Y-123057380D01*
X154344642Y-123105000D01*
X154249404Y-123200238D01*
X154201785Y-123295476D01*
X154154166Y-123485952D01*
X154154166Y-123628809D01*
X154201785Y-123819285D01*
X154249404Y-123914523D01*
X154344642Y-124009761D01*
X154487500Y-124057380D01*
X154725595Y-124057380D01*
X153677976Y-124057380D02*
X153487500Y-124057380D01*
X153392261Y-124009761D01*
X153344642Y-123962142D01*
X153249404Y-123819285D01*
X153201785Y-123628809D01*
X153201785Y-123247857D01*
X153249404Y-123152619D01*
X153297023Y-123105000D01*
X153392261Y-123057380D01*
X153582738Y-123057380D01*
X153677976Y-123105000D01*
X153725595Y-123152619D01*
X153773214Y-123247857D01*
X153773214Y-123485952D01*
X153725595Y-123581190D01*
X153677976Y-123628809D01*
X153582738Y-123676428D01*
X153392261Y-123676428D01*
X153297023Y-123628809D01*
X153249404Y-123581190D01*
X153201785Y-123485952D01*
X136945595Y-124057380D02*
X136945595Y-123057380D01*
X136707500Y-123057380D01*
X136564642Y-123105000D01*
X136469404Y-123200238D01*
X136421785Y-123295476D01*
X136374166Y-123485952D01*
X136374166Y-123628809D01*
X136421785Y-123819285D01*
X136469404Y-123914523D01*
X136564642Y-124009761D01*
X136707500Y-124057380D01*
X136945595Y-124057380D01*
X135802738Y-123485952D02*
X135897976Y-123438333D01*
X135945595Y-123390714D01*
X135993214Y-123295476D01*
X135993214Y-123247857D01*
X135945595Y-123152619D01*
X135897976Y-123105000D01*
X135802738Y-123057380D01*
X135612261Y-123057380D01*
X135517023Y-123105000D01*
X135469404Y-123152619D01*
X135421785Y-123247857D01*
X135421785Y-123295476D01*
X135469404Y-123390714D01*
X135517023Y-123438333D01*
X135612261Y-123485952D01*
X135802738Y-123485952D01*
X135897976Y-123533571D01*
X135945595Y-123581190D01*
X135993214Y-123676428D01*
X135993214Y-123866904D01*
X135945595Y-123962142D01*
X135897976Y-124009761D01*
X135802738Y-124057380D01*
X135612261Y-124057380D01*
X135517023Y-124009761D01*
X135469404Y-123962142D01*
X135421785Y-123866904D01*
X135421785Y-123676428D01*
X135469404Y-123581190D01*
X135517023Y-123533571D01*
X135612261Y-123485952D01*
X118213095Y-124057380D02*
X118213095Y-123057380D01*
X117975000Y-123057380D01*
X117832142Y-123105000D01*
X117736904Y-123200238D01*
X117689285Y-123295476D01*
X117641666Y-123485952D01*
X117641666Y-123628809D01*
X117689285Y-123819285D01*
X117736904Y-123914523D01*
X117832142Y-124009761D01*
X117975000Y-124057380D01*
X118213095Y-124057380D01*
X117308333Y-123057380D02*
X116641666Y-123057380D01*
X117070238Y-124057380D01*
X118209331Y-102243007D02*
X117502225Y-101535900D01*
X117333866Y-101704259D01*
X117266522Y-101838946D01*
X117266522Y-101973633D01*
X117300194Y-102074648D01*
X117401209Y-102243007D01*
X117502225Y-102344022D01*
X117670583Y-102445038D01*
X117771599Y-102478709D01*
X117906286Y-102478709D01*
X118040973Y-102411366D01*
X118209331Y-102243007D01*
X116492072Y-102546053D02*
X116626759Y-102411366D01*
X116727774Y-102377694D01*
X116795118Y-102377694D01*
X116963476Y-102411366D01*
X117131835Y-102512381D01*
X117401209Y-102781755D01*
X117434881Y-102882770D01*
X117434881Y-102950114D01*
X117401209Y-103051129D01*
X117266522Y-103185816D01*
X117165507Y-103219488D01*
X117098163Y-103219488D01*
X116997148Y-103185816D01*
X116828789Y-103017457D01*
X116795118Y-102916442D01*
X116795118Y-102849099D01*
X116828789Y-102748083D01*
X116963476Y-102613396D01*
X117064492Y-102579725D01*
X117131835Y-102579725D01*
X117232850Y-102613396D01*
X133449331Y-87003007D02*
X132742225Y-86295900D01*
X132573866Y-86464259D01*
X132506522Y-86598946D01*
X132506522Y-86733633D01*
X132540194Y-86834648D01*
X132641209Y-87003007D01*
X132742225Y-87104022D01*
X132910583Y-87205038D01*
X133011599Y-87238709D01*
X133146286Y-87238709D01*
X133280973Y-87171366D01*
X133449331Y-87003007D01*
X131698400Y-87339725D02*
X132035118Y-87003007D01*
X132405507Y-87306053D01*
X132338163Y-87306053D01*
X132237148Y-87339725D01*
X132068789Y-87508083D01*
X132035118Y-87609099D01*
X132035118Y-87676442D01*
X132068789Y-87777457D01*
X132237148Y-87945816D01*
X132338163Y-87979488D01*
X132405507Y-87979488D01*
X132506522Y-87945816D01*
X132674881Y-87777457D01*
X132708553Y-87676442D01*
X132708553Y-87609099D01*
X148371831Y-72080507D02*
X147664725Y-71373400D01*
X147496366Y-71541759D01*
X147429022Y-71676446D01*
X147429022Y-71811133D01*
X147462694Y-71912148D01*
X147563709Y-72080507D01*
X147664725Y-72181522D01*
X147833083Y-72282538D01*
X147934099Y-72316209D01*
X148068786Y-72316209D01*
X148203473Y-72248866D01*
X148371831Y-72080507D01*
X146890274Y-72619255D02*
X147361679Y-73090660D01*
X146789259Y-72181522D02*
X147462694Y-72518240D01*
X147024961Y-72955973D01*
X169142380Y-71969404D02*
X168142380Y-71969404D01*
X168142380Y-72207500D01*
X168190000Y-72350357D01*
X168285238Y-72445595D01*
X168380476Y-72493214D01*
X168570952Y-72540833D01*
X168713809Y-72540833D01*
X168904285Y-72493214D01*
X168999523Y-72445595D01*
X169094761Y-72350357D01*
X169142380Y-72207500D01*
X169142380Y-71969404D01*
X168142380Y-72874166D02*
X168142380Y-73493214D01*
X168523333Y-73159880D01*
X168523333Y-73302738D01*
X168570952Y-73397976D01*
X168618571Y-73445595D01*
X168713809Y-73493214D01*
X168951904Y-73493214D01*
X169047142Y-73445595D01*
X169094761Y-73397976D01*
X169142380Y-73302738D01*
X169142380Y-73017023D01*
X169094761Y-72921785D01*
X169047142Y-72874166D01*
X169142380Y-91019404D02*
X168142380Y-91019404D01*
X168142380Y-91257500D01*
X168190000Y-91400357D01*
X168285238Y-91495595D01*
X168380476Y-91543214D01*
X168570952Y-91590833D01*
X168713809Y-91590833D01*
X168904285Y-91543214D01*
X168999523Y-91495595D01*
X169094761Y-91400357D01*
X169142380Y-91257500D01*
X169142380Y-91019404D01*
X168237619Y-91971785D02*
X168190000Y-92019404D01*
X168142380Y-92114642D01*
X168142380Y-92352738D01*
X168190000Y-92447976D01*
X168237619Y-92495595D01*
X168332857Y-92543214D01*
X168428095Y-92543214D01*
X168570952Y-92495595D01*
X169142380Y-91924166D01*
X169142380Y-92543214D01*
X169142380Y-108799404D02*
X168142380Y-108799404D01*
X168142380Y-109037500D01*
X168190000Y-109180357D01*
X168285238Y-109275595D01*
X168380476Y-109323214D01*
X168570952Y-109370833D01*
X168713809Y-109370833D01*
X168904285Y-109323214D01*
X168999523Y-109275595D01*
X169094761Y-109180357D01*
X169142380Y-109037500D01*
X169142380Y-108799404D01*
X169142380Y-110323214D02*
X169142380Y-109751785D01*
X169142380Y-110037500D02*
X168142380Y-110037500D01*
X168285238Y-109942261D01*
X168380476Y-109847023D01*
X168428095Y-109751785D01*
X104560666Y-91543142D02*
X104608285Y-91590761D01*
X104751142Y-91638380D01*
X104846380Y-91638380D01*
X104989238Y-91590761D01*
X105084476Y-91495523D01*
X105132095Y-91400285D01*
X105179714Y-91209809D01*
X105179714Y-91066952D01*
X105132095Y-90876476D01*
X105084476Y-90781238D01*
X104989238Y-90686000D01*
X104846380Y-90638380D01*
X104751142Y-90638380D01*
X104608285Y-90686000D01*
X104560666Y-90733619D01*
X103989238Y-91066952D02*
X104084476Y-91019333D01*
X104132095Y-90971714D01*
X104179714Y-90876476D01*
X104179714Y-90828857D01*
X104132095Y-90733619D01*
X104084476Y-90686000D01*
X103989238Y-90638380D01*
X103798761Y-90638380D01*
X103703523Y-90686000D01*
X103655904Y-90733619D01*
X103608285Y-90828857D01*
X103608285Y-90876476D01*
X103655904Y-90971714D01*
X103703523Y-91019333D01*
X103798761Y-91066952D01*
X103989238Y-91066952D01*
X104084476Y-91114571D01*
X104132095Y-91162190D01*
X104179714Y-91257428D01*
X104179714Y-91447904D01*
X104132095Y-91543142D01*
X104084476Y-91590761D01*
X103989238Y-91638380D01*
X103798761Y-91638380D01*
X103703523Y-91590761D01*
X103655904Y-91543142D01*
X103608285Y-91447904D01*
X103608285Y-91257428D01*
X103655904Y-91162190D01*
X103703523Y-91114571D01*
X103798761Y-91066952D01*
X97034642Y-88733333D02*
X97082261Y-88685714D01*
X97129880Y-88542857D01*
X97129880Y-88447619D01*
X97082261Y-88304761D01*
X96987023Y-88209523D01*
X96891785Y-88161904D01*
X96701309Y-88114285D01*
X96558452Y-88114285D01*
X96367976Y-88161904D01*
X96272738Y-88209523D01*
X96177500Y-88304761D01*
X96129880Y-88447619D01*
X96129880Y-88542857D01*
X96177500Y-88685714D01*
X96225119Y-88733333D01*
X96129880Y-89066666D02*
X96129880Y-89733333D01*
X97129880Y-89304761D01*
X138596666Y-57761142D02*
X138644285Y-57808761D01*
X138787142Y-57856380D01*
X138882380Y-57856380D01*
X139025238Y-57808761D01*
X139120476Y-57713523D01*
X139168095Y-57618285D01*
X139215714Y-57427809D01*
X139215714Y-57284952D01*
X139168095Y-57094476D01*
X139120476Y-56999238D01*
X139025238Y-56904000D01*
X138882380Y-56856380D01*
X138787142Y-56856380D01*
X138644285Y-56904000D01*
X138596666Y-56951619D01*
X137739523Y-56856380D02*
X137930000Y-56856380D01*
X138025238Y-56904000D01*
X138072857Y-56951619D01*
X138168095Y-57094476D01*
X138215714Y-57284952D01*
X138215714Y-57665904D01*
X138168095Y-57761142D01*
X138120476Y-57808761D01*
X138025238Y-57856380D01*
X137834761Y-57856380D01*
X137739523Y-57808761D01*
X137691904Y-57761142D01*
X137644285Y-57665904D01*
X137644285Y-57427809D01*
X137691904Y-57332571D01*
X137739523Y-57284952D01*
X137834761Y-57237333D01*
X138025238Y-57237333D01*
X138120476Y-57284952D01*
X138168095Y-57332571D01*
X138215714Y-57427809D01*
X107100666Y-91543142D02*
X107148285Y-91590761D01*
X107291142Y-91638380D01*
X107386380Y-91638380D01*
X107529238Y-91590761D01*
X107624476Y-91495523D01*
X107672095Y-91400285D01*
X107719714Y-91209809D01*
X107719714Y-91066952D01*
X107672095Y-90876476D01*
X107624476Y-90781238D01*
X107529238Y-90686000D01*
X107386380Y-90638380D01*
X107291142Y-90638380D01*
X107148285Y-90686000D01*
X107100666Y-90733619D01*
X106195904Y-90638380D02*
X106672095Y-90638380D01*
X106719714Y-91114571D01*
X106672095Y-91066952D01*
X106576857Y-91019333D01*
X106338761Y-91019333D01*
X106243523Y-91066952D01*
X106195904Y-91114571D01*
X106148285Y-91209809D01*
X106148285Y-91447904D01*
X106195904Y-91543142D01*
X106243523Y-91590761D01*
X106338761Y-91638380D01*
X106576857Y-91638380D01*
X106672095Y-91590761D01*
X106719714Y-91543142D01*
X126562142Y-86193333D02*
X126609761Y-86145714D01*
X126657380Y-86002857D01*
X126657380Y-85907619D01*
X126609761Y-85764761D01*
X126514523Y-85669523D01*
X126419285Y-85621904D01*
X126228809Y-85574285D01*
X126085952Y-85574285D01*
X125895476Y-85621904D01*
X125800238Y-85669523D01*
X125705000Y-85764761D01*
X125657380Y-85907619D01*
X125657380Y-86002857D01*
X125705000Y-86145714D01*
X125752619Y-86193333D01*
X125990714Y-87050476D02*
X126657380Y-87050476D01*
X125609761Y-86812380D02*
X126324047Y-86574285D01*
X126324047Y-87193333D01*
X126849142Y-69429333D02*
X126896761Y-69381714D01*
X126944380Y-69238857D01*
X126944380Y-69143619D01*
X126896761Y-69000761D01*
X126801523Y-68905523D01*
X126706285Y-68857904D01*
X126515809Y-68810285D01*
X126372952Y-68810285D01*
X126182476Y-68857904D01*
X126087238Y-68905523D01*
X125992000Y-69000761D01*
X125944380Y-69143619D01*
X125944380Y-69238857D01*
X125992000Y-69381714D01*
X126039619Y-69429333D01*
X125944380Y-69762666D02*
X125944380Y-70381714D01*
X126325333Y-70048380D01*
X126325333Y-70191238D01*
X126372952Y-70286476D01*
X126420571Y-70334095D01*
X126515809Y-70381714D01*
X126753904Y-70381714D01*
X126849142Y-70334095D01*
X126896761Y-70286476D01*
X126944380Y-70191238D01*
X126944380Y-69905523D01*
X126896761Y-69810285D01*
X126849142Y-69762666D01*
X125071142Y-69429333D02*
X125118761Y-69381714D01*
X125166380Y-69238857D01*
X125166380Y-69143619D01*
X125118761Y-69000761D01*
X125023523Y-68905523D01*
X124928285Y-68857904D01*
X124737809Y-68810285D01*
X124594952Y-68810285D01*
X124404476Y-68857904D01*
X124309238Y-68905523D01*
X124214000Y-69000761D01*
X124166380Y-69143619D01*
X124166380Y-69238857D01*
X124214000Y-69381714D01*
X124261619Y-69429333D01*
X124261619Y-69810285D02*
X124214000Y-69857904D01*
X124166380Y-69953142D01*
X124166380Y-70191238D01*
X124214000Y-70286476D01*
X124261619Y-70334095D01*
X124356857Y-70381714D01*
X124452095Y-70381714D01*
X124594952Y-70334095D01*
X125166380Y-69762666D01*
X125166380Y-70381714D01*
X97956666Y-85924642D02*
X98004285Y-85972261D01*
X98147142Y-86019880D01*
X98242380Y-86019880D01*
X98385238Y-85972261D01*
X98480476Y-85877023D01*
X98528095Y-85781785D01*
X98575714Y-85591309D01*
X98575714Y-85448452D01*
X98528095Y-85257976D01*
X98480476Y-85162738D01*
X98385238Y-85067500D01*
X98242380Y-85019880D01*
X98147142Y-85019880D01*
X98004285Y-85067500D01*
X97956666Y-85115119D01*
X97004285Y-86019880D02*
X97575714Y-86019880D01*
X97290000Y-86019880D02*
X97290000Y-85019880D01*
X97385238Y-85162738D01*
X97480476Y-85257976D01*
X97575714Y-85305595D01*
%LPC*%
D14*
G36*
X167005000Y-121920000D02*
G01*
X100330000Y-121920000D01*
X167005000Y-55562500D01*
X167005000Y-121920000D01*
G37*
X167005000Y-121920000D02*
X100330000Y-121920000D01*
X167005000Y-55562500D01*
X167005000Y-121920000D01*
D15*
X119040000Y-56515000D03*
X127340000Y-56515000D03*
D14*
G36*
X134405691Y-62340176D02*
G01*
X134429401Y-62343693D01*
X134452652Y-62349517D01*
X134475220Y-62357592D01*
X134496889Y-62367841D01*
X134517448Y-62380164D01*
X134536701Y-62394442D01*
X134554461Y-62410539D01*
X134570558Y-62428299D01*
X134584836Y-62447552D01*
X134597159Y-62468111D01*
X134607408Y-62489780D01*
X134615483Y-62512348D01*
X134621307Y-62535599D01*
X134624824Y-62559309D01*
X134626000Y-62583250D01*
X134626000Y-63146750D01*
X134624824Y-63170691D01*
X134621307Y-63194401D01*
X134615483Y-63217652D01*
X134607408Y-63240220D01*
X134597159Y-63261889D01*
X134584836Y-63282448D01*
X134570558Y-63301701D01*
X134554461Y-63319461D01*
X134536701Y-63335558D01*
X134517448Y-63349836D01*
X134496889Y-63362159D01*
X134475220Y-63372408D01*
X134452652Y-63380483D01*
X134429401Y-63386307D01*
X134405691Y-63389824D01*
X134381750Y-63391000D01*
X133893250Y-63391000D01*
X133869309Y-63389824D01*
X133845599Y-63386307D01*
X133822348Y-63380483D01*
X133799780Y-63372408D01*
X133778111Y-63362159D01*
X133757552Y-63349836D01*
X133738299Y-63335558D01*
X133720539Y-63319461D01*
X133704442Y-63301701D01*
X133690164Y-63282448D01*
X133677841Y-63261889D01*
X133667592Y-63240220D01*
X133659517Y-63217652D01*
X133653693Y-63194401D01*
X133650176Y-63170691D01*
X133649000Y-63146750D01*
X133649000Y-62583250D01*
X133650176Y-62559309D01*
X133653693Y-62535599D01*
X133659517Y-62512348D01*
X133667592Y-62489780D01*
X133677841Y-62468111D01*
X133690164Y-62447552D01*
X133704442Y-62428299D01*
X133720539Y-62410539D01*
X133738299Y-62394442D01*
X133757552Y-62380164D01*
X133778111Y-62367841D01*
X133799780Y-62357592D01*
X133822348Y-62349517D01*
X133845599Y-62343693D01*
X133869309Y-62340176D01*
X133893250Y-62339000D01*
X134381750Y-62339000D01*
X134405691Y-62340176D01*
X134405691Y-62340176D01*
G37*
D16*
X134137500Y-62865000D03*
D14*
G36*
X132830691Y-62340176D02*
G01*
X132854401Y-62343693D01*
X132877652Y-62349517D01*
X132900220Y-62357592D01*
X132921889Y-62367841D01*
X132942448Y-62380164D01*
X132961701Y-62394442D01*
X132979461Y-62410539D01*
X132995558Y-62428299D01*
X133009836Y-62447552D01*
X133022159Y-62468111D01*
X133032408Y-62489780D01*
X133040483Y-62512348D01*
X133046307Y-62535599D01*
X133049824Y-62559309D01*
X133051000Y-62583250D01*
X133051000Y-63146750D01*
X133049824Y-63170691D01*
X133046307Y-63194401D01*
X133040483Y-63217652D01*
X133032408Y-63240220D01*
X133022159Y-63261889D01*
X133009836Y-63282448D01*
X132995558Y-63301701D01*
X132979461Y-63319461D01*
X132961701Y-63335558D01*
X132942448Y-63349836D01*
X132921889Y-63362159D01*
X132900220Y-63372408D01*
X132877652Y-63380483D01*
X132854401Y-63386307D01*
X132830691Y-63389824D01*
X132806750Y-63391000D01*
X132318250Y-63391000D01*
X132294309Y-63389824D01*
X132270599Y-63386307D01*
X132247348Y-63380483D01*
X132224780Y-63372408D01*
X132203111Y-63362159D01*
X132182552Y-63349836D01*
X132163299Y-63335558D01*
X132145539Y-63319461D01*
X132129442Y-63301701D01*
X132115164Y-63282448D01*
X132102841Y-63261889D01*
X132092592Y-63240220D01*
X132084517Y-63217652D01*
X132078693Y-63194401D01*
X132075176Y-63170691D01*
X132074000Y-63146750D01*
X132074000Y-62583250D01*
X132075176Y-62559309D01*
X132078693Y-62535599D01*
X132084517Y-62512348D01*
X132092592Y-62489780D01*
X132102841Y-62468111D01*
X132115164Y-62447552D01*
X132129442Y-62428299D01*
X132145539Y-62410539D01*
X132163299Y-62394442D01*
X132182552Y-62380164D01*
X132203111Y-62367841D01*
X132224780Y-62357592D01*
X132247348Y-62349517D01*
X132270599Y-62343693D01*
X132294309Y-62340176D01*
X132318250Y-62339000D01*
X132806750Y-62339000D01*
X132830691Y-62340176D01*
X132830691Y-62340176D01*
G37*
D16*
X132562500Y-62865000D03*
D17*
X115023996Y-66029393D03*
D14*
G36*
X113484625Y-65269253D02*
G01*
X114263856Y-64490022D01*
X116563367Y-66789533D01*
X115784136Y-67568764D01*
X113484625Y-65269253D01*
X113484625Y-65269253D01*
G37*
D17*
X111453107Y-62458504D03*
D14*
G36*
X109913736Y-61698364D02*
G01*
X110692967Y-60919133D01*
X112992478Y-63218644D01*
X112213247Y-63997875D01*
X109913736Y-61698364D01*
X109913736Y-61698364D01*
G37*
D17*
X113227945Y-67825445D03*
D14*
G36*
X111688574Y-67065305D02*
G01*
X112467805Y-66286074D01*
X114767316Y-68585585D01*
X113988085Y-69364816D01*
X111688574Y-67065305D01*
X111688574Y-67065305D01*
G37*
D17*
X109657055Y-64254555D03*
D14*
G36*
X108117684Y-63494415D02*
G01*
X108896915Y-62715184D01*
X111196426Y-65014695D01*
X110417195Y-65793926D01*
X108117684Y-63494415D01*
X108117684Y-63494415D01*
G37*
D17*
X111431893Y-69621496D03*
D14*
G36*
X109892522Y-68861356D02*
G01*
X110671753Y-68082125D01*
X112971264Y-70381636D01*
X112192033Y-71160867D01*
X109892522Y-68861356D01*
X109892522Y-68861356D01*
G37*
D17*
X107861004Y-66050607D03*
D14*
G36*
X106321633Y-65290467D02*
G01*
X107100864Y-64511236D01*
X109400375Y-66810747D01*
X108621144Y-67589978D01*
X106321633Y-65290467D01*
X106321633Y-65290467D01*
G37*
D18*
X102382500Y-89850000D03*
X102382500Y-87950000D03*
X100182500Y-87950000D03*
X100182500Y-88900000D03*
X100182500Y-89850000D03*
X132250000Y-59690000D03*
X132250000Y-58740000D03*
X132250000Y-60640000D03*
X134450000Y-60640000D03*
X134450000Y-59690000D03*
X134450000Y-58740000D03*
D14*
G36*
X109412702Y-91649845D02*
G01*
X109429738Y-91652372D01*
X109446445Y-91656557D01*
X109462661Y-91662359D01*
X109478230Y-91669723D01*
X109493003Y-91678577D01*
X109506836Y-91688837D01*
X109519597Y-91700403D01*
X109531163Y-91713164D01*
X109541423Y-91726997D01*
X109550277Y-91741770D01*
X109557641Y-91757339D01*
X109563443Y-91773555D01*
X109567628Y-91790262D01*
X109570155Y-91807298D01*
X109571000Y-91824500D01*
X109571000Y-93175500D01*
X109570155Y-93192702D01*
X109567628Y-93209738D01*
X109563443Y-93226445D01*
X109557641Y-93242661D01*
X109550277Y-93258230D01*
X109541423Y-93273003D01*
X109531163Y-93286836D01*
X109519597Y-93299597D01*
X109506836Y-93311163D01*
X109493003Y-93321423D01*
X109478230Y-93330277D01*
X109462661Y-93337641D01*
X109446445Y-93343443D01*
X109429738Y-93347628D01*
X109412702Y-93350155D01*
X109395500Y-93351000D01*
X109044500Y-93351000D01*
X109027298Y-93350155D01*
X109010262Y-93347628D01*
X108993555Y-93343443D01*
X108977339Y-93337641D01*
X108961770Y-93330277D01*
X108946997Y-93321423D01*
X108933164Y-93311163D01*
X108920403Y-93299597D01*
X108908837Y-93286836D01*
X108898577Y-93273003D01*
X108889723Y-93258230D01*
X108882359Y-93242661D01*
X108876557Y-93226445D01*
X108872372Y-93209738D01*
X108869845Y-93192702D01*
X108869000Y-93175500D01*
X108869000Y-91824500D01*
X108869845Y-91807298D01*
X108872372Y-91790262D01*
X108876557Y-91773555D01*
X108882359Y-91757339D01*
X108889723Y-91741770D01*
X108898577Y-91726997D01*
X108908837Y-91713164D01*
X108920403Y-91700403D01*
X108933164Y-91688837D01*
X108946997Y-91678577D01*
X108961770Y-91669723D01*
X108977339Y-91662359D01*
X108993555Y-91656557D01*
X109010262Y-91652372D01*
X109027298Y-91649845D01*
X109044500Y-91649000D01*
X109395500Y-91649000D01*
X109412702Y-91649845D01*
X109412702Y-91649845D01*
G37*
D19*
X109220000Y-92500000D03*
D14*
G36*
X110682702Y-91649845D02*
G01*
X110699738Y-91652372D01*
X110716445Y-91656557D01*
X110732661Y-91662359D01*
X110748230Y-91669723D01*
X110763003Y-91678577D01*
X110776836Y-91688837D01*
X110789597Y-91700403D01*
X110801163Y-91713164D01*
X110811423Y-91726997D01*
X110820277Y-91741770D01*
X110827641Y-91757339D01*
X110833443Y-91773555D01*
X110837628Y-91790262D01*
X110840155Y-91807298D01*
X110841000Y-91824500D01*
X110841000Y-93175500D01*
X110840155Y-93192702D01*
X110837628Y-93209738D01*
X110833443Y-93226445D01*
X110827641Y-93242661D01*
X110820277Y-93258230D01*
X110811423Y-93273003D01*
X110801163Y-93286836D01*
X110789597Y-93299597D01*
X110776836Y-93311163D01*
X110763003Y-93321423D01*
X110748230Y-93330277D01*
X110732661Y-93337641D01*
X110716445Y-93343443D01*
X110699738Y-93347628D01*
X110682702Y-93350155D01*
X110665500Y-93351000D01*
X110314500Y-93351000D01*
X110297298Y-93350155D01*
X110280262Y-93347628D01*
X110263555Y-93343443D01*
X110247339Y-93337641D01*
X110231770Y-93330277D01*
X110216997Y-93321423D01*
X110203164Y-93311163D01*
X110190403Y-93299597D01*
X110178837Y-93286836D01*
X110168577Y-93273003D01*
X110159723Y-93258230D01*
X110152359Y-93242661D01*
X110146557Y-93226445D01*
X110142372Y-93209738D01*
X110139845Y-93192702D01*
X110139000Y-93175500D01*
X110139000Y-91824500D01*
X110139845Y-91807298D01*
X110142372Y-91790262D01*
X110146557Y-91773555D01*
X110152359Y-91757339D01*
X110159723Y-91741770D01*
X110168577Y-91726997D01*
X110178837Y-91713164D01*
X110190403Y-91700403D01*
X110203164Y-91688837D01*
X110216997Y-91678577D01*
X110231770Y-91669723D01*
X110247339Y-91662359D01*
X110263555Y-91656557D01*
X110280262Y-91652372D01*
X110297298Y-91649845D01*
X110314500Y-91649000D01*
X110665500Y-91649000D01*
X110682702Y-91649845D01*
X110682702Y-91649845D01*
G37*
D19*
X110490000Y-92500000D03*
D14*
G36*
X111952702Y-91649845D02*
G01*
X111969738Y-91652372D01*
X111986445Y-91656557D01*
X112002661Y-91662359D01*
X112018230Y-91669723D01*
X112033003Y-91678577D01*
X112046836Y-91688837D01*
X112059597Y-91700403D01*
X112071163Y-91713164D01*
X112081423Y-91726997D01*
X112090277Y-91741770D01*
X112097641Y-91757339D01*
X112103443Y-91773555D01*
X112107628Y-91790262D01*
X112110155Y-91807298D01*
X112111000Y-91824500D01*
X112111000Y-93175500D01*
X112110155Y-93192702D01*
X112107628Y-93209738D01*
X112103443Y-93226445D01*
X112097641Y-93242661D01*
X112090277Y-93258230D01*
X112081423Y-93273003D01*
X112071163Y-93286836D01*
X112059597Y-93299597D01*
X112046836Y-93311163D01*
X112033003Y-93321423D01*
X112018230Y-93330277D01*
X112002661Y-93337641D01*
X111986445Y-93343443D01*
X111969738Y-93347628D01*
X111952702Y-93350155D01*
X111935500Y-93351000D01*
X111584500Y-93351000D01*
X111567298Y-93350155D01*
X111550262Y-93347628D01*
X111533555Y-93343443D01*
X111517339Y-93337641D01*
X111501770Y-93330277D01*
X111486997Y-93321423D01*
X111473164Y-93311163D01*
X111460403Y-93299597D01*
X111448837Y-93286836D01*
X111438577Y-93273003D01*
X111429723Y-93258230D01*
X111422359Y-93242661D01*
X111416557Y-93226445D01*
X111412372Y-93209738D01*
X111409845Y-93192702D01*
X111409000Y-93175500D01*
X111409000Y-91824500D01*
X111409845Y-91807298D01*
X111412372Y-91790262D01*
X111416557Y-91773555D01*
X111422359Y-91757339D01*
X111429723Y-91741770D01*
X111438577Y-91726997D01*
X111448837Y-91713164D01*
X111460403Y-91700403D01*
X111473164Y-91688837D01*
X111486997Y-91678577D01*
X111501770Y-91669723D01*
X111517339Y-91662359D01*
X111533555Y-91656557D01*
X111550262Y-91652372D01*
X111567298Y-91649845D01*
X111584500Y-91649000D01*
X111935500Y-91649000D01*
X111952702Y-91649845D01*
X111952702Y-91649845D01*
G37*
D19*
X111760000Y-92500000D03*
D14*
G36*
X113222702Y-91649845D02*
G01*
X113239738Y-91652372D01*
X113256445Y-91656557D01*
X113272661Y-91662359D01*
X113288230Y-91669723D01*
X113303003Y-91678577D01*
X113316836Y-91688837D01*
X113329597Y-91700403D01*
X113341163Y-91713164D01*
X113351423Y-91726997D01*
X113360277Y-91741770D01*
X113367641Y-91757339D01*
X113373443Y-91773555D01*
X113377628Y-91790262D01*
X113380155Y-91807298D01*
X113381000Y-91824500D01*
X113381000Y-93175500D01*
X113380155Y-93192702D01*
X113377628Y-93209738D01*
X113373443Y-93226445D01*
X113367641Y-93242661D01*
X113360277Y-93258230D01*
X113351423Y-93273003D01*
X113341163Y-93286836D01*
X113329597Y-93299597D01*
X113316836Y-93311163D01*
X113303003Y-93321423D01*
X113288230Y-93330277D01*
X113272661Y-93337641D01*
X113256445Y-93343443D01*
X113239738Y-93347628D01*
X113222702Y-93350155D01*
X113205500Y-93351000D01*
X112854500Y-93351000D01*
X112837298Y-93350155D01*
X112820262Y-93347628D01*
X112803555Y-93343443D01*
X112787339Y-93337641D01*
X112771770Y-93330277D01*
X112756997Y-93321423D01*
X112743164Y-93311163D01*
X112730403Y-93299597D01*
X112718837Y-93286836D01*
X112708577Y-93273003D01*
X112699723Y-93258230D01*
X112692359Y-93242661D01*
X112686557Y-93226445D01*
X112682372Y-93209738D01*
X112679845Y-93192702D01*
X112679000Y-93175500D01*
X112679000Y-91824500D01*
X112679845Y-91807298D01*
X112682372Y-91790262D01*
X112686557Y-91773555D01*
X112692359Y-91757339D01*
X112699723Y-91741770D01*
X112708577Y-91726997D01*
X112718837Y-91713164D01*
X112730403Y-91700403D01*
X112743164Y-91688837D01*
X112756997Y-91678577D01*
X112771770Y-91669723D01*
X112787339Y-91662359D01*
X112803555Y-91656557D01*
X112820262Y-91652372D01*
X112837298Y-91649845D01*
X112854500Y-91649000D01*
X113205500Y-91649000D01*
X113222702Y-91649845D01*
X113222702Y-91649845D01*
G37*
D19*
X113030000Y-92500000D03*
D14*
G36*
X113222702Y-84449845D02*
G01*
X113239738Y-84452372D01*
X113256445Y-84456557D01*
X113272661Y-84462359D01*
X113288230Y-84469723D01*
X113303003Y-84478577D01*
X113316836Y-84488837D01*
X113329597Y-84500403D01*
X113341163Y-84513164D01*
X113351423Y-84526997D01*
X113360277Y-84541770D01*
X113367641Y-84557339D01*
X113373443Y-84573555D01*
X113377628Y-84590262D01*
X113380155Y-84607298D01*
X113381000Y-84624500D01*
X113381000Y-85975500D01*
X113380155Y-85992702D01*
X113377628Y-86009738D01*
X113373443Y-86026445D01*
X113367641Y-86042661D01*
X113360277Y-86058230D01*
X113351423Y-86073003D01*
X113341163Y-86086836D01*
X113329597Y-86099597D01*
X113316836Y-86111163D01*
X113303003Y-86121423D01*
X113288230Y-86130277D01*
X113272661Y-86137641D01*
X113256445Y-86143443D01*
X113239738Y-86147628D01*
X113222702Y-86150155D01*
X113205500Y-86151000D01*
X112854500Y-86151000D01*
X112837298Y-86150155D01*
X112820262Y-86147628D01*
X112803555Y-86143443D01*
X112787339Y-86137641D01*
X112771770Y-86130277D01*
X112756997Y-86121423D01*
X112743164Y-86111163D01*
X112730403Y-86099597D01*
X112718837Y-86086836D01*
X112708577Y-86073003D01*
X112699723Y-86058230D01*
X112692359Y-86042661D01*
X112686557Y-86026445D01*
X112682372Y-86009738D01*
X112679845Y-85992702D01*
X112679000Y-85975500D01*
X112679000Y-84624500D01*
X112679845Y-84607298D01*
X112682372Y-84590262D01*
X112686557Y-84573555D01*
X112692359Y-84557339D01*
X112699723Y-84541770D01*
X112708577Y-84526997D01*
X112718837Y-84513164D01*
X112730403Y-84500403D01*
X112743164Y-84488837D01*
X112756997Y-84478577D01*
X112771770Y-84469723D01*
X112787339Y-84462359D01*
X112803555Y-84456557D01*
X112820262Y-84452372D01*
X112837298Y-84449845D01*
X112854500Y-84449000D01*
X113205500Y-84449000D01*
X113222702Y-84449845D01*
X113222702Y-84449845D01*
G37*
D19*
X113030000Y-85300000D03*
D14*
G36*
X111952702Y-84449845D02*
G01*
X111969738Y-84452372D01*
X111986445Y-84456557D01*
X112002661Y-84462359D01*
X112018230Y-84469723D01*
X112033003Y-84478577D01*
X112046836Y-84488837D01*
X112059597Y-84500403D01*
X112071163Y-84513164D01*
X112081423Y-84526997D01*
X112090277Y-84541770D01*
X112097641Y-84557339D01*
X112103443Y-84573555D01*
X112107628Y-84590262D01*
X112110155Y-84607298D01*
X112111000Y-84624500D01*
X112111000Y-85975500D01*
X112110155Y-85992702D01*
X112107628Y-86009738D01*
X112103443Y-86026445D01*
X112097641Y-86042661D01*
X112090277Y-86058230D01*
X112081423Y-86073003D01*
X112071163Y-86086836D01*
X112059597Y-86099597D01*
X112046836Y-86111163D01*
X112033003Y-86121423D01*
X112018230Y-86130277D01*
X112002661Y-86137641D01*
X111986445Y-86143443D01*
X111969738Y-86147628D01*
X111952702Y-86150155D01*
X111935500Y-86151000D01*
X111584500Y-86151000D01*
X111567298Y-86150155D01*
X111550262Y-86147628D01*
X111533555Y-86143443D01*
X111517339Y-86137641D01*
X111501770Y-86130277D01*
X111486997Y-86121423D01*
X111473164Y-86111163D01*
X111460403Y-86099597D01*
X111448837Y-86086836D01*
X111438577Y-86073003D01*
X111429723Y-86058230D01*
X111422359Y-86042661D01*
X111416557Y-86026445D01*
X111412372Y-86009738D01*
X111409845Y-85992702D01*
X111409000Y-85975500D01*
X111409000Y-84624500D01*
X111409845Y-84607298D01*
X111412372Y-84590262D01*
X111416557Y-84573555D01*
X111422359Y-84557339D01*
X111429723Y-84541770D01*
X111438577Y-84526997D01*
X111448837Y-84513164D01*
X111460403Y-84500403D01*
X111473164Y-84488837D01*
X111486997Y-84478577D01*
X111501770Y-84469723D01*
X111517339Y-84462359D01*
X111533555Y-84456557D01*
X111550262Y-84452372D01*
X111567298Y-84449845D01*
X111584500Y-84449000D01*
X111935500Y-84449000D01*
X111952702Y-84449845D01*
X111952702Y-84449845D01*
G37*
D19*
X111760000Y-85300000D03*
D14*
G36*
X110682702Y-84449845D02*
G01*
X110699738Y-84452372D01*
X110716445Y-84456557D01*
X110732661Y-84462359D01*
X110748230Y-84469723D01*
X110763003Y-84478577D01*
X110776836Y-84488837D01*
X110789597Y-84500403D01*
X110801163Y-84513164D01*
X110811423Y-84526997D01*
X110820277Y-84541770D01*
X110827641Y-84557339D01*
X110833443Y-84573555D01*
X110837628Y-84590262D01*
X110840155Y-84607298D01*
X110841000Y-84624500D01*
X110841000Y-85975500D01*
X110840155Y-85992702D01*
X110837628Y-86009738D01*
X110833443Y-86026445D01*
X110827641Y-86042661D01*
X110820277Y-86058230D01*
X110811423Y-86073003D01*
X110801163Y-86086836D01*
X110789597Y-86099597D01*
X110776836Y-86111163D01*
X110763003Y-86121423D01*
X110748230Y-86130277D01*
X110732661Y-86137641D01*
X110716445Y-86143443D01*
X110699738Y-86147628D01*
X110682702Y-86150155D01*
X110665500Y-86151000D01*
X110314500Y-86151000D01*
X110297298Y-86150155D01*
X110280262Y-86147628D01*
X110263555Y-86143443D01*
X110247339Y-86137641D01*
X110231770Y-86130277D01*
X110216997Y-86121423D01*
X110203164Y-86111163D01*
X110190403Y-86099597D01*
X110178837Y-86086836D01*
X110168577Y-86073003D01*
X110159723Y-86058230D01*
X110152359Y-86042661D01*
X110146557Y-86026445D01*
X110142372Y-86009738D01*
X110139845Y-85992702D01*
X110139000Y-85975500D01*
X110139000Y-84624500D01*
X110139845Y-84607298D01*
X110142372Y-84590262D01*
X110146557Y-84573555D01*
X110152359Y-84557339D01*
X110159723Y-84541770D01*
X110168577Y-84526997D01*
X110178837Y-84513164D01*
X110190403Y-84500403D01*
X110203164Y-84488837D01*
X110216997Y-84478577D01*
X110231770Y-84469723D01*
X110247339Y-84462359D01*
X110263555Y-84456557D01*
X110280262Y-84452372D01*
X110297298Y-84449845D01*
X110314500Y-84449000D01*
X110665500Y-84449000D01*
X110682702Y-84449845D01*
X110682702Y-84449845D01*
G37*
D19*
X110490000Y-85300000D03*
D14*
G36*
X109412702Y-84449845D02*
G01*
X109429738Y-84452372D01*
X109446445Y-84456557D01*
X109462661Y-84462359D01*
X109478230Y-84469723D01*
X109493003Y-84478577D01*
X109506836Y-84488837D01*
X109519597Y-84500403D01*
X109531163Y-84513164D01*
X109541423Y-84526997D01*
X109550277Y-84541770D01*
X109557641Y-84557339D01*
X109563443Y-84573555D01*
X109567628Y-84590262D01*
X109570155Y-84607298D01*
X109571000Y-84624500D01*
X109571000Y-85975500D01*
X109570155Y-85992702D01*
X109567628Y-86009738D01*
X109563443Y-86026445D01*
X109557641Y-86042661D01*
X109550277Y-86058230D01*
X109541423Y-86073003D01*
X109531163Y-86086836D01*
X109519597Y-86099597D01*
X109506836Y-86111163D01*
X109493003Y-86121423D01*
X109478230Y-86130277D01*
X109462661Y-86137641D01*
X109446445Y-86143443D01*
X109429738Y-86147628D01*
X109412702Y-86150155D01*
X109395500Y-86151000D01*
X109044500Y-86151000D01*
X109027298Y-86150155D01*
X109010262Y-86147628D01*
X108993555Y-86143443D01*
X108977339Y-86137641D01*
X108961770Y-86130277D01*
X108946997Y-86121423D01*
X108933164Y-86111163D01*
X108920403Y-86099597D01*
X108908837Y-86086836D01*
X108898577Y-86073003D01*
X108889723Y-86058230D01*
X108882359Y-86042661D01*
X108876557Y-86026445D01*
X108872372Y-86009738D01*
X108869845Y-85992702D01*
X108869000Y-85975500D01*
X108869000Y-84624500D01*
X108869845Y-84607298D01*
X108872372Y-84590262D01*
X108876557Y-84573555D01*
X108882359Y-84557339D01*
X108889723Y-84541770D01*
X108898577Y-84526997D01*
X108908837Y-84513164D01*
X108920403Y-84500403D01*
X108933164Y-84488837D01*
X108946997Y-84478577D01*
X108961770Y-84469723D01*
X108977339Y-84462359D01*
X108993555Y-84456557D01*
X109010262Y-84452372D01*
X109027298Y-84449845D01*
X109044500Y-84449000D01*
X109395500Y-84449000D01*
X109412702Y-84449845D01*
X109412702Y-84449845D01*
G37*
D19*
X109220000Y-85300000D03*
D20*
X127577500Y-75125000D03*
X126777500Y-75125000D03*
X125977500Y-75125000D03*
X125177500Y-75125000D03*
X124377500Y-75125000D03*
X123577500Y-75125000D03*
X122777500Y-75125000D03*
X121977500Y-75125000D03*
D21*
X120527500Y-76575000D03*
X120527500Y-77375000D03*
X120527500Y-78175000D03*
X120527500Y-78975000D03*
X120527500Y-79775000D03*
X120527500Y-80575000D03*
X120527500Y-81375000D03*
X120527500Y-82175000D03*
D20*
X121977500Y-83625000D03*
X122777500Y-83625000D03*
X123577500Y-83625000D03*
X124377500Y-83625000D03*
X125177500Y-83625000D03*
X125977500Y-83625000D03*
X126777500Y-83625000D03*
X127577500Y-83625000D03*
D21*
X129027500Y-82175000D03*
X129027500Y-81375000D03*
X129027500Y-80575000D03*
X129027500Y-79775000D03*
X129027500Y-78975000D03*
X129027500Y-78175000D03*
X129027500Y-77375000D03*
X129027500Y-76575000D03*
D22*
X98107500Y-59600000D03*
X98107500Y-67400000D03*
X107225000Y-52705000D03*
X115025000Y-52705000D03*
D23*
X120232716Y-69314784D03*
D14*
G36*
X120232716Y-70447569D02*
G01*
X119099931Y-69314784D01*
X120232716Y-68181999D01*
X121365501Y-69314784D01*
X120232716Y-70447569D01*
X120232716Y-70447569D01*
G37*
D23*
X114717284Y-74830216D03*
D14*
G36*
X114717284Y-75963001D02*
G01*
X113584499Y-74830216D01*
X114717284Y-73697431D01*
X115850069Y-74830216D01*
X114717284Y-75963001D01*
X114717284Y-75963001D01*
G37*
G36*
X130480691Y-58415176D02*
G01*
X130504401Y-58418693D01*
X130527652Y-58424517D01*
X130550220Y-58432592D01*
X130571889Y-58442841D01*
X130592448Y-58455164D01*
X130611701Y-58469442D01*
X130629461Y-58485539D01*
X130645558Y-58503299D01*
X130659836Y-58522552D01*
X130672159Y-58543111D01*
X130682408Y-58564780D01*
X130690483Y-58587348D01*
X130696307Y-58610599D01*
X130699824Y-58634309D01*
X130701000Y-58658250D01*
X130701000Y-59146750D01*
X130699824Y-59170691D01*
X130696307Y-59194401D01*
X130690483Y-59217652D01*
X130682408Y-59240220D01*
X130672159Y-59261889D01*
X130659836Y-59282448D01*
X130645558Y-59301701D01*
X130629461Y-59319461D01*
X130611701Y-59335558D01*
X130592448Y-59349836D01*
X130571889Y-59362159D01*
X130550220Y-59372408D01*
X130527652Y-59380483D01*
X130504401Y-59386307D01*
X130480691Y-59389824D01*
X130456750Y-59391000D01*
X129893250Y-59391000D01*
X129869309Y-59389824D01*
X129845599Y-59386307D01*
X129822348Y-59380483D01*
X129799780Y-59372408D01*
X129778111Y-59362159D01*
X129757552Y-59349836D01*
X129738299Y-59335558D01*
X129720539Y-59319461D01*
X129704442Y-59301701D01*
X129690164Y-59282448D01*
X129677841Y-59261889D01*
X129667592Y-59240220D01*
X129659517Y-59217652D01*
X129653693Y-59194401D01*
X129650176Y-59170691D01*
X129649000Y-59146750D01*
X129649000Y-58658250D01*
X129650176Y-58634309D01*
X129653693Y-58610599D01*
X129659517Y-58587348D01*
X129667592Y-58564780D01*
X129677841Y-58543111D01*
X129690164Y-58522552D01*
X129704442Y-58503299D01*
X129720539Y-58485539D01*
X129738299Y-58469442D01*
X129757552Y-58455164D01*
X129778111Y-58442841D01*
X129799780Y-58432592D01*
X129822348Y-58424517D01*
X129845599Y-58418693D01*
X129869309Y-58415176D01*
X129893250Y-58414000D01*
X130456750Y-58414000D01*
X130480691Y-58415176D01*
X130480691Y-58415176D01*
G37*
D16*
X130175000Y-58902500D03*
D14*
G36*
X130480691Y-59990176D02*
G01*
X130504401Y-59993693D01*
X130527652Y-59999517D01*
X130550220Y-60007592D01*
X130571889Y-60017841D01*
X130592448Y-60030164D01*
X130611701Y-60044442D01*
X130629461Y-60060539D01*
X130645558Y-60078299D01*
X130659836Y-60097552D01*
X130672159Y-60118111D01*
X130682408Y-60139780D01*
X130690483Y-60162348D01*
X130696307Y-60185599D01*
X130699824Y-60209309D01*
X130701000Y-60233250D01*
X130701000Y-60721750D01*
X130699824Y-60745691D01*
X130696307Y-60769401D01*
X130690483Y-60792652D01*
X130682408Y-60815220D01*
X130672159Y-60836889D01*
X130659836Y-60857448D01*
X130645558Y-60876701D01*
X130629461Y-60894461D01*
X130611701Y-60910558D01*
X130592448Y-60924836D01*
X130571889Y-60937159D01*
X130550220Y-60947408D01*
X130527652Y-60955483D01*
X130504401Y-60961307D01*
X130480691Y-60964824D01*
X130456750Y-60966000D01*
X129893250Y-60966000D01*
X129869309Y-60964824D01*
X129845599Y-60961307D01*
X129822348Y-60955483D01*
X129799780Y-60947408D01*
X129778111Y-60937159D01*
X129757552Y-60924836D01*
X129738299Y-60910558D01*
X129720539Y-60894461D01*
X129704442Y-60876701D01*
X129690164Y-60857448D01*
X129677841Y-60836889D01*
X129667592Y-60815220D01*
X129659517Y-60792652D01*
X129653693Y-60769401D01*
X129650176Y-60745691D01*
X129649000Y-60721750D01*
X129649000Y-60233250D01*
X129650176Y-60209309D01*
X129653693Y-60185599D01*
X129659517Y-60162348D01*
X129667592Y-60139780D01*
X129677841Y-60118111D01*
X129690164Y-60097552D01*
X129704442Y-60078299D01*
X129720539Y-60060539D01*
X129738299Y-60044442D01*
X129757552Y-60030164D01*
X129778111Y-60017841D01*
X129799780Y-60007592D01*
X129822348Y-59999517D01*
X129845599Y-59993693D01*
X129869309Y-59990176D01*
X129893250Y-59989000D01*
X130456750Y-59989000D01*
X130480691Y-59990176D01*
X130480691Y-59990176D01*
G37*
D16*
X130175000Y-60477500D03*
D14*
G36*
X136830691Y-59990176D02*
G01*
X136854401Y-59993693D01*
X136877652Y-59999517D01*
X136900220Y-60007592D01*
X136921889Y-60017841D01*
X136942448Y-60030164D01*
X136961701Y-60044442D01*
X136979461Y-60060539D01*
X136995558Y-60078299D01*
X137009836Y-60097552D01*
X137022159Y-60118111D01*
X137032408Y-60139780D01*
X137040483Y-60162348D01*
X137046307Y-60185599D01*
X137049824Y-60209309D01*
X137051000Y-60233250D01*
X137051000Y-60721750D01*
X137049824Y-60745691D01*
X137046307Y-60769401D01*
X137040483Y-60792652D01*
X137032408Y-60815220D01*
X137022159Y-60836889D01*
X137009836Y-60857448D01*
X136995558Y-60876701D01*
X136979461Y-60894461D01*
X136961701Y-60910558D01*
X136942448Y-60924836D01*
X136921889Y-60937159D01*
X136900220Y-60947408D01*
X136877652Y-60955483D01*
X136854401Y-60961307D01*
X136830691Y-60964824D01*
X136806750Y-60966000D01*
X136243250Y-60966000D01*
X136219309Y-60964824D01*
X136195599Y-60961307D01*
X136172348Y-60955483D01*
X136149780Y-60947408D01*
X136128111Y-60937159D01*
X136107552Y-60924836D01*
X136088299Y-60910558D01*
X136070539Y-60894461D01*
X136054442Y-60876701D01*
X136040164Y-60857448D01*
X136027841Y-60836889D01*
X136017592Y-60815220D01*
X136009517Y-60792652D01*
X136003693Y-60769401D01*
X136000176Y-60745691D01*
X135999000Y-60721750D01*
X135999000Y-60233250D01*
X136000176Y-60209309D01*
X136003693Y-60185599D01*
X136009517Y-60162348D01*
X136017592Y-60139780D01*
X136027841Y-60118111D01*
X136040164Y-60097552D01*
X136054442Y-60078299D01*
X136070539Y-60060539D01*
X136088299Y-60044442D01*
X136107552Y-60030164D01*
X136128111Y-60017841D01*
X136149780Y-60007592D01*
X136172348Y-59999517D01*
X136195599Y-59993693D01*
X136219309Y-59990176D01*
X136243250Y-59989000D01*
X136806750Y-59989000D01*
X136830691Y-59990176D01*
X136830691Y-59990176D01*
G37*
D16*
X136525000Y-60477500D03*
D14*
G36*
X136830691Y-58415176D02*
G01*
X136854401Y-58418693D01*
X136877652Y-58424517D01*
X136900220Y-58432592D01*
X136921889Y-58442841D01*
X136942448Y-58455164D01*
X136961701Y-58469442D01*
X136979461Y-58485539D01*
X136995558Y-58503299D01*
X137009836Y-58522552D01*
X137022159Y-58543111D01*
X137032408Y-58564780D01*
X137040483Y-58587348D01*
X137046307Y-58610599D01*
X137049824Y-58634309D01*
X137051000Y-58658250D01*
X137051000Y-59146750D01*
X137049824Y-59170691D01*
X137046307Y-59194401D01*
X137040483Y-59217652D01*
X137032408Y-59240220D01*
X137022159Y-59261889D01*
X137009836Y-59282448D01*
X136995558Y-59301701D01*
X136979461Y-59319461D01*
X136961701Y-59335558D01*
X136942448Y-59349836D01*
X136921889Y-59362159D01*
X136900220Y-59372408D01*
X136877652Y-59380483D01*
X136854401Y-59386307D01*
X136830691Y-59389824D01*
X136806750Y-59391000D01*
X136243250Y-59391000D01*
X136219309Y-59389824D01*
X136195599Y-59386307D01*
X136172348Y-59380483D01*
X136149780Y-59372408D01*
X136128111Y-59362159D01*
X136107552Y-59349836D01*
X136088299Y-59335558D01*
X136070539Y-59319461D01*
X136054442Y-59301701D01*
X136040164Y-59282448D01*
X136027841Y-59261889D01*
X136017592Y-59240220D01*
X136009517Y-59217652D01*
X136003693Y-59194401D01*
X136000176Y-59170691D01*
X135999000Y-59146750D01*
X135999000Y-58658250D01*
X136000176Y-58634309D01*
X136003693Y-58610599D01*
X136009517Y-58587348D01*
X136017592Y-58564780D01*
X136027841Y-58543111D01*
X136040164Y-58522552D01*
X136054442Y-58503299D01*
X136070539Y-58485539D01*
X136088299Y-58469442D01*
X136107552Y-58455164D01*
X136128111Y-58442841D01*
X136149780Y-58432592D01*
X136172348Y-58424517D01*
X136195599Y-58418693D01*
X136219309Y-58415176D01*
X136243250Y-58414000D01*
X136806750Y-58414000D01*
X136830691Y-58415176D01*
X136830691Y-58415176D01*
G37*
D16*
X136525000Y-58902500D03*
D14*
G36*
X115990691Y-80755176D02*
G01*
X116014401Y-80758693D01*
X116037652Y-80764517D01*
X116060220Y-80772592D01*
X116081889Y-80782841D01*
X116102448Y-80795164D01*
X116121701Y-80809442D01*
X116139461Y-80825539D01*
X116155558Y-80843299D01*
X116169836Y-80862552D01*
X116182159Y-80883111D01*
X116192408Y-80904780D01*
X116200483Y-80927348D01*
X116206307Y-80950599D01*
X116209824Y-80974309D01*
X116211000Y-80998250D01*
X116211000Y-81561750D01*
X116209824Y-81585691D01*
X116206307Y-81609401D01*
X116200483Y-81632652D01*
X116192408Y-81655220D01*
X116182159Y-81676889D01*
X116169836Y-81697448D01*
X116155558Y-81716701D01*
X116139461Y-81734461D01*
X116121701Y-81750558D01*
X116102448Y-81764836D01*
X116081889Y-81777159D01*
X116060220Y-81787408D01*
X116037652Y-81795483D01*
X116014401Y-81801307D01*
X115990691Y-81804824D01*
X115966750Y-81806000D01*
X115478250Y-81806000D01*
X115454309Y-81804824D01*
X115430599Y-81801307D01*
X115407348Y-81795483D01*
X115384780Y-81787408D01*
X115363111Y-81777159D01*
X115342552Y-81764836D01*
X115323299Y-81750558D01*
X115305539Y-81734461D01*
X115289442Y-81716701D01*
X115275164Y-81697448D01*
X115262841Y-81676889D01*
X115252592Y-81655220D01*
X115244517Y-81632652D01*
X115238693Y-81609401D01*
X115235176Y-81585691D01*
X115234000Y-81561750D01*
X115234000Y-80998250D01*
X115235176Y-80974309D01*
X115238693Y-80950599D01*
X115244517Y-80927348D01*
X115252592Y-80904780D01*
X115262841Y-80883111D01*
X115275164Y-80862552D01*
X115289442Y-80843299D01*
X115305539Y-80825539D01*
X115323299Y-80809442D01*
X115342552Y-80795164D01*
X115363111Y-80782841D01*
X115384780Y-80772592D01*
X115407348Y-80764517D01*
X115430599Y-80758693D01*
X115454309Y-80755176D01*
X115478250Y-80754000D01*
X115966750Y-80754000D01*
X115990691Y-80755176D01*
X115990691Y-80755176D01*
G37*
D16*
X115722500Y-81280000D03*
D14*
G36*
X114415691Y-80755176D02*
G01*
X114439401Y-80758693D01*
X114462652Y-80764517D01*
X114485220Y-80772592D01*
X114506889Y-80782841D01*
X114527448Y-80795164D01*
X114546701Y-80809442D01*
X114564461Y-80825539D01*
X114580558Y-80843299D01*
X114594836Y-80862552D01*
X114607159Y-80883111D01*
X114617408Y-80904780D01*
X114625483Y-80927348D01*
X114631307Y-80950599D01*
X114634824Y-80974309D01*
X114636000Y-80998250D01*
X114636000Y-81561750D01*
X114634824Y-81585691D01*
X114631307Y-81609401D01*
X114625483Y-81632652D01*
X114617408Y-81655220D01*
X114607159Y-81676889D01*
X114594836Y-81697448D01*
X114580558Y-81716701D01*
X114564461Y-81734461D01*
X114546701Y-81750558D01*
X114527448Y-81764836D01*
X114506889Y-81777159D01*
X114485220Y-81787408D01*
X114462652Y-81795483D01*
X114439401Y-81801307D01*
X114415691Y-81804824D01*
X114391750Y-81806000D01*
X113903250Y-81806000D01*
X113879309Y-81804824D01*
X113855599Y-81801307D01*
X113832348Y-81795483D01*
X113809780Y-81787408D01*
X113788111Y-81777159D01*
X113767552Y-81764836D01*
X113748299Y-81750558D01*
X113730539Y-81734461D01*
X113714442Y-81716701D01*
X113700164Y-81697448D01*
X113687841Y-81676889D01*
X113677592Y-81655220D01*
X113669517Y-81632652D01*
X113663693Y-81609401D01*
X113660176Y-81585691D01*
X113659000Y-81561750D01*
X113659000Y-80998250D01*
X113660176Y-80974309D01*
X113663693Y-80950599D01*
X113669517Y-80927348D01*
X113677592Y-80904780D01*
X113687841Y-80883111D01*
X113700164Y-80862552D01*
X113714442Y-80843299D01*
X113730539Y-80825539D01*
X113748299Y-80809442D01*
X113767552Y-80795164D01*
X113788111Y-80782841D01*
X113809780Y-80772592D01*
X113832348Y-80764517D01*
X113855599Y-80758693D01*
X113879309Y-80755176D01*
X113903250Y-80754000D01*
X114391750Y-80754000D01*
X114415691Y-80755176D01*
X114415691Y-80755176D01*
G37*
D16*
X114147500Y-81280000D03*
D14*
G36*
X115990691Y-82342676D02*
G01*
X116014401Y-82346193D01*
X116037652Y-82352017D01*
X116060220Y-82360092D01*
X116081889Y-82370341D01*
X116102448Y-82382664D01*
X116121701Y-82396942D01*
X116139461Y-82413039D01*
X116155558Y-82430799D01*
X116169836Y-82450052D01*
X116182159Y-82470611D01*
X116192408Y-82492280D01*
X116200483Y-82514848D01*
X116206307Y-82538099D01*
X116209824Y-82561809D01*
X116211000Y-82585750D01*
X116211000Y-83149250D01*
X116209824Y-83173191D01*
X116206307Y-83196901D01*
X116200483Y-83220152D01*
X116192408Y-83242720D01*
X116182159Y-83264389D01*
X116169836Y-83284948D01*
X116155558Y-83304201D01*
X116139461Y-83321961D01*
X116121701Y-83338058D01*
X116102448Y-83352336D01*
X116081889Y-83364659D01*
X116060220Y-83374908D01*
X116037652Y-83382983D01*
X116014401Y-83388807D01*
X115990691Y-83392324D01*
X115966750Y-83393500D01*
X115478250Y-83393500D01*
X115454309Y-83392324D01*
X115430599Y-83388807D01*
X115407348Y-83382983D01*
X115384780Y-83374908D01*
X115363111Y-83364659D01*
X115342552Y-83352336D01*
X115323299Y-83338058D01*
X115305539Y-83321961D01*
X115289442Y-83304201D01*
X115275164Y-83284948D01*
X115262841Y-83264389D01*
X115252592Y-83242720D01*
X115244517Y-83220152D01*
X115238693Y-83196901D01*
X115235176Y-83173191D01*
X115234000Y-83149250D01*
X115234000Y-82585750D01*
X115235176Y-82561809D01*
X115238693Y-82538099D01*
X115244517Y-82514848D01*
X115252592Y-82492280D01*
X115262841Y-82470611D01*
X115275164Y-82450052D01*
X115289442Y-82430799D01*
X115305539Y-82413039D01*
X115323299Y-82396942D01*
X115342552Y-82382664D01*
X115363111Y-82370341D01*
X115384780Y-82360092D01*
X115407348Y-82352017D01*
X115430599Y-82346193D01*
X115454309Y-82342676D01*
X115478250Y-82341500D01*
X115966750Y-82341500D01*
X115990691Y-82342676D01*
X115990691Y-82342676D01*
G37*
D16*
X115722500Y-82867500D03*
D14*
G36*
X114415691Y-82342676D02*
G01*
X114439401Y-82346193D01*
X114462652Y-82352017D01*
X114485220Y-82360092D01*
X114506889Y-82370341D01*
X114527448Y-82382664D01*
X114546701Y-82396942D01*
X114564461Y-82413039D01*
X114580558Y-82430799D01*
X114594836Y-82450052D01*
X114607159Y-82470611D01*
X114617408Y-82492280D01*
X114625483Y-82514848D01*
X114631307Y-82538099D01*
X114634824Y-82561809D01*
X114636000Y-82585750D01*
X114636000Y-83149250D01*
X114634824Y-83173191D01*
X114631307Y-83196901D01*
X114625483Y-83220152D01*
X114617408Y-83242720D01*
X114607159Y-83264389D01*
X114594836Y-83284948D01*
X114580558Y-83304201D01*
X114564461Y-83321961D01*
X114546701Y-83338058D01*
X114527448Y-83352336D01*
X114506889Y-83364659D01*
X114485220Y-83374908D01*
X114462652Y-83382983D01*
X114439401Y-83388807D01*
X114415691Y-83392324D01*
X114391750Y-83393500D01*
X113903250Y-83393500D01*
X113879309Y-83392324D01*
X113855599Y-83388807D01*
X113832348Y-83382983D01*
X113809780Y-83374908D01*
X113788111Y-83364659D01*
X113767552Y-83352336D01*
X113748299Y-83338058D01*
X113730539Y-83321961D01*
X113714442Y-83304201D01*
X113700164Y-83284948D01*
X113687841Y-83264389D01*
X113677592Y-83242720D01*
X113669517Y-83220152D01*
X113663693Y-83196901D01*
X113660176Y-83173191D01*
X113659000Y-83149250D01*
X113659000Y-82585750D01*
X113660176Y-82561809D01*
X113663693Y-82538099D01*
X113669517Y-82514848D01*
X113677592Y-82492280D01*
X113687841Y-82470611D01*
X113700164Y-82450052D01*
X113714442Y-82430799D01*
X113730539Y-82413039D01*
X113748299Y-82396942D01*
X113767552Y-82382664D01*
X113788111Y-82370341D01*
X113809780Y-82360092D01*
X113832348Y-82352017D01*
X113855599Y-82346193D01*
X113879309Y-82342676D01*
X113903250Y-82341500D01*
X114391750Y-82341500D01*
X114415691Y-82342676D01*
X114415691Y-82342676D01*
G37*
D16*
X114147500Y-82867500D03*
D14*
G36*
X115990691Y-79167676D02*
G01*
X116014401Y-79171193D01*
X116037652Y-79177017D01*
X116060220Y-79185092D01*
X116081889Y-79195341D01*
X116102448Y-79207664D01*
X116121701Y-79221942D01*
X116139461Y-79238039D01*
X116155558Y-79255799D01*
X116169836Y-79275052D01*
X116182159Y-79295611D01*
X116192408Y-79317280D01*
X116200483Y-79339848D01*
X116206307Y-79363099D01*
X116209824Y-79386809D01*
X116211000Y-79410750D01*
X116211000Y-79974250D01*
X116209824Y-79998191D01*
X116206307Y-80021901D01*
X116200483Y-80045152D01*
X116192408Y-80067720D01*
X116182159Y-80089389D01*
X116169836Y-80109948D01*
X116155558Y-80129201D01*
X116139461Y-80146961D01*
X116121701Y-80163058D01*
X116102448Y-80177336D01*
X116081889Y-80189659D01*
X116060220Y-80199908D01*
X116037652Y-80207983D01*
X116014401Y-80213807D01*
X115990691Y-80217324D01*
X115966750Y-80218500D01*
X115478250Y-80218500D01*
X115454309Y-80217324D01*
X115430599Y-80213807D01*
X115407348Y-80207983D01*
X115384780Y-80199908D01*
X115363111Y-80189659D01*
X115342552Y-80177336D01*
X115323299Y-80163058D01*
X115305539Y-80146961D01*
X115289442Y-80129201D01*
X115275164Y-80109948D01*
X115262841Y-80089389D01*
X115252592Y-80067720D01*
X115244517Y-80045152D01*
X115238693Y-80021901D01*
X115235176Y-79998191D01*
X115234000Y-79974250D01*
X115234000Y-79410750D01*
X115235176Y-79386809D01*
X115238693Y-79363099D01*
X115244517Y-79339848D01*
X115252592Y-79317280D01*
X115262841Y-79295611D01*
X115275164Y-79275052D01*
X115289442Y-79255799D01*
X115305539Y-79238039D01*
X115323299Y-79221942D01*
X115342552Y-79207664D01*
X115363111Y-79195341D01*
X115384780Y-79185092D01*
X115407348Y-79177017D01*
X115430599Y-79171193D01*
X115454309Y-79167676D01*
X115478250Y-79166500D01*
X115966750Y-79166500D01*
X115990691Y-79167676D01*
X115990691Y-79167676D01*
G37*
D16*
X115722500Y-79692500D03*
D14*
G36*
X114415691Y-79167676D02*
G01*
X114439401Y-79171193D01*
X114462652Y-79177017D01*
X114485220Y-79185092D01*
X114506889Y-79195341D01*
X114527448Y-79207664D01*
X114546701Y-79221942D01*
X114564461Y-79238039D01*
X114580558Y-79255799D01*
X114594836Y-79275052D01*
X114607159Y-79295611D01*
X114617408Y-79317280D01*
X114625483Y-79339848D01*
X114631307Y-79363099D01*
X114634824Y-79386809D01*
X114636000Y-79410750D01*
X114636000Y-79974250D01*
X114634824Y-79998191D01*
X114631307Y-80021901D01*
X114625483Y-80045152D01*
X114617408Y-80067720D01*
X114607159Y-80089389D01*
X114594836Y-80109948D01*
X114580558Y-80129201D01*
X114564461Y-80146961D01*
X114546701Y-80163058D01*
X114527448Y-80177336D01*
X114506889Y-80189659D01*
X114485220Y-80199908D01*
X114462652Y-80207983D01*
X114439401Y-80213807D01*
X114415691Y-80217324D01*
X114391750Y-80218500D01*
X113903250Y-80218500D01*
X113879309Y-80217324D01*
X113855599Y-80213807D01*
X113832348Y-80207983D01*
X113809780Y-80199908D01*
X113788111Y-80189659D01*
X113767552Y-80177336D01*
X113748299Y-80163058D01*
X113730539Y-80146961D01*
X113714442Y-80129201D01*
X113700164Y-80109948D01*
X113687841Y-80089389D01*
X113677592Y-80067720D01*
X113669517Y-80045152D01*
X113663693Y-80021901D01*
X113660176Y-79998191D01*
X113659000Y-79974250D01*
X113659000Y-79410750D01*
X113660176Y-79386809D01*
X113663693Y-79363099D01*
X113669517Y-79339848D01*
X113677592Y-79317280D01*
X113687841Y-79295611D01*
X113700164Y-79275052D01*
X113714442Y-79255799D01*
X113730539Y-79238039D01*
X113748299Y-79221942D01*
X113767552Y-79207664D01*
X113788111Y-79195341D01*
X113809780Y-79185092D01*
X113832348Y-79177017D01*
X113855599Y-79171193D01*
X113879309Y-79167676D01*
X113903250Y-79166500D01*
X114391750Y-79166500D01*
X114415691Y-79167676D01*
X114415691Y-79167676D01*
G37*
D16*
X114147500Y-79692500D03*
D14*
G36*
X131878191Y-76627676D02*
G01*
X131901901Y-76631193D01*
X131925152Y-76637017D01*
X131947720Y-76645092D01*
X131969389Y-76655341D01*
X131989948Y-76667664D01*
X132009201Y-76681942D01*
X132026961Y-76698039D01*
X132043058Y-76715799D01*
X132057336Y-76735052D01*
X132069659Y-76755611D01*
X132079908Y-76777280D01*
X132087983Y-76799848D01*
X132093807Y-76823099D01*
X132097324Y-76846809D01*
X132098500Y-76870750D01*
X132098500Y-77434250D01*
X132097324Y-77458191D01*
X132093807Y-77481901D01*
X132087983Y-77505152D01*
X132079908Y-77527720D01*
X132069659Y-77549389D01*
X132057336Y-77569948D01*
X132043058Y-77589201D01*
X132026961Y-77606961D01*
X132009201Y-77623058D01*
X131989948Y-77637336D01*
X131969389Y-77649659D01*
X131947720Y-77659908D01*
X131925152Y-77667983D01*
X131901901Y-77673807D01*
X131878191Y-77677324D01*
X131854250Y-77678500D01*
X131365750Y-77678500D01*
X131341809Y-77677324D01*
X131318099Y-77673807D01*
X131294848Y-77667983D01*
X131272280Y-77659908D01*
X131250611Y-77649659D01*
X131230052Y-77637336D01*
X131210799Y-77623058D01*
X131193039Y-77606961D01*
X131176942Y-77589201D01*
X131162664Y-77569948D01*
X131150341Y-77549389D01*
X131140092Y-77527720D01*
X131132017Y-77505152D01*
X131126193Y-77481901D01*
X131122676Y-77458191D01*
X131121500Y-77434250D01*
X131121500Y-76870750D01*
X131122676Y-76846809D01*
X131126193Y-76823099D01*
X131132017Y-76799848D01*
X131140092Y-76777280D01*
X131150341Y-76755611D01*
X131162664Y-76735052D01*
X131176942Y-76715799D01*
X131193039Y-76698039D01*
X131210799Y-76681942D01*
X131230052Y-76667664D01*
X131250611Y-76655341D01*
X131272280Y-76645092D01*
X131294848Y-76637017D01*
X131318099Y-76631193D01*
X131341809Y-76627676D01*
X131365750Y-76626500D01*
X131854250Y-76626500D01*
X131878191Y-76627676D01*
X131878191Y-76627676D01*
G37*
D16*
X131610000Y-77152500D03*
D14*
G36*
X133453191Y-76627676D02*
G01*
X133476901Y-76631193D01*
X133500152Y-76637017D01*
X133522720Y-76645092D01*
X133544389Y-76655341D01*
X133564948Y-76667664D01*
X133584201Y-76681942D01*
X133601961Y-76698039D01*
X133618058Y-76715799D01*
X133632336Y-76735052D01*
X133644659Y-76755611D01*
X133654908Y-76777280D01*
X133662983Y-76799848D01*
X133668807Y-76823099D01*
X133672324Y-76846809D01*
X133673500Y-76870750D01*
X133673500Y-77434250D01*
X133672324Y-77458191D01*
X133668807Y-77481901D01*
X133662983Y-77505152D01*
X133654908Y-77527720D01*
X133644659Y-77549389D01*
X133632336Y-77569948D01*
X133618058Y-77589201D01*
X133601961Y-77606961D01*
X133584201Y-77623058D01*
X133564948Y-77637336D01*
X133544389Y-77649659D01*
X133522720Y-77659908D01*
X133500152Y-77667983D01*
X133476901Y-77673807D01*
X133453191Y-77677324D01*
X133429250Y-77678500D01*
X132940750Y-77678500D01*
X132916809Y-77677324D01*
X132893099Y-77673807D01*
X132869848Y-77667983D01*
X132847280Y-77659908D01*
X132825611Y-77649659D01*
X132805052Y-77637336D01*
X132785799Y-77623058D01*
X132768039Y-77606961D01*
X132751942Y-77589201D01*
X132737664Y-77569948D01*
X132725341Y-77549389D01*
X132715092Y-77527720D01*
X132707017Y-77505152D01*
X132701193Y-77481901D01*
X132697676Y-77458191D01*
X132696500Y-77434250D01*
X132696500Y-76870750D01*
X132697676Y-76846809D01*
X132701193Y-76823099D01*
X132707017Y-76799848D01*
X132715092Y-76777280D01*
X132725341Y-76755611D01*
X132737664Y-76735052D01*
X132751942Y-76715799D01*
X132768039Y-76698039D01*
X132785799Y-76681942D01*
X132805052Y-76667664D01*
X132825611Y-76655341D01*
X132847280Y-76645092D01*
X132869848Y-76637017D01*
X132893099Y-76631193D01*
X132916809Y-76627676D01*
X132940750Y-76626500D01*
X133429250Y-76626500D01*
X133453191Y-76627676D01*
X133453191Y-76627676D01*
G37*
D16*
X133185000Y-77152500D03*
D14*
G36*
X131878191Y-75040176D02*
G01*
X131901901Y-75043693D01*
X131925152Y-75049517D01*
X131947720Y-75057592D01*
X131969389Y-75067841D01*
X131989948Y-75080164D01*
X132009201Y-75094442D01*
X132026961Y-75110539D01*
X132043058Y-75128299D01*
X132057336Y-75147552D01*
X132069659Y-75168111D01*
X132079908Y-75189780D01*
X132087983Y-75212348D01*
X132093807Y-75235599D01*
X132097324Y-75259309D01*
X132098500Y-75283250D01*
X132098500Y-75846750D01*
X132097324Y-75870691D01*
X132093807Y-75894401D01*
X132087983Y-75917652D01*
X132079908Y-75940220D01*
X132069659Y-75961889D01*
X132057336Y-75982448D01*
X132043058Y-76001701D01*
X132026961Y-76019461D01*
X132009201Y-76035558D01*
X131989948Y-76049836D01*
X131969389Y-76062159D01*
X131947720Y-76072408D01*
X131925152Y-76080483D01*
X131901901Y-76086307D01*
X131878191Y-76089824D01*
X131854250Y-76091000D01*
X131365750Y-76091000D01*
X131341809Y-76089824D01*
X131318099Y-76086307D01*
X131294848Y-76080483D01*
X131272280Y-76072408D01*
X131250611Y-76062159D01*
X131230052Y-76049836D01*
X131210799Y-76035558D01*
X131193039Y-76019461D01*
X131176942Y-76001701D01*
X131162664Y-75982448D01*
X131150341Y-75961889D01*
X131140092Y-75940220D01*
X131132017Y-75917652D01*
X131126193Y-75894401D01*
X131122676Y-75870691D01*
X131121500Y-75846750D01*
X131121500Y-75283250D01*
X131122676Y-75259309D01*
X131126193Y-75235599D01*
X131132017Y-75212348D01*
X131140092Y-75189780D01*
X131150341Y-75168111D01*
X131162664Y-75147552D01*
X131176942Y-75128299D01*
X131193039Y-75110539D01*
X131210799Y-75094442D01*
X131230052Y-75080164D01*
X131250611Y-75067841D01*
X131272280Y-75057592D01*
X131294848Y-75049517D01*
X131318099Y-75043693D01*
X131341809Y-75040176D01*
X131365750Y-75039000D01*
X131854250Y-75039000D01*
X131878191Y-75040176D01*
X131878191Y-75040176D01*
G37*
D16*
X131610000Y-75565000D03*
D14*
G36*
X133453191Y-75040176D02*
G01*
X133476901Y-75043693D01*
X133500152Y-75049517D01*
X133522720Y-75057592D01*
X133544389Y-75067841D01*
X133564948Y-75080164D01*
X133584201Y-75094442D01*
X133601961Y-75110539D01*
X133618058Y-75128299D01*
X133632336Y-75147552D01*
X133644659Y-75168111D01*
X133654908Y-75189780D01*
X133662983Y-75212348D01*
X133668807Y-75235599D01*
X133672324Y-75259309D01*
X133673500Y-75283250D01*
X133673500Y-75846750D01*
X133672324Y-75870691D01*
X133668807Y-75894401D01*
X133662983Y-75917652D01*
X133654908Y-75940220D01*
X133644659Y-75961889D01*
X133632336Y-75982448D01*
X133618058Y-76001701D01*
X133601961Y-76019461D01*
X133584201Y-76035558D01*
X133564948Y-76049836D01*
X133544389Y-76062159D01*
X133522720Y-76072408D01*
X133500152Y-76080483D01*
X133476901Y-76086307D01*
X133453191Y-76089824D01*
X133429250Y-76091000D01*
X132940750Y-76091000D01*
X132916809Y-76089824D01*
X132893099Y-76086307D01*
X132869848Y-76080483D01*
X132847280Y-76072408D01*
X132825611Y-76062159D01*
X132805052Y-76049836D01*
X132785799Y-76035558D01*
X132768039Y-76019461D01*
X132751942Y-76001701D01*
X132737664Y-75982448D01*
X132725341Y-75961889D01*
X132715092Y-75940220D01*
X132707017Y-75917652D01*
X132701193Y-75894401D01*
X132697676Y-75870691D01*
X132696500Y-75846750D01*
X132696500Y-75283250D01*
X132697676Y-75259309D01*
X132701193Y-75235599D01*
X132707017Y-75212348D01*
X132715092Y-75189780D01*
X132725341Y-75168111D01*
X132737664Y-75147552D01*
X132751942Y-75128299D01*
X132768039Y-75110539D01*
X132785799Y-75094442D01*
X132805052Y-75080164D01*
X132825611Y-75067841D01*
X132847280Y-75057592D01*
X132869848Y-75049517D01*
X132893099Y-75043693D01*
X132916809Y-75040176D01*
X132940750Y-75039000D01*
X133429250Y-75039000D01*
X133453191Y-75040176D01*
X133453191Y-75040176D01*
G37*
D16*
X133185000Y-75565000D03*
D14*
G36*
X102350691Y-76945176D02*
G01*
X102374401Y-76948693D01*
X102397652Y-76954517D01*
X102420220Y-76962592D01*
X102441889Y-76972841D01*
X102462448Y-76985164D01*
X102481701Y-76999442D01*
X102499461Y-77015539D01*
X102515558Y-77033299D01*
X102529836Y-77052552D01*
X102542159Y-77073111D01*
X102552408Y-77094780D01*
X102560483Y-77117348D01*
X102566307Y-77140599D01*
X102569824Y-77164309D01*
X102571000Y-77188250D01*
X102571000Y-77751750D01*
X102569824Y-77775691D01*
X102566307Y-77799401D01*
X102560483Y-77822652D01*
X102552408Y-77845220D01*
X102542159Y-77866889D01*
X102529836Y-77887448D01*
X102515558Y-77906701D01*
X102499461Y-77924461D01*
X102481701Y-77940558D01*
X102462448Y-77954836D01*
X102441889Y-77967159D01*
X102420220Y-77977408D01*
X102397652Y-77985483D01*
X102374401Y-77991307D01*
X102350691Y-77994824D01*
X102326750Y-77996000D01*
X101838250Y-77996000D01*
X101814309Y-77994824D01*
X101790599Y-77991307D01*
X101767348Y-77985483D01*
X101744780Y-77977408D01*
X101723111Y-77967159D01*
X101702552Y-77954836D01*
X101683299Y-77940558D01*
X101665539Y-77924461D01*
X101649442Y-77906701D01*
X101635164Y-77887448D01*
X101622841Y-77866889D01*
X101612592Y-77845220D01*
X101604517Y-77822652D01*
X101598693Y-77799401D01*
X101595176Y-77775691D01*
X101594000Y-77751750D01*
X101594000Y-77188250D01*
X101595176Y-77164309D01*
X101598693Y-77140599D01*
X101604517Y-77117348D01*
X101612592Y-77094780D01*
X101622841Y-77073111D01*
X101635164Y-77052552D01*
X101649442Y-77033299D01*
X101665539Y-77015539D01*
X101683299Y-76999442D01*
X101702552Y-76985164D01*
X101723111Y-76972841D01*
X101744780Y-76962592D01*
X101767348Y-76954517D01*
X101790599Y-76948693D01*
X101814309Y-76945176D01*
X101838250Y-76944000D01*
X102326750Y-76944000D01*
X102350691Y-76945176D01*
X102350691Y-76945176D01*
G37*
D16*
X102082500Y-77470000D03*
D14*
G36*
X103925691Y-76945176D02*
G01*
X103949401Y-76948693D01*
X103972652Y-76954517D01*
X103995220Y-76962592D01*
X104016889Y-76972841D01*
X104037448Y-76985164D01*
X104056701Y-76999442D01*
X104074461Y-77015539D01*
X104090558Y-77033299D01*
X104104836Y-77052552D01*
X104117159Y-77073111D01*
X104127408Y-77094780D01*
X104135483Y-77117348D01*
X104141307Y-77140599D01*
X104144824Y-77164309D01*
X104146000Y-77188250D01*
X104146000Y-77751750D01*
X104144824Y-77775691D01*
X104141307Y-77799401D01*
X104135483Y-77822652D01*
X104127408Y-77845220D01*
X104117159Y-77866889D01*
X104104836Y-77887448D01*
X104090558Y-77906701D01*
X104074461Y-77924461D01*
X104056701Y-77940558D01*
X104037448Y-77954836D01*
X104016889Y-77967159D01*
X103995220Y-77977408D01*
X103972652Y-77985483D01*
X103949401Y-77991307D01*
X103925691Y-77994824D01*
X103901750Y-77996000D01*
X103413250Y-77996000D01*
X103389309Y-77994824D01*
X103365599Y-77991307D01*
X103342348Y-77985483D01*
X103319780Y-77977408D01*
X103298111Y-77967159D01*
X103277552Y-77954836D01*
X103258299Y-77940558D01*
X103240539Y-77924461D01*
X103224442Y-77906701D01*
X103210164Y-77887448D01*
X103197841Y-77866889D01*
X103187592Y-77845220D01*
X103179517Y-77822652D01*
X103173693Y-77799401D01*
X103170176Y-77775691D01*
X103169000Y-77751750D01*
X103169000Y-77188250D01*
X103170176Y-77164309D01*
X103173693Y-77140599D01*
X103179517Y-77117348D01*
X103187592Y-77094780D01*
X103197841Y-77073111D01*
X103210164Y-77052552D01*
X103224442Y-77033299D01*
X103240539Y-77015539D01*
X103258299Y-76999442D01*
X103277552Y-76985164D01*
X103298111Y-76972841D01*
X103319780Y-76962592D01*
X103342348Y-76954517D01*
X103365599Y-76948693D01*
X103389309Y-76945176D01*
X103413250Y-76944000D01*
X103901750Y-76944000D01*
X103925691Y-76945176D01*
X103925691Y-76945176D01*
G37*
D16*
X103657500Y-77470000D03*
D14*
G36*
X102350691Y-78850176D02*
G01*
X102374401Y-78853693D01*
X102397652Y-78859517D01*
X102420220Y-78867592D01*
X102441889Y-78877841D01*
X102462448Y-78890164D01*
X102481701Y-78904442D01*
X102499461Y-78920539D01*
X102515558Y-78938299D01*
X102529836Y-78957552D01*
X102542159Y-78978111D01*
X102552408Y-78999780D01*
X102560483Y-79022348D01*
X102566307Y-79045599D01*
X102569824Y-79069309D01*
X102571000Y-79093250D01*
X102571000Y-79656750D01*
X102569824Y-79680691D01*
X102566307Y-79704401D01*
X102560483Y-79727652D01*
X102552408Y-79750220D01*
X102542159Y-79771889D01*
X102529836Y-79792448D01*
X102515558Y-79811701D01*
X102499461Y-79829461D01*
X102481701Y-79845558D01*
X102462448Y-79859836D01*
X102441889Y-79872159D01*
X102420220Y-79882408D01*
X102397652Y-79890483D01*
X102374401Y-79896307D01*
X102350691Y-79899824D01*
X102326750Y-79901000D01*
X101838250Y-79901000D01*
X101814309Y-79899824D01*
X101790599Y-79896307D01*
X101767348Y-79890483D01*
X101744780Y-79882408D01*
X101723111Y-79872159D01*
X101702552Y-79859836D01*
X101683299Y-79845558D01*
X101665539Y-79829461D01*
X101649442Y-79811701D01*
X101635164Y-79792448D01*
X101622841Y-79771889D01*
X101612592Y-79750220D01*
X101604517Y-79727652D01*
X101598693Y-79704401D01*
X101595176Y-79680691D01*
X101594000Y-79656750D01*
X101594000Y-79093250D01*
X101595176Y-79069309D01*
X101598693Y-79045599D01*
X101604517Y-79022348D01*
X101612592Y-78999780D01*
X101622841Y-78978111D01*
X101635164Y-78957552D01*
X101649442Y-78938299D01*
X101665539Y-78920539D01*
X101683299Y-78904442D01*
X101702552Y-78890164D01*
X101723111Y-78877841D01*
X101744780Y-78867592D01*
X101767348Y-78859517D01*
X101790599Y-78853693D01*
X101814309Y-78850176D01*
X101838250Y-78849000D01*
X102326750Y-78849000D01*
X102350691Y-78850176D01*
X102350691Y-78850176D01*
G37*
D16*
X102082500Y-79375000D03*
D14*
G36*
X103925691Y-78850176D02*
G01*
X103949401Y-78853693D01*
X103972652Y-78859517D01*
X103995220Y-78867592D01*
X104016889Y-78877841D01*
X104037448Y-78890164D01*
X104056701Y-78904442D01*
X104074461Y-78920539D01*
X104090558Y-78938299D01*
X104104836Y-78957552D01*
X104117159Y-78978111D01*
X104127408Y-78999780D01*
X104135483Y-79022348D01*
X104141307Y-79045599D01*
X104144824Y-79069309D01*
X104146000Y-79093250D01*
X104146000Y-79656750D01*
X104144824Y-79680691D01*
X104141307Y-79704401D01*
X104135483Y-79727652D01*
X104127408Y-79750220D01*
X104117159Y-79771889D01*
X104104836Y-79792448D01*
X104090558Y-79811701D01*
X104074461Y-79829461D01*
X104056701Y-79845558D01*
X104037448Y-79859836D01*
X104016889Y-79872159D01*
X103995220Y-79882408D01*
X103972652Y-79890483D01*
X103949401Y-79896307D01*
X103925691Y-79899824D01*
X103901750Y-79901000D01*
X103413250Y-79901000D01*
X103389309Y-79899824D01*
X103365599Y-79896307D01*
X103342348Y-79890483D01*
X103319780Y-79882408D01*
X103298111Y-79872159D01*
X103277552Y-79859836D01*
X103258299Y-79845558D01*
X103240539Y-79829461D01*
X103224442Y-79811701D01*
X103210164Y-79792448D01*
X103197841Y-79771889D01*
X103187592Y-79750220D01*
X103179517Y-79727652D01*
X103173693Y-79704401D01*
X103170176Y-79680691D01*
X103169000Y-79656750D01*
X103169000Y-79093250D01*
X103170176Y-79069309D01*
X103173693Y-79045599D01*
X103179517Y-79022348D01*
X103187592Y-78999780D01*
X103197841Y-78978111D01*
X103210164Y-78957552D01*
X103224442Y-78938299D01*
X103240539Y-78920539D01*
X103258299Y-78904442D01*
X103277552Y-78890164D01*
X103298111Y-78877841D01*
X103319780Y-78867592D01*
X103342348Y-78859517D01*
X103365599Y-78853693D01*
X103389309Y-78850176D01*
X103413250Y-78849000D01*
X103901750Y-78849000D01*
X103925691Y-78850176D01*
X103925691Y-78850176D01*
G37*
D16*
X103657500Y-79375000D03*
D14*
G36*
X120778611Y-66138141D02*
G01*
X120802321Y-66141658D01*
X120825572Y-66147482D01*
X120848140Y-66155557D01*
X120869809Y-66165806D01*
X120890368Y-66178129D01*
X120909621Y-66192407D01*
X120927381Y-66208504D01*
X121272802Y-66553925D01*
X121288899Y-66571685D01*
X121303177Y-66590938D01*
X121315500Y-66611497D01*
X121325749Y-66633166D01*
X121333824Y-66655734D01*
X121339648Y-66678985D01*
X121343165Y-66702695D01*
X121344341Y-66726636D01*
X121343165Y-66750577D01*
X121339648Y-66774287D01*
X121333824Y-66797538D01*
X121325749Y-66820106D01*
X121315500Y-66841775D01*
X121303177Y-66862334D01*
X121288899Y-66881587D01*
X121272802Y-66899347D01*
X120874347Y-67297802D01*
X120856587Y-67313899D01*
X120837334Y-67328177D01*
X120816775Y-67340500D01*
X120795106Y-67350749D01*
X120772538Y-67358824D01*
X120749287Y-67364648D01*
X120725577Y-67368165D01*
X120701636Y-67369341D01*
X120677695Y-67368165D01*
X120653985Y-67364648D01*
X120630734Y-67358824D01*
X120608166Y-67350749D01*
X120586497Y-67340500D01*
X120565938Y-67328177D01*
X120546685Y-67313899D01*
X120528925Y-67297802D01*
X120183504Y-66952381D01*
X120167407Y-66934621D01*
X120153129Y-66915368D01*
X120140806Y-66894809D01*
X120130557Y-66873140D01*
X120122482Y-66850572D01*
X120116658Y-66827321D01*
X120113141Y-66803611D01*
X120111965Y-66779670D01*
X120113141Y-66755729D01*
X120116658Y-66732019D01*
X120122482Y-66708768D01*
X120130557Y-66686200D01*
X120140806Y-66664531D01*
X120153129Y-66643972D01*
X120167407Y-66624719D01*
X120183504Y-66606959D01*
X120581959Y-66208504D01*
X120599719Y-66192407D01*
X120618972Y-66178129D01*
X120639531Y-66165806D01*
X120661200Y-66155557D01*
X120683768Y-66147482D01*
X120707019Y-66141658D01*
X120730729Y-66138141D01*
X120754670Y-66136965D01*
X120778611Y-66138141D01*
X120778611Y-66138141D01*
G37*
D16*
X120728153Y-66753153D03*
D14*
G36*
X121892305Y-67251835D02*
G01*
X121916015Y-67255352D01*
X121939266Y-67261176D01*
X121961834Y-67269251D01*
X121983503Y-67279500D01*
X122004062Y-67291823D01*
X122023315Y-67306101D01*
X122041075Y-67322198D01*
X122386496Y-67667619D01*
X122402593Y-67685379D01*
X122416871Y-67704632D01*
X122429194Y-67725191D01*
X122439443Y-67746860D01*
X122447518Y-67769428D01*
X122453342Y-67792679D01*
X122456859Y-67816389D01*
X122458035Y-67840330D01*
X122456859Y-67864271D01*
X122453342Y-67887981D01*
X122447518Y-67911232D01*
X122439443Y-67933800D01*
X122429194Y-67955469D01*
X122416871Y-67976028D01*
X122402593Y-67995281D01*
X122386496Y-68013041D01*
X121988041Y-68411496D01*
X121970281Y-68427593D01*
X121951028Y-68441871D01*
X121930469Y-68454194D01*
X121908800Y-68464443D01*
X121886232Y-68472518D01*
X121862981Y-68478342D01*
X121839271Y-68481859D01*
X121815330Y-68483035D01*
X121791389Y-68481859D01*
X121767679Y-68478342D01*
X121744428Y-68472518D01*
X121721860Y-68464443D01*
X121700191Y-68454194D01*
X121679632Y-68441871D01*
X121660379Y-68427593D01*
X121642619Y-68411496D01*
X121297198Y-68066075D01*
X121281101Y-68048315D01*
X121266823Y-68029062D01*
X121254500Y-68008503D01*
X121244251Y-67986834D01*
X121236176Y-67964266D01*
X121230352Y-67941015D01*
X121226835Y-67917305D01*
X121225659Y-67893364D01*
X121226835Y-67869423D01*
X121230352Y-67845713D01*
X121236176Y-67822462D01*
X121244251Y-67799894D01*
X121254500Y-67778225D01*
X121266823Y-67757666D01*
X121281101Y-67738413D01*
X121297198Y-67720653D01*
X121695653Y-67322198D01*
X121713413Y-67306101D01*
X121732666Y-67291823D01*
X121753225Y-67279500D01*
X121774894Y-67269251D01*
X121797462Y-67261176D01*
X121820713Y-67255352D01*
X121844423Y-67251835D01*
X121868364Y-67250659D01*
X121892305Y-67251835D01*
X121892305Y-67251835D01*
G37*
D16*
X121841847Y-67866847D03*
D14*
G36*
X151233191Y-122030176D02*
G01*
X151256901Y-122033693D01*
X151280152Y-122039517D01*
X151302720Y-122047592D01*
X151324389Y-122057841D01*
X151344948Y-122070164D01*
X151364201Y-122084442D01*
X151381961Y-122100539D01*
X151398058Y-122118299D01*
X151412336Y-122137552D01*
X151424659Y-122158111D01*
X151434908Y-122179780D01*
X151442983Y-122202348D01*
X151448807Y-122225599D01*
X151452324Y-122249309D01*
X151453500Y-122273250D01*
X151453500Y-122836750D01*
X151452324Y-122860691D01*
X151448807Y-122884401D01*
X151442983Y-122907652D01*
X151434908Y-122930220D01*
X151424659Y-122951889D01*
X151412336Y-122972448D01*
X151398058Y-122991701D01*
X151381961Y-123009461D01*
X151364201Y-123025558D01*
X151344948Y-123039836D01*
X151324389Y-123052159D01*
X151302720Y-123062408D01*
X151280152Y-123070483D01*
X151256901Y-123076307D01*
X151233191Y-123079824D01*
X151209250Y-123081000D01*
X150720750Y-123081000D01*
X150696809Y-123079824D01*
X150673099Y-123076307D01*
X150649848Y-123070483D01*
X150627280Y-123062408D01*
X150605611Y-123052159D01*
X150585052Y-123039836D01*
X150565799Y-123025558D01*
X150548039Y-123009461D01*
X150531942Y-122991701D01*
X150517664Y-122972448D01*
X150505341Y-122951889D01*
X150495092Y-122930220D01*
X150487017Y-122907652D01*
X150481193Y-122884401D01*
X150477676Y-122860691D01*
X150476500Y-122836750D01*
X150476500Y-122273250D01*
X150477676Y-122249309D01*
X150481193Y-122225599D01*
X150487017Y-122202348D01*
X150495092Y-122179780D01*
X150505341Y-122158111D01*
X150517664Y-122137552D01*
X150531942Y-122118299D01*
X150548039Y-122100539D01*
X150565799Y-122084442D01*
X150585052Y-122070164D01*
X150605611Y-122057841D01*
X150627280Y-122047592D01*
X150649848Y-122039517D01*
X150673099Y-122033693D01*
X150696809Y-122030176D01*
X150720750Y-122029000D01*
X151209250Y-122029000D01*
X151233191Y-122030176D01*
X151233191Y-122030176D01*
G37*
D16*
X150965000Y-122555000D03*
D14*
G36*
X149658191Y-122030176D02*
G01*
X149681901Y-122033693D01*
X149705152Y-122039517D01*
X149727720Y-122047592D01*
X149749389Y-122057841D01*
X149769948Y-122070164D01*
X149789201Y-122084442D01*
X149806961Y-122100539D01*
X149823058Y-122118299D01*
X149837336Y-122137552D01*
X149849659Y-122158111D01*
X149859908Y-122179780D01*
X149867983Y-122202348D01*
X149873807Y-122225599D01*
X149877324Y-122249309D01*
X149878500Y-122273250D01*
X149878500Y-122836750D01*
X149877324Y-122860691D01*
X149873807Y-122884401D01*
X149867983Y-122907652D01*
X149859908Y-122930220D01*
X149849659Y-122951889D01*
X149837336Y-122972448D01*
X149823058Y-122991701D01*
X149806961Y-123009461D01*
X149789201Y-123025558D01*
X149769948Y-123039836D01*
X149749389Y-123052159D01*
X149727720Y-123062408D01*
X149705152Y-123070483D01*
X149681901Y-123076307D01*
X149658191Y-123079824D01*
X149634250Y-123081000D01*
X149145750Y-123081000D01*
X149121809Y-123079824D01*
X149098099Y-123076307D01*
X149074848Y-123070483D01*
X149052280Y-123062408D01*
X149030611Y-123052159D01*
X149010052Y-123039836D01*
X148990799Y-123025558D01*
X148973039Y-123009461D01*
X148956942Y-122991701D01*
X148942664Y-122972448D01*
X148930341Y-122951889D01*
X148920092Y-122930220D01*
X148912017Y-122907652D01*
X148906193Y-122884401D01*
X148902676Y-122860691D01*
X148901500Y-122836750D01*
X148901500Y-122273250D01*
X148902676Y-122249309D01*
X148906193Y-122225599D01*
X148912017Y-122202348D01*
X148920092Y-122179780D01*
X148930341Y-122158111D01*
X148942664Y-122137552D01*
X148956942Y-122118299D01*
X148973039Y-122100539D01*
X148990799Y-122084442D01*
X149010052Y-122070164D01*
X149030611Y-122057841D01*
X149052280Y-122047592D01*
X149074848Y-122039517D01*
X149098099Y-122033693D01*
X149121809Y-122030176D01*
X149145750Y-122029000D01*
X149634250Y-122029000D01*
X149658191Y-122030176D01*
X149658191Y-122030176D01*
G37*
D16*
X149390000Y-122555000D03*
D14*
G36*
X97270691Y-72182676D02*
G01*
X97294401Y-72186193D01*
X97317652Y-72192017D01*
X97340220Y-72200092D01*
X97361889Y-72210341D01*
X97382448Y-72222664D01*
X97401701Y-72236942D01*
X97419461Y-72253039D01*
X97435558Y-72270799D01*
X97449836Y-72290052D01*
X97462159Y-72310611D01*
X97472408Y-72332280D01*
X97480483Y-72354848D01*
X97486307Y-72378099D01*
X97489824Y-72401809D01*
X97491000Y-72425750D01*
X97491000Y-72989250D01*
X97489824Y-73013191D01*
X97486307Y-73036901D01*
X97480483Y-73060152D01*
X97472408Y-73082720D01*
X97462159Y-73104389D01*
X97449836Y-73124948D01*
X97435558Y-73144201D01*
X97419461Y-73161961D01*
X97401701Y-73178058D01*
X97382448Y-73192336D01*
X97361889Y-73204659D01*
X97340220Y-73214908D01*
X97317652Y-73222983D01*
X97294401Y-73228807D01*
X97270691Y-73232324D01*
X97246750Y-73233500D01*
X96758250Y-73233500D01*
X96734309Y-73232324D01*
X96710599Y-73228807D01*
X96687348Y-73222983D01*
X96664780Y-73214908D01*
X96643111Y-73204659D01*
X96622552Y-73192336D01*
X96603299Y-73178058D01*
X96585539Y-73161961D01*
X96569442Y-73144201D01*
X96555164Y-73124948D01*
X96542841Y-73104389D01*
X96532592Y-73082720D01*
X96524517Y-73060152D01*
X96518693Y-73036901D01*
X96515176Y-73013191D01*
X96514000Y-72989250D01*
X96514000Y-72425750D01*
X96515176Y-72401809D01*
X96518693Y-72378099D01*
X96524517Y-72354848D01*
X96532592Y-72332280D01*
X96542841Y-72310611D01*
X96555164Y-72290052D01*
X96569442Y-72270799D01*
X96585539Y-72253039D01*
X96603299Y-72236942D01*
X96622552Y-72222664D01*
X96643111Y-72210341D01*
X96664780Y-72200092D01*
X96687348Y-72192017D01*
X96710599Y-72186193D01*
X96734309Y-72182676D01*
X96758250Y-72181500D01*
X97246750Y-72181500D01*
X97270691Y-72182676D01*
X97270691Y-72182676D01*
G37*
D16*
X97002500Y-72707500D03*
D14*
G36*
X98845691Y-72182676D02*
G01*
X98869401Y-72186193D01*
X98892652Y-72192017D01*
X98915220Y-72200092D01*
X98936889Y-72210341D01*
X98957448Y-72222664D01*
X98976701Y-72236942D01*
X98994461Y-72253039D01*
X99010558Y-72270799D01*
X99024836Y-72290052D01*
X99037159Y-72310611D01*
X99047408Y-72332280D01*
X99055483Y-72354848D01*
X99061307Y-72378099D01*
X99064824Y-72401809D01*
X99066000Y-72425750D01*
X99066000Y-72989250D01*
X99064824Y-73013191D01*
X99061307Y-73036901D01*
X99055483Y-73060152D01*
X99047408Y-73082720D01*
X99037159Y-73104389D01*
X99024836Y-73124948D01*
X99010558Y-73144201D01*
X98994461Y-73161961D01*
X98976701Y-73178058D01*
X98957448Y-73192336D01*
X98936889Y-73204659D01*
X98915220Y-73214908D01*
X98892652Y-73222983D01*
X98869401Y-73228807D01*
X98845691Y-73232324D01*
X98821750Y-73233500D01*
X98333250Y-73233500D01*
X98309309Y-73232324D01*
X98285599Y-73228807D01*
X98262348Y-73222983D01*
X98239780Y-73214908D01*
X98218111Y-73204659D01*
X98197552Y-73192336D01*
X98178299Y-73178058D01*
X98160539Y-73161961D01*
X98144442Y-73144201D01*
X98130164Y-73124948D01*
X98117841Y-73104389D01*
X98107592Y-73082720D01*
X98099517Y-73060152D01*
X98093693Y-73036901D01*
X98090176Y-73013191D01*
X98089000Y-72989250D01*
X98089000Y-72425750D01*
X98090176Y-72401809D01*
X98093693Y-72378099D01*
X98099517Y-72354848D01*
X98107592Y-72332280D01*
X98117841Y-72310611D01*
X98130164Y-72290052D01*
X98144442Y-72270799D01*
X98160539Y-72253039D01*
X98178299Y-72236942D01*
X98197552Y-72222664D01*
X98218111Y-72210341D01*
X98239780Y-72200092D01*
X98262348Y-72192017D01*
X98285599Y-72186193D01*
X98309309Y-72182676D01*
X98333250Y-72181500D01*
X98821750Y-72181500D01*
X98845691Y-72182676D01*
X98845691Y-72182676D01*
G37*
D16*
X98577500Y-72707500D03*
D14*
G36*
X133135691Y-122030176D02*
G01*
X133159401Y-122033693D01*
X133182652Y-122039517D01*
X133205220Y-122047592D01*
X133226889Y-122057841D01*
X133247448Y-122070164D01*
X133266701Y-122084442D01*
X133284461Y-122100539D01*
X133300558Y-122118299D01*
X133314836Y-122137552D01*
X133327159Y-122158111D01*
X133337408Y-122179780D01*
X133345483Y-122202348D01*
X133351307Y-122225599D01*
X133354824Y-122249309D01*
X133356000Y-122273250D01*
X133356000Y-122836750D01*
X133354824Y-122860691D01*
X133351307Y-122884401D01*
X133345483Y-122907652D01*
X133337408Y-122930220D01*
X133327159Y-122951889D01*
X133314836Y-122972448D01*
X133300558Y-122991701D01*
X133284461Y-123009461D01*
X133266701Y-123025558D01*
X133247448Y-123039836D01*
X133226889Y-123052159D01*
X133205220Y-123062408D01*
X133182652Y-123070483D01*
X133159401Y-123076307D01*
X133135691Y-123079824D01*
X133111750Y-123081000D01*
X132623250Y-123081000D01*
X132599309Y-123079824D01*
X132575599Y-123076307D01*
X132552348Y-123070483D01*
X132529780Y-123062408D01*
X132508111Y-123052159D01*
X132487552Y-123039836D01*
X132468299Y-123025558D01*
X132450539Y-123009461D01*
X132434442Y-122991701D01*
X132420164Y-122972448D01*
X132407841Y-122951889D01*
X132397592Y-122930220D01*
X132389517Y-122907652D01*
X132383693Y-122884401D01*
X132380176Y-122860691D01*
X132379000Y-122836750D01*
X132379000Y-122273250D01*
X132380176Y-122249309D01*
X132383693Y-122225599D01*
X132389517Y-122202348D01*
X132397592Y-122179780D01*
X132407841Y-122158111D01*
X132420164Y-122137552D01*
X132434442Y-122118299D01*
X132450539Y-122100539D01*
X132468299Y-122084442D01*
X132487552Y-122070164D01*
X132508111Y-122057841D01*
X132529780Y-122047592D01*
X132552348Y-122039517D01*
X132575599Y-122033693D01*
X132599309Y-122030176D01*
X132623250Y-122029000D01*
X133111750Y-122029000D01*
X133135691Y-122030176D01*
X133135691Y-122030176D01*
G37*
D16*
X132867500Y-122555000D03*
D14*
G36*
X131560691Y-122030176D02*
G01*
X131584401Y-122033693D01*
X131607652Y-122039517D01*
X131630220Y-122047592D01*
X131651889Y-122057841D01*
X131672448Y-122070164D01*
X131691701Y-122084442D01*
X131709461Y-122100539D01*
X131725558Y-122118299D01*
X131739836Y-122137552D01*
X131752159Y-122158111D01*
X131762408Y-122179780D01*
X131770483Y-122202348D01*
X131776307Y-122225599D01*
X131779824Y-122249309D01*
X131781000Y-122273250D01*
X131781000Y-122836750D01*
X131779824Y-122860691D01*
X131776307Y-122884401D01*
X131770483Y-122907652D01*
X131762408Y-122930220D01*
X131752159Y-122951889D01*
X131739836Y-122972448D01*
X131725558Y-122991701D01*
X131709461Y-123009461D01*
X131691701Y-123025558D01*
X131672448Y-123039836D01*
X131651889Y-123052159D01*
X131630220Y-123062408D01*
X131607652Y-123070483D01*
X131584401Y-123076307D01*
X131560691Y-123079824D01*
X131536750Y-123081000D01*
X131048250Y-123081000D01*
X131024309Y-123079824D01*
X131000599Y-123076307D01*
X130977348Y-123070483D01*
X130954780Y-123062408D01*
X130933111Y-123052159D01*
X130912552Y-123039836D01*
X130893299Y-123025558D01*
X130875539Y-123009461D01*
X130859442Y-122991701D01*
X130845164Y-122972448D01*
X130832841Y-122951889D01*
X130822592Y-122930220D01*
X130814517Y-122907652D01*
X130808693Y-122884401D01*
X130805176Y-122860691D01*
X130804000Y-122836750D01*
X130804000Y-122273250D01*
X130805176Y-122249309D01*
X130808693Y-122225599D01*
X130814517Y-122202348D01*
X130822592Y-122179780D01*
X130832841Y-122158111D01*
X130845164Y-122137552D01*
X130859442Y-122118299D01*
X130875539Y-122100539D01*
X130893299Y-122084442D01*
X130912552Y-122070164D01*
X130933111Y-122057841D01*
X130954780Y-122047592D01*
X130977348Y-122039517D01*
X131000599Y-122033693D01*
X131024309Y-122030176D01*
X131048250Y-122029000D01*
X131536750Y-122029000D01*
X131560691Y-122030176D01*
X131560691Y-122030176D01*
G37*
D16*
X131292500Y-122555000D03*
D14*
G36*
X114720691Y-122030176D02*
G01*
X114744401Y-122033693D01*
X114767652Y-122039517D01*
X114790220Y-122047592D01*
X114811889Y-122057841D01*
X114832448Y-122070164D01*
X114851701Y-122084442D01*
X114869461Y-122100539D01*
X114885558Y-122118299D01*
X114899836Y-122137552D01*
X114912159Y-122158111D01*
X114922408Y-122179780D01*
X114930483Y-122202348D01*
X114936307Y-122225599D01*
X114939824Y-122249309D01*
X114941000Y-122273250D01*
X114941000Y-122836750D01*
X114939824Y-122860691D01*
X114936307Y-122884401D01*
X114930483Y-122907652D01*
X114922408Y-122930220D01*
X114912159Y-122951889D01*
X114899836Y-122972448D01*
X114885558Y-122991701D01*
X114869461Y-123009461D01*
X114851701Y-123025558D01*
X114832448Y-123039836D01*
X114811889Y-123052159D01*
X114790220Y-123062408D01*
X114767652Y-123070483D01*
X114744401Y-123076307D01*
X114720691Y-123079824D01*
X114696750Y-123081000D01*
X114208250Y-123081000D01*
X114184309Y-123079824D01*
X114160599Y-123076307D01*
X114137348Y-123070483D01*
X114114780Y-123062408D01*
X114093111Y-123052159D01*
X114072552Y-123039836D01*
X114053299Y-123025558D01*
X114035539Y-123009461D01*
X114019442Y-122991701D01*
X114005164Y-122972448D01*
X113992841Y-122951889D01*
X113982592Y-122930220D01*
X113974517Y-122907652D01*
X113968693Y-122884401D01*
X113965176Y-122860691D01*
X113964000Y-122836750D01*
X113964000Y-122273250D01*
X113965176Y-122249309D01*
X113968693Y-122225599D01*
X113974517Y-122202348D01*
X113982592Y-122179780D01*
X113992841Y-122158111D01*
X114005164Y-122137552D01*
X114019442Y-122118299D01*
X114035539Y-122100539D01*
X114053299Y-122084442D01*
X114072552Y-122070164D01*
X114093111Y-122057841D01*
X114114780Y-122047592D01*
X114137348Y-122039517D01*
X114160599Y-122033693D01*
X114184309Y-122030176D01*
X114208250Y-122029000D01*
X114696750Y-122029000D01*
X114720691Y-122030176D01*
X114720691Y-122030176D01*
G37*
D16*
X114452500Y-122555000D03*
D14*
G36*
X113145691Y-122030176D02*
G01*
X113169401Y-122033693D01*
X113192652Y-122039517D01*
X113215220Y-122047592D01*
X113236889Y-122057841D01*
X113257448Y-122070164D01*
X113276701Y-122084442D01*
X113294461Y-122100539D01*
X113310558Y-122118299D01*
X113324836Y-122137552D01*
X113337159Y-122158111D01*
X113347408Y-122179780D01*
X113355483Y-122202348D01*
X113361307Y-122225599D01*
X113364824Y-122249309D01*
X113366000Y-122273250D01*
X113366000Y-122836750D01*
X113364824Y-122860691D01*
X113361307Y-122884401D01*
X113355483Y-122907652D01*
X113347408Y-122930220D01*
X113337159Y-122951889D01*
X113324836Y-122972448D01*
X113310558Y-122991701D01*
X113294461Y-123009461D01*
X113276701Y-123025558D01*
X113257448Y-123039836D01*
X113236889Y-123052159D01*
X113215220Y-123062408D01*
X113192652Y-123070483D01*
X113169401Y-123076307D01*
X113145691Y-123079824D01*
X113121750Y-123081000D01*
X112633250Y-123081000D01*
X112609309Y-123079824D01*
X112585599Y-123076307D01*
X112562348Y-123070483D01*
X112539780Y-123062408D01*
X112518111Y-123052159D01*
X112497552Y-123039836D01*
X112478299Y-123025558D01*
X112460539Y-123009461D01*
X112444442Y-122991701D01*
X112430164Y-122972448D01*
X112417841Y-122951889D01*
X112407592Y-122930220D01*
X112399517Y-122907652D01*
X112393693Y-122884401D01*
X112390176Y-122860691D01*
X112389000Y-122836750D01*
X112389000Y-122273250D01*
X112390176Y-122249309D01*
X112393693Y-122225599D01*
X112399517Y-122202348D01*
X112407592Y-122179780D01*
X112417841Y-122158111D01*
X112430164Y-122137552D01*
X112444442Y-122118299D01*
X112460539Y-122100539D01*
X112478299Y-122084442D01*
X112497552Y-122070164D01*
X112518111Y-122057841D01*
X112539780Y-122047592D01*
X112562348Y-122039517D01*
X112585599Y-122033693D01*
X112609309Y-122030176D01*
X112633250Y-122029000D01*
X113121750Y-122029000D01*
X113145691Y-122030176D01*
X113145691Y-122030176D01*
G37*
D16*
X112877500Y-122555000D03*
D14*
G36*
X119773077Y-100906835D02*
G01*
X119796787Y-100910352D01*
X119820038Y-100916176D01*
X119842606Y-100924251D01*
X119864275Y-100934500D01*
X119884834Y-100946823D01*
X119904087Y-100961101D01*
X119921847Y-100977198D01*
X120320302Y-101375653D01*
X120336399Y-101393413D01*
X120350677Y-101412666D01*
X120363000Y-101433225D01*
X120373249Y-101454894D01*
X120381324Y-101477462D01*
X120387148Y-101500713D01*
X120390665Y-101524423D01*
X120391841Y-101548364D01*
X120390665Y-101572305D01*
X120387148Y-101596015D01*
X120381324Y-101619266D01*
X120373249Y-101641834D01*
X120363000Y-101663503D01*
X120350677Y-101684062D01*
X120336399Y-101703315D01*
X120320302Y-101721075D01*
X119974881Y-102066496D01*
X119957121Y-102082593D01*
X119937868Y-102096871D01*
X119917309Y-102109194D01*
X119895640Y-102119443D01*
X119873072Y-102127518D01*
X119849821Y-102133342D01*
X119826111Y-102136859D01*
X119802170Y-102138035D01*
X119778229Y-102136859D01*
X119754519Y-102133342D01*
X119731268Y-102127518D01*
X119708700Y-102119443D01*
X119687031Y-102109194D01*
X119666472Y-102096871D01*
X119647219Y-102082593D01*
X119629459Y-102066496D01*
X119231004Y-101668041D01*
X119214907Y-101650281D01*
X119200629Y-101631028D01*
X119188306Y-101610469D01*
X119178057Y-101588800D01*
X119169982Y-101566232D01*
X119164158Y-101542981D01*
X119160641Y-101519271D01*
X119159465Y-101495330D01*
X119160641Y-101471389D01*
X119164158Y-101447679D01*
X119169982Y-101424428D01*
X119178057Y-101401860D01*
X119188306Y-101380191D01*
X119200629Y-101359632D01*
X119214907Y-101340379D01*
X119231004Y-101322619D01*
X119576425Y-100977198D01*
X119594185Y-100961101D01*
X119613438Y-100946823D01*
X119633997Y-100934500D01*
X119655666Y-100924251D01*
X119678234Y-100916176D01*
X119701485Y-100910352D01*
X119725195Y-100906835D01*
X119749136Y-100905659D01*
X119773077Y-100906835D01*
X119773077Y-100906835D01*
G37*
D16*
X119775653Y-101521847D03*
D14*
G36*
X120886771Y-99793141D02*
G01*
X120910481Y-99796658D01*
X120933732Y-99802482D01*
X120956300Y-99810557D01*
X120977969Y-99820806D01*
X120998528Y-99833129D01*
X121017781Y-99847407D01*
X121035541Y-99863504D01*
X121433996Y-100261959D01*
X121450093Y-100279719D01*
X121464371Y-100298972D01*
X121476694Y-100319531D01*
X121486943Y-100341200D01*
X121495018Y-100363768D01*
X121500842Y-100387019D01*
X121504359Y-100410729D01*
X121505535Y-100434670D01*
X121504359Y-100458611D01*
X121500842Y-100482321D01*
X121495018Y-100505572D01*
X121486943Y-100528140D01*
X121476694Y-100549809D01*
X121464371Y-100570368D01*
X121450093Y-100589621D01*
X121433996Y-100607381D01*
X121088575Y-100952802D01*
X121070815Y-100968899D01*
X121051562Y-100983177D01*
X121031003Y-100995500D01*
X121009334Y-101005749D01*
X120986766Y-101013824D01*
X120963515Y-101019648D01*
X120939805Y-101023165D01*
X120915864Y-101024341D01*
X120891923Y-101023165D01*
X120868213Y-101019648D01*
X120844962Y-101013824D01*
X120822394Y-101005749D01*
X120800725Y-100995500D01*
X120780166Y-100983177D01*
X120760913Y-100968899D01*
X120743153Y-100952802D01*
X120344698Y-100554347D01*
X120328601Y-100536587D01*
X120314323Y-100517334D01*
X120302000Y-100496775D01*
X120291751Y-100475106D01*
X120283676Y-100452538D01*
X120277852Y-100429287D01*
X120274335Y-100405577D01*
X120273159Y-100381636D01*
X120274335Y-100357695D01*
X120277852Y-100333985D01*
X120283676Y-100310734D01*
X120291751Y-100288166D01*
X120302000Y-100266497D01*
X120314323Y-100245938D01*
X120328601Y-100226685D01*
X120344698Y-100208925D01*
X120690119Y-99863504D01*
X120707879Y-99847407D01*
X120727132Y-99833129D01*
X120747691Y-99820806D01*
X120769360Y-99810557D01*
X120791928Y-99802482D01*
X120815179Y-99796658D01*
X120838889Y-99793141D01*
X120862830Y-99791965D01*
X120886771Y-99793141D01*
X120886771Y-99793141D01*
G37*
D16*
X120889347Y-100408153D03*
D14*
G36*
X135330577Y-85349335D02*
G01*
X135354287Y-85352852D01*
X135377538Y-85358676D01*
X135400106Y-85366751D01*
X135421775Y-85377000D01*
X135442334Y-85389323D01*
X135461587Y-85403601D01*
X135479347Y-85419698D01*
X135877802Y-85818153D01*
X135893899Y-85835913D01*
X135908177Y-85855166D01*
X135920500Y-85875725D01*
X135930749Y-85897394D01*
X135938824Y-85919962D01*
X135944648Y-85943213D01*
X135948165Y-85966923D01*
X135949341Y-85990864D01*
X135948165Y-86014805D01*
X135944648Y-86038515D01*
X135938824Y-86061766D01*
X135930749Y-86084334D01*
X135920500Y-86106003D01*
X135908177Y-86126562D01*
X135893899Y-86145815D01*
X135877802Y-86163575D01*
X135532381Y-86508996D01*
X135514621Y-86525093D01*
X135495368Y-86539371D01*
X135474809Y-86551694D01*
X135453140Y-86561943D01*
X135430572Y-86570018D01*
X135407321Y-86575842D01*
X135383611Y-86579359D01*
X135359670Y-86580535D01*
X135335729Y-86579359D01*
X135312019Y-86575842D01*
X135288768Y-86570018D01*
X135266200Y-86561943D01*
X135244531Y-86551694D01*
X135223972Y-86539371D01*
X135204719Y-86525093D01*
X135186959Y-86508996D01*
X134788504Y-86110541D01*
X134772407Y-86092781D01*
X134758129Y-86073528D01*
X134745806Y-86052969D01*
X134735557Y-86031300D01*
X134727482Y-86008732D01*
X134721658Y-85985481D01*
X134718141Y-85961771D01*
X134716965Y-85937830D01*
X134718141Y-85913889D01*
X134721658Y-85890179D01*
X134727482Y-85866928D01*
X134735557Y-85844360D01*
X134745806Y-85822691D01*
X134758129Y-85802132D01*
X134772407Y-85782879D01*
X134788504Y-85765119D01*
X135133925Y-85419698D01*
X135151685Y-85403601D01*
X135170938Y-85389323D01*
X135191497Y-85377000D01*
X135213166Y-85366751D01*
X135235734Y-85358676D01*
X135258985Y-85352852D01*
X135282695Y-85349335D01*
X135306636Y-85348159D01*
X135330577Y-85349335D01*
X135330577Y-85349335D01*
G37*
D16*
X135333153Y-85964347D03*
D14*
G36*
X136444271Y-84235641D02*
G01*
X136467981Y-84239158D01*
X136491232Y-84244982D01*
X136513800Y-84253057D01*
X136535469Y-84263306D01*
X136556028Y-84275629D01*
X136575281Y-84289907D01*
X136593041Y-84306004D01*
X136991496Y-84704459D01*
X137007593Y-84722219D01*
X137021871Y-84741472D01*
X137034194Y-84762031D01*
X137044443Y-84783700D01*
X137052518Y-84806268D01*
X137058342Y-84829519D01*
X137061859Y-84853229D01*
X137063035Y-84877170D01*
X137061859Y-84901111D01*
X137058342Y-84924821D01*
X137052518Y-84948072D01*
X137044443Y-84970640D01*
X137034194Y-84992309D01*
X137021871Y-85012868D01*
X137007593Y-85032121D01*
X136991496Y-85049881D01*
X136646075Y-85395302D01*
X136628315Y-85411399D01*
X136609062Y-85425677D01*
X136588503Y-85438000D01*
X136566834Y-85448249D01*
X136544266Y-85456324D01*
X136521015Y-85462148D01*
X136497305Y-85465665D01*
X136473364Y-85466841D01*
X136449423Y-85465665D01*
X136425713Y-85462148D01*
X136402462Y-85456324D01*
X136379894Y-85448249D01*
X136358225Y-85438000D01*
X136337666Y-85425677D01*
X136318413Y-85411399D01*
X136300653Y-85395302D01*
X135902198Y-84996847D01*
X135886101Y-84979087D01*
X135871823Y-84959834D01*
X135859500Y-84939275D01*
X135849251Y-84917606D01*
X135841176Y-84895038D01*
X135835352Y-84871787D01*
X135831835Y-84848077D01*
X135830659Y-84824136D01*
X135831835Y-84800195D01*
X135835352Y-84776485D01*
X135841176Y-84753234D01*
X135849251Y-84730666D01*
X135859500Y-84708997D01*
X135871823Y-84688438D01*
X135886101Y-84669185D01*
X135902198Y-84651425D01*
X136247619Y-84306004D01*
X136265379Y-84289907D01*
X136284632Y-84275629D01*
X136305191Y-84263306D01*
X136326860Y-84253057D01*
X136349428Y-84244982D01*
X136372679Y-84239158D01*
X136396389Y-84235641D01*
X136420330Y-84234465D01*
X136444271Y-84235641D01*
X136444271Y-84235641D01*
G37*
D16*
X136446847Y-84850653D03*
D14*
G36*
X149935577Y-70744335D02*
G01*
X149959287Y-70747852D01*
X149982538Y-70753676D01*
X150005106Y-70761751D01*
X150026775Y-70772000D01*
X150047334Y-70784323D01*
X150066587Y-70798601D01*
X150084347Y-70814698D01*
X150482802Y-71213153D01*
X150498899Y-71230913D01*
X150513177Y-71250166D01*
X150525500Y-71270725D01*
X150535749Y-71292394D01*
X150543824Y-71314962D01*
X150549648Y-71338213D01*
X150553165Y-71361923D01*
X150554341Y-71385864D01*
X150553165Y-71409805D01*
X150549648Y-71433515D01*
X150543824Y-71456766D01*
X150535749Y-71479334D01*
X150525500Y-71501003D01*
X150513177Y-71521562D01*
X150498899Y-71540815D01*
X150482802Y-71558575D01*
X150137381Y-71903996D01*
X150119621Y-71920093D01*
X150100368Y-71934371D01*
X150079809Y-71946694D01*
X150058140Y-71956943D01*
X150035572Y-71965018D01*
X150012321Y-71970842D01*
X149988611Y-71974359D01*
X149964670Y-71975535D01*
X149940729Y-71974359D01*
X149917019Y-71970842D01*
X149893768Y-71965018D01*
X149871200Y-71956943D01*
X149849531Y-71946694D01*
X149828972Y-71934371D01*
X149809719Y-71920093D01*
X149791959Y-71903996D01*
X149393504Y-71505541D01*
X149377407Y-71487781D01*
X149363129Y-71468528D01*
X149350806Y-71447969D01*
X149340557Y-71426300D01*
X149332482Y-71403732D01*
X149326658Y-71380481D01*
X149323141Y-71356771D01*
X149321965Y-71332830D01*
X149323141Y-71308889D01*
X149326658Y-71285179D01*
X149332482Y-71261928D01*
X149340557Y-71239360D01*
X149350806Y-71217691D01*
X149363129Y-71197132D01*
X149377407Y-71177879D01*
X149393504Y-71160119D01*
X149738925Y-70814698D01*
X149756685Y-70798601D01*
X149775938Y-70784323D01*
X149796497Y-70772000D01*
X149818166Y-70761751D01*
X149840734Y-70753676D01*
X149863985Y-70747852D01*
X149887695Y-70744335D01*
X149911636Y-70743159D01*
X149935577Y-70744335D01*
X149935577Y-70744335D01*
G37*
D16*
X149938153Y-71359347D03*
D14*
G36*
X151049271Y-69630641D02*
G01*
X151072981Y-69634158D01*
X151096232Y-69639982D01*
X151118800Y-69648057D01*
X151140469Y-69658306D01*
X151161028Y-69670629D01*
X151180281Y-69684907D01*
X151198041Y-69701004D01*
X151596496Y-70099459D01*
X151612593Y-70117219D01*
X151626871Y-70136472D01*
X151639194Y-70157031D01*
X151649443Y-70178700D01*
X151657518Y-70201268D01*
X151663342Y-70224519D01*
X151666859Y-70248229D01*
X151668035Y-70272170D01*
X151666859Y-70296111D01*
X151663342Y-70319821D01*
X151657518Y-70343072D01*
X151649443Y-70365640D01*
X151639194Y-70387309D01*
X151626871Y-70407868D01*
X151612593Y-70427121D01*
X151596496Y-70444881D01*
X151251075Y-70790302D01*
X151233315Y-70806399D01*
X151214062Y-70820677D01*
X151193503Y-70833000D01*
X151171834Y-70843249D01*
X151149266Y-70851324D01*
X151126015Y-70857148D01*
X151102305Y-70860665D01*
X151078364Y-70861841D01*
X151054423Y-70860665D01*
X151030713Y-70857148D01*
X151007462Y-70851324D01*
X150984894Y-70843249D01*
X150963225Y-70833000D01*
X150942666Y-70820677D01*
X150923413Y-70806399D01*
X150905653Y-70790302D01*
X150507198Y-70391847D01*
X150491101Y-70374087D01*
X150476823Y-70354834D01*
X150464500Y-70334275D01*
X150454251Y-70312606D01*
X150446176Y-70290038D01*
X150440352Y-70266787D01*
X150436835Y-70243077D01*
X150435659Y-70219136D01*
X150436835Y-70195195D01*
X150440352Y-70171485D01*
X150446176Y-70148234D01*
X150454251Y-70125666D01*
X150464500Y-70103997D01*
X150476823Y-70083438D01*
X150491101Y-70064185D01*
X150507198Y-70046425D01*
X150852619Y-69701004D01*
X150870379Y-69684907D01*
X150889632Y-69670629D01*
X150910191Y-69658306D01*
X150931860Y-69648057D01*
X150954428Y-69639982D01*
X150977679Y-69634158D01*
X151001389Y-69630641D01*
X151025330Y-69629465D01*
X151049271Y-69630641D01*
X151049271Y-69630641D01*
G37*
D16*
X151051847Y-70245653D03*
D14*
G36*
X167945691Y-75560176D02*
G01*
X167969401Y-75563693D01*
X167992652Y-75569517D01*
X168015220Y-75577592D01*
X168036889Y-75587841D01*
X168057448Y-75600164D01*
X168076701Y-75614442D01*
X168094461Y-75630539D01*
X168110558Y-75648299D01*
X168124836Y-75667552D01*
X168137159Y-75688111D01*
X168147408Y-75709780D01*
X168155483Y-75732348D01*
X168161307Y-75755599D01*
X168164824Y-75779309D01*
X168166000Y-75803250D01*
X168166000Y-76291750D01*
X168164824Y-76315691D01*
X168161307Y-76339401D01*
X168155483Y-76362652D01*
X168147408Y-76385220D01*
X168137159Y-76406889D01*
X168124836Y-76427448D01*
X168110558Y-76446701D01*
X168094461Y-76464461D01*
X168076701Y-76480558D01*
X168057448Y-76494836D01*
X168036889Y-76507159D01*
X168015220Y-76517408D01*
X167992652Y-76525483D01*
X167969401Y-76531307D01*
X167945691Y-76534824D01*
X167921750Y-76536000D01*
X167358250Y-76536000D01*
X167334309Y-76534824D01*
X167310599Y-76531307D01*
X167287348Y-76525483D01*
X167264780Y-76517408D01*
X167243111Y-76507159D01*
X167222552Y-76494836D01*
X167203299Y-76480558D01*
X167185539Y-76464461D01*
X167169442Y-76446701D01*
X167155164Y-76427448D01*
X167142841Y-76406889D01*
X167132592Y-76385220D01*
X167124517Y-76362652D01*
X167118693Y-76339401D01*
X167115176Y-76315691D01*
X167114000Y-76291750D01*
X167114000Y-75803250D01*
X167115176Y-75779309D01*
X167118693Y-75755599D01*
X167124517Y-75732348D01*
X167132592Y-75709780D01*
X167142841Y-75688111D01*
X167155164Y-75667552D01*
X167169442Y-75648299D01*
X167185539Y-75630539D01*
X167203299Y-75614442D01*
X167222552Y-75600164D01*
X167243111Y-75587841D01*
X167264780Y-75577592D01*
X167287348Y-75569517D01*
X167310599Y-75563693D01*
X167334309Y-75560176D01*
X167358250Y-75559000D01*
X167921750Y-75559000D01*
X167945691Y-75560176D01*
X167945691Y-75560176D01*
G37*
D16*
X167640000Y-76047500D03*
D14*
G36*
X167945691Y-77135176D02*
G01*
X167969401Y-77138693D01*
X167992652Y-77144517D01*
X168015220Y-77152592D01*
X168036889Y-77162841D01*
X168057448Y-77175164D01*
X168076701Y-77189442D01*
X168094461Y-77205539D01*
X168110558Y-77223299D01*
X168124836Y-77242552D01*
X168137159Y-77263111D01*
X168147408Y-77284780D01*
X168155483Y-77307348D01*
X168161307Y-77330599D01*
X168164824Y-77354309D01*
X168166000Y-77378250D01*
X168166000Y-77866750D01*
X168164824Y-77890691D01*
X168161307Y-77914401D01*
X168155483Y-77937652D01*
X168147408Y-77960220D01*
X168137159Y-77981889D01*
X168124836Y-78002448D01*
X168110558Y-78021701D01*
X168094461Y-78039461D01*
X168076701Y-78055558D01*
X168057448Y-78069836D01*
X168036889Y-78082159D01*
X168015220Y-78092408D01*
X167992652Y-78100483D01*
X167969401Y-78106307D01*
X167945691Y-78109824D01*
X167921750Y-78111000D01*
X167358250Y-78111000D01*
X167334309Y-78109824D01*
X167310599Y-78106307D01*
X167287348Y-78100483D01*
X167264780Y-78092408D01*
X167243111Y-78082159D01*
X167222552Y-78069836D01*
X167203299Y-78055558D01*
X167185539Y-78039461D01*
X167169442Y-78021701D01*
X167155164Y-78002448D01*
X167142841Y-77981889D01*
X167132592Y-77960220D01*
X167124517Y-77937652D01*
X167118693Y-77914401D01*
X167115176Y-77890691D01*
X167114000Y-77866750D01*
X167114000Y-77378250D01*
X167115176Y-77354309D01*
X167118693Y-77330599D01*
X167124517Y-77307348D01*
X167132592Y-77284780D01*
X167142841Y-77263111D01*
X167155164Y-77242552D01*
X167169442Y-77223299D01*
X167185539Y-77205539D01*
X167203299Y-77189442D01*
X167222552Y-77175164D01*
X167243111Y-77162841D01*
X167264780Y-77152592D01*
X167287348Y-77144517D01*
X167310599Y-77138693D01*
X167334309Y-77135176D01*
X167358250Y-77134000D01*
X167921750Y-77134000D01*
X167945691Y-77135176D01*
X167945691Y-77135176D01*
G37*
D16*
X167640000Y-77622500D03*
D14*
G36*
X167945691Y-94610176D02*
G01*
X167969401Y-94613693D01*
X167992652Y-94619517D01*
X168015220Y-94627592D01*
X168036889Y-94637841D01*
X168057448Y-94650164D01*
X168076701Y-94664442D01*
X168094461Y-94680539D01*
X168110558Y-94698299D01*
X168124836Y-94717552D01*
X168137159Y-94738111D01*
X168147408Y-94759780D01*
X168155483Y-94782348D01*
X168161307Y-94805599D01*
X168164824Y-94829309D01*
X168166000Y-94853250D01*
X168166000Y-95341750D01*
X168164824Y-95365691D01*
X168161307Y-95389401D01*
X168155483Y-95412652D01*
X168147408Y-95435220D01*
X168137159Y-95456889D01*
X168124836Y-95477448D01*
X168110558Y-95496701D01*
X168094461Y-95514461D01*
X168076701Y-95530558D01*
X168057448Y-95544836D01*
X168036889Y-95557159D01*
X168015220Y-95567408D01*
X167992652Y-95575483D01*
X167969401Y-95581307D01*
X167945691Y-95584824D01*
X167921750Y-95586000D01*
X167358250Y-95586000D01*
X167334309Y-95584824D01*
X167310599Y-95581307D01*
X167287348Y-95575483D01*
X167264780Y-95567408D01*
X167243111Y-95557159D01*
X167222552Y-95544836D01*
X167203299Y-95530558D01*
X167185539Y-95514461D01*
X167169442Y-95496701D01*
X167155164Y-95477448D01*
X167142841Y-95456889D01*
X167132592Y-95435220D01*
X167124517Y-95412652D01*
X167118693Y-95389401D01*
X167115176Y-95365691D01*
X167114000Y-95341750D01*
X167114000Y-94853250D01*
X167115176Y-94829309D01*
X167118693Y-94805599D01*
X167124517Y-94782348D01*
X167132592Y-94759780D01*
X167142841Y-94738111D01*
X167155164Y-94717552D01*
X167169442Y-94698299D01*
X167185539Y-94680539D01*
X167203299Y-94664442D01*
X167222552Y-94650164D01*
X167243111Y-94637841D01*
X167264780Y-94627592D01*
X167287348Y-94619517D01*
X167310599Y-94613693D01*
X167334309Y-94610176D01*
X167358250Y-94609000D01*
X167921750Y-94609000D01*
X167945691Y-94610176D01*
X167945691Y-94610176D01*
G37*
D16*
X167640000Y-95097500D03*
D14*
G36*
X167945691Y-96185176D02*
G01*
X167969401Y-96188693D01*
X167992652Y-96194517D01*
X168015220Y-96202592D01*
X168036889Y-96212841D01*
X168057448Y-96225164D01*
X168076701Y-96239442D01*
X168094461Y-96255539D01*
X168110558Y-96273299D01*
X168124836Y-96292552D01*
X168137159Y-96313111D01*
X168147408Y-96334780D01*
X168155483Y-96357348D01*
X168161307Y-96380599D01*
X168164824Y-96404309D01*
X168166000Y-96428250D01*
X168166000Y-96916750D01*
X168164824Y-96940691D01*
X168161307Y-96964401D01*
X168155483Y-96987652D01*
X168147408Y-97010220D01*
X168137159Y-97031889D01*
X168124836Y-97052448D01*
X168110558Y-97071701D01*
X168094461Y-97089461D01*
X168076701Y-97105558D01*
X168057448Y-97119836D01*
X168036889Y-97132159D01*
X168015220Y-97142408D01*
X167992652Y-97150483D01*
X167969401Y-97156307D01*
X167945691Y-97159824D01*
X167921750Y-97161000D01*
X167358250Y-97161000D01*
X167334309Y-97159824D01*
X167310599Y-97156307D01*
X167287348Y-97150483D01*
X167264780Y-97142408D01*
X167243111Y-97132159D01*
X167222552Y-97119836D01*
X167203299Y-97105558D01*
X167185539Y-97089461D01*
X167169442Y-97071701D01*
X167155164Y-97052448D01*
X167142841Y-97031889D01*
X167132592Y-97010220D01*
X167124517Y-96987652D01*
X167118693Y-96964401D01*
X167115176Y-96940691D01*
X167114000Y-96916750D01*
X167114000Y-96428250D01*
X167115176Y-96404309D01*
X167118693Y-96380599D01*
X167124517Y-96357348D01*
X167132592Y-96334780D01*
X167142841Y-96313111D01*
X167155164Y-96292552D01*
X167169442Y-96273299D01*
X167185539Y-96255539D01*
X167203299Y-96239442D01*
X167222552Y-96225164D01*
X167243111Y-96212841D01*
X167264780Y-96202592D01*
X167287348Y-96194517D01*
X167310599Y-96188693D01*
X167334309Y-96185176D01*
X167358250Y-96184000D01*
X167921750Y-96184000D01*
X167945691Y-96185176D01*
X167945691Y-96185176D01*
G37*
D16*
X167640000Y-96672500D03*
D14*
G36*
X167945691Y-112072676D02*
G01*
X167969401Y-112076193D01*
X167992652Y-112082017D01*
X168015220Y-112090092D01*
X168036889Y-112100341D01*
X168057448Y-112112664D01*
X168076701Y-112126942D01*
X168094461Y-112143039D01*
X168110558Y-112160799D01*
X168124836Y-112180052D01*
X168137159Y-112200611D01*
X168147408Y-112222280D01*
X168155483Y-112244848D01*
X168161307Y-112268099D01*
X168164824Y-112291809D01*
X168166000Y-112315750D01*
X168166000Y-112804250D01*
X168164824Y-112828191D01*
X168161307Y-112851901D01*
X168155483Y-112875152D01*
X168147408Y-112897720D01*
X168137159Y-112919389D01*
X168124836Y-112939948D01*
X168110558Y-112959201D01*
X168094461Y-112976961D01*
X168076701Y-112993058D01*
X168057448Y-113007336D01*
X168036889Y-113019659D01*
X168015220Y-113029908D01*
X167992652Y-113037983D01*
X167969401Y-113043807D01*
X167945691Y-113047324D01*
X167921750Y-113048500D01*
X167358250Y-113048500D01*
X167334309Y-113047324D01*
X167310599Y-113043807D01*
X167287348Y-113037983D01*
X167264780Y-113029908D01*
X167243111Y-113019659D01*
X167222552Y-113007336D01*
X167203299Y-112993058D01*
X167185539Y-112976961D01*
X167169442Y-112959201D01*
X167155164Y-112939948D01*
X167142841Y-112919389D01*
X167132592Y-112897720D01*
X167124517Y-112875152D01*
X167118693Y-112851901D01*
X167115176Y-112828191D01*
X167114000Y-112804250D01*
X167114000Y-112315750D01*
X167115176Y-112291809D01*
X167118693Y-112268099D01*
X167124517Y-112244848D01*
X167132592Y-112222280D01*
X167142841Y-112200611D01*
X167155164Y-112180052D01*
X167169442Y-112160799D01*
X167185539Y-112143039D01*
X167203299Y-112126942D01*
X167222552Y-112112664D01*
X167243111Y-112100341D01*
X167264780Y-112090092D01*
X167287348Y-112082017D01*
X167310599Y-112076193D01*
X167334309Y-112072676D01*
X167358250Y-112071500D01*
X167921750Y-112071500D01*
X167945691Y-112072676D01*
X167945691Y-112072676D01*
G37*
D16*
X167640000Y-112560000D03*
D14*
G36*
X167945691Y-113647676D02*
G01*
X167969401Y-113651193D01*
X167992652Y-113657017D01*
X168015220Y-113665092D01*
X168036889Y-113675341D01*
X168057448Y-113687664D01*
X168076701Y-113701942D01*
X168094461Y-113718039D01*
X168110558Y-113735799D01*
X168124836Y-113755052D01*
X168137159Y-113775611D01*
X168147408Y-113797280D01*
X168155483Y-113819848D01*
X168161307Y-113843099D01*
X168164824Y-113866809D01*
X168166000Y-113890750D01*
X168166000Y-114379250D01*
X168164824Y-114403191D01*
X168161307Y-114426901D01*
X168155483Y-114450152D01*
X168147408Y-114472720D01*
X168137159Y-114494389D01*
X168124836Y-114514948D01*
X168110558Y-114534201D01*
X168094461Y-114551961D01*
X168076701Y-114568058D01*
X168057448Y-114582336D01*
X168036889Y-114594659D01*
X168015220Y-114604908D01*
X167992652Y-114612983D01*
X167969401Y-114618807D01*
X167945691Y-114622324D01*
X167921750Y-114623500D01*
X167358250Y-114623500D01*
X167334309Y-114622324D01*
X167310599Y-114618807D01*
X167287348Y-114612983D01*
X167264780Y-114604908D01*
X167243111Y-114594659D01*
X167222552Y-114582336D01*
X167203299Y-114568058D01*
X167185539Y-114551961D01*
X167169442Y-114534201D01*
X167155164Y-114514948D01*
X167142841Y-114494389D01*
X167132592Y-114472720D01*
X167124517Y-114450152D01*
X167118693Y-114426901D01*
X167115176Y-114403191D01*
X167114000Y-114379250D01*
X167114000Y-113890750D01*
X167115176Y-113866809D01*
X167118693Y-113843099D01*
X167124517Y-113819848D01*
X167132592Y-113797280D01*
X167142841Y-113775611D01*
X167155164Y-113755052D01*
X167169442Y-113735799D01*
X167185539Y-113718039D01*
X167203299Y-113701942D01*
X167222552Y-113687664D01*
X167243111Y-113675341D01*
X167264780Y-113665092D01*
X167287348Y-113657017D01*
X167310599Y-113651193D01*
X167334309Y-113647676D01*
X167358250Y-113646500D01*
X167921750Y-113646500D01*
X167945691Y-113647676D01*
X167945691Y-113647676D01*
G37*
D16*
X167640000Y-114135000D03*
D24*
X96590000Y-77582500D03*
X96590000Y-79262500D03*
D25*
X96590000Y-75512500D03*
X96590000Y-81332500D03*
D26*
X98890000Y-75960000D03*
X98890000Y-80885000D03*
D27*
X99250000Y-77122500D03*
X99250000Y-77772500D03*
X99250000Y-78422500D03*
X99250000Y-79072500D03*
X99250000Y-79722500D03*
D28*
X134030000Y-67310000D03*
X130130000Y-67310000D03*
X134030000Y-68580000D03*
X130130000Y-68580000D03*
X134030000Y-69850000D03*
X130130000Y-69850000D03*
X134030000Y-71120000D03*
X130130000Y-71120000D03*
X134030000Y-72390000D03*
X130130000Y-72390000D03*
D29*
X110375000Y-82780000D03*
X110375000Y-79780000D03*
X111875000Y-79780000D03*
X111875000Y-82780000D03*
D30*
X154937500Y-122555000D03*
X153037500Y-122555000D03*
X137157500Y-122555000D03*
X135257500Y-122555000D03*
X118425000Y-122555000D03*
X116525000Y-122555000D03*
D31*
X117438249Y-103859251D03*
D14*
G36*
X117385216Y-104444028D02*
G01*
X116853472Y-103912284D01*
X117491282Y-103274474D01*
X118023026Y-103806218D01*
X117385216Y-104444028D01*
X117385216Y-104444028D01*
G37*
D31*
X118781751Y-102515749D03*
D14*
G36*
X118728718Y-103100526D02*
G01*
X118196974Y-102568782D01*
X118834784Y-101930972D01*
X119366528Y-102462716D01*
X118728718Y-103100526D01*
X118728718Y-103100526D01*
G37*
D31*
X132678249Y-88619251D03*
D14*
G36*
X132625216Y-89204028D02*
G01*
X132093472Y-88672284D01*
X132731282Y-88034474D01*
X133263026Y-88566218D01*
X132625216Y-89204028D01*
X132625216Y-89204028D01*
G37*
D31*
X134021751Y-87275749D03*
D14*
G36*
X133968718Y-87860526D02*
G01*
X133436974Y-87328782D01*
X134074784Y-86690972D01*
X134606528Y-87222716D01*
X133968718Y-87860526D01*
X133968718Y-87860526D01*
G37*
D31*
X147600749Y-73696751D03*
D14*
G36*
X147547716Y-74281528D02*
G01*
X147015972Y-73749784D01*
X147653782Y-73111974D01*
X148185526Y-73643718D01*
X147547716Y-74281528D01*
X147547716Y-74281528D01*
G37*
D31*
X148944251Y-72353249D03*
D14*
G36*
X148891218Y-72938026D02*
G01*
X148359474Y-72406282D01*
X148997284Y-71768472D01*
X149529028Y-72300216D01*
X148891218Y-72938026D01*
X148891218Y-72938026D01*
G37*
D32*
X167640000Y-71757500D03*
X167640000Y-73657500D03*
X167640000Y-90807500D03*
X167640000Y-92707500D03*
X167640000Y-108587500D03*
X167640000Y-110487500D03*
D14*
G36*
X104763191Y-87625176D02*
G01*
X104786901Y-87628693D01*
X104810152Y-87634517D01*
X104832720Y-87642592D01*
X104854389Y-87652841D01*
X104874948Y-87665164D01*
X104894201Y-87679442D01*
X104911961Y-87695539D01*
X104928058Y-87713299D01*
X104942336Y-87732552D01*
X104954659Y-87753111D01*
X104964908Y-87774780D01*
X104972983Y-87797348D01*
X104978807Y-87820599D01*
X104982324Y-87844309D01*
X104983500Y-87868250D01*
X104983500Y-88356750D01*
X104982324Y-88380691D01*
X104978807Y-88404401D01*
X104972983Y-88427652D01*
X104964908Y-88450220D01*
X104954659Y-88471889D01*
X104942336Y-88492448D01*
X104928058Y-88511701D01*
X104911961Y-88529461D01*
X104894201Y-88545558D01*
X104874948Y-88559836D01*
X104854389Y-88572159D01*
X104832720Y-88582408D01*
X104810152Y-88590483D01*
X104786901Y-88596307D01*
X104763191Y-88599824D01*
X104739250Y-88601000D01*
X104175750Y-88601000D01*
X104151809Y-88599824D01*
X104128099Y-88596307D01*
X104104848Y-88590483D01*
X104082280Y-88582408D01*
X104060611Y-88572159D01*
X104040052Y-88559836D01*
X104020799Y-88545558D01*
X104003039Y-88529461D01*
X103986942Y-88511701D01*
X103972664Y-88492448D01*
X103960341Y-88471889D01*
X103950092Y-88450220D01*
X103942017Y-88427652D01*
X103936193Y-88404401D01*
X103932676Y-88380691D01*
X103931500Y-88356750D01*
X103931500Y-87868250D01*
X103932676Y-87844309D01*
X103936193Y-87820599D01*
X103942017Y-87797348D01*
X103950092Y-87774780D01*
X103960341Y-87753111D01*
X103972664Y-87732552D01*
X103986942Y-87713299D01*
X104003039Y-87695539D01*
X104020799Y-87679442D01*
X104040052Y-87665164D01*
X104060611Y-87652841D01*
X104082280Y-87642592D01*
X104104848Y-87634517D01*
X104128099Y-87628693D01*
X104151809Y-87625176D01*
X104175750Y-87624000D01*
X104739250Y-87624000D01*
X104763191Y-87625176D01*
X104763191Y-87625176D01*
G37*
D16*
X104457500Y-88112500D03*
D14*
G36*
X104763191Y-89200176D02*
G01*
X104786901Y-89203693D01*
X104810152Y-89209517D01*
X104832720Y-89217592D01*
X104854389Y-89227841D01*
X104874948Y-89240164D01*
X104894201Y-89254442D01*
X104911961Y-89270539D01*
X104928058Y-89288299D01*
X104942336Y-89307552D01*
X104954659Y-89328111D01*
X104964908Y-89349780D01*
X104972983Y-89372348D01*
X104978807Y-89395599D01*
X104982324Y-89419309D01*
X104983500Y-89443250D01*
X104983500Y-89931750D01*
X104982324Y-89955691D01*
X104978807Y-89979401D01*
X104972983Y-90002652D01*
X104964908Y-90025220D01*
X104954659Y-90046889D01*
X104942336Y-90067448D01*
X104928058Y-90086701D01*
X104911961Y-90104461D01*
X104894201Y-90120558D01*
X104874948Y-90134836D01*
X104854389Y-90147159D01*
X104832720Y-90157408D01*
X104810152Y-90165483D01*
X104786901Y-90171307D01*
X104763191Y-90174824D01*
X104739250Y-90176000D01*
X104175750Y-90176000D01*
X104151809Y-90174824D01*
X104128099Y-90171307D01*
X104104848Y-90165483D01*
X104082280Y-90157408D01*
X104060611Y-90147159D01*
X104040052Y-90134836D01*
X104020799Y-90120558D01*
X104003039Y-90104461D01*
X103986942Y-90086701D01*
X103972664Y-90067448D01*
X103960341Y-90046889D01*
X103950092Y-90025220D01*
X103942017Y-90002652D01*
X103936193Y-89979401D01*
X103932676Y-89955691D01*
X103931500Y-89931750D01*
X103931500Y-89443250D01*
X103932676Y-89419309D01*
X103936193Y-89395599D01*
X103942017Y-89372348D01*
X103950092Y-89349780D01*
X103960341Y-89328111D01*
X103972664Y-89307552D01*
X103986942Y-89288299D01*
X104003039Y-89270539D01*
X104020799Y-89254442D01*
X104040052Y-89240164D01*
X104060611Y-89227841D01*
X104082280Y-89217592D01*
X104104848Y-89209517D01*
X104128099Y-89203693D01*
X104151809Y-89200176D01*
X104175750Y-89199000D01*
X104739250Y-89199000D01*
X104763191Y-89200176D01*
X104763191Y-89200176D01*
G37*
D16*
X104457500Y-89687500D03*
D14*
G36*
X98413191Y-89200176D02*
G01*
X98436901Y-89203693D01*
X98460152Y-89209517D01*
X98482720Y-89217592D01*
X98504389Y-89227841D01*
X98524948Y-89240164D01*
X98544201Y-89254442D01*
X98561961Y-89270539D01*
X98578058Y-89288299D01*
X98592336Y-89307552D01*
X98604659Y-89328111D01*
X98614908Y-89349780D01*
X98622983Y-89372348D01*
X98628807Y-89395599D01*
X98632324Y-89419309D01*
X98633500Y-89443250D01*
X98633500Y-89931750D01*
X98632324Y-89955691D01*
X98628807Y-89979401D01*
X98622983Y-90002652D01*
X98614908Y-90025220D01*
X98604659Y-90046889D01*
X98592336Y-90067448D01*
X98578058Y-90086701D01*
X98561961Y-90104461D01*
X98544201Y-90120558D01*
X98524948Y-90134836D01*
X98504389Y-90147159D01*
X98482720Y-90157408D01*
X98460152Y-90165483D01*
X98436901Y-90171307D01*
X98413191Y-90174824D01*
X98389250Y-90176000D01*
X97825750Y-90176000D01*
X97801809Y-90174824D01*
X97778099Y-90171307D01*
X97754848Y-90165483D01*
X97732280Y-90157408D01*
X97710611Y-90147159D01*
X97690052Y-90134836D01*
X97670799Y-90120558D01*
X97653039Y-90104461D01*
X97636942Y-90086701D01*
X97622664Y-90067448D01*
X97610341Y-90046889D01*
X97600092Y-90025220D01*
X97592017Y-90002652D01*
X97586193Y-89979401D01*
X97582676Y-89955691D01*
X97581500Y-89931750D01*
X97581500Y-89443250D01*
X97582676Y-89419309D01*
X97586193Y-89395599D01*
X97592017Y-89372348D01*
X97600092Y-89349780D01*
X97610341Y-89328111D01*
X97622664Y-89307552D01*
X97636942Y-89288299D01*
X97653039Y-89270539D01*
X97670799Y-89254442D01*
X97690052Y-89240164D01*
X97710611Y-89227841D01*
X97732280Y-89217592D01*
X97754848Y-89209517D01*
X97778099Y-89203693D01*
X97801809Y-89200176D01*
X97825750Y-89199000D01*
X98389250Y-89199000D01*
X98413191Y-89200176D01*
X98413191Y-89200176D01*
G37*
D16*
X98107500Y-89687500D03*
D14*
G36*
X98413191Y-87625176D02*
G01*
X98436901Y-87628693D01*
X98460152Y-87634517D01*
X98482720Y-87642592D01*
X98504389Y-87652841D01*
X98524948Y-87665164D01*
X98544201Y-87679442D01*
X98561961Y-87695539D01*
X98578058Y-87713299D01*
X98592336Y-87732552D01*
X98604659Y-87753111D01*
X98614908Y-87774780D01*
X98622983Y-87797348D01*
X98628807Y-87820599D01*
X98632324Y-87844309D01*
X98633500Y-87868250D01*
X98633500Y-88356750D01*
X98632324Y-88380691D01*
X98628807Y-88404401D01*
X98622983Y-88427652D01*
X98614908Y-88450220D01*
X98604659Y-88471889D01*
X98592336Y-88492448D01*
X98578058Y-88511701D01*
X98561961Y-88529461D01*
X98544201Y-88545558D01*
X98524948Y-88559836D01*
X98504389Y-88572159D01*
X98482720Y-88582408D01*
X98460152Y-88590483D01*
X98436901Y-88596307D01*
X98413191Y-88599824D01*
X98389250Y-88601000D01*
X97825750Y-88601000D01*
X97801809Y-88599824D01*
X97778099Y-88596307D01*
X97754848Y-88590483D01*
X97732280Y-88582408D01*
X97710611Y-88572159D01*
X97690052Y-88559836D01*
X97670799Y-88545558D01*
X97653039Y-88529461D01*
X97636942Y-88511701D01*
X97622664Y-88492448D01*
X97610341Y-88471889D01*
X97600092Y-88450220D01*
X97592017Y-88427652D01*
X97586193Y-88404401D01*
X97582676Y-88380691D01*
X97581500Y-88356750D01*
X97581500Y-87868250D01*
X97582676Y-87844309D01*
X97586193Y-87820599D01*
X97592017Y-87797348D01*
X97600092Y-87774780D01*
X97610341Y-87753111D01*
X97622664Y-87732552D01*
X97636942Y-87713299D01*
X97653039Y-87695539D01*
X97670799Y-87679442D01*
X97690052Y-87665164D01*
X97710611Y-87652841D01*
X97732280Y-87642592D01*
X97754848Y-87634517D01*
X97778099Y-87628693D01*
X97801809Y-87625176D01*
X97825750Y-87624000D01*
X98389250Y-87624000D01*
X98413191Y-87625176D01*
X98413191Y-87625176D01*
G37*
D16*
X98107500Y-88112500D03*
D14*
G36*
X138735691Y-59990176D02*
G01*
X138759401Y-59993693D01*
X138782652Y-59999517D01*
X138805220Y-60007592D01*
X138826889Y-60017841D01*
X138847448Y-60030164D01*
X138866701Y-60044442D01*
X138884461Y-60060539D01*
X138900558Y-60078299D01*
X138914836Y-60097552D01*
X138927159Y-60118111D01*
X138937408Y-60139780D01*
X138945483Y-60162348D01*
X138951307Y-60185599D01*
X138954824Y-60209309D01*
X138956000Y-60233250D01*
X138956000Y-60721750D01*
X138954824Y-60745691D01*
X138951307Y-60769401D01*
X138945483Y-60792652D01*
X138937408Y-60815220D01*
X138927159Y-60836889D01*
X138914836Y-60857448D01*
X138900558Y-60876701D01*
X138884461Y-60894461D01*
X138866701Y-60910558D01*
X138847448Y-60924836D01*
X138826889Y-60937159D01*
X138805220Y-60947408D01*
X138782652Y-60955483D01*
X138759401Y-60961307D01*
X138735691Y-60964824D01*
X138711750Y-60966000D01*
X138148250Y-60966000D01*
X138124309Y-60964824D01*
X138100599Y-60961307D01*
X138077348Y-60955483D01*
X138054780Y-60947408D01*
X138033111Y-60937159D01*
X138012552Y-60924836D01*
X137993299Y-60910558D01*
X137975539Y-60894461D01*
X137959442Y-60876701D01*
X137945164Y-60857448D01*
X137932841Y-60836889D01*
X137922592Y-60815220D01*
X137914517Y-60792652D01*
X137908693Y-60769401D01*
X137905176Y-60745691D01*
X137904000Y-60721750D01*
X137904000Y-60233250D01*
X137905176Y-60209309D01*
X137908693Y-60185599D01*
X137914517Y-60162348D01*
X137922592Y-60139780D01*
X137932841Y-60118111D01*
X137945164Y-60097552D01*
X137959442Y-60078299D01*
X137975539Y-60060539D01*
X137993299Y-60044442D01*
X138012552Y-60030164D01*
X138033111Y-60017841D01*
X138054780Y-60007592D01*
X138077348Y-59999517D01*
X138100599Y-59993693D01*
X138124309Y-59990176D01*
X138148250Y-59989000D01*
X138711750Y-59989000D01*
X138735691Y-59990176D01*
X138735691Y-59990176D01*
G37*
D16*
X138430000Y-60477500D03*
D14*
G36*
X138735691Y-58415176D02*
G01*
X138759401Y-58418693D01*
X138782652Y-58424517D01*
X138805220Y-58432592D01*
X138826889Y-58442841D01*
X138847448Y-58455164D01*
X138866701Y-58469442D01*
X138884461Y-58485539D01*
X138900558Y-58503299D01*
X138914836Y-58522552D01*
X138927159Y-58543111D01*
X138937408Y-58564780D01*
X138945483Y-58587348D01*
X138951307Y-58610599D01*
X138954824Y-58634309D01*
X138956000Y-58658250D01*
X138956000Y-59146750D01*
X138954824Y-59170691D01*
X138951307Y-59194401D01*
X138945483Y-59217652D01*
X138937408Y-59240220D01*
X138927159Y-59261889D01*
X138914836Y-59282448D01*
X138900558Y-59301701D01*
X138884461Y-59319461D01*
X138866701Y-59335558D01*
X138847448Y-59349836D01*
X138826889Y-59362159D01*
X138805220Y-59372408D01*
X138782652Y-59380483D01*
X138759401Y-59386307D01*
X138735691Y-59389824D01*
X138711750Y-59391000D01*
X138148250Y-59391000D01*
X138124309Y-59389824D01*
X138100599Y-59386307D01*
X138077348Y-59380483D01*
X138054780Y-59372408D01*
X138033111Y-59362159D01*
X138012552Y-59349836D01*
X137993299Y-59335558D01*
X137975539Y-59319461D01*
X137959442Y-59301701D01*
X137945164Y-59282448D01*
X137932841Y-59261889D01*
X137922592Y-59240220D01*
X137914517Y-59217652D01*
X137908693Y-59194401D01*
X137905176Y-59170691D01*
X137904000Y-59146750D01*
X137904000Y-58658250D01*
X137905176Y-58634309D01*
X137908693Y-58610599D01*
X137914517Y-58587348D01*
X137922592Y-58564780D01*
X137932841Y-58543111D01*
X137945164Y-58522552D01*
X137959442Y-58503299D01*
X137975539Y-58485539D01*
X137993299Y-58469442D01*
X138012552Y-58455164D01*
X138033111Y-58442841D01*
X138054780Y-58432592D01*
X138077348Y-58424517D01*
X138100599Y-58418693D01*
X138124309Y-58415176D01*
X138148250Y-58414000D01*
X138711750Y-58414000D01*
X138735691Y-58415176D01*
X138735691Y-58415176D01*
G37*
D16*
X138430000Y-58902500D03*
D14*
G36*
X107303191Y-87625176D02*
G01*
X107326901Y-87628693D01*
X107350152Y-87634517D01*
X107372720Y-87642592D01*
X107394389Y-87652841D01*
X107414948Y-87665164D01*
X107434201Y-87679442D01*
X107451961Y-87695539D01*
X107468058Y-87713299D01*
X107482336Y-87732552D01*
X107494659Y-87753111D01*
X107504908Y-87774780D01*
X107512983Y-87797348D01*
X107518807Y-87820599D01*
X107522324Y-87844309D01*
X107523500Y-87868250D01*
X107523500Y-88356750D01*
X107522324Y-88380691D01*
X107518807Y-88404401D01*
X107512983Y-88427652D01*
X107504908Y-88450220D01*
X107494659Y-88471889D01*
X107482336Y-88492448D01*
X107468058Y-88511701D01*
X107451961Y-88529461D01*
X107434201Y-88545558D01*
X107414948Y-88559836D01*
X107394389Y-88572159D01*
X107372720Y-88582408D01*
X107350152Y-88590483D01*
X107326901Y-88596307D01*
X107303191Y-88599824D01*
X107279250Y-88601000D01*
X106715750Y-88601000D01*
X106691809Y-88599824D01*
X106668099Y-88596307D01*
X106644848Y-88590483D01*
X106622280Y-88582408D01*
X106600611Y-88572159D01*
X106580052Y-88559836D01*
X106560799Y-88545558D01*
X106543039Y-88529461D01*
X106526942Y-88511701D01*
X106512664Y-88492448D01*
X106500341Y-88471889D01*
X106490092Y-88450220D01*
X106482017Y-88427652D01*
X106476193Y-88404401D01*
X106472676Y-88380691D01*
X106471500Y-88356750D01*
X106471500Y-87868250D01*
X106472676Y-87844309D01*
X106476193Y-87820599D01*
X106482017Y-87797348D01*
X106490092Y-87774780D01*
X106500341Y-87753111D01*
X106512664Y-87732552D01*
X106526942Y-87713299D01*
X106543039Y-87695539D01*
X106560799Y-87679442D01*
X106580052Y-87665164D01*
X106600611Y-87652841D01*
X106622280Y-87642592D01*
X106644848Y-87634517D01*
X106668099Y-87628693D01*
X106691809Y-87625176D01*
X106715750Y-87624000D01*
X107279250Y-87624000D01*
X107303191Y-87625176D01*
X107303191Y-87625176D01*
G37*
D16*
X106997500Y-88112500D03*
D14*
G36*
X107303191Y-89200176D02*
G01*
X107326901Y-89203693D01*
X107350152Y-89209517D01*
X107372720Y-89217592D01*
X107394389Y-89227841D01*
X107414948Y-89240164D01*
X107434201Y-89254442D01*
X107451961Y-89270539D01*
X107468058Y-89288299D01*
X107482336Y-89307552D01*
X107494659Y-89328111D01*
X107504908Y-89349780D01*
X107512983Y-89372348D01*
X107518807Y-89395599D01*
X107522324Y-89419309D01*
X107523500Y-89443250D01*
X107523500Y-89931750D01*
X107522324Y-89955691D01*
X107518807Y-89979401D01*
X107512983Y-90002652D01*
X107504908Y-90025220D01*
X107494659Y-90046889D01*
X107482336Y-90067448D01*
X107468058Y-90086701D01*
X107451961Y-90104461D01*
X107434201Y-90120558D01*
X107414948Y-90134836D01*
X107394389Y-90147159D01*
X107372720Y-90157408D01*
X107350152Y-90165483D01*
X107326901Y-90171307D01*
X107303191Y-90174824D01*
X107279250Y-90176000D01*
X106715750Y-90176000D01*
X106691809Y-90174824D01*
X106668099Y-90171307D01*
X106644848Y-90165483D01*
X106622280Y-90157408D01*
X106600611Y-90147159D01*
X106580052Y-90134836D01*
X106560799Y-90120558D01*
X106543039Y-90104461D01*
X106526942Y-90086701D01*
X106512664Y-90067448D01*
X106500341Y-90046889D01*
X106490092Y-90025220D01*
X106482017Y-90002652D01*
X106476193Y-89979401D01*
X106472676Y-89955691D01*
X106471500Y-89931750D01*
X106471500Y-89443250D01*
X106472676Y-89419309D01*
X106476193Y-89395599D01*
X106482017Y-89372348D01*
X106490092Y-89349780D01*
X106500341Y-89328111D01*
X106512664Y-89307552D01*
X106526942Y-89288299D01*
X106543039Y-89270539D01*
X106560799Y-89254442D01*
X106580052Y-89240164D01*
X106600611Y-89227841D01*
X106622280Y-89217592D01*
X106644848Y-89209517D01*
X106668099Y-89203693D01*
X106691809Y-89200176D01*
X106715750Y-89199000D01*
X107279250Y-89199000D01*
X107303191Y-89200176D01*
X107303191Y-89200176D01*
G37*
D16*
X106997500Y-89687500D03*
D14*
G36*
X127940691Y-86660176D02*
G01*
X127964401Y-86663693D01*
X127987652Y-86669517D01*
X128010220Y-86677592D01*
X128031889Y-86687841D01*
X128052448Y-86700164D01*
X128071701Y-86714442D01*
X128089461Y-86730539D01*
X128105558Y-86748299D01*
X128119836Y-86767552D01*
X128132159Y-86788111D01*
X128142408Y-86809780D01*
X128150483Y-86832348D01*
X128156307Y-86855599D01*
X128159824Y-86879309D01*
X128161000Y-86903250D01*
X128161000Y-87391750D01*
X128159824Y-87415691D01*
X128156307Y-87439401D01*
X128150483Y-87462652D01*
X128142408Y-87485220D01*
X128132159Y-87506889D01*
X128119836Y-87527448D01*
X128105558Y-87546701D01*
X128089461Y-87564461D01*
X128071701Y-87580558D01*
X128052448Y-87594836D01*
X128031889Y-87607159D01*
X128010220Y-87617408D01*
X127987652Y-87625483D01*
X127964401Y-87631307D01*
X127940691Y-87634824D01*
X127916750Y-87636000D01*
X127353250Y-87636000D01*
X127329309Y-87634824D01*
X127305599Y-87631307D01*
X127282348Y-87625483D01*
X127259780Y-87617408D01*
X127238111Y-87607159D01*
X127217552Y-87594836D01*
X127198299Y-87580558D01*
X127180539Y-87564461D01*
X127164442Y-87546701D01*
X127150164Y-87527448D01*
X127137841Y-87506889D01*
X127127592Y-87485220D01*
X127119517Y-87462652D01*
X127113693Y-87439401D01*
X127110176Y-87415691D01*
X127109000Y-87391750D01*
X127109000Y-86903250D01*
X127110176Y-86879309D01*
X127113693Y-86855599D01*
X127119517Y-86832348D01*
X127127592Y-86809780D01*
X127137841Y-86788111D01*
X127150164Y-86767552D01*
X127164442Y-86748299D01*
X127180539Y-86730539D01*
X127198299Y-86714442D01*
X127217552Y-86700164D01*
X127238111Y-86687841D01*
X127259780Y-86677592D01*
X127282348Y-86669517D01*
X127305599Y-86663693D01*
X127329309Y-86660176D01*
X127353250Y-86659000D01*
X127916750Y-86659000D01*
X127940691Y-86660176D01*
X127940691Y-86660176D01*
G37*
D16*
X127635000Y-87147500D03*
D14*
G36*
X127940691Y-85085176D02*
G01*
X127964401Y-85088693D01*
X127987652Y-85094517D01*
X128010220Y-85102592D01*
X128031889Y-85112841D01*
X128052448Y-85125164D01*
X128071701Y-85139442D01*
X128089461Y-85155539D01*
X128105558Y-85173299D01*
X128119836Y-85192552D01*
X128132159Y-85213111D01*
X128142408Y-85234780D01*
X128150483Y-85257348D01*
X128156307Y-85280599D01*
X128159824Y-85304309D01*
X128161000Y-85328250D01*
X128161000Y-85816750D01*
X128159824Y-85840691D01*
X128156307Y-85864401D01*
X128150483Y-85887652D01*
X128142408Y-85910220D01*
X128132159Y-85931889D01*
X128119836Y-85952448D01*
X128105558Y-85971701D01*
X128089461Y-85989461D01*
X128071701Y-86005558D01*
X128052448Y-86019836D01*
X128031889Y-86032159D01*
X128010220Y-86042408D01*
X127987652Y-86050483D01*
X127964401Y-86056307D01*
X127940691Y-86059824D01*
X127916750Y-86061000D01*
X127353250Y-86061000D01*
X127329309Y-86059824D01*
X127305599Y-86056307D01*
X127282348Y-86050483D01*
X127259780Y-86042408D01*
X127238111Y-86032159D01*
X127217552Y-86019836D01*
X127198299Y-86005558D01*
X127180539Y-85989461D01*
X127164442Y-85971701D01*
X127150164Y-85952448D01*
X127137841Y-85931889D01*
X127127592Y-85910220D01*
X127119517Y-85887652D01*
X127113693Y-85864401D01*
X127110176Y-85840691D01*
X127109000Y-85816750D01*
X127109000Y-85328250D01*
X127110176Y-85304309D01*
X127113693Y-85280599D01*
X127119517Y-85257348D01*
X127127592Y-85234780D01*
X127137841Y-85213111D01*
X127150164Y-85192552D01*
X127164442Y-85173299D01*
X127180539Y-85155539D01*
X127198299Y-85139442D01*
X127217552Y-85125164D01*
X127238111Y-85112841D01*
X127259780Y-85102592D01*
X127282348Y-85094517D01*
X127305599Y-85088693D01*
X127329309Y-85085176D01*
X127353250Y-85084000D01*
X127916750Y-85084000D01*
X127940691Y-85085176D01*
X127940691Y-85085176D01*
G37*
D16*
X127635000Y-85572500D03*
D14*
G36*
X126670691Y-70797676D02*
G01*
X126694401Y-70801193D01*
X126717652Y-70807017D01*
X126740220Y-70815092D01*
X126761889Y-70825341D01*
X126782448Y-70837664D01*
X126801701Y-70851942D01*
X126819461Y-70868039D01*
X126835558Y-70885799D01*
X126849836Y-70905052D01*
X126862159Y-70925611D01*
X126872408Y-70947280D01*
X126880483Y-70969848D01*
X126886307Y-70993099D01*
X126889824Y-71016809D01*
X126891000Y-71040750D01*
X126891000Y-71529250D01*
X126889824Y-71553191D01*
X126886307Y-71576901D01*
X126880483Y-71600152D01*
X126872408Y-71622720D01*
X126862159Y-71644389D01*
X126849836Y-71664948D01*
X126835558Y-71684201D01*
X126819461Y-71701961D01*
X126801701Y-71718058D01*
X126782448Y-71732336D01*
X126761889Y-71744659D01*
X126740220Y-71754908D01*
X126717652Y-71762983D01*
X126694401Y-71768807D01*
X126670691Y-71772324D01*
X126646750Y-71773500D01*
X126083250Y-71773500D01*
X126059309Y-71772324D01*
X126035599Y-71768807D01*
X126012348Y-71762983D01*
X125989780Y-71754908D01*
X125968111Y-71744659D01*
X125947552Y-71732336D01*
X125928299Y-71718058D01*
X125910539Y-71701961D01*
X125894442Y-71684201D01*
X125880164Y-71664948D01*
X125867841Y-71644389D01*
X125857592Y-71622720D01*
X125849517Y-71600152D01*
X125843693Y-71576901D01*
X125840176Y-71553191D01*
X125839000Y-71529250D01*
X125839000Y-71040750D01*
X125840176Y-71016809D01*
X125843693Y-70993099D01*
X125849517Y-70969848D01*
X125857592Y-70947280D01*
X125867841Y-70925611D01*
X125880164Y-70905052D01*
X125894442Y-70885799D01*
X125910539Y-70868039D01*
X125928299Y-70851942D01*
X125947552Y-70837664D01*
X125968111Y-70825341D01*
X125989780Y-70815092D01*
X126012348Y-70807017D01*
X126035599Y-70801193D01*
X126059309Y-70797676D01*
X126083250Y-70796500D01*
X126646750Y-70796500D01*
X126670691Y-70797676D01*
X126670691Y-70797676D01*
G37*
D16*
X126365000Y-71285000D03*
D14*
G36*
X126670691Y-72372676D02*
G01*
X126694401Y-72376193D01*
X126717652Y-72382017D01*
X126740220Y-72390092D01*
X126761889Y-72400341D01*
X126782448Y-72412664D01*
X126801701Y-72426942D01*
X126819461Y-72443039D01*
X126835558Y-72460799D01*
X126849836Y-72480052D01*
X126862159Y-72500611D01*
X126872408Y-72522280D01*
X126880483Y-72544848D01*
X126886307Y-72568099D01*
X126889824Y-72591809D01*
X126891000Y-72615750D01*
X126891000Y-73104250D01*
X126889824Y-73128191D01*
X126886307Y-73151901D01*
X126880483Y-73175152D01*
X126872408Y-73197720D01*
X126862159Y-73219389D01*
X126849836Y-73239948D01*
X126835558Y-73259201D01*
X126819461Y-73276961D01*
X126801701Y-73293058D01*
X126782448Y-73307336D01*
X126761889Y-73319659D01*
X126740220Y-73329908D01*
X126717652Y-73337983D01*
X126694401Y-73343807D01*
X126670691Y-73347324D01*
X126646750Y-73348500D01*
X126083250Y-73348500D01*
X126059309Y-73347324D01*
X126035599Y-73343807D01*
X126012348Y-73337983D01*
X125989780Y-73329908D01*
X125968111Y-73319659D01*
X125947552Y-73307336D01*
X125928299Y-73293058D01*
X125910539Y-73276961D01*
X125894442Y-73259201D01*
X125880164Y-73239948D01*
X125867841Y-73219389D01*
X125857592Y-73197720D01*
X125849517Y-73175152D01*
X125843693Y-73151901D01*
X125840176Y-73128191D01*
X125839000Y-73104250D01*
X125839000Y-72615750D01*
X125840176Y-72591809D01*
X125843693Y-72568099D01*
X125849517Y-72544848D01*
X125857592Y-72522280D01*
X125867841Y-72500611D01*
X125880164Y-72480052D01*
X125894442Y-72460799D01*
X125910539Y-72443039D01*
X125928299Y-72426942D01*
X125947552Y-72412664D01*
X125968111Y-72400341D01*
X125989780Y-72390092D01*
X126012348Y-72382017D01*
X126035599Y-72376193D01*
X126059309Y-72372676D01*
X126083250Y-72371500D01*
X126646750Y-72371500D01*
X126670691Y-72372676D01*
X126670691Y-72372676D01*
G37*
D16*
X126365000Y-72860000D03*
D14*
G36*
X125083191Y-70797676D02*
G01*
X125106901Y-70801193D01*
X125130152Y-70807017D01*
X125152720Y-70815092D01*
X125174389Y-70825341D01*
X125194948Y-70837664D01*
X125214201Y-70851942D01*
X125231961Y-70868039D01*
X125248058Y-70885799D01*
X125262336Y-70905052D01*
X125274659Y-70925611D01*
X125284908Y-70947280D01*
X125292983Y-70969848D01*
X125298807Y-70993099D01*
X125302324Y-71016809D01*
X125303500Y-71040750D01*
X125303500Y-71529250D01*
X125302324Y-71553191D01*
X125298807Y-71576901D01*
X125292983Y-71600152D01*
X125284908Y-71622720D01*
X125274659Y-71644389D01*
X125262336Y-71664948D01*
X125248058Y-71684201D01*
X125231961Y-71701961D01*
X125214201Y-71718058D01*
X125194948Y-71732336D01*
X125174389Y-71744659D01*
X125152720Y-71754908D01*
X125130152Y-71762983D01*
X125106901Y-71768807D01*
X125083191Y-71772324D01*
X125059250Y-71773500D01*
X124495750Y-71773500D01*
X124471809Y-71772324D01*
X124448099Y-71768807D01*
X124424848Y-71762983D01*
X124402280Y-71754908D01*
X124380611Y-71744659D01*
X124360052Y-71732336D01*
X124340799Y-71718058D01*
X124323039Y-71701961D01*
X124306942Y-71684201D01*
X124292664Y-71664948D01*
X124280341Y-71644389D01*
X124270092Y-71622720D01*
X124262017Y-71600152D01*
X124256193Y-71576901D01*
X124252676Y-71553191D01*
X124251500Y-71529250D01*
X124251500Y-71040750D01*
X124252676Y-71016809D01*
X124256193Y-70993099D01*
X124262017Y-70969848D01*
X124270092Y-70947280D01*
X124280341Y-70925611D01*
X124292664Y-70905052D01*
X124306942Y-70885799D01*
X124323039Y-70868039D01*
X124340799Y-70851942D01*
X124360052Y-70837664D01*
X124380611Y-70825341D01*
X124402280Y-70815092D01*
X124424848Y-70807017D01*
X124448099Y-70801193D01*
X124471809Y-70797676D01*
X124495750Y-70796500D01*
X125059250Y-70796500D01*
X125083191Y-70797676D01*
X125083191Y-70797676D01*
G37*
D16*
X124777500Y-71285000D03*
D14*
G36*
X125083191Y-72372676D02*
G01*
X125106901Y-72376193D01*
X125130152Y-72382017D01*
X125152720Y-72390092D01*
X125174389Y-72400341D01*
X125194948Y-72412664D01*
X125214201Y-72426942D01*
X125231961Y-72443039D01*
X125248058Y-72460799D01*
X125262336Y-72480052D01*
X125274659Y-72500611D01*
X125284908Y-72522280D01*
X125292983Y-72544848D01*
X125298807Y-72568099D01*
X125302324Y-72591809D01*
X125303500Y-72615750D01*
X125303500Y-73104250D01*
X125302324Y-73128191D01*
X125298807Y-73151901D01*
X125292983Y-73175152D01*
X125284908Y-73197720D01*
X125274659Y-73219389D01*
X125262336Y-73239948D01*
X125248058Y-73259201D01*
X125231961Y-73276961D01*
X125214201Y-73293058D01*
X125194948Y-73307336D01*
X125174389Y-73319659D01*
X125152720Y-73329908D01*
X125130152Y-73337983D01*
X125106901Y-73343807D01*
X125083191Y-73347324D01*
X125059250Y-73348500D01*
X124495750Y-73348500D01*
X124471809Y-73347324D01*
X124448099Y-73343807D01*
X124424848Y-73337983D01*
X124402280Y-73329908D01*
X124380611Y-73319659D01*
X124360052Y-73307336D01*
X124340799Y-73293058D01*
X124323039Y-73276961D01*
X124306942Y-73259201D01*
X124292664Y-73239948D01*
X124280341Y-73219389D01*
X124270092Y-73197720D01*
X124262017Y-73175152D01*
X124256193Y-73151901D01*
X124252676Y-73128191D01*
X124251500Y-73104250D01*
X124251500Y-72615750D01*
X124252676Y-72591809D01*
X124256193Y-72568099D01*
X124262017Y-72544848D01*
X124270092Y-72522280D01*
X124280341Y-72500611D01*
X124292664Y-72480052D01*
X124306942Y-72460799D01*
X124323039Y-72443039D01*
X124340799Y-72426942D01*
X124360052Y-72412664D01*
X124380611Y-72400341D01*
X124402280Y-72390092D01*
X124424848Y-72382017D01*
X124448099Y-72376193D01*
X124471809Y-72372676D01*
X124495750Y-72371500D01*
X125059250Y-72371500D01*
X125083191Y-72372676D01*
X125083191Y-72372676D01*
G37*
D16*
X124777500Y-72860000D03*
D14*
G36*
X98845691Y-83612676D02*
G01*
X98869401Y-83616193D01*
X98892652Y-83622017D01*
X98915220Y-83630092D01*
X98936889Y-83640341D01*
X98957448Y-83652664D01*
X98976701Y-83666942D01*
X98994461Y-83683039D01*
X99010558Y-83700799D01*
X99024836Y-83720052D01*
X99037159Y-83740611D01*
X99047408Y-83762280D01*
X99055483Y-83784848D01*
X99061307Y-83808099D01*
X99064824Y-83831809D01*
X99066000Y-83855750D01*
X99066000Y-84419250D01*
X99064824Y-84443191D01*
X99061307Y-84466901D01*
X99055483Y-84490152D01*
X99047408Y-84512720D01*
X99037159Y-84534389D01*
X99024836Y-84554948D01*
X99010558Y-84574201D01*
X98994461Y-84591961D01*
X98976701Y-84608058D01*
X98957448Y-84622336D01*
X98936889Y-84634659D01*
X98915220Y-84644908D01*
X98892652Y-84652983D01*
X98869401Y-84658807D01*
X98845691Y-84662324D01*
X98821750Y-84663500D01*
X98333250Y-84663500D01*
X98309309Y-84662324D01*
X98285599Y-84658807D01*
X98262348Y-84652983D01*
X98239780Y-84644908D01*
X98218111Y-84634659D01*
X98197552Y-84622336D01*
X98178299Y-84608058D01*
X98160539Y-84591961D01*
X98144442Y-84574201D01*
X98130164Y-84554948D01*
X98117841Y-84534389D01*
X98107592Y-84512720D01*
X98099517Y-84490152D01*
X98093693Y-84466901D01*
X98090176Y-84443191D01*
X98089000Y-84419250D01*
X98089000Y-83855750D01*
X98090176Y-83831809D01*
X98093693Y-83808099D01*
X98099517Y-83784848D01*
X98107592Y-83762280D01*
X98117841Y-83740611D01*
X98130164Y-83720052D01*
X98144442Y-83700799D01*
X98160539Y-83683039D01*
X98178299Y-83666942D01*
X98197552Y-83652664D01*
X98218111Y-83640341D01*
X98239780Y-83630092D01*
X98262348Y-83622017D01*
X98285599Y-83616193D01*
X98309309Y-83612676D01*
X98333250Y-83611500D01*
X98821750Y-83611500D01*
X98845691Y-83612676D01*
X98845691Y-83612676D01*
G37*
D16*
X98577500Y-84137500D03*
D14*
G36*
X97270691Y-83612676D02*
G01*
X97294401Y-83616193D01*
X97317652Y-83622017D01*
X97340220Y-83630092D01*
X97361889Y-83640341D01*
X97382448Y-83652664D01*
X97401701Y-83666942D01*
X97419461Y-83683039D01*
X97435558Y-83700799D01*
X97449836Y-83720052D01*
X97462159Y-83740611D01*
X97472408Y-83762280D01*
X97480483Y-83784848D01*
X97486307Y-83808099D01*
X97489824Y-83831809D01*
X97491000Y-83855750D01*
X97491000Y-84419250D01*
X97489824Y-84443191D01*
X97486307Y-84466901D01*
X97480483Y-84490152D01*
X97472408Y-84512720D01*
X97462159Y-84534389D01*
X97449836Y-84554948D01*
X97435558Y-84574201D01*
X97419461Y-84591961D01*
X97401701Y-84608058D01*
X97382448Y-84622336D01*
X97361889Y-84634659D01*
X97340220Y-84644908D01*
X97317652Y-84652983D01*
X97294401Y-84658807D01*
X97270691Y-84662324D01*
X97246750Y-84663500D01*
X96758250Y-84663500D01*
X96734309Y-84662324D01*
X96710599Y-84658807D01*
X96687348Y-84652983D01*
X96664780Y-84644908D01*
X96643111Y-84634659D01*
X96622552Y-84622336D01*
X96603299Y-84608058D01*
X96585539Y-84591961D01*
X96569442Y-84574201D01*
X96555164Y-84554948D01*
X96542841Y-84534389D01*
X96532592Y-84512720D01*
X96524517Y-84490152D01*
X96518693Y-84466901D01*
X96515176Y-84443191D01*
X96514000Y-84419250D01*
X96514000Y-83855750D01*
X96515176Y-83831809D01*
X96518693Y-83808099D01*
X96524517Y-83784848D01*
X96532592Y-83762280D01*
X96542841Y-83740611D01*
X96555164Y-83720052D01*
X96569442Y-83700799D01*
X96585539Y-83683039D01*
X96603299Y-83666942D01*
X96622552Y-83652664D01*
X96643111Y-83640341D01*
X96664780Y-83630092D01*
X96687348Y-83622017D01*
X96710599Y-83616193D01*
X96734309Y-83612676D01*
X96758250Y-83611500D01*
X97246750Y-83611500D01*
X97270691Y-83612676D01*
X97270691Y-83612676D01*
G37*
D16*
X97002500Y-84137500D03*
M02*
