G04 #@! TF.GenerationSoftware,KiCad,Pcbnew,(5.1.4)-1*
G04 #@! TF.CreationDate,2019-10-12T15:48:51-04:00*
G04 #@! TF.ProjectId,helvetica-sao,68656c76-6574-4696-9361-2d73616f2e6b,rev?*
G04 #@! TF.SameCoordinates,Original*
G04 #@! TF.FileFunction,Soldermask,Bot*
G04 #@! TF.FilePolarity,Negative*
%FSLAX46Y46*%
G04 Gerber Fmt 4.6, Leading zero omitted, Abs format (unit mm)*
G04 Created by KiCad (PCBNEW (5.1.4)-1) date 2019-10-12 15:48:51*
%MOMM*%
%LPD*%
G04 APERTURE LIST*
%ADD10C,0.100000*%
G04 APERTURE END LIST*
D10*
G36*
X167005000Y-121920000D02*
G01*
X100330000Y-121920000D01*
X167005000Y-55562500D01*
X167005000Y-121920000D01*
G37*
X167005000Y-121920000D02*
X100330000Y-121920000D01*
X167005000Y-55562500D01*
X167005000Y-121920000D01*
G36*
X151307091Y-122033085D02*
G01*
X151341069Y-122043393D01*
X151372390Y-122060134D01*
X151399839Y-122082661D01*
X151422366Y-122110110D01*
X151439107Y-122141431D01*
X151449415Y-122175409D01*
X151453500Y-122216890D01*
X151453500Y-122893110D01*
X151449415Y-122934591D01*
X151439107Y-122968569D01*
X151422366Y-122999890D01*
X151399839Y-123027339D01*
X151372390Y-123049866D01*
X151341069Y-123066607D01*
X151307091Y-123076915D01*
X151265610Y-123081000D01*
X150664390Y-123081000D01*
X150622909Y-123076915D01*
X150588931Y-123066607D01*
X150557610Y-123049866D01*
X150530161Y-123027339D01*
X150507634Y-122999890D01*
X150490893Y-122968569D01*
X150480585Y-122934591D01*
X150476500Y-122893110D01*
X150476500Y-122216890D01*
X150480585Y-122175409D01*
X150490893Y-122141431D01*
X150507634Y-122110110D01*
X150530161Y-122082661D01*
X150557610Y-122060134D01*
X150588931Y-122043393D01*
X150622909Y-122033085D01*
X150664390Y-122029000D01*
X151265610Y-122029000D01*
X151307091Y-122033085D01*
X151307091Y-122033085D01*
G37*
G36*
X149732091Y-122033085D02*
G01*
X149766069Y-122043393D01*
X149797390Y-122060134D01*
X149824839Y-122082661D01*
X149847366Y-122110110D01*
X149864107Y-122141431D01*
X149874415Y-122175409D01*
X149878500Y-122216890D01*
X149878500Y-122893110D01*
X149874415Y-122934591D01*
X149864107Y-122968569D01*
X149847366Y-122999890D01*
X149824839Y-123027339D01*
X149797390Y-123049866D01*
X149766069Y-123066607D01*
X149732091Y-123076915D01*
X149690610Y-123081000D01*
X149089390Y-123081000D01*
X149047909Y-123076915D01*
X149013931Y-123066607D01*
X148982610Y-123049866D01*
X148955161Y-123027339D01*
X148932634Y-122999890D01*
X148915893Y-122968569D01*
X148905585Y-122934591D01*
X148901500Y-122893110D01*
X148901500Y-122216890D01*
X148905585Y-122175409D01*
X148915893Y-122141431D01*
X148932634Y-122110110D01*
X148955161Y-122082661D01*
X148982610Y-122060134D01*
X149013931Y-122043393D01*
X149047909Y-122033085D01*
X149089390Y-122029000D01*
X149690610Y-122029000D01*
X149732091Y-122033085D01*
X149732091Y-122033085D01*
G37*
G36*
X113219591Y-122033085D02*
G01*
X113253569Y-122043393D01*
X113284890Y-122060134D01*
X113312339Y-122082661D01*
X113334866Y-122110110D01*
X113351607Y-122141431D01*
X113361915Y-122175409D01*
X113366000Y-122216890D01*
X113366000Y-122893110D01*
X113361915Y-122934591D01*
X113351607Y-122968569D01*
X113334866Y-122999890D01*
X113312339Y-123027339D01*
X113284890Y-123049866D01*
X113253569Y-123066607D01*
X113219591Y-123076915D01*
X113178110Y-123081000D01*
X112576890Y-123081000D01*
X112535409Y-123076915D01*
X112501431Y-123066607D01*
X112470110Y-123049866D01*
X112442661Y-123027339D01*
X112420134Y-122999890D01*
X112403393Y-122968569D01*
X112393085Y-122934591D01*
X112389000Y-122893110D01*
X112389000Y-122216890D01*
X112393085Y-122175409D01*
X112403393Y-122141431D01*
X112420134Y-122110110D01*
X112442661Y-122082661D01*
X112470110Y-122060134D01*
X112501431Y-122043393D01*
X112535409Y-122033085D01*
X112576890Y-122029000D01*
X113178110Y-122029000D01*
X113219591Y-122033085D01*
X113219591Y-122033085D01*
G37*
G36*
X114794591Y-122033085D02*
G01*
X114828569Y-122043393D01*
X114859890Y-122060134D01*
X114887339Y-122082661D01*
X114909866Y-122110110D01*
X114926607Y-122141431D01*
X114936915Y-122175409D01*
X114941000Y-122216890D01*
X114941000Y-122893110D01*
X114936915Y-122934591D01*
X114926607Y-122968569D01*
X114909866Y-122999890D01*
X114887339Y-123027339D01*
X114859890Y-123049866D01*
X114828569Y-123066607D01*
X114794591Y-123076915D01*
X114753110Y-123081000D01*
X114151890Y-123081000D01*
X114110409Y-123076915D01*
X114076431Y-123066607D01*
X114045110Y-123049866D01*
X114017661Y-123027339D01*
X113995134Y-122999890D01*
X113978393Y-122968569D01*
X113968085Y-122934591D01*
X113964000Y-122893110D01*
X113964000Y-122216890D01*
X113968085Y-122175409D01*
X113978393Y-122141431D01*
X113995134Y-122110110D01*
X114017661Y-122082661D01*
X114045110Y-122060134D01*
X114076431Y-122043393D01*
X114110409Y-122033085D01*
X114151890Y-122029000D01*
X114753110Y-122029000D01*
X114794591Y-122033085D01*
X114794591Y-122033085D01*
G37*
G36*
X131634591Y-122033085D02*
G01*
X131668569Y-122043393D01*
X131699890Y-122060134D01*
X131727339Y-122082661D01*
X131749866Y-122110110D01*
X131766607Y-122141431D01*
X131776915Y-122175409D01*
X131781000Y-122216890D01*
X131781000Y-122893110D01*
X131776915Y-122934591D01*
X131766607Y-122968569D01*
X131749866Y-122999890D01*
X131727339Y-123027339D01*
X131699890Y-123049866D01*
X131668569Y-123066607D01*
X131634591Y-123076915D01*
X131593110Y-123081000D01*
X130991890Y-123081000D01*
X130950409Y-123076915D01*
X130916431Y-123066607D01*
X130885110Y-123049866D01*
X130857661Y-123027339D01*
X130835134Y-122999890D01*
X130818393Y-122968569D01*
X130808085Y-122934591D01*
X130804000Y-122893110D01*
X130804000Y-122216890D01*
X130808085Y-122175409D01*
X130818393Y-122141431D01*
X130835134Y-122110110D01*
X130857661Y-122082661D01*
X130885110Y-122060134D01*
X130916431Y-122043393D01*
X130950409Y-122033085D01*
X130991890Y-122029000D01*
X131593110Y-122029000D01*
X131634591Y-122033085D01*
X131634591Y-122033085D01*
G37*
G36*
X133209591Y-122033085D02*
G01*
X133243569Y-122043393D01*
X133274890Y-122060134D01*
X133302339Y-122082661D01*
X133324866Y-122110110D01*
X133341607Y-122141431D01*
X133351915Y-122175409D01*
X133356000Y-122216890D01*
X133356000Y-122893110D01*
X133351915Y-122934591D01*
X133341607Y-122968569D01*
X133324866Y-122999890D01*
X133302339Y-123027339D01*
X133274890Y-123049866D01*
X133243569Y-123066607D01*
X133209591Y-123076915D01*
X133168110Y-123081000D01*
X132566890Y-123081000D01*
X132525409Y-123076915D01*
X132491431Y-123066607D01*
X132460110Y-123049866D01*
X132432661Y-123027339D01*
X132410134Y-122999890D01*
X132393393Y-122968569D01*
X132383085Y-122934591D01*
X132379000Y-122893110D01*
X132379000Y-122216890D01*
X132383085Y-122175409D01*
X132393393Y-122141431D01*
X132410134Y-122110110D01*
X132432661Y-122082661D01*
X132460110Y-122060134D01*
X132491431Y-122043393D01*
X132525409Y-122033085D01*
X132566890Y-122029000D01*
X133168110Y-122029000D01*
X133209591Y-122033085D01*
X133209591Y-122033085D01*
G37*
G36*
X135708500Y-122931000D02*
G01*
X134806500Y-122931000D01*
X134806500Y-122179000D01*
X135708500Y-122179000D01*
X135708500Y-122931000D01*
X135708500Y-122931000D01*
G37*
G36*
X155388500Y-122931000D02*
G01*
X154486500Y-122931000D01*
X154486500Y-122179000D01*
X155388500Y-122179000D01*
X155388500Y-122931000D01*
X155388500Y-122931000D01*
G37*
G36*
X153488500Y-122931000D02*
G01*
X152586500Y-122931000D01*
X152586500Y-122179000D01*
X153488500Y-122179000D01*
X153488500Y-122931000D01*
X153488500Y-122931000D01*
G37*
G36*
X137608500Y-122931000D02*
G01*
X136706500Y-122931000D01*
X136706500Y-122179000D01*
X137608500Y-122179000D01*
X137608500Y-122931000D01*
X137608500Y-122931000D01*
G37*
G36*
X118876000Y-122931000D02*
G01*
X117974000Y-122931000D01*
X117974000Y-122179000D01*
X118876000Y-122179000D01*
X118876000Y-122931000D01*
X118876000Y-122931000D01*
G37*
G36*
X116976000Y-122931000D02*
G01*
X116074000Y-122931000D01*
X116074000Y-122179000D01*
X116976000Y-122179000D01*
X116976000Y-122931000D01*
X116976000Y-122931000D01*
G37*
G36*
X168019591Y-113650585D02*
G01*
X168053569Y-113660893D01*
X168084890Y-113677634D01*
X168112339Y-113700161D01*
X168134866Y-113727610D01*
X168151607Y-113758931D01*
X168161915Y-113792909D01*
X168166000Y-113834390D01*
X168166000Y-114435610D01*
X168161915Y-114477091D01*
X168151607Y-114511069D01*
X168134866Y-114542390D01*
X168112339Y-114569839D01*
X168084890Y-114592366D01*
X168053569Y-114609107D01*
X168019591Y-114619415D01*
X167978110Y-114623500D01*
X167301890Y-114623500D01*
X167260409Y-114619415D01*
X167226431Y-114609107D01*
X167195110Y-114592366D01*
X167167661Y-114569839D01*
X167145134Y-114542390D01*
X167128393Y-114511069D01*
X167118085Y-114477091D01*
X167114000Y-114435610D01*
X167114000Y-113834390D01*
X167118085Y-113792909D01*
X167128393Y-113758931D01*
X167145134Y-113727610D01*
X167167661Y-113700161D01*
X167195110Y-113677634D01*
X167226431Y-113660893D01*
X167260409Y-113650585D01*
X167301890Y-113646500D01*
X167978110Y-113646500D01*
X168019591Y-113650585D01*
X168019591Y-113650585D01*
G37*
G36*
X168019591Y-112075585D02*
G01*
X168053569Y-112085893D01*
X168084890Y-112102634D01*
X168112339Y-112125161D01*
X168134866Y-112152610D01*
X168151607Y-112183931D01*
X168161915Y-112217909D01*
X168166000Y-112259390D01*
X168166000Y-112860610D01*
X168161915Y-112902091D01*
X168151607Y-112936069D01*
X168134866Y-112967390D01*
X168112339Y-112994839D01*
X168084890Y-113017366D01*
X168053569Y-113034107D01*
X168019591Y-113044415D01*
X167978110Y-113048500D01*
X167301890Y-113048500D01*
X167260409Y-113044415D01*
X167226431Y-113034107D01*
X167195110Y-113017366D01*
X167167661Y-112994839D01*
X167145134Y-112967390D01*
X167128393Y-112936069D01*
X167118085Y-112902091D01*
X167114000Y-112860610D01*
X167114000Y-112259390D01*
X167118085Y-112217909D01*
X167128393Y-112183931D01*
X167145134Y-112152610D01*
X167167661Y-112125161D01*
X167195110Y-112102634D01*
X167226431Y-112085893D01*
X167260409Y-112075585D01*
X167301890Y-112071500D01*
X167978110Y-112071500D01*
X168019591Y-112075585D01*
X168019591Y-112075585D01*
G37*
G36*
X168016000Y-110938500D02*
G01*
X167264000Y-110938500D01*
X167264000Y-110036500D01*
X168016000Y-110036500D01*
X168016000Y-110938500D01*
X168016000Y-110938500D01*
G37*
G36*
X168016000Y-109038500D02*
G01*
X167264000Y-109038500D01*
X167264000Y-108136500D01*
X168016000Y-108136500D01*
X168016000Y-109038500D01*
X168016000Y-109038500D01*
G37*
G36*
X118023026Y-103806218D02*
G01*
X117385216Y-104444028D01*
X116853472Y-103912284D01*
X117491282Y-103274474D01*
X118023026Y-103806218D01*
X118023026Y-103806218D01*
G37*
G36*
X119366528Y-102462716D02*
G01*
X118728718Y-103100526D01*
X118196974Y-102568782D01*
X118834784Y-101930972D01*
X119366528Y-102462716D01*
X119366528Y-102462716D01*
G37*
G36*
X119784477Y-100883855D02*
G01*
X119818455Y-100894163D01*
X119849776Y-100910904D01*
X119881990Y-100937342D01*
X119921841Y-100977193D01*
X119921847Y-100977198D01*
X120320302Y-101375653D01*
X120320307Y-101375659D01*
X120360158Y-101415510D01*
X120386596Y-101447724D01*
X120403337Y-101479045D01*
X120413645Y-101513023D01*
X120417125Y-101548364D01*
X120413645Y-101583705D01*
X120403337Y-101617683D01*
X120386596Y-101649004D01*
X120360158Y-101681218D01*
X120320307Y-101721069D01*
X120320302Y-101721075D01*
X119974881Y-102066496D01*
X119974875Y-102066501D01*
X119935024Y-102106352D01*
X119902810Y-102132790D01*
X119871489Y-102149531D01*
X119837511Y-102159839D01*
X119802170Y-102163319D01*
X119766829Y-102159839D01*
X119732851Y-102149531D01*
X119701530Y-102132790D01*
X119669316Y-102106352D01*
X119629465Y-102066501D01*
X119629459Y-102066496D01*
X119231004Y-101668041D01*
X119230999Y-101668035D01*
X119191148Y-101628184D01*
X119164710Y-101595970D01*
X119147969Y-101564649D01*
X119137661Y-101530671D01*
X119134181Y-101495330D01*
X119137661Y-101459989D01*
X119147969Y-101426011D01*
X119164710Y-101394690D01*
X119191148Y-101362476D01*
X119230999Y-101322625D01*
X119231004Y-101322619D01*
X119576425Y-100977198D01*
X119576431Y-100977193D01*
X119616282Y-100937342D01*
X119648496Y-100910904D01*
X119679817Y-100894163D01*
X119713795Y-100883855D01*
X119749136Y-100880375D01*
X119784477Y-100883855D01*
X119784477Y-100883855D01*
G37*
G36*
X120898171Y-99770161D02*
G01*
X120932149Y-99780469D01*
X120963470Y-99797210D01*
X120995684Y-99823648D01*
X121035535Y-99863499D01*
X121035541Y-99863504D01*
X121433996Y-100261959D01*
X121434001Y-100261965D01*
X121473852Y-100301816D01*
X121500290Y-100334030D01*
X121517031Y-100365351D01*
X121527339Y-100399329D01*
X121530819Y-100434670D01*
X121527339Y-100470011D01*
X121517031Y-100503989D01*
X121500290Y-100535310D01*
X121473852Y-100567524D01*
X121434001Y-100607375D01*
X121433996Y-100607381D01*
X121088575Y-100952802D01*
X121088569Y-100952807D01*
X121048718Y-100992658D01*
X121016504Y-101019096D01*
X120985183Y-101035837D01*
X120951205Y-101046145D01*
X120915864Y-101049625D01*
X120880523Y-101046145D01*
X120846545Y-101035837D01*
X120815224Y-101019096D01*
X120783010Y-100992658D01*
X120743159Y-100952807D01*
X120743153Y-100952802D01*
X120344698Y-100554347D01*
X120344693Y-100554341D01*
X120304842Y-100514490D01*
X120278404Y-100482276D01*
X120261663Y-100450955D01*
X120251355Y-100416977D01*
X120247875Y-100381636D01*
X120251355Y-100346295D01*
X120261663Y-100312317D01*
X120278404Y-100280996D01*
X120304842Y-100248782D01*
X120344693Y-100208931D01*
X120344698Y-100208925D01*
X120690119Y-99863504D01*
X120690125Y-99863499D01*
X120729976Y-99823648D01*
X120762190Y-99797210D01*
X120793511Y-99780469D01*
X120827489Y-99770161D01*
X120862830Y-99766681D01*
X120898171Y-99770161D01*
X120898171Y-99770161D01*
G37*
G36*
X168019591Y-96188085D02*
G01*
X168053569Y-96198393D01*
X168084890Y-96215134D01*
X168112339Y-96237661D01*
X168134866Y-96265110D01*
X168151607Y-96296431D01*
X168161915Y-96330409D01*
X168166000Y-96371890D01*
X168166000Y-96973110D01*
X168161915Y-97014591D01*
X168151607Y-97048569D01*
X168134866Y-97079890D01*
X168112339Y-97107339D01*
X168084890Y-97129866D01*
X168053569Y-97146607D01*
X168019591Y-97156915D01*
X167978110Y-97161000D01*
X167301890Y-97161000D01*
X167260409Y-97156915D01*
X167226431Y-97146607D01*
X167195110Y-97129866D01*
X167167661Y-97107339D01*
X167145134Y-97079890D01*
X167128393Y-97048569D01*
X167118085Y-97014591D01*
X167114000Y-96973110D01*
X167114000Y-96371890D01*
X167118085Y-96330409D01*
X167128393Y-96296431D01*
X167145134Y-96265110D01*
X167167661Y-96237661D01*
X167195110Y-96215134D01*
X167226431Y-96198393D01*
X167260409Y-96188085D01*
X167301890Y-96184000D01*
X167978110Y-96184000D01*
X168019591Y-96188085D01*
X168019591Y-96188085D01*
G37*
G36*
X168019591Y-94613085D02*
G01*
X168053569Y-94623393D01*
X168084890Y-94640134D01*
X168112339Y-94662661D01*
X168134866Y-94690110D01*
X168151607Y-94721431D01*
X168161915Y-94755409D01*
X168166000Y-94796890D01*
X168166000Y-95398110D01*
X168161915Y-95439591D01*
X168151607Y-95473569D01*
X168134866Y-95504890D01*
X168112339Y-95532339D01*
X168084890Y-95554866D01*
X168053569Y-95571607D01*
X168019591Y-95581915D01*
X167978110Y-95586000D01*
X167301890Y-95586000D01*
X167260409Y-95581915D01*
X167226431Y-95571607D01*
X167195110Y-95554866D01*
X167167661Y-95532339D01*
X167145134Y-95504890D01*
X167128393Y-95473569D01*
X167118085Y-95439591D01*
X167114000Y-95398110D01*
X167114000Y-94796890D01*
X167118085Y-94755409D01*
X167128393Y-94721431D01*
X167145134Y-94690110D01*
X167167661Y-94662661D01*
X167195110Y-94640134D01*
X167226431Y-94623393D01*
X167260409Y-94613085D01*
X167301890Y-94609000D01*
X167978110Y-94609000D01*
X168019591Y-94613085D01*
X168019591Y-94613085D01*
G37*
G36*
X113289928Y-91651764D02*
G01*
X113311009Y-91658160D01*
X113330445Y-91668548D01*
X113347476Y-91682524D01*
X113361452Y-91699555D01*
X113371840Y-91718991D01*
X113378236Y-91740072D01*
X113381000Y-91768140D01*
X113381000Y-93231860D01*
X113378236Y-93259928D01*
X113371840Y-93281009D01*
X113361452Y-93300445D01*
X113347476Y-93317476D01*
X113330445Y-93331452D01*
X113311009Y-93341840D01*
X113289928Y-93348236D01*
X113261860Y-93351000D01*
X112798140Y-93351000D01*
X112770072Y-93348236D01*
X112748991Y-93341840D01*
X112729555Y-93331452D01*
X112712524Y-93317476D01*
X112698548Y-93300445D01*
X112688160Y-93281009D01*
X112681764Y-93259928D01*
X112679000Y-93231860D01*
X112679000Y-91768140D01*
X112681764Y-91740072D01*
X112688160Y-91718991D01*
X112698548Y-91699555D01*
X112712524Y-91682524D01*
X112729555Y-91668548D01*
X112748991Y-91658160D01*
X112770072Y-91651764D01*
X112798140Y-91649000D01*
X113261860Y-91649000D01*
X113289928Y-91651764D01*
X113289928Y-91651764D01*
G37*
G36*
X112019928Y-91651764D02*
G01*
X112041009Y-91658160D01*
X112060445Y-91668548D01*
X112077476Y-91682524D01*
X112091452Y-91699555D01*
X112101840Y-91718991D01*
X112108236Y-91740072D01*
X112111000Y-91768140D01*
X112111000Y-93231860D01*
X112108236Y-93259928D01*
X112101840Y-93281009D01*
X112091452Y-93300445D01*
X112077476Y-93317476D01*
X112060445Y-93331452D01*
X112041009Y-93341840D01*
X112019928Y-93348236D01*
X111991860Y-93351000D01*
X111528140Y-93351000D01*
X111500072Y-93348236D01*
X111478991Y-93341840D01*
X111459555Y-93331452D01*
X111442524Y-93317476D01*
X111428548Y-93300445D01*
X111418160Y-93281009D01*
X111411764Y-93259928D01*
X111409000Y-93231860D01*
X111409000Y-91768140D01*
X111411764Y-91740072D01*
X111418160Y-91718991D01*
X111428548Y-91699555D01*
X111442524Y-91682524D01*
X111459555Y-91668548D01*
X111478991Y-91658160D01*
X111500072Y-91651764D01*
X111528140Y-91649000D01*
X111991860Y-91649000D01*
X112019928Y-91651764D01*
X112019928Y-91651764D01*
G37*
G36*
X110749928Y-91651764D02*
G01*
X110771009Y-91658160D01*
X110790445Y-91668548D01*
X110807476Y-91682524D01*
X110821452Y-91699555D01*
X110831840Y-91718991D01*
X110838236Y-91740072D01*
X110841000Y-91768140D01*
X110841000Y-93231860D01*
X110838236Y-93259928D01*
X110831840Y-93281009D01*
X110821452Y-93300445D01*
X110807476Y-93317476D01*
X110790445Y-93331452D01*
X110771009Y-93341840D01*
X110749928Y-93348236D01*
X110721860Y-93351000D01*
X110258140Y-93351000D01*
X110230072Y-93348236D01*
X110208991Y-93341840D01*
X110189555Y-93331452D01*
X110172524Y-93317476D01*
X110158548Y-93300445D01*
X110148160Y-93281009D01*
X110141764Y-93259928D01*
X110139000Y-93231860D01*
X110139000Y-91768140D01*
X110141764Y-91740072D01*
X110148160Y-91718991D01*
X110158548Y-91699555D01*
X110172524Y-91682524D01*
X110189555Y-91668548D01*
X110208991Y-91658160D01*
X110230072Y-91651764D01*
X110258140Y-91649000D01*
X110721860Y-91649000D01*
X110749928Y-91651764D01*
X110749928Y-91651764D01*
G37*
G36*
X109479928Y-91651764D02*
G01*
X109501009Y-91658160D01*
X109520445Y-91668548D01*
X109537476Y-91682524D01*
X109551452Y-91699555D01*
X109561840Y-91718991D01*
X109568236Y-91740072D01*
X109571000Y-91768140D01*
X109571000Y-93231860D01*
X109568236Y-93259928D01*
X109561840Y-93281009D01*
X109551452Y-93300445D01*
X109537476Y-93317476D01*
X109520445Y-93331452D01*
X109501009Y-93341840D01*
X109479928Y-93348236D01*
X109451860Y-93351000D01*
X108988140Y-93351000D01*
X108960072Y-93348236D01*
X108938991Y-93341840D01*
X108919555Y-93331452D01*
X108902524Y-93317476D01*
X108888548Y-93300445D01*
X108878160Y-93281009D01*
X108871764Y-93259928D01*
X108869000Y-93231860D01*
X108869000Y-91768140D01*
X108871764Y-91740072D01*
X108878160Y-91718991D01*
X108888548Y-91699555D01*
X108902524Y-91682524D01*
X108919555Y-91668548D01*
X108938991Y-91658160D01*
X108960072Y-91651764D01*
X108988140Y-91649000D01*
X109451860Y-91649000D01*
X109479928Y-91651764D01*
X109479928Y-91651764D01*
G37*
G36*
X168016000Y-93158500D02*
G01*
X167264000Y-93158500D01*
X167264000Y-92256500D01*
X168016000Y-92256500D01*
X168016000Y-93158500D01*
X168016000Y-93158500D01*
G37*
G36*
X168016000Y-91258500D02*
G01*
X167264000Y-91258500D01*
X167264000Y-90356500D01*
X168016000Y-90356500D01*
X168016000Y-91258500D01*
X168016000Y-91258500D01*
G37*
G36*
X102963500Y-90226000D02*
G01*
X101801500Y-90226000D01*
X101801500Y-89474000D01*
X102963500Y-89474000D01*
X102963500Y-90226000D01*
X102963500Y-90226000D01*
G37*
G36*
X100763500Y-90226000D02*
G01*
X99601500Y-90226000D01*
X99601500Y-87574000D01*
X100763500Y-87574000D01*
X100763500Y-90226000D01*
X100763500Y-90226000D01*
G37*
G36*
X104837091Y-89203085D02*
G01*
X104871069Y-89213393D01*
X104902390Y-89230134D01*
X104929839Y-89252661D01*
X104952366Y-89280110D01*
X104969107Y-89311431D01*
X104979415Y-89345409D01*
X104983500Y-89386890D01*
X104983500Y-89988110D01*
X104979415Y-90029591D01*
X104969107Y-90063569D01*
X104952366Y-90094890D01*
X104929839Y-90122339D01*
X104902390Y-90144866D01*
X104871069Y-90161607D01*
X104837091Y-90171915D01*
X104795610Y-90176000D01*
X104119390Y-90176000D01*
X104077909Y-90171915D01*
X104043931Y-90161607D01*
X104012610Y-90144866D01*
X103985161Y-90122339D01*
X103962634Y-90094890D01*
X103945893Y-90063569D01*
X103935585Y-90029591D01*
X103931500Y-89988110D01*
X103931500Y-89386890D01*
X103935585Y-89345409D01*
X103945893Y-89311431D01*
X103962634Y-89280110D01*
X103985161Y-89252661D01*
X104012610Y-89230134D01*
X104043931Y-89213393D01*
X104077909Y-89203085D01*
X104119390Y-89199000D01*
X104795610Y-89199000D01*
X104837091Y-89203085D01*
X104837091Y-89203085D01*
G37*
G36*
X107377091Y-89203085D02*
G01*
X107411069Y-89213393D01*
X107442390Y-89230134D01*
X107469839Y-89252661D01*
X107492366Y-89280110D01*
X107509107Y-89311431D01*
X107519415Y-89345409D01*
X107523500Y-89386890D01*
X107523500Y-89988110D01*
X107519415Y-90029591D01*
X107509107Y-90063569D01*
X107492366Y-90094890D01*
X107469839Y-90122339D01*
X107442390Y-90144866D01*
X107411069Y-90161607D01*
X107377091Y-90171915D01*
X107335610Y-90176000D01*
X106659390Y-90176000D01*
X106617909Y-90171915D01*
X106583931Y-90161607D01*
X106552610Y-90144866D01*
X106525161Y-90122339D01*
X106502634Y-90094890D01*
X106485893Y-90063569D01*
X106475585Y-90029591D01*
X106471500Y-89988110D01*
X106471500Y-89386890D01*
X106475585Y-89345409D01*
X106485893Y-89311431D01*
X106502634Y-89280110D01*
X106525161Y-89252661D01*
X106552610Y-89230134D01*
X106583931Y-89213393D01*
X106617909Y-89203085D01*
X106659390Y-89199000D01*
X107335610Y-89199000D01*
X107377091Y-89203085D01*
X107377091Y-89203085D01*
G37*
G36*
X98487091Y-89203085D02*
G01*
X98521069Y-89213393D01*
X98552390Y-89230134D01*
X98579839Y-89252661D01*
X98602366Y-89280110D01*
X98619107Y-89311431D01*
X98629415Y-89345409D01*
X98633500Y-89386890D01*
X98633500Y-89988110D01*
X98629415Y-90029591D01*
X98619107Y-90063569D01*
X98602366Y-90094890D01*
X98579839Y-90122339D01*
X98552390Y-90144866D01*
X98521069Y-90161607D01*
X98487091Y-90171915D01*
X98445610Y-90176000D01*
X97769390Y-90176000D01*
X97727909Y-90171915D01*
X97693931Y-90161607D01*
X97662610Y-90144866D01*
X97635161Y-90122339D01*
X97612634Y-90094890D01*
X97595893Y-90063569D01*
X97585585Y-90029591D01*
X97581500Y-89988110D01*
X97581500Y-89386890D01*
X97585585Y-89345409D01*
X97595893Y-89311431D01*
X97612634Y-89280110D01*
X97635161Y-89252661D01*
X97662610Y-89230134D01*
X97693931Y-89213393D01*
X97727909Y-89203085D01*
X97769390Y-89199000D01*
X98445610Y-89199000D01*
X98487091Y-89203085D01*
X98487091Y-89203085D01*
G37*
G36*
X133263026Y-88566218D02*
G01*
X132625216Y-89204028D01*
X132093472Y-88672284D01*
X132731282Y-88034474D01*
X133263026Y-88566218D01*
X133263026Y-88566218D01*
G37*
G36*
X107377091Y-87628085D02*
G01*
X107411069Y-87638393D01*
X107442390Y-87655134D01*
X107469839Y-87677661D01*
X107492366Y-87705110D01*
X107509107Y-87736431D01*
X107519415Y-87770409D01*
X107523500Y-87811890D01*
X107523500Y-88413110D01*
X107519415Y-88454591D01*
X107509107Y-88488569D01*
X107492366Y-88519890D01*
X107469839Y-88547339D01*
X107442390Y-88569866D01*
X107411069Y-88586607D01*
X107377091Y-88596915D01*
X107335610Y-88601000D01*
X106659390Y-88601000D01*
X106617909Y-88596915D01*
X106583931Y-88586607D01*
X106552610Y-88569866D01*
X106525161Y-88547339D01*
X106502634Y-88519890D01*
X106485893Y-88488569D01*
X106475585Y-88454591D01*
X106471500Y-88413110D01*
X106471500Y-87811890D01*
X106475585Y-87770409D01*
X106485893Y-87736431D01*
X106502634Y-87705110D01*
X106525161Y-87677661D01*
X106552610Y-87655134D01*
X106583931Y-87638393D01*
X106617909Y-87628085D01*
X106659390Y-87624000D01*
X107335610Y-87624000D01*
X107377091Y-87628085D01*
X107377091Y-87628085D01*
G37*
G36*
X98487091Y-87628085D02*
G01*
X98521069Y-87638393D01*
X98552390Y-87655134D01*
X98579839Y-87677661D01*
X98602366Y-87705110D01*
X98619107Y-87736431D01*
X98629415Y-87770409D01*
X98633500Y-87811890D01*
X98633500Y-88413110D01*
X98629415Y-88454591D01*
X98619107Y-88488569D01*
X98602366Y-88519890D01*
X98579839Y-88547339D01*
X98552390Y-88569866D01*
X98521069Y-88586607D01*
X98487091Y-88596915D01*
X98445610Y-88601000D01*
X97769390Y-88601000D01*
X97727909Y-88596915D01*
X97693931Y-88586607D01*
X97662610Y-88569866D01*
X97635161Y-88547339D01*
X97612634Y-88519890D01*
X97595893Y-88488569D01*
X97585585Y-88454591D01*
X97581500Y-88413110D01*
X97581500Y-87811890D01*
X97585585Y-87770409D01*
X97595893Y-87736431D01*
X97612634Y-87705110D01*
X97635161Y-87677661D01*
X97662610Y-87655134D01*
X97693931Y-87638393D01*
X97727909Y-87628085D01*
X97769390Y-87624000D01*
X98445610Y-87624000D01*
X98487091Y-87628085D01*
X98487091Y-87628085D01*
G37*
G36*
X104837091Y-87628085D02*
G01*
X104871069Y-87638393D01*
X104902390Y-87655134D01*
X104929839Y-87677661D01*
X104952366Y-87705110D01*
X104969107Y-87736431D01*
X104979415Y-87770409D01*
X104983500Y-87811890D01*
X104983500Y-88413110D01*
X104979415Y-88454591D01*
X104969107Y-88488569D01*
X104952366Y-88519890D01*
X104929839Y-88547339D01*
X104902390Y-88569866D01*
X104871069Y-88586607D01*
X104837091Y-88596915D01*
X104795610Y-88601000D01*
X104119390Y-88601000D01*
X104077909Y-88596915D01*
X104043931Y-88586607D01*
X104012610Y-88569866D01*
X103985161Y-88547339D01*
X103962634Y-88519890D01*
X103945893Y-88488569D01*
X103935585Y-88454591D01*
X103931500Y-88413110D01*
X103931500Y-87811890D01*
X103935585Y-87770409D01*
X103945893Y-87736431D01*
X103962634Y-87705110D01*
X103985161Y-87677661D01*
X104012610Y-87655134D01*
X104043931Y-87638393D01*
X104077909Y-87628085D01*
X104119390Y-87624000D01*
X104795610Y-87624000D01*
X104837091Y-87628085D01*
X104837091Y-87628085D01*
G37*
G36*
X102963500Y-88326000D02*
G01*
X101801500Y-88326000D01*
X101801500Y-87574000D01*
X102963500Y-87574000D01*
X102963500Y-88326000D01*
X102963500Y-88326000D01*
G37*
G36*
X134606528Y-87222716D02*
G01*
X133968718Y-87860526D01*
X133436974Y-87328782D01*
X134074784Y-86690972D01*
X134606528Y-87222716D01*
X134606528Y-87222716D01*
G37*
G36*
X128014591Y-86663085D02*
G01*
X128048569Y-86673393D01*
X128079890Y-86690134D01*
X128107339Y-86712661D01*
X128129866Y-86740110D01*
X128146607Y-86771431D01*
X128156915Y-86805409D01*
X128161000Y-86846890D01*
X128161000Y-87448110D01*
X128156915Y-87489591D01*
X128146607Y-87523569D01*
X128129866Y-87554890D01*
X128107339Y-87582339D01*
X128079890Y-87604866D01*
X128048569Y-87621607D01*
X128014591Y-87631915D01*
X127973110Y-87636000D01*
X127296890Y-87636000D01*
X127255409Y-87631915D01*
X127221431Y-87621607D01*
X127190110Y-87604866D01*
X127162661Y-87582339D01*
X127140134Y-87554890D01*
X127123393Y-87523569D01*
X127113085Y-87489591D01*
X127109000Y-87448110D01*
X127109000Y-86846890D01*
X127113085Y-86805409D01*
X127123393Y-86771431D01*
X127140134Y-86740110D01*
X127162661Y-86712661D01*
X127190110Y-86690134D01*
X127221431Y-86673393D01*
X127255409Y-86663085D01*
X127296890Y-86659000D01*
X127973110Y-86659000D01*
X128014591Y-86663085D01*
X128014591Y-86663085D01*
G37*
G36*
X135341977Y-85326355D02*
G01*
X135375955Y-85336663D01*
X135407276Y-85353404D01*
X135439490Y-85379842D01*
X135479341Y-85419693D01*
X135479347Y-85419698D01*
X135877802Y-85818153D01*
X135877807Y-85818159D01*
X135917658Y-85858010D01*
X135944096Y-85890224D01*
X135960837Y-85921545D01*
X135971145Y-85955523D01*
X135974625Y-85990864D01*
X135971145Y-86026205D01*
X135960837Y-86060183D01*
X135944096Y-86091504D01*
X135917658Y-86123718D01*
X135877807Y-86163569D01*
X135877802Y-86163575D01*
X135532381Y-86508996D01*
X135532375Y-86509001D01*
X135492524Y-86548852D01*
X135460310Y-86575290D01*
X135428989Y-86592031D01*
X135395011Y-86602339D01*
X135359670Y-86605819D01*
X135324329Y-86602339D01*
X135290351Y-86592031D01*
X135259030Y-86575290D01*
X135226816Y-86548852D01*
X135186965Y-86509001D01*
X135186959Y-86508996D01*
X134788504Y-86110541D01*
X134788499Y-86110535D01*
X134748648Y-86070684D01*
X134722210Y-86038470D01*
X134705469Y-86007149D01*
X134695161Y-85973171D01*
X134691681Y-85937830D01*
X134695161Y-85902489D01*
X134705469Y-85868511D01*
X134722210Y-85837190D01*
X134748648Y-85804976D01*
X134788499Y-85765125D01*
X134788504Y-85765119D01*
X135133925Y-85419698D01*
X135133931Y-85419693D01*
X135173782Y-85379842D01*
X135205996Y-85353404D01*
X135237317Y-85336663D01*
X135271295Y-85326355D01*
X135306636Y-85322875D01*
X135341977Y-85326355D01*
X135341977Y-85326355D01*
G37*
G36*
X112019928Y-84451764D02*
G01*
X112041009Y-84458160D01*
X112060445Y-84468548D01*
X112077476Y-84482524D01*
X112091452Y-84499555D01*
X112101840Y-84518991D01*
X112108236Y-84540072D01*
X112111000Y-84568140D01*
X112111000Y-86031860D01*
X112108236Y-86059928D01*
X112101840Y-86081009D01*
X112091452Y-86100445D01*
X112077476Y-86117476D01*
X112060445Y-86131452D01*
X112041009Y-86141840D01*
X112019928Y-86148236D01*
X111991860Y-86151000D01*
X111528140Y-86151000D01*
X111500072Y-86148236D01*
X111478991Y-86141840D01*
X111459555Y-86131452D01*
X111442524Y-86117476D01*
X111428548Y-86100445D01*
X111418160Y-86081009D01*
X111411764Y-86059928D01*
X111409000Y-86031860D01*
X111409000Y-84568140D01*
X111411764Y-84540072D01*
X111418160Y-84518991D01*
X111428548Y-84499555D01*
X111442524Y-84482524D01*
X111459555Y-84468548D01*
X111478991Y-84458160D01*
X111500072Y-84451764D01*
X111528140Y-84449000D01*
X111991860Y-84449000D01*
X112019928Y-84451764D01*
X112019928Y-84451764D01*
G37*
G36*
X109479928Y-84451764D02*
G01*
X109501009Y-84458160D01*
X109520445Y-84468548D01*
X109537476Y-84482524D01*
X109551452Y-84499555D01*
X109561840Y-84518991D01*
X109568236Y-84540072D01*
X109571000Y-84568140D01*
X109571000Y-86031860D01*
X109568236Y-86059928D01*
X109561840Y-86081009D01*
X109551452Y-86100445D01*
X109537476Y-86117476D01*
X109520445Y-86131452D01*
X109501009Y-86141840D01*
X109479928Y-86148236D01*
X109451860Y-86151000D01*
X108988140Y-86151000D01*
X108960072Y-86148236D01*
X108938991Y-86141840D01*
X108919555Y-86131452D01*
X108902524Y-86117476D01*
X108888548Y-86100445D01*
X108878160Y-86081009D01*
X108871764Y-86059928D01*
X108869000Y-86031860D01*
X108869000Y-84568140D01*
X108871764Y-84540072D01*
X108878160Y-84518991D01*
X108888548Y-84499555D01*
X108902524Y-84482524D01*
X108919555Y-84468548D01*
X108938991Y-84458160D01*
X108960072Y-84451764D01*
X108988140Y-84449000D01*
X109451860Y-84449000D01*
X109479928Y-84451764D01*
X109479928Y-84451764D01*
G37*
G36*
X113289928Y-84451764D02*
G01*
X113311009Y-84458160D01*
X113330445Y-84468548D01*
X113347476Y-84482524D01*
X113361452Y-84499555D01*
X113371840Y-84518991D01*
X113378236Y-84540072D01*
X113381000Y-84568140D01*
X113381000Y-86031860D01*
X113378236Y-86059928D01*
X113371840Y-86081009D01*
X113361452Y-86100445D01*
X113347476Y-86117476D01*
X113330445Y-86131452D01*
X113311009Y-86141840D01*
X113289928Y-86148236D01*
X113261860Y-86151000D01*
X112798140Y-86151000D01*
X112770072Y-86148236D01*
X112748991Y-86141840D01*
X112729555Y-86131452D01*
X112712524Y-86117476D01*
X112698548Y-86100445D01*
X112688160Y-86081009D01*
X112681764Y-86059928D01*
X112679000Y-86031860D01*
X112679000Y-84568140D01*
X112681764Y-84540072D01*
X112688160Y-84518991D01*
X112698548Y-84499555D01*
X112712524Y-84482524D01*
X112729555Y-84468548D01*
X112748991Y-84458160D01*
X112770072Y-84451764D01*
X112798140Y-84449000D01*
X113261860Y-84449000D01*
X113289928Y-84451764D01*
X113289928Y-84451764D01*
G37*
G36*
X110749928Y-84451764D02*
G01*
X110771009Y-84458160D01*
X110790445Y-84468548D01*
X110807476Y-84482524D01*
X110821452Y-84499555D01*
X110831840Y-84518991D01*
X110838236Y-84540072D01*
X110841000Y-84568140D01*
X110841000Y-86031860D01*
X110838236Y-86059928D01*
X110831840Y-86081009D01*
X110821452Y-86100445D01*
X110807476Y-86117476D01*
X110790445Y-86131452D01*
X110771009Y-86141840D01*
X110749928Y-86148236D01*
X110721860Y-86151000D01*
X110258140Y-86151000D01*
X110230072Y-86148236D01*
X110208991Y-86141840D01*
X110189555Y-86131452D01*
X110172524Y-86117476D01*
X110158548Y-86100445D01*
X110148160Y-86081009D01*
X110141764Y-86059928D01*
X110139000Y-86031860D01*
X110139000Y-84568140D01*
X110141764Y-84540072D01*
X110148160Y-84518991D01*
X110158548Y-84499555D01*
X110172524Y-84482524D01*
X110189555Y-84468548D01*
X110208991Y-84458160D01*
X110230072Y-84451764D01*
X110258140Y-84449000D01*
X110721860Y-84449000D01*
X110749928Y-84451764D01*
X110749928Y-84451764D01*
G37*
G36*
X128014591Y-85088085D02*
G01*
X128048569Y-85098393D01*
X128079890Y-85115134D01*
X128107339Y-85137661D01*
X128129866Y-85165110D01*
X128146607Y-85196431D01*
X128156915Y-85230409D01*
X128161000Y-85271890D01*
X128161000Y-85873110D01*
X128156915Y-85914591D01*
X128146607Y-85948569D01*
X128129866Y-85979890D01*
X128107339Y-86007339D01*
X128079890Y-86029866D01*
X128048569Y-86046607D01*
X128014591Y-86056915D01*
X127973110Y-86061000D01*
X127296890Y-86061000D01*
X127255409Y-86056915D01*
X127221431Y-86046607D01*
X127190110Y-86029866D01*
X127162661Y-86007339D01*
X127140134Y-85979890D01*
X127123393Y-85948569D01*
X127113085Y-85914591D01*
X127109000Y-85873110D01*
X127109000Y-85271890D01*
X127113085Y-85230409D01*
X127123393Y-85196431D01*
X127140134Y-85165110D01*
X127162661Y-85137661D01*
X127190110Y-85115134D01*
X127221431Y-85098393D01*
X127255409Y-85088085D01*
X127296890Y-85084000D01*
X127973110Y-85084000D01*
X128014591Y-85088085D01*
X128014591Y-85088085D01*
G37*
G36*
X136455671Y-84212661D02*
G01*
X136489649Y-84222969D01*
X136520970Y-84239710D01*
X136553184Y-84266148D01*
X136593035Y-84305999D01*
X136593041Y-84306004D01*
X136991496Y-84704459D01*
X136991501Y-84704465D01*
X137031352Y-84744316D01*
X137057790Y-84776530D01*
X137074531Y-84807851D01*
X137084839Y-84841829D01*
X137088319Y-84877170D01*
X137084839Y-84912511D01*
X137074531Y-84946489D01*
X137057790Y-84977810D01*
X137031352Y-85010024D01*
X136991501Y-85049875D01*
X136991496Y-85049881D01*
X136646075Y-85395302D01*
X136646069Y-85395307D01*
X136606218Y-85435158D01*
X136574004Y-85461596D01*
X136542683Y-85478337D01*
X136508705Y-85488645D01*
X136473364Y-85492125D01*
X136438023Y-85488645D01*
X136404045Y-85478337D01*
X136372724Y-85461596D01*
X136340510Y-85435158D01*
X136300659Y-85395307D01*
X136300653Y-85395302D01*
X135902198Y-84996847D01*
X135902193Y-84996841D01*
X135862342Y-84956990D01*
X135835904Y-84924776D01*
X135819163Y-84893455D01*
X135808855Y-84859477D01*
X135805375Y-84824136D01*
X135808855Y-84788795D01*
X135819163Y-84754817D01*
X135835904Y-84723496D01*
X135862342Y-84691282D01*
X135902193Y-84651431D01*
X135902198Y-84651425D01*
X136247619Y-84306004D01*
X136247625Y-84305999D01*
X136287476Y-84266148D01*
X136319690Y-84239710D01*
X136351011Y-84222969D01*
X136384989Y-84212661D01*
X136420330Y-84209181D01*
X136455671Y-84212661D01*
X136455671Y-84212661D01*
G37*
G36*
X97344591Y-83615585D02*
G01*
X97378569Y-83625893D01*
X97409890Y-83642634D01*
X97437339Y-83665161D01*
X97459866Y-83692610D01*
X97476607Y-83723931D01*
X97486915Y-83757909D01*
X97491000Y-83799390D01*
X97491000Y-84475610D01*
X97486915Y-84517091D01*
X97476607Y-84551069D01*
X97459866Y-84582390D01*
X97437339Y-84609839D01*
X97409890Y-84632366D01*
X97378569Y-84649107D01*
X97344591Y-84659415D01*
X97303110Y-84663500D01*
X96701890Y-84663500D01*
X96660409Y-84659415D01*
X96626431Y-84649107D01*
X96595110Y-84632366D01*
X96567661Y-84609839D01*
X96545134Y-84582390D01*
X96528393Y-84551069D01*
X96518085Y-84517091D01*
X96514000Y-84475610D01*
X96514000Y-83799390D01*
X96518085Y-83757909D01*
X96528393Y-83723931D01*
X96545134Y-83692610D01*
X96567661Y-83665161D01*
X96595110Y-83642634D01*
X96626431Y-83625893D01*
X96660409Y-83615585D01*
X96701890Y-83611500D01*
X97303110Y-83611500D01*
X97344591Y-83615585D01*
X97344591Y-83615585D01*
G37*
G36*
X98919591Y-83615585D02*
G01*
X98953569Y-83625893D01*
X98984890Y-83642634D01*
X99012339Y-83665161D01*
X99034866Y-83692610D01*
X99051607Y-83723931D01*
X99061915Y-83757909D01*
X99066000Y-83799390D01*
X99066000Y-84475610D01*
X99061915Y-84517091D01*
X99051607Y-84551069D01*
X99034866Y-84582390D01*
X99012339Y-84609839D01*
X98984890Y-84632366D01*
X98953569Y-84649107D01*
X98919591Y-84659415D01*
X98878110Y-84663500D01*
X98276890Y-84663500D01*
X98235409Y-84659415D01*
X98201431Y-84649107D01*
X98170110Y-84632366D01*
X98142661Y-84609839D01*
X98120134Y-84582390D01*
X98103393Y-84551069D01*
X98093085Y-84517091D01*
X98089000Y-84475610D01*
X98089000Y-83799390D01*
X98093085Y-83757909D01*
X98103393Y-83723931D01*
X98120134Y-83692610D01*
X98142661Y-83665161D01*
X98170110Y-83642634D01*
X98201431Y-83625893D01*
X98235409Y-83615585D01*
X98276890Y-83611500D01*
X98878110Y-83611500D01*
X98919591Y-83615585D01*
X98919591Y-83615585D01*
G37*
G36*
X127928500Y-84276000D02*
G01*
X121626500Y-84276000D01*
X121626500Y-82974000D01*
X127928500Y-82974000D01*
X127928500Y-84276000D01*
X127928500Y-84276000D01*
G37*
G36*
X112476000Y-83581000D02*
G01*
X111274000Y-83581000D01*
X111274000Y-81979000D01*
X112476000Y-81979000D01*
X112476000Y-83581000D01*
X112476000Y-83581000D01*
G37*
G36*
X110976000Y-83581000D02*
G01*
X109774000Y-83581000D01*
X109774000Y-81979000D01*
X110976000Y-81979000D01*
X110976000Y-83581000D01*
X110976000Y-83581000D01*
G37*
G36*
X116064591Y-82345585D02*
G01*
X116098569Y-82355893D01*
X116129890Y-82372634D01*
X116157339Y-82395161D01*
X116179866Y-82422610D01*
X116196607Y-82453931D01*
X116206915Y-82487909D01*
X116211000Y-82529390D01*
X116211000Y-83205610D01*
X116206915Y-83247091D01*
X116196607Y-83281069D01*
X116179866Y-83312390D01*
X116157339Y-83339839D01*
X116129890Y-83362366D01*
X116098569Y-83379107D01*
X116064591Y-83389415D01*
X116023110Y-83393500D01*
X115421890Y-83393500D01*
X115380409Y-83389415D01*
X115346431Y-83379107D01*
X115315110Y-83362366D01*
X115287661Y-83339839D01*
X115265134Y-83312390D01*
X115248393Y-83281069D01*
X115238085Y-83247091D01*
X115234000Y-83205610D01*
X115234000Y-82529390D01*
X115238085Y-82487909D01*
X115248393Y-82453931D01*
X115265134Y-82422610D01*
X115287661Y-82395161D01*
X115315110Y-82372634D01*
X115346431Y-82355893D01*
X115380409Y-82345585D01*
X115421890Y-82341500D01*
X116023110Y-82341500D01*
X116064591Y-82345585D01*
X116064591Y-82345585D01*
G37*
G36*
X114489591Y-82345585D02*
G01*
X114523569Y-82355893D01*
X114554890Y-82372634D01*
X114582339Y-82395161D01*
X114604866Y-82422610D01*
X114621607Y-82453931D01*
X114631915Y-82487909D01*
X114636000Y-82529390D01*
X114636000Y-83205610D01*
X114631915Y-83247091D01*
X114621607Y-83281069D01*
X114604866Y-83312390D01*
X114582339Y-83339839D01*
X114554890Y-83362366D01*
X114523569Y-83379107D01*
X114489591Y-83389415D01*
X114448110Y-83393500D01*
X113846890Y-83393500D01*
X113805409Y-83389415D01*
X113771431Y-83379107D01*
X113740110Y-83362366D01*
X113712661Y-83339839D01*
X113690134Y-83312390D01*
X113673393Y-83281069D01*
X113663085Y-83247091D01*
X113659000Y-83205610D01*
X113659000Y-82529390D01*
X113663085Y-82487909D01*
X113673393Y-82453931D01*
X113690134Y-82422610D01*
X113712661Y-82395161D01*
X113740110Y-82372634D01*
X113771431Y-82355893D01*
X113805409Y-82345585D01*
X113846890Y-82341500D01*
X114448110Y-82341500D01*
X114489591Y-82345585D01*
X114489591Y-82345585D01*
G37*
G36*
X97591000Y-75046501D02*
G01*
X97593402Y-75070887D01*
X97600515Y-75094336D01*
X97612066Y-75115947D01*
X97627611Y-75134889D01*
X97646553Y-75150434D01*
X97668164Y-75161985D01*
X97691613Y-75169098D01*
X97715999Y-75171500D01*
X99991000Y-75171500D01*
X99991000Y-81673500D01*
X97715999Y-81673500D01*
X97691613Y-81675902D01*
X97668164Y-81683015D01*
X97646553Y-81694566D01*
X97627611Y-81710111D01*
X97612066Y-81729053D01*
X97600515Y-81750664D01*
X97593402Y-81774113D01*
X97591000Y-81798499D01*
X97591000Y-82571000D01*
X95589000Y-82571000D01*
X95589000Y-78624000D01*
X97591000Y-78624000D01*
X97591000Y-79971501D01*
X97593402Y-79995887D01*
X97600515Y-80019336D01*
X97612066Y-80040947D01*
X97627611Y-80059889D01*
X97646553Y-80075434D01*
X97668164Y-80086985D01*
X97691613Y-80094098D01*
X97715999Y-80096500D01*
X98384001Y-80096500D01*
X98408387Y-80094098D01*
X98431836Y-80086985D01*
X98453447Y-80075434D01*
X98472389Y-80059889D01*
X98487934Y-80040947D01*
X98499485Y-80019336D01*
X98506598Y-79995887D01*
X98509000Y-79971501D01*
X98509000Y-76873499D01*
X98506598Y-76849113D01*
X98499485Y-76825664D01*
X98487934Y-76804053D01*
X98472389Y-76785111D01*
X98453447Y-76769566D01*
X98431836Y-76758015D01*
X98408387Y-76750902D01*
X98384001Y-76748500D01*
X97715999Y-76748500D01*
X97691613Y-76750902D01*
X97668164Y-76758015D01*
X97646553Y-76769566D01*
X97627611Y-76785111D01*
X97612066Y-76804053D01*
X97600515Y-76825664D01*
X97593402Y-76849113D01*
X97591000Y-76873499D01*
X97591000Y-78221000D01*
X95589000Y-78221000D01*
X95589000Y-74274000D01*
X97591000Y-74274000D01*
X97591000Y-75046501D01*
X97591000Y-75046501D01*
G37*
G36*
X121178500Y-82526000D02*
G01*
X119876500Y-82526000D01*
X119876500Y-76224000D01*
X121178500Y-76224000D01*
X121178500Y-82526000D01*
X121178500Y-82526000D01*
G37*
G36*
X129678500Y-82526000D02*
G01*
X128376500Y-82526000D01*
X128376500Y-76224000D01*
X129678500Y-76224000D01*
X129678500Y-82526000D01*
X129678500Y-82526000D01*
G37*
G36*
X116064591Y-80758085D02*
G01*
X116098569Y-80768393D01*
X116129890Y-80785134D01*
X116157339Y-80807661D01*
X116179866Y-80835110D01*
X116196607Y-80866431D01*
X116206915Y-80900409D01*
X116211000Y-80941890D01*
X116211000Y-81618110D01*
X116206915Y-81659591D01*
X116196607Y-81693569D01*
X116179866Y-81724890D01*
X116157339Y-81752339D01*
X116129890Y-81774866D01*
X116098569Y-81791607D01*
X116064591Y-81801915D01*
X116023110Y-81806000D01*
X115421890Y-81806000D01*
X115380409Y-81801915D01*
X115346431Y-81791607D01*
X115315110Y-81774866D01*
X115287661Y-81752339D01*
X115265134Y-81724890D01*
X115248393Y-81693569D01*
X115238085Y-81659591D01*
X115234000Y-81618110D01*
X115234000Y-80941890D01*
X115238085Y-80900409D01*
X115248393Y-80866431D01*
X115265134Y-80835110D01*
X115287661Y-80807661D01*
X115315110Y-80785134D01*
X115346431Y-80768393D01*
X115380409Y-80758085D01*
X115421890Y-80754000D01*
X116023110Y-80754000D01*
X116064591Y-80758085D01*
X116064591Y-80758085D01*
G37*
G36*
X114489591Y-80758085D02*
G01*
X114523569Y-80768393D01*
X114554890Y-80785134D01*
X114582339Y-80807661D01*
X114604866Y-80835110D01*
X114621607Y-80866431D01*
X114631915Y-80900409D01*
X114636000Y-80941890D01*
X114636000Y-81618110D01*
X114631915Y-81659591D01*
X114621607Y-81693569D01*
X114604866Y-81724890D01*
X114582339Y-81752339D01*
X114554890Y-81774866D01*
X114523569Y-81791607D01*
X114489591Y-81801915D01*
X114448110Y-81806000D01*
X113846890Y-81806000D01*
X113805409Y-81801915D01*
X113771431Y-81791607D01*
X113740110Y-81774866D01*
X113712661Y-81752339D01*
X113690134Y-81724890D01*
X113673393Y-81693569D01*
X113663085Y-81659591D01*
X113659000Y-81618110D01*
X113659000Y-80941890D01*
X113663085Y-80900409D01*
X113673393Y-80866431D01*
X113690134Y-80835110D01*
X113712661Y-80807661D01*
X113740110Y-80785134D01*
X113771431Y-80768393D01*
X113805409Y-80758085D01*
X113846890Y-80754000D01*
X114448110Y-80754000D01*
X114489591Y-80758085D01*
X114489591Y-80758085D01*
G37*
G36*
X112476000Y-80581000D02*
G01*
X111274000Y-80581000D01*
X111274000Y-78979000D01*
X112476000Y-78979000D01*
X112476000Y-80581000D01*
X112476000Y-80581000D01*
G37*
G36*
X110976000Y-80581000D02*
G01*
X109774000Y-80581000D01*
X109774000Y-78979000D01*
X110976000Y-78979000D01*
X110976000Y-80581000D01*
X110976000Y-80581000D01*
G37*
G36*
X114489591Y-79170585D02*
G01*
X114523569Y-79180893D01*
X114554890Y-79197634D01*
X114582339Y-79220161D01*
X114604866Y-79247610D01*
X114621607Y-79278931D01*
X114631915Y-79312909D01*
X114636000Y-79354390D01*
X114636000Y-80030610D01*
X114631915Y-80072091D01*
X114621607Y-80106069D01*
X114604866Y-80137390D01*
X114582339Y-80164839D01*
X114554890Y-80187366D01*
X114523569Y-80204107D01*
X114489591Y-80214415D01*
X114448110Y-80218500D01*
X113846890Y-80218500D01*
X113805409Y-80214415D01*
X113771431Y-80204107D01*
X113740110Y-80187366D01*
X113712661Y-80164839D01*
X113690134Y-80137390D01*
X113673393Y-80106069D01*
X113663085Y-80072091D01*
X113659000Y-80030610D01*
X113659000Y-79354390D01*
X113663085Y-79312909D01*
X113673393Y-79278931D01*
X113690134Y-79247610D01*
X113712661Y-79220161D01*
X113740110Y-79197634D01*
X113771431Y-79180893D01*
X113805409Y-79170585D01*
X113846890Y-79166500D01*
X114448110Y-79166500D01*
X114489591Y-79170585D01*
X114489591Y-79170585D01*
G37*
G36*
X116064591Y-79170585D02*
G01*
X116098569Y-79180893D01*
X116129890Y-79197634D01*
X116157339Y-79220161D01*
X116179866Y-79247610D01*
X116196607Y-79278931D01*
X116206915Y-79312909D01*
X116211000Y-79354390D01*
X116211000Y-80030610D01*
X116206915Y-80072091D01*
X116196607Y-80106069D01*
X116179866Y-80137390D01*
X116157339Y-80164839D01*
X116129890Y-80187366D01*
X116098569Y-80204107D01*
X116064591Y-80214415D01*
X116023110Y-80218500D01*
X115421890Y-80218500D01*
X115380409Y-80214415D01*
X115346431Y-80204107D01*
X115315110Y-80187366D01*
X115287661Y-80164839D01*
X115265134Y-80137390D01*
X115248393Y-80106069D01*
X115238085Y-80072091D01*
X115234000Y-80030610D01*
X115234000Y-79354390D01*
X115238085Y-79312909D01*
X115248393Y-79278931D01*
X115265134Y-79247610D01*
X115287661Y-79220161D01*
X115315110Y-79197634D01*
X115346431Y-79180893D01*
X115380409Y-79170585D01*
X115421890Y-79166500D01*
X116023110Y-79166500D01*
X116064591Y-79170585D01*
X116064591Y-79170585D01*
G37*
G36*
X103999591Y-78853085D02*
G01*
X104033569Y-78863393D01*
X104064890Y-78880134D01*
X104092339Y-78902661D01*
X104114866Y-78930110D01*
X104131607Y-78961431D01*
X104141915Y-78995409D01*
X104146000Y-79036890D01*
X104146000Y-79713110D01*
X104141915Y-79754591D01*
X104131607Y-79788569D01*
X104114866Y-79819890D01*
X104092339Y-79847339D01*
X104064890Y-79869866D01*
X104033569Y-79886607D01*
X103999591Y-79896915D01*
X103958110Y-79901000D01*
X103356890Y-79901000D01*
X103315409Y-79896915D01*
X103281431Y-79886607D01*
X103250110Y-79869866D01*
X103222661Y-79847339D01*
X103200134Y-79819890D01*
X103183393Y-79788569D01*
X103173085Y-79754591D01*
X103169000Y-79713110D01*
X103169000Y-79036890D01*
X103173085Y-78995409D01*
X103183393Y-78961431D01*
X103200134Y-78930110D01*
X103222661Y-78902661D01*
X103250110Y-78880134D01*
X103281431Y-78863393D01*
X103315409Y-78853085D01*
X103356890Y-78849000D01*
X103958110Y-78849000D01*
X103999591Y-78853085D01*
X103999591Y-78853085D01*
G37*
G36*
X102424591Y-78853085D02*
G01*
X102458569Y-78863393D01*
X102489890Y-78880134D01*
X102517339Y-78902661D01*
X102539866Y-78930110D01*
X102556607Y-78961431D01*
X102566915Y-78995409D01*
X102571000Y-79036890D01*
X102571000Y-79713110D01*
X102566915Y-79754591D01*
X102556607Y-79788569D01*
X102539866Y-79819890D01*
X102517339Y-79847339D01*
X102489890Y-79869866D01*
X102458569Y-79886607D01*
X102424591Y-79896915D01*
X102383110Y-79901000D01*
X101781890Y-79901000D01*
X101740409Y-79896915D01*
X101706431Y-79886607D01*
X101675110Y-79869866D01*
X101647661Y-79847339D01*
X101625134Y-79819890D01*
X101608393Y-79788569D01*
X101598085Y-79754591D01*
X101594000Y-79713110D01*
X101594000Y-79036890D01*
X101598085Y-78995409D01*
X101608393Y-78961431D01*
X101625134Y-78930110D01*
X101647661Y-78902661D01*
X101675110Y-78880134D01*
X101706431Y-78863393D01*
X101740409Y-78853085D01*
X101781890Y-78849000D01*
X102383110Y-78849000D01*
X102424591Y-78853085D01*
X102424591Y-78853085D01*
G37*
G36*
X168019591Y-77138085D02*
G01*
X168053569Y-77148393D01*
X168084890Y-77165134D01*
X168112339Y-77187661D01*
X168134866Y-77215110D01*
X168151607Y-77246431D01*
X168161915Y-77280409D01*
X168166000Y-77321890D01*
X168166000Y-77923110D01*
X168161915Y-77964591D01*
X168151607Y-77998569D01*
X168134866Y-78029890D01*
X168112339Y-78057339D01*
X168084890Y-78079866D01*
X168053569Y-78096607D01*
X168019591Y-78106915D01*
X167978110Y-78111000D01*
X167301890Y-78111000D01*
X167260409Y-78106915D01*
X167226431Y-78096607D01*
X167195110Y-78079866D01*
X167167661Y-78057339D01*
X167145134Y-78029890D01*
X167128393Y-77998569D01*
X167118085Y-77964591D01*
X167114000Y-77923110D01*
X167114000Y-77321890D01*
X167118085Y-77280409D01*
X167128393Y-77246431D01*
X167145134Y-77215110D01*
X167167661Y-77187661D01*
X167195110Y-77165134D01*
X167226431Y-77148393D01*
X167260409Y-77138085D01*
X167301890Y-77134000D01*
X167978110Y-77134000D01*
X168019591Y-77138085D01*
X168019591Y-77138085D01*
G37*
G36*
X102424591Y-76948085D02*
G01*
X102458569Y-76958393D01*
X102489890Y-76975134D01*
X102517339Y-76997661D01*
X102539866Y-77025110D01*
X102556607Y-77056431D01*
X102566915Y-77090409D01*
X102571000Y-77131890D01*
X102571000Y-77808110D01*
X102566915Y-77849591D01*
X102556607Y-77883569D01*
X102539866Y-77914890D01*
X102517339Y-77942339D01*
X102489890Y-77964866D01*
X102458569Y-77981607D01*
X102424591Y-77991915D01*
X102383110Y-77996000D01*
X101781890Y-77996000D01*
X101740409Y-77991915D01*
X101706431Y-77981607D01*
X101675110Y-77964866D01*
X101647661Y-77942339D01*
X101625134Y-77914890D01*
X101608393Y-77883569D01*
X101598085Y-77849591D01*
X101594000Y-77808110D01*
X101594000Y-77131890D01*
X101598085Y-77090409D01*
X101608393Y-77056431D01*
X101625134Y-77025110D01*
X101647661Y-76997661D01*
X101675110Y-76975134D01*
X101706431Y-76958393D01*
X101740409Y-76948085D01*
X101781890Y-76944000D01*
X102383110Y-76944000D01*
X102424591Y-76948085D01*
X102424591Y-76948085D01*
G37*
G36*
X103999591Y-76948085D02*
G01*
X104033569Y-76958393D01*
X104064890Y-76975134D01*
X104092339Y-76997661D01*
X104114866Y-77025110D01*
X104131607Y-77056431D01*
X104141915Y-77090409D01*
X104146000Y-77131890D01*
X104146000Y-77808110D01*
X104141915Y-77849591D01*
X104131607Y-77883569D01*
X104114866Y-77914890D01*
X104092339Y-77942339D01*
X104064890Y-77964866D01*
X104033569Y-77981607D01*
X103999591Y-77991915D01*
X103958110Y-77996000D01*
X103356890Y-77996000D01*
X103315409Y-77991915D01*
X103281431Y-77981607D01*
X103250110Y-77964866D01*
X103222661Y-77942339D01*
X103200134Y-77914890D01*
X103183393Y-77883569D01*
X103173085Y-77849591D01*
X103169000Y-77808110D01*
X103169000Y-77131890D01*
X103173085Y-77090409D01*
X103183393Y-77056431D01*
X103200134Y-77025110D01*
X103222661Y-76997661D01*
X103250110Y-76975134D01*
X103281431Y-76958393D01*
X103315409Y-76948085D01*
X103356890Y-76944000D01*
X103958110Y-76944000D01*
X103999591Y-76948085D01*
X103999591Y-76948085D01*
G37*
G36*
X133527091Y-76630585D02*
G01*
X133561069Y-76640893D01*
X133592390Y-76657634D01*
X133619839Y-76680161D01*
X133642366Y-76707610D01*
X133659107Y-76738931D01*
X133669415Y-76772909D01*
X133673500Y-76814390D01*
X133673500Y-77490610D01*
X133669415Y-77532091D01*
X133659107Y-77566069D01*
X133642366Y-77597390D01*
X133619839Y-77624839D01*
X133592390Y-77647366D01*
X133561069Y-77664107D01*
X133527091Y-77674415D01*
X133485610Y-77678500D01*
X132884390Y-77678500D01*
X132842909Y-77674415D01*
X132808931Y-77664107D01*
X132777610Y-77647366D01*
X132750161Y-77624839D01*
X132727634Y-77597390D01*
X132710893Y-77566069D01*
X132700585Y-77532091D01*
X132696500Y-77490610D01*
X132696500Y-76814390D01*
X132700585Y-76772909D01*
X132710893Y-76738931D01*
X132727634Y-76707610D01*
X132750161Y-76680161D01*
X132777610Y-76657634D01*
X132808931Y-76640893D01*
X132842909Y-76630585D01*
X132884390Y-76626500D01*
X133485610Y-76626500D01*
X133527091Y-76630585D01*
X133527091Y-76630585D01*
G37*
G36*
X131952091Y-76630585D02*
G01*
X131986069Y-76640893D01*
X132017390Y-76657634D01*
X132044839Y-76680161D01*
X132067366Y-76707610D01*
X132084107Y-76738931D01*
X132094415Y-76772909D01*
X132098500Y-76814390D01*
X132098500Y-77490610D01*
X132094415Y-77532091D01*
X132084107Y-77566069D01*
X132067366Y-77597390D01*
X132044839Y-77624839D01*
X132017390Y-77647366D01*
X131986069Y-77664107D01*
X131952091Y-77674415D01*
X131910610Y-77678500D01*
X131309390Y-77678500D01*
X131267909Y-77674415D01*
X131233931Y-77664107D01*
X131202610Y-77647366D01*
X131175161Y-77624839D01*
X131152634Y-77597390D01*
X131135893Y-77566069D01*
X131125585Y-77532091D01*
X131121500Y-77490610D01*
X131121500Y-76814390D01*
X131125585Y-76772909D01*
X131135893Y-76738931D01*
X131152634Y-76707610D01*
X131175161Y-76680161D01*
X131202610Y-76657634D01*
X131233931Y-76640893D01*
X131267909Y-76630585D01*
X131309390Y-76626500D01*
X131910610Y-76626500D01*
X131952091Y-76630585D01*
X131952091Y-76630585D01*
G37*
G36*
X168019591Y-75563085D02*
G01*
X168053569Y-75573393D01*
X168084890Y-75590134D01*
X168112339Y-75612661D01*
X168134866Y-75640110D01*
X168151607Y-75671431D01*
X168161915Y-75705409D01*
X168166000Y-75746890D01*
X168166000Y-76348110D01*
X168161915Y-76389591D01*
X168151607Y-76423569D01*
X168134866Y-76454890D01*
X168112339Y-76482339D01*
X168084890Y-76504866D01*
X168053569Y-76521607D01*
X168019591Y-76531915D01*
X167978110Y-76536000D01*
X167301890Y-76536000D01*
X167260409Y-76531915D01*
X167226431Y-76521607D01*
X167195110Y-76504866D01*
X167167661Y-76482339D01*
X167145134Y-76454890D01*
X167128393Y-76423569D01*
X167118085Y-76389591D01*
X167114000Y-76348110D01*
X167114000Y-75746890D01*
X167118085Y-75705409D01*
X167128393Y-75671431D01*
X167145134Y-75640110D01*
X167167661Y-75612661D01*
X167195110Y-75590134D01*
X167226431Y-75573393D01*
X167260409Y-75563085D01*
X167301890Y-75559000D01*
X167978110Y-75559000D01*
X168019591Y-75563085D01*
X168019591Y-75563085D01*
G37*
G36*
X131952091Y-75043085D02*
G01*
X131986069Y-75053393D01*
X132017390Y-75070134D01*
X132044839Y-75092661D01*
X132067366Y-75120110D01*
X132084107Y-75151431D01*
X132094415Y-75185409D01*
X132098500Y-75226890D01*
X132098500Y-75903110D01*
X132094415Y-75944591D01*
X132084107Y-75978569D01*
X132067366Y-76009890D01*
X132044839Y-76037339D01*
X132017390Y-76059866D01*
X131986069Y-76076607D01*
X131952091Y-76086915D01*
X131910610Y-76091000D01*
X131309390Y-76091000D01*
X131267909Y-76086915D01*
X131233931Y-76076607D01*
X131202610Y-76059866D01*
X131175161Y-76037339D01*
X131152634Y-76009890D01*
X131135893Y-75978569D01*
X131125585Y-75944591D01*
X131121500Y-75903110D01*
X131121500Y-75226890D01*
X131125585Y-75185409D01*
X131135893Y-75151431D01*
X131152634Y-75120110D01*
X131175161Y-75092661D01*
X131202610Y-75070134D01*
X131233931Y-75053393D01*
X131267909Y-75043085D01*
X131309390Y-75039000D01*
X131910610Y-75039000D01*
X131952091Y-75043085D01*
X131952091Y-75043085D01*
G37*
G36*
X133527091Y-75043085D02*
G01*
X133561069Y-75053393D01*
X133592390Y-75070134D01*
X133619839Y-75092661D01*
X133642366Y-75120110D01*
X133659107Y-75151431D01*
X133669415Y-75185409D01*
X133673500Y-75226890D01*
X133673500Y-75903110D01*
X133669415Y-75944591D01*
X133659107Y-75978569D01*
X133642366Y-76009890D01*
X133619839Y-76037339D01*
X133592390Y-76059866D01*
X133561069Y-76076607D01*
X133527091Y-76086915D01*
X133485610Y-76091000D01*
X132884390Y-76091000D01*
X132842909Y-76086915D01*
X132808931Y-76076607D01*
X132777610Y-76059866D01*
X132750161Y-76037339D01*
X132727634Y-76009890D01*
X132710893Y-75978569D01*
X132700585Y-75944591D01*
X132696500Y-75903110D01*
X132696500Y-75226890D01*
X132700585Y-75185409D01*
X132710893Y-75151431D01*
X132727634Y-75120110D01*
X132750161Y-75092661D01*
X132777610Y-75070134D01*
X132808931Y-75053393D01*
X132842909Y-75043085D01*
X132884390Y-75039000D01*
X133485610Y-75039000D01*
X133527091Y-75043085D01*
X133527091Y-75043085D01*
G37*
G36*
X115850069Y-74830216D02*
G01*
X114717284Y-75963001D01*
X113584499Y-74830216D01*
X114717284Y-73697431D01*
X115850069Y-74830216D01*
X115850069Y-74830216D01*
G37*
G36*
X127928500Y-75776000D02*
G01*
X121626500Y-75776000D01*
X121626500Y-74474000D01*
X127928500Y-74474000D01*
X127928500Y-75776000D01*
X127928500Y-75776000D01*
G37*
G36*
X148185526Y-73643718D02*
G01*
X147547716Y-74281528D01*
X147015972Y-73749784D01*
X147653782Y-73111974D01*
X148185526Y-73643718D01*
X148185526Y-73643718D01*
G37*
G36*
X168016000Y-74108500D02*
G01*
X167264000Y-74108500D01*
X167264000Y-73206500D01*
X168016000Y-73206500D01*
X168016000Y-74108500D01*
X168016000Y-74108500D01*
G37*
G36*
X125157091Y-72375585D02*
G01*
X125191069Y-72385893D01*
X125222390Y-72402634D01*
X125249839Y-72425161D01*
X125272366Y-72452610D01*
X125289107Y-72483931D01*
X125299415Y-72517909D01*
X125303500Y-72559390D01*
X125303500Y-73160610D01*
X125299415Y-73202091D01*
X125289107Y-73236069D01*
X125272366Y-73267390D01*
X125249839Y-73294839D01*
X125222390Y-73317366D01*
X125191069Y-73334107D01*
X125157091Y-73344415D01*
X125115610Y-73348500D01*
X124439390Y-73348500D01*
X124397909Y-73344415D01*
X124363931Y-73334107D01*
X124332610Y-73317366D01*
X124305161Y-73294839D01*
X124282634Y-73267390D01*
X124265893Y-73236069D01*
X124255585Y-73202091D01*
X124251500Y-73160610D01*
X124251500Y-72559390D01*
X124255585Y-72517909D01*
X124265893Y-72483931D01*
X124282634Y-72452610D01*
X124305161Y-72425161D01*
X124332610Y-72402634D01*
X124363931Y-72385893D01*
X124397909Y-72375585D01*
X124439390Y-72371500D01*
X125115610Y-72371500D01*
X125157091Y-72375585D01*
X125157091Y-72375585D01*
G37*
G36*
X126744591Y-72375585D02*
G01*
X126778569Y-72385893D01*
X126809890Y-72402634D01*
X126837339Y-72425161D01*
X126859866Y-72452610D01*
X126876607Y-72483931D01*
X126886915Y-72517909D01*
X126891000Y-72559390D01*
X126891000Y-73160610D01*
X126886915Y-73202091D01*
X126876607Y-73236069D01*
X126859866Y-73267390D01*
X126837339Y-73294839D01*
X126809890Y-73317366D01*
X126778569Y-73334107D01*
X126744591Y-73344415D01*
X126703110Y-73348500D01*
X126026890Y-73348500D01*
X125985409Y-73344415D01*
X125951431Y-73334107D01*
X125920110Y-73317366D01*
X125892661Y-73294839D01*
X125870134Y-73267390D01*
X125853393Y-73236069D01*
X125843085Y-73202091D01*
X125839000Y-73160610D01*
X125839000Y-72559390D01*
X125843085Y-72517909D01*
X125853393Y-72483931D01*
X125870134Y-72452610D01*
X125892661Y-72425161D01*
X125920110Y-72402634D01*
X125951431Y-72385893D01*
X125985409Y-72375585D01*
X126026890Y-72371500D01*
X126703110Y-72371500D01*
X126744591Y-72375585D01*
X126744591Y-72375585D01*
G37*
G36*
X98919591Y-72185585D02*
G01*
X98953569Y-72195893D01*
X98984890Y-72212634D01*
X99012339Y-72235161D01*
X99034866Y-72262610D01*
X99051607Y-72293931D01*
X99061915Y-72327909D01*
X99066000Y-72369390D01*
X99066000Y-73045610D01*
X99061915Y-73087091D01*
X99051607Y-73121069D01*
X99034866Y-73152390D01*
X99012339Y-73179839D01*
X98984890Y-73202366D01*
X98953569Y-73219107D01*
X98919591Y-73229415D01*
X98878110Y-73233500D01*
X98276890Y-73233500D01*
X98235409Y-73229415D01*
X98201431Y-73219107D01*
X98170110Y-73202366D01*
X98142661Y-73179839D01*
X98120134Y-73152390D01*
X98103393Y-73121069D01*
X98093085Y-73087091D01*
X98089000Y-73045610D01*
X98089000Y-72369390D01*
X98093085Y-72327909D01*
X98103393Y-72293931D01*
X98120134Y-72262610D01*
X98142661Y-72235161D01*
X98170110Y-72212634D01*
X98201431Y-72195893D01*
X98235409Y-72185585D01*
X98276890Y-72181500D01*
X98878110Y-72181500D01*
X98919591Y-72185585D01*
X98919591Y-72185585D01*
G37*
G36*
X97344591Y-72185585D02*
G01*
X97378569Y-72195893D01*
X97409890Y-72212634D01*
X97437339Y-72235161D01*
X97459866Y-72262610D01*
X97476607Y-72293931D01*
X97486915Y-72327909D01*
X97491000Y-72369390D01*
X97491000Y-73045610D01*
X97486915Y-73087091D01*
X97476607Y-73121069D01*
X97459866Y-73152390D01*
X97437339Y-73179839D01*
X97409890Y-73202366D01*
X97378569Y-73219107D01*
X97344591Y-73229415D01*
X97303110Y-73233500D01*
X96701890Y-73233500D01*
X96660409Y-73229415D01*
X96626431Y-73219107D01*
X96595110Y-73202366D01*
X96567661Y-73179839D01*
X96545134Y-73152390D01*
X96528393Y-73121069D01*
X96518085Y-73087091D01*
X96514000Y-73045610D01*
X96514000Y-72369390D01*
X96518085Y-72327909D01*
X96528393Y-72293931D01*
X96545134Y-72262610D01*
X96567661Y-72235161D01*
X96595110Y-72212634D01*
X96626431Y-72195893D01*
X96660409Y-72185585D01*
X96701890Y-72181500D01*
X97303110Y-72181500D01*
X97344591Y-72185585D01*
X97344591Y-72185585D01*
G37*
G36*
X149529028Y-72300216D02*
G01*
X148891218Y-72938026D01*
X148359474Y-72406282D01*
X148997284Y-71768472D01*
X149529028Y-72300216D01*
X149529028Y-72300216D01*
G37*
G36*
X131381000Y-72811000D02*
G01*
X128879000Y-72811000D01*
X128879000Y-71969000D01*
X131381000Y-71969000D01*
X131381000Y-72811000D01*
X131381000Y-72811000D01*
G37*
G36*
X135281000Y-72811000D02*
G01*
X132779000Y-72811000D01*
X132779000Y-71969000D01*
X135281000Y-71969000D01*
X135281000Y-72811000D01*
X135281000Y-72811000D01*
G37*
G36*
X168016000Y-72208500D02*
G01*
X167264000Y-72208500D01*
X167264000Y-71306500D01*
X168016000Y-71306500D01*
X168016000Y-72208500D01*
X168016000Y-72208500D01*
G37*
G36*
X149946977Y-70721355D02*
G01*
X149980955Y-70731663D01*
X150012276Y-70748404D01*
X150044490Y-70774842D01*
X150084341Y-70814693D01*
X150084347Y-70814698D01*
X150482802Y-71213153D01*
X150482807Y-71213159D01*
X150522658Y-71253010D01*
X150549096Y-71285224D01*
X150565837Y-71316545D01*
X150576145Y-71350523D01*
X150579625Y-71385864D01*
X150576145Y-71421205D01*
X150565837Y-71455183D01*
X150549096Y-71486504D01*
X150522658Y-71518718D01*
X150482807Y-71558569D01*
X150482802Y-71558575D01*
X150137381Y-71903996D01*
X150137375Y-71904001D01*
X150097524Y-71943852D01*
X150065310Y-71970290D01*
X150033989Y-71987031D01*
X150000011Y-71997339D01*
X149964670Y-72000819D01*
X149929329Y-71997339D01*
X149895351Y-71987031D01*
X149864030Y-71970290D01*
X149831816Y-71943852D01*
X149791965Y-71904001D01*
X149791959Y-71903996D01*
X149393504Y-71505541D01*
X149393499Y-71505535D01*
X149353648Y-71465684D01*
X149327210Y-71433470D01*
X149310469Y-71402149D01*
X149300161Y-71368171D01*
X149296681Y-71332830D01*
X149300161Y-71297489D01*
X149310469Y-71263511D01*
X149327210Y-71232190D01*
X149353648Y-71199976D01*
X149393499Y-71160125D01*
X149393504Y-71160119D01*
X149738925Y-70814698D01*
X149738931Y-70814693D01*
X149778782Y-70774842D01*
X149810996Y-70748404D01*
X149842317Y-70731663D01*
X149876295Y-70721355D01*
X149911636Y-70717875D01*
X149946977Y-70721355D01*
X149946977Y-70721355D01*
G37*
G36*
X125157091Y-70800585D02*
G01*
X125191069Y-70810893D01*
X125222390Y-70827634D01*
X125249839Y-70850161D01*
X125272366Y-70877610D01*
X125289107Y-70908931D01*
X125299415Y-70942909D01*
X125303500Y-70984390D01*
X125303500Y-71585610D01*
X125299415Y-71627091D01*
X125289107Y-71661069D01*
X125272366Y-71692390D01*
X125249839Y-71719839D01*
X125222390Y-71742366D01*
X125191069Y-71759107D01*
X125157091Y-71769415D01*
X125115610Y-71773500D01*
X124439390Y-71773500D01*
X124397909Y-71769415D01*
X124363931Y-71759107D01*
X124332610Y-71742366D01*
X124305161Y-71719839D01*
X124282634Y-71692390D01*
X124265893Y-71661069D01*
X124255585Y-71627091D01*
X124251500Y-71585610D01*
X124251500Y-70984390D01*
X124255585Y-70942909D01*
X124265893Y-70908931D01*
X124282634Y-70877610D01*
X124305161Y-70850161D01*
X124332610Y-70827634D01*
X124363931Y-70810893D01*
X124397909Y-70800585D01*
X124439390Y-70796500D01*
X125115610Y-70796500D01*
X125157091Y-70800585D01*
X125157091Y-70800585D01*
G37*
G36*
X126744591Y-70800585D02*
G01*
X126778569Y-70810893D01*
X126809890Y-70827634D01*
X126837339Y-70850161D01*
X126859866Y-70877610D01*
X126876607Y-70908931D01*
X126886915Y-70942909D01*
X126891000Y-70984390D01*
X126891000Y-71585610D01*
X126886915Y-71627091D01*
X126876607Y-71661069D01*
X126859866Y-71692390D01*
X126837339Y-71719839D01*
X126809890Y-71742366D01*
X126778569Y-71759107D01*
X126744591Y-71769415D01*
X126703110Y-71773500D01*
X126026890Y-71773500D01*
X125985409Y-71769415D01*
X125951431Y-71759107D01*
X125920110Y-71742366D01*
X125892661Y-71719839D01*
X125870134Y-71692390D01*
X125853393Y-71661069D01*
X125843085Y-71627091D01*
X125839000Y-71585610D01*
X125839000Y-70984390D01*
X125843085Y-70942909D01*
X125853393Y-70908931D01*
X125870134Y-70877610D01*
X125892661Y-70850161D01*
X125920110Y-70827634D01*
X125951431Y-70810893D01*
X125985409Y-70800585D01*
X126026890Y-70796500D01*
X126703110Y-70796500D01*
X126744591Y-70800585D01*
X126744591Y-70800585D01*
G37*
G36*
X131381000Y-71541000D02*
G01*
X128879000Y-71541000D01*
X128879000Y-70699000D01*
X131381000Y-70699000D01*
X131381000Y-71541000D01*
X131381000Y-71541000D01*
G37*
G36*
X135281000Y-71541000D02*
G01*
X132779000Y-71541000D01*
X132779000Y-70699000D01*
X135281000Y-70699000D01*
X135281000Y-71541000D01*
X135281000Y-71541000D01*
G37*
G36*
X112971264Y-70381636D02*
G01*
X112192033Y-71160867D01*
X109892522Y-68861356D01*
X110671753Y-68082125D01*
X112971264Y-70381636D01*
X112971264Y-70381636D01*
G37*
G36*
X151060671Y-69607661D02*
G01*
X151094649Y-69617969D01*
X151125970Y-69634710D01*
X151158184Y-69661148D01*
X151198035Y-69700999D01*
X151198041Y-69701004D01*
X151596496Y-70099459D01*
X151596501Y-70099465D01*
X151636352Y-70139316D01*
X151662790Y-70171530D01*
X151679531Y-70202851D01*
X151689839Y-70236829D01*
X151693319Y-70272170D01*
X151689839Y-70307511D01*
X151679531Y-70341489D01*
X151662790Y-70372810D01*
X151636352Y-70405024D01*
X151596501Y-70444875D01*
X151596496Y-70444881D01*
X151251075Y-70790302D01*
X151251069Y-70790307D01*
X151211218Y-70830158D01*
X151179004Y-70856596D01*
X151147683Y-70873337D01*
X151113705Y-70883645D01*
X151078364Y-70887125D01*
X151043023Y-70883645D01*
X151009045Y-70873337D01*
X150977724Y-70856596D01*
X150945510Y-70830158D01*
X150905659Y-70790307D01*
X150905653Y-70790302D01*
X150507198Y-70391847D01*
X150507193Y-70391841D01*
X150467342Y-70351990D01*
X150440904Y-70319776D01*
X150424163Y-70288455D01*
X150413855Y-70254477D01*
X150410375Y-70219136D01*
X150413855Y-70183795D01*
X150424163Y-70149817D01*
X150440904Y-70118496D01*
X150467342Y-70086282D01*
X150507193Y-70046431D01*
X150507198Y-70046425D01*
X150852619Y-69701004D01*
X150852625Y-69700999D01*
X150892476Y-69661148D01*
X150924690Y-69634710D01*
X150956011Y-69617969D01*
X150989989Y-69607661D01*
X151025330Y-69604181D01*
X151060671Y-69607661D01*
X151060671Y-69607661D01*
G37*
G36*
X121365501Y-69314784D02*
G01*
X120232716Y-70447569D01*
X119099931Y-69314784D01*
X120232716Y-68181999D01*
X121365501Y-69314784D01*
X121365501Y-69314784D01*
G37*
G36*
X131381000Y-70271000D02*
G01*
X128879000Y-70271000D01*
X128879000Y-69429000D01*
X131381000Y-69429000D01*
X131381000Y-70271000D01*
X131381000Y-70271000D01*
G37*
G36*
X135281000Y-70271000D02*
G01*
X132779000Y-70271000D01*
X132779000Y-69429000D01*
X135281000Y-69429000D01*
X135281000Y-70271000D01*
X135281000Y-70271000D01*
G37*
G36*
X114767316Y-68585585D02*
G01*
X113988085Y-69364816D01*
X111688574Y-67065305D01*
X112467805Y-66286074D01*
X114767316Y-68585585D01*
X114767316Y-68585585D01*
G37*
G36*
X135281000Y-69001000D02*
G01*
X132779000Y-69001000D01*
X132779000Y-68159000D01*
X135281000Y-68159000D01*
X135281000Y-69001000D01*
X135281000Y-69001000D01*
G37*
G36*
X131381000Y-69001000D02*
G01*
X128879000Y-69001000D01*
X128879000Y-68159000D01*
X131381000Y-68159000D01*
X131381000Y-69001000D01*
X131381000Y-69001000D01*
G37*
G36*
X121903705Y-67228855D02*
G01*
X121937683Y-67239163D01*
X121969004Y-67255904D01*
X122001218Y-67282342D01*
X122041069Y-67322193D01*
X122041075Y-67322198D01*
X122386496Y-67667619D01*
X122386501Y-67667625D01*
X122426352Y-67707476D01*
X122452790Y-67739690D01*
X122469531Y-67771011D01*
X122479839Y-67804989D01*
X122483319Y-67840330D01*
X122479839Y-67875671D01*
X122469531Y-67909649D01*
X122452790Y-67940970D01*
X122426352Y-67973184D01*
X122386501Y-68013035D01*
X122386496Y-68013041D01*
X121988041Y-68411496D01*
X121988035Y-68411501D01*
X121948184Y-68451352D01*
X121915970Y-68477790D01*
X121884649Y-68494531D01*
X121850671Y-68504839D01*
X121815330Y-68508319D01*
X121779989Y-68504839D01*
X121746011Y-68494531D01*
X121714690Y-68477790D01*
X121682476Y-68451352D01*
X121642625Y-68411501D01*
X121642619Y-68411496D01*
X121297198Y-68066075D01*
X121297193Y-68066069D01*
X121257342Y-68026218D01*
X121230904Y-67994004D01*
X121214163Y-67962683D01*
X121203855Y-67928705D01*
X121200375Y-67893364D01*
X121203855Y-67858023D01*
X121214163Y-67824045D01*
X121230904Y-67792724D01*
X121257342Y-67760510D01*
X121297193Y-67720659D01*
X121297198Y-67720653D01*
X121695653Y-67322198D01*
X121695659Y-67322193D01*
X121735510Y-67282342D01*
X121767724Y-67255904D01*
X121799045Y-67239163D01*
X121833023Y-67228855D01*
X121868364Y-67225375D01*
X121903705Y-67228855D01*
X121903705Y-67228855D01*
G37*
G36*
X98908500Y-68201000D02*
G01*
X97306500Y-68201000D01*
X97306500Y-66599000D01*
X98908500Y-66599000D01*
X98908500Y-68201000D01*
X98908500Y-68201000D01*
G37*
G36*
X131381000Y-67731000D02*
G01*
X128879000Y-67731000D01*
X128879000Y-66889000D01*
X131381000Y-66889000D01*
X131381000Y-67731000D01*
X131381000Y-67731000D01*
G37*
G36*
X135281000Y-67731000D02*
G01*
X132779000Y-67731000D01*
X132779000Y-66889000D01*
X135281000Y-66889000D01*
X135281000Y-67731000D01*
X135281000Y-67731000D01*
G37*
G36*
X109400375Y-66810747D02*
G01*
X108621144Y-67589978D01*
X106321633Y-65290467D01*
X107100864Y-64511236D01*
X109400375Y-66810747D01*
X109400375Y-66810747D01*
G37*
G36*
X116563367Y-66789533D02*
G01*
X115784136Y-67568764D01*
X113484625Y-65269253D01*
X114263856Y-64490022D01*
X116563367Y-66789533D01*
X116563367Y-66789533D01*
G37*
G36*
X120790011Y-66115161D02*
G01*
X120823989Y-66125469D01*
X120855310Y-66142210D01*
X120887524Y-66168648D01*
X120927375Y-66208499D01*
X120927381Y-66208504D01*
X121272802Y-66553925D01*
X121272807Y-66553931D01*
X121312658Y-66593782D01*
X121339096Y-66625996D01*
X121355837Y-66657317D01*
X121366145Y-66691295D01*
X121369625Y-66726636D01*
X121366145Y-66761977D01*
X121355837Y-66795955D01*
X121339096Y-66827276D01*
X121312658Y-66859490D01*
X121272807Y-66899341D01*
X121272802Y-66899347D01*
X120874347Y-67297802D01*
X120874341Y-67297807D01*
X120834490Y-67337658D01*
X120802276Y-67364096D01*
X120770955Y-67380837D01*
X120736977Y-67391145D01*
X120701636Y-67394625D01*
X120666295Y-67391145D01*
X120632317Y-67380837D01*
X120600996Y-67364096D01*
X120568782Y-67337658D01*
X120528931Y-67297807D01*
X120528925Y-67297802D01*
X120183504Y-66952381D01*
X120183499Y-66952375D01*
X120143648Y-66912524D01*
X120117210Y-66880310D01*
X120100469Y-66848989D01*
X120090161Y-66815011D01*
X120086681Y-66779670D01*
X120090161Y-66744329D01*
X120100469Y-66710351D01*
X120117210Y-66679030D01*
X120143648Y-66646816D01*
X120183499Y-66606965D01*
X120183504Y-66606959D01*
X120581959Y-66208504D01*
X120581965Y-66208499D01*
X120621816Y-66168648D01*
X120654030Y-66142210D01*
X120685351Y-66125469D01*
X120719329Y-66115161D01*
X120754670Y-66111681D01*
X120790011Y-66115161D01*
X120790011Y-66115161D01*
G37*
G36*
X111196426Y-65014695D02*
G01*
X110417195Y-65793926D01*
X108117684Y-63494415D01*
X108896915Y-62715184D01*
X111196426Y-65014695D01*
X111196426Y-65014695D01*
G37*
G36*
X112992478Y-63218644D02*
G01*
X112213247Y-63997875D01*
X109913736Y-61698364D01*
X110692967Y-60919133D01*
X112992478Y-63218644D01*
X112992478Y-63218644D01*
G37*
G36*
X134479591Y-62343085D02*
G01*
X134513569Y-62353393D01*
X134544890Y-62370134D01*
X134572339Y-62392661D01*
X134594866Y-62420110D01*
X134611607Y-62451431D01*
X134621915Y-62485409D01*
X134626000Y-62526890D01*
X134626000Y-63203110D01*
X134621915Y-63244591D01*
X134611607Y-63278569D01*
X134594866Y-63309890D01*
X134572339Y-63337339D01*
X134544890Y-63359866D01*
X134513569Y-63376607D01*
X134479591Y-63386915D01*
X134438110Y-63391000D01*
X133836890Y-63391000D01*
X133795409Y-63386915D01*
X133761431Y-63376607D01*
X133730110Y-63359866D01*
X133702661Y-63337339D01*
X133680134Y-63309890D01*
X133663393Y-63278569D01*
X133653085Y-63244591D01*
X133649000Y-63203110D01*
X133649000Y-62526890D01*
X133653085Y-62485409D01*
X133663393Y-62451431D01*
X133680134Y-62420110D01*
X133702661Y-62392661D01*
X133730110Y-62370134D01*
X133761431Y-62353393D01*
X133795409Y-62343085D01*
X133836890Y-62339000D01*
X134438110Y-62339000D01*
X134479591Y-62343085D01*
X134479591Y-62343085D01*
G37*
G36*
X132904591Y-62343085D02*
G01*
X132938569Y-62353393D01*
X132969890Y-62370134D01*
X132997339Y-62392661D01*
X133019866Y-62420110D01*
X133036607Y-62451431D01*
X133046915Y-62485409D01*
X133051000Y-62526890D01*
X133051000Y-63203110D01*
X133046915Y-63244591D01*
X133036607Y-63278569D01*
X133019866Y-63309890D01*
X132997339Y-63337339D01*
X132969890Y-63359866D01*
X132938569Y-63376607D01*
X132904591Y-63386915D01*
X132863110Y-63391000D01*
X132261890Y-63391000D01*
X132220409Y-63386915D01*
X132186431Y-63376607D01*
X132155110Y-63359866D01*
X132127661Y-63337339D01*
X132105134Y-63309890D01*
X132088393Y-63278569D01*
X132078085Y-63244591D01*
X132074000Y-63203110D01*
X132074000Y-62526890D01*
X132078085Y-62485409D01*
X132088393Y-62451431D01*
X132105134Y-62420110D01*
X132127661Y-62392661D01*
X132155110Y-62370134D01*
X132186431Y-62353393D01*
X132220409Y-62343085D01*
X132261890Y-62339000D01*
X132863110Y-62339000D01*
X132904591Y-62343085D01*
X132904591Y-62343085D01*
G37*
G36*
X132831000Y-61016000D02*
G01*
X131669000Y-61016000D01*
X131669000Y-58364000D01*
X132831000Y-58364000D01*
X132831000Y-61016000D01*
X132831000Y-61016000D01*
G37*
G36*
X135031000Y-61016000D02*
G01*
X133869000Y-61016000D01*
X133869000Y-58364000D01*
X135031000Y-58364000D01*
X135031000Y-61016000D01*
X135031000Y-61016000D01*
G37*
G36*
X138809591Y-59993085D02*
G01*
X138843569Y-60003393D01*
X138874890Y-60020134D01*
X138902339Y-60042661D01*
X138924866Y-60070110D01*
X138941607Y-60101431D01*
X138951915Y-60135409D01*
X138956000Y-60176890D01*
X138956000Y-60778110D01*
X138951915Y-60819591D01*
X138941607Y-60853569D01*
X138924866Y-60884890D01*
X138902339Y-60912339D01*
X138874890Y-60934866D01*
X138843569Y-60951607D01*
X138809591Y-60961915D01*
X138768110Y-60966000D01*
X138091890Y-60966000D01*
X138050409Y-60961915D01*
X138016431Y-60951607D01*
X137985110Y-60934866D01*
X137957661Y-60912339D01*
X137935134Y-60884890D01*
X137918393Y-60853569D01*
X137908085Y-60819591D01*
X137904000Y-60778110D01*
X137904000Y-60176890D01*
X137908085Y-60135409D01*
X137918393Y-60101431D01*
X137935134Y-60070110D01*
X137957661Y-60042661D01*
X137985110Y-60020134D01*
X138016431Y-60003393D01*
X138050409Y-59993085D01*
X138091890Y-59989000D01*
X138768110Y-59989000D01*
X138809591Y-59993085D01*
X138809591Y-59993085D01*
G37*
G36*
X136904591Y-59993085D02*
G01*
X136938569Y-60003393D01*
X136969890Y-60020134D01*
X136997339Y-60042661D01*
X137019866Y-60070110D01*
X137036607Y-60101431D01*
X137046915Y-60135409D01*
X137051000Y-60176890D01*
X137051000Y-60778110D01*
X137046915Y-60819591D01*
X137036607Y-60853569D01*
X137019866Y-60884890D01*
X136997339Y-60912339D01*
X136969890Y-60934866D01*
X136938569Y-60951607D01*
X136904591Y-60961915D01*
X136863110Y-60966000D01*
X136186890Y-60966000D01*
X136145409Y-60961915D01*
X136111431Y-60951607D01*
X136080110Y-60934866D01*
X136052661Y-60912339D01*
X136030134Y-60884890D01*
X136013393Y-60853569D01*
X136003085Y-60819591D01*
X135999000Y-60778110D01*
X135999000Y-60176890D01*
X136003085Y-60135409D01*
X136013393Y-60101431D01*
X136030134Y-60070110D01*
X136052661Y-60042661D01*
X136080110Y-60020134D01*
X136111431Y-60003393D01*
X136145409Y-59993085D01*
X136186890Y-59989000D01*
X136863110Y-59989000D01*
X136904591Y-59993085D01*
X136904591Y-59993085D01*
G37*
G36*
X130554591Y-59993085D02*
G01*
X130588569Y-60003393D01*
X130619890Y-60020134D01*
X130647339Y-60042661D01*
X130669866Y-60070110D01*
X130686607Y-60101431D01*
X130696915Y-60135409D01*
X130701000Y-60176890D01*
X130701000Y-60778110D01*
X130696915Y-60819591D01*
X130686607Y-60853569D01*
X130669866Y-60884890D01*
X130647339Y-60912339D01*
X130619890Y-60934866D01*
X130588569Y-60951607D01*
X130554591Y-60961915D01*
X130513110Y-60966000D01*
X129836890Y-60966000D01*
X129795409Y-60961915D01*
X129761431Y-60951607D01*
X129730110Y-60934866D01*
X129702661Y-60912339D01*
X129680134Y-60884890D01*
X129663393Y-60853569D01*
X129653085Y-60819591D01*
X129649000Y-60778110D01*
X129649000Y-60176890D01*
X129653085Y-60135409D01*
X129663393Y-60101431D01*
X129680134Y-60070110D01*
X129702661Y-60042661D01*
X129730110Y-60020134D01*
X129761431Y-60003393D01*
X129795409Y-59993085D01*
X129836890Y-59989000D01*
X130513110Y-59989000D01*
X130554591Y-59993085D01*
X130554591Y-59993085D01*
G37*
G36*
X98908500Y-60401000D02*
G01*
X97306500Y-60401000D01*
X97306500Y-58799000D01*
X98908500Y-58799000D01*
X98908500Y-60401000D01*
X98908500Y-60401000D01*
G37*
G36*
X138809591Y-58418085D02*
G01*
X138843569Y-58428393D01*
X138874890Y-58445134D01*
X138902339Y-58467661D01*
X138924866Y-58495110D01*
X138941607Y-58526431D01*
X138951915Y-58560409D01*
X138956000Y-58601890D01*
X138956000Y-59203110D01*
X138951915Y-59244591D01*
X138941607Y-59278569D01*
X138924866Y-59309890D01*
X138902339Y-59337339D01*
X138874890Y-59359866D01*
X138843569Y-59376607D01*
X138809591Y-59386915D01*
X138768110Y-59391000D01*
X138091890Y-59391000D01*
X138050409Y-59386915D01*
X138016431Y-59376607D01*
X137985110Y-59359866D01*
X137957661Y-59337339D01*
X137935134Y-59309890D01*
X137918393Y-59278569D01*
X137908085Y-59244591D01*
X137904000Y-59203110D01*
X137904000Y-58601890D01*
X137908085Y-58560409D01*
X137918393Y-58526431D01*
X137935134Y-58495110D01*
X137957661Y-58467661D01*
X137985110Y-58445134D01*
X138016431Y-58428393D01*
X138050409Y-58418085D01*
X138091890Y-58414000D01*
X138768110Y-58414000D01*
X138809591Y-58418085D01*
X138809591Y-58418085D01*
G37*
G36*
X136904591Y-58418085D02*
G01*
X136938569Y-58428393D01*
X136969890Y-58445134D01*
X136997339Y-58467661D01*
X137019866Y-58495110D01*
X137036607Y-58526431D01*
X137046915Y-58560409D01*
X137051000Y-58601890D01*
X137051000Y-59203110D01*
X137046915Y-59244591D01*
X137036607Y-59278569D01*
X137019866Y-59309890D01*
X136997339Y-59337339D01*
X136969890Y-59359866D01*
X136938569Y-59376607D01*
X136904591Y-59386915D01*
X136863110Y-59391000D01*
X136186890Y-59391000D01*
X136145409Y-59386915D01*
X136111431Y-59376607D01*
X136080110Y-59359866D01*
X136052661Y-59337339D01*
X136030134Y-59309890D01*
X136013393Y-59278569D01*
X136003085Y-59244591D01*
X135999000Y-59203110D01*
X135999000Y-58601890D01*
X136003085Y-58560409D01*
X136013393Y-58526431D01*
X136030134Y-58495110D01*
X136052661Y-58467661D01*
X136080110Y-58445134D01*
X136111431Y-58428393D01*
X136145409Y-58418085D01*
X136186890Y-58414000D01*
X136863110Y-58414000D01*
X136904591Y-58418085D01*
X136904591Y-58418085D01*
G37*
G36*
X130554591Y-58418085D02*
G01*
X130588569Y-58428393D01*
X130619890Y-58445134D01*
X130647339Y-58467661D01*
X130669866Y-58495110D01*
X130686607Y-58526431D01*
X130696915Y-58560409D01*
X130701000Y-58601890D01*
X130701000Y-59203110D01*
X130696915Y-59244591D01*
X130686607Y-59278569D01*
X130669866Y-59309890D01*
X130647339Y-59337339D01*
X130619890Y-59359866D01*
X130588569Y-59376607D01*
X130554591Y-59386915D01*
X130513110Y-59391000D01*
X129836890Y-59391000D01*
X129795409Y-59386915D01*
X129761431Y-59376607D01*
X129730110Y-59359866D01*
X129702661Y-59337339D01*
X129680134Y-59309890D01*
X129663393Y-59278569D01*
X129653085Y-59244591D01*
X129649000Y-59203110D01*
X129649000Y-58601890D01*
X129653085Y-58560409D01*
X129663393Y-58526431D01*
X129680134Y-58495110D01*
X129702661Y-58467661D01*
X129730110Y-58445134D01*
X129761431Y-58428393D01*
X129795409Y-58418085D01*
X129836890Y-58414000D01*
X130513110Y-58414000D01*
X130554591Y-58418085D01*
X130554591Y-58418085D01*
G37*
G36*
X128746000Y-57771000D02*
G01*
X125934000Y-57771000D01*
X125934000Y-55259000D01*
X128746000Y-55259000D01*
X128746000Y-57771000D01*
X128746000Y-57771000D01*
G37*
G36*
X120446000Y-57771000D02*
G01*
X117634000Y-57771000D01*
X117634000Y-55259000D01*
X120446000Y-55259000D01*
X120446000Y-57771000D01*
X120446000Y-57771000D01*
G37*
G36*
X108026000Y-53506000D02*
G01*
X106424000Y-53506000D01*
X106424000Y-51904000D01*
X108026000Y-51904000D01*
X108026000Y-53506000D01*
X108026000Y-53506000D01*
G37*
G36*
X115826000Y-53506000D02*
G01*
X114224000Y-53506000D01*
X114224000Y-51904000D01*
X115826000Y-51904000D01*
X115826000Y-53506000D01*
X115826000Y-53506000D01*
G37*
M02*
