G04 #@! TF.GenerationSoftware,KiCad,Pcbnew,(5.1.4)-1*
G04 #@! TF.CreationDate,2019-10-12T15:48:51-04:00*
G04 #@! TF.ProjectId,helvetica-sao,68656c76-6574-4696-9361-2d73616f2e6b,rev?*
G04 #@! TF.SameCoordinates,Original*
G04 #@! TF.FileFunction,Copper,L1,Top*
G04 #@! TF.FilePolarity,Positive*
%FSLAX46Y46*%
G04 Gerber Fmt 4.6, Leading zero omitted, Abs format (unit mm)*
G04 Created by KiCad (PCBNEW (5.1.4)-1) date 2019-10-12 15:48:51*
%MOMM*%
%LPD*%
G04 APERTURE LIST*
%ADD10C,0.800000*%
%ADD11C,0.250000*%
%ADD12C,0.200000*%
G04 APERTURE END LIST*
D10*
X104457500Y-86995000D03*
X106997500Y-86995000D03*
X99060000Y-88900000D03*
X113030000Y-83820000D03*
X135255000Y-62865000D03*
X113665000Y-75882500D03*
X135572500Y-59690000D03*
X132080000Y-67627500D03*
X167957500Y-70167500D03*
X167957496Y-89217500D03*
X167957500Y-107315010D03*
X156527500Y-122872506D03*
X138747500Y-122872498D03*
X120014998Y-122872500D03*
X146685000Y-74612500D03*
X131762500Y-89535000D03*
X116522500Y-104775000D03*
X126682500Y-78740000D03*
X127579131Y-81970869D03*
X133185000Y-76365000D03*
X109220000Y-94297500D03*
X123825000Y-80645000D03*
X115570000Y-103187500D03*
X126047500Y-77787500D03*
X114862892Y-102480392D03*
X127317500Y-76517500D03*
X114935000Y-54610000D03*
X127827498Y-78393370D03*
X97790000Y-69215000D03*
X139382500Y-61912500D03*
X131762500Y-61912500D03*
X110490000Y-86677500D03*
X110490000Y-88900000D03*
X117232108Y-85482108D03*
X109220000Y-86677500D03*
X120014617Y-74622922D03*
X124460000Y-79057500D03*
X120051403Y-73623597D03*
X122872500Y-76325024D03*
D11*
X167957500Y-70167500D02*
X167957500Y-89217496D01*
X167957500Y-89217496D02*
X167957496Y-89217500D01*
X167957496Y-107315006D02*
X167957500Y-107315010D01*
X167957496Y-89217500D02*
X167957496Y-107315006D01*
X167322494Y-122872506D02*
X156527500Y-122872506D01*
X168275000Y-121920000D02*
X167322494Y-122872506D01*
X167957500Y-107315010D02*
X168275000Y-107632510D01*
X168275000Y-107632510D02*
X168275000Y-121920000D01*
X156527500Y-122872506D02*
X138747508Y-122872506D01*
X138747508Y-122872506D02*
X138747500Y-122872498D01*
X120015000Y-122872498D02*
X120014998Y-122872500D01*
X138747500Y-122872498D02*
X120015000Y-122872498D01*
X131762500Y-89535000D02*
X116522500Y-104775000D01*
X99377500Y-121920000D02*
X116522500Y-104775000D01*
X99377500Y-122237500D02*
X99377500Y-121920000D01*
X120014998Y-122872500D02*
X100012500Y-122872500D01*
X100012500Y-122872500D02*
X99377500Y-122237500D01*
X126682500Y-78740000D02*
X127579131Y-79636631D01*
X127579131Y-79636631D02*
X127579131Y-81405184D01*
X127579131Y-81405184D02*
X127579131Y-81970869D01*
X127317500Y-79375000D02*
X131762500Y-79375000D01*
X126682500Y-78740000D02*
X127317500Y-79375000D01*
X133185000Y-77952500D02*
X133185000Y-76365000D01*
X131762500Y-79375000D02*
X133185000Y-77952500D01*
X109220000Y-94863185D02*
X109220000Y-94297500D01*
X109220000Y-98038185D02*
X109220000Y-94863185D01*
X115956815Y-104775000D02*
X109220000Y-98038185D01*
X116522500Y-104775000D02*
X115956815Y-104775000D01*
X137642500Y-76365000D02*
X141287500Y-80010000D01*
X133185000Y-76365000D02*
X137642500Y-76365000D01*
X146685000Y-74612500D02*
X141287500Y-80010000D01*
X141287500Y-80010000D02*
X131762500Y-89535000D01*
X123825000Y-94932500D02*
X115570000Y-103187500D01*
X123825000Y-80645000D02*
X123825000Y-94932500D01*
X125185002Y-79405502D02*
X124808002Y-79782502D01*
X115262891Y-102080393D02*
X114862892Y-102480392D01*
X123614496Y-79782502D02*
X122872500Y-80524498D01*
X124808002Y-79782502D02*
X123614496Y-79782502D01*
X126047500Y-77787500D02*
X125185002Y-78649998D01*
X122872500Y-94470784D02*
X115262891Y-102080393D01*
X122872500Y-80524498D02*
X122872500Y-94470784D01*
X125185002Y-78649998D02*
X125185002Y-79405502D01*
X127317500Y-75951815D02*
X114935000Y-63569315D01*
X127317500Y-76517500D02*
X127317500Y-75951815D01*
X114935000Y-63569315D02*
X114935000Y-54610000D01*
X127827498Y-78393370D02*
X118649128Y-69215000D01*
X118649128Y-69215000D02*
X97790000Y-69215000D01*
X139382500Y-61912500D02*
X131762500Y-61912500D01*
X110490000Y-86677500D02*
X110490000Y-88900000D01*
X117232108Y-85482108D02*
X110415392Y-85482108D01*
X110415392Y-85482108D02*
X109220000Y-86677500D01*
X120014617Y-75188607D02*
X123883510Y-79057500D01*
X123883510Y-79057500D02*
X123894315Y-79057500D01*
X123894315Y-79057500D02*
X124460000Y-79057500D01*
X120014617Y-74622922D02*
X120014617Y-75188607D01*
X120051403Y-73623597D02*
X122752830Y-76325024D01*
X122752830Y-76325024D02*
X122872500Y-76325024D01*
D12*
G36*
X140920493Y-78965585D02*
G01*
X137997847Y-76042940D01*
X137982843Y-76024657D01*
X137909905Y-75964800D01*
X137826692Y-75920321D01*
X137736400Y-75892931D01*
X137666026Y-75886000D01*
X137666023Y-75886000D01*
X137642500Y-75883683D01*
X137618977Y-75886000D01*
X133771770Y-75886000D01*
X133770670Y-75884353D01*
X133665647Y-75779330D01*
X133542153Y-75696814D01*
X133404934Y-75639976D01*
X133259262Y-75611000D01*
X133110738Y-75611000D01*
X132965066Y-75639976D01*
X132827847Y-75696814D01*
X132704353Y-75779330D01*
X132599330Y-75884353D01*
X132516814Y-76007847D01*
X132459976Y-76145066D01*
X132431000Y-76290738D01*
X132431000Y-76439262D01*
X132459976Y-76584934D01*
X132516814Y-76722153D01*
X132599330Y-76845647D01*
X132704353Y-76950670D01*
X132706001Y-76951771D01*
X132706000Y-77754092D01*
X131564093Y-78896000D01*
X128391185Y-78896000D01*
X128413168Y-78874017D01*
X128495684Y-78750523D01*
X128552522Y-78613304D01*
X128581498Y-78467632D01*
X128581498Y-78319108D01*
X128552522Y-78173436D01*
X128495684Y-78036217D01*
X128413168Y-77912723D01*
X128308145Y-77807700D01*
X128184651Y-77725184D01*
X128047432Y-77668346D01*
X127901760Y-77639370D01*
X127753236Y-77639370D01*
X127751293Y-77639757D01*
X127383036Y-77271500D01*
X127391762Y-77271500D01*
X127537434Y-77242524D01*
X127674653Y-77185686D01*
X127798147Y-77103170D01*
X127903170Y-76998147D01*
X127985686Y-76874653D01*
X128042524Y-76737434D01*
X128071500Y-76591762D01*
X128071500Y-76443238D01*
X128042524Y-76297566D01*
X127985686Y-76160347D01*
X127903170Y-76036853D01*
X127798147Y-75931830D01*
X127796757Y-75930901D01*
X127796500Y-75928289D01*
X127789569Y-75857915D01*
X127762179Y-75767623D01*
X127747069Y-75739354D01*
X127717700Y-75684408D01*
X127672839Y-75629745D01*
X127672838Y-75629744D01*
X127657843Y-75611472D01*
X127639571Y-75596477D01*
X115414000Y-63370908D01*
X115414000Y-61838238D01*
X131008500Y-61838238D01*
X131008500Y-61986762D01*
X131037476Y-62132434D01*
X131094314Y-62269653D01*
X131176830Y-62393147D01*
X131281853Y-62498170D01*
X131405347Y-62580686D01*
X131542566Y-62637524D01*
X131688238Y-62666500D01*
X131836762Y-62666500D01*
X131982434Y-62637524D01*
X132119653Y-62580686D01*
X132243147Y-62498170D01*
X132348170Y-62393147D01*
X132349270Y-62391500D01*
X138795730Y-62391500D01*
X138796830Y-62393147D01*
X138901853Y-62498170D01*
X139025347Y-62580686D01*
X139162566Y-62637524D01*
X139308238Y-62666500D01*
X139456762Y-62666500D01*
X139602434Y-62637524D01*
X139739653Y-62580686D01*
X139863147Y-62498170D01*
X139968170Y-62393147D01*
X140050686Y-62269653D01*
X140107524Y-62132434D01*
X140136500Y-61986762D01*
X140136500Y-61838238D01*
X140107524Y-61692566D01*
X140050686Y-61555347D01*
X139968170Y-61431853D01*
X139863147Y-61326830D01*
X139739653Y-61244314D01*
X139602434Y-61187476D01*
X139456762Y-61158500D01*
X139308238Y-61158500D01*
X139162566Y-61187476D01*
X139025347Y-61244314D01*
X138901853Y-61326830D01*
X138796830Y-61431853D01*
X138795730Y-61433500D01*
X132349270Y-61433500D01*
X132348170Y-61431853D01*
X132243147Y-61326830D01*
X132119653Y-61244314D01*
X131982434Y-61187476D01*
X131836762Y-61158500D01*
X131688238Y-61158500D01*
X131542566Y-61187476D01*
X131405347Y-61244314D01*
X131281853Y-61326830D01*
X131176830Y-61431853D01*
X131094314Y-61555347D01*
X131037476Y-61692566D01*
X131008500Y-61838238D01*
X115414000Y-61838238D01*
X115414000Y-55196770D01*
X115415647Y-55195670D01*
X115520670Y-55090647D01*
X115603186Y-54967153D01*
X115660024Y-54829934D01*
X115689000Y-54684262D01*
X115689000Y-54535738D01*
X115660024Y-54390066D01*
X115603186Y-54252847D01*
X115520670Y-54129353D01*
X115415647Y-54024330D01*
X115292153Y-53941814D01*
X115154934Y-53884976D01*
X115009262Y-53856000D01*
X114860738Y-53856000D01*
X114715066Y-53884976D01*
X114577847Y-53941814D01*
X114454353Y-54024330D01*
X114349330Y-54129353D01*
X114266814Y-54252847D01*
X114209976Y-54390066D01*
X114181000Y-54535738D01*
X114181000Y-54684262D01*
X114209976Y-54829934D01*
X114266814Y-54967153D01*
X114349330Y-55090647D01*
X114454353Y-55195670D01*
X114456001Y-55196771D01*
X114456000Y-63545792D01*
X114453683Y-63569315D01*
X114456000Y-63592838D01*
X114456000Y-63592840D01*
X114462931Y-63663214D01*
X114490321Y-63753506D01*
X114534800Y-63836720D01*
X114594657Y-63909658D01*
X114612940Y-63924662D01*
X126729146Y-76040870D01*
X126649314Y-76160347D01*
X126592476Y-76297566D01*
X126563500Y-76443238D01*
X126563500Y-76451964D01*
X119004475Y-68892940D01*
X118989471Y-68874657D01*
X118916533Y-68814800D01*
X118833320Y-68770321D01*
X118743028Y-68742931D01*
X118672654Y-68736000D01*
X118672651Y-68736000D01*
X118649128Y-68733683D01*
X118625605Y-68736000D01*
X98376770Y-68736000D01*
X98375670Y-68734353D01*
X98270647Y-68629330D01*
X98147153Y-68546814D01*
X98009934Y-68489976D01*
X97864262Y-68461000D01*
X97715738Y-68461000D01*
X97570066Y-68489976D01*
X97432847Y-68546814D01*
X97309353Y-68629330D01*
X97204330Y-68734353D01*
X97121814Y-68857847D01*
X97064976Y-68995066D01*
X97036000Y-69140738D01*
X97036000Y-69289262D01*
X97064976Y-69434934D01*
X97121814Y-69572153D01*
X97204330Y-69695647D01*
X97309353Y-69800670D01*
X97432847Y-69883186D01*
X97570066Y-69940024D01*
X97715738Y-69969000D01*
X97864262Y-69969000D01*
X98009934Y-69940024D01*
X98147153Y-69883186D01*
X98270647Y-69800670D01*
X98375670Y-69695647D01*
X98376770Y-69694000D01*
X118450721Y-69694000D01*
X125821648Y-77064927D01*
X125690347Y-77119314D01*
X125566853Y-77201830D01*
X125461830Y-77306853D01*
X125379314Y-77430347D01*
X125322476Y-77567566D01*
X125293500Y-77713238D01*
X125293500Y-77861762D01*
X125293887Y-77863705D01*
X124862942Y-78294651D01*
X124844659Y-78309655D01*
X124788893Y-78377608D01*
X124679934Y-78332476D01*
X124534262Y-78303500D01*
X124385738Y-78303500D01*
X124240066Y-78332476D01*
X124102847Y-78389314D01*
X123979353Y-78471830D01*
X123977300Y-78473883D01*
X122458933Y-76955515D01*
X122515347Y-76993210D01*
X122652566Y-77050048D01*
X122798238Y-77079024D01*
X122946762Y-77079024D01*
X123092434Y-77050048D01*
X123229653Y-76993210D01*
X123353147Y-76910694D01*
X123458170Y-76805671D01*
X123540686Y-76682177D01*
X123597524Y-76544958D01*
X123626500Y-76399286D01*
X123626500Y-76250762D01*
X123597524Y-76105090D01*
X123540686Y-75967871D01*
X123458170Y-75844377D01*
X123353147Y-75739354D01*
X123229653Y-75656838D01*
X123092434Y-75600000D01*
X122946762Y-75571024D01*
X122798238Y-75571024D01*
X122696479Y-75591265D01*
X120805016Y-73699803D01*
X120805403Y-73697859D01*
X120805403Y-73549335D01*
X120776427Y-73403663D01*
X120719589Y-73266444D01*
X120637073Y-73142950D01*
X120532050Y-73037927D01*
X120408556Y-72955411D01*
X120271337Y-72898573D01*
X120125665Y-72869597D01*
X119977141Y-72869597D01*
X119831469Y-72898573D01*
X119694250Y-72955411D01*
X119570756Y-73037927D01*
X119465733Y-73142950D01*
X119383217Y-73266444D01*
X119326379Y-73403663D01*
X119297403Y-73549335D01*
X119297403Y-73697859D01*
X119326379Y-73843531D01*
X119383217Y-73980750D01*
X119465733Y-74104244D01*
X119466356Y-74104867D01*
X119428947Y-74142275D01*
X119346431Y-74265769D01*
X119289593Y-74402988D01*
X119260617Y-74548660D01*
X119260617Y-74697184D01*
X119289593Y-74842856D01*
X119346431Y-74980075D01*
X119428947Y-75103569D01*
X119533970Y-75208592D01*
X119535360Y-75209521D01*
X119542549Y-75282507D01*
X119569939Y-75372799D01*
X119614417Y-75456012D01*
X119633895Y-75479746D01*
X119674275Y-75528950D01*
X119692553Y-75543950D01*
X123473363Y-79324761D01*
X123430304Y-79337823D01*
X123347090Y-79382302D01*
X123318821Y-79405502D01*
X123274153Y-79442159D01*
X123259156Y-79460434D01*
X122550440Y-80169151D01*
X122532157Y-80184155D01*
X122472300Y-80257093D01*
X122427821Y-80340307D01*
X122400431Y-80430599D01*
X122398060Y-80454678D01*
X122391183Y-80524498D01*
X122393500Y-80548021D01*
X122393501Y-94272375D01*
X114940828Y-101725049D01*
X114940822Y-101725054D01*
X114939097Y-101726779D01*
X114937154Y-101726392D01*
X114788630Y-101726392D01*
X114642958Y-101755368D01*
X114505739Y-101812206D01*
X114382245Y-101894722D01*
X114277222Y-101999745D01*
X114194706Y-102123239D01*
X114137868Y-102260458D01*
X114134851Y-102275628D01*
X109699000Y-97839778D01*
X109699000Y-94884270D01*
X109700647Y-94883170D01*
X109805670Y-94778147D01*
X109888186Y-94654653D01*
X109945024Y-94517434D01*
X109974000Y-94371762D01*
X109974000Y-94223238D01*
X109945024Y-94077566D01*
X109888186Y-93940347D01*
X109805670Y-93816853D01*
X109700647Y-93711830D01*
X109577153Y-93629314D01*
X109439934Y-93572476D01*
X109294262Y-93543500D01*
X109145738Y-93543500D01*
X109000066Y-93572476D01*
X108862847Y-93629314D01*
X108739353Y-93711830D01*
X108634330Y-93816853D01*
X108551814Y-93940347D01*
X108494976Y-94077566D01*
X108466000Y-94223238D01*
X108466000Y-94371762D01*
X108494976Y-94517434D01*
X108551814Y-94654653D01*
X108634330Y-94778147D01*
X108739353Y-94883170D01*
X108741000Y-94884270D01*
X108741000Y-94886710D01*
X108741001Y-94886720D01*
X108741000Y-98014662D01*
X108738683Y-98038185D01*
X108741000Y-98061708D01*
X108741000Y-98061710D01*
X108747931Y-98132084D01*
X108775321Y-98222376D01*
X108819800Y-98305590D01*
X108879657Y-98378528D01*
X108897940Y-98393532D01*
X115195243Y-104690835D01*
X95629000Y-124257078D01*
X95629000Y-86603238D01*
X108466000Y-86603238D01*
X108466000Y-86751762D01*
X108494976Y-86897434D01*
X108551814Y-87034653D01*
X108634330Y-87158147D01*
X108739353Y-87263170D01*
X108862847Y-87345686D01*
X109000066Y-87402524D01*
X109145738Y-87431500D01*
X109294262Y-87431500D01*
X109439934Y-87402524D01*
X109577153Y-87345686D01*
X109700647Y-87263170D01*
X109805670Y-87158147D01*
X109855000Y-87084319D01*
X109904330Y-87158147D01*
X110009353Y-87263170D01*
X110011000Y-87264271D01*
X110011001Y-88313229D01*
X110009353Y-88314330D01*
X109904330Y-88419353D01*
X109821814Y-88542847D01*
X109764976Y-88680066D01*
X109736000Y-88825738D01*
X109736000Y-88974262D01*
X109764976Y-89119934D01*
X109821814Y-89257153D01*
X109904330Y-89380647D01*
X110009353Y-89485670D01*
X110132847Y-89568186D01*
X110270066Y-89625024D01*
X110415738Y-89654000D01*
X110564262Y-89654000D01*
X110709934Y-89625024D01*
X110847153Y-89568186D01*
X110970647Y-89485670D01*
X111075670Y-89380647D01*
X111158186Y-89257153D01*
X111215024Y-89119934D01*
X111244000Y-88974262D01*
X111244000Y-88825738D01*
X111215024Y-88680066D01*
X111158186Y-88542847D01*
X111075670Y-88419353D01*
X110970647Y-88314330D01*
X110969000Y-88313230D01*
X110969000Y-87264270D01*
X110970647Y-87263170D01*
X111075670Y-87158147D01*
X111158186Y-87034653D01*
X111215024Y-86897434D01*
X111244000Y-86751762D01*
X111244000Y-86603238D01*
X111215024Y-86457566D01*
X111158186Y-86320347D01*
X111075670Y-86196853D01*
X110970647Y-86091830D01*
X110847153Y-86009314D01*
X110730773Y-85961108D01*
X116645338Y-85961108D01*
X116646438Y-85962755D01*
X116751461Y-86067778D01*
X116874955Y-86150294D01*
X117012174Y-86207132D01*
X117157846Y-86236108D01*
X117306370Y-86236108D01*
X117452042Y-86207132D01*
X117589261Y-86150294D01*
X117712755Y-86067778D01*
X117817778Y-85962755D01*
X117900294Y-85839261D01*
X117957132Y-85702042D01*
X117986108Y-85556370D01*
X117986108Y-85407846D01*
X117957132Y-85262174D01*
X117900294Y-85124955D01*
X117817778Y-85001461D01*
X117712755Y-84896438D01*
X117589261Y-84813922D01*
X117452042Y-84757084D01*
X117306370Y-84728108D01*
X117157846Y-84728108D01*
X117012174Y-84757084D01*
X116874955Y-84813922D01*
X116751461Y-84896438D01*
X116646438Y-85001461D01*
X116645338Y-85003108D01*
X110438915Y-85003108D01*
X110415392Y-85000791D01*
X110391869Y-85003108D01*
X110391866Y-85003108D01*
X110321492Y-85010039D01*
X110231200Y-85037429D01*
X110147986Y-85081908D01*
X110117809Y-85106673D01*
X110075049Y-85141765D01*
X110060049Y-85160043D01*
X109296206Y-85923887D01*
X109294262Y-85923500D01*
X109145738Y-85923500D01*
X109000066Y-85952476D01*
X108862847Y-86009314D01*
X108739353Y-86091830D01*
X108634330Y-86196853D01*
X108551814Y-86320347D01*
X108494976Y-86457566D01*
X108466000Y-86603238D01*
X95629000Y-86603238D01*
X95629000Y-50379000D01*
X169507078Y-50379000D01*
X140920493Y-78965585D01*
X140920493Y-78965585D01*
G37*
X140920493Y-78965585D02*
X137997847Y-76042940D01*
X137982843Y-76024657D01*
X137909905Y-75964800D01*
X137826692Y-75920321D01*
X137736400Y-75892931D01*
X137666026Y-75886000D01*
X137666023Y-75886000D01*
X137642500Y-75883683D01*
X137618977Y-75886000D01*
X133771770Y-75886000D01*
X133770670Y-75884353D01*
X133665647Y-75779330D01*
X133542153Y-75696814D01*
X133404934Y-75639976D01*
X133259262Y-75611000D01*
X133110738Y-75611000D01*
X132965066Y-75639976D01*
X132827847Y-75696814D01*
X132704353Y-75779330D01*
X132599330Y-75884353D01*
X132516814Y-76007847D01*
X132459976Y-76145066D01*
X132431000Y-76290738D01*
X132431000Y-76439262D01*
X132459976Y-76584934D01*
X132516814Y-76722153D01*
X132599330Y-76845647D01*
X132704353Y-76950670D01*
X132706001Y-76951771D01*
X132706000Y-77754092D01*
X131564093Y-78896000D01*
X128391185Y-78896000D01*
X128413168Y-78874017D01*
X128495684Y-78750523D01*
X128552522Y-78613304D01*
X128581498Y-78467632D01*
X128581498Y-78319108D01*
X128552522Y-78173436D01*
X128495684Y-78036217D01*
X128413168Y-77912723D01*
X128308145Y-77807700D01*
X128184651Y-77725184D01*
X128047432Y-77668346D01*
X127901760Y-77639370D01*
X127753236Y-77639370D01*
X127751293Y-77639757D01*
X127383036Y-77271500D01*
X127391762Y-77271500D01*
X127537434Y-77242524D01*
X127674653Y-77185686D01*
X127798147Y-77103170D01*
X127903170Y-76998147D01*
X127985686Y-76874653D01*
X128042524Y-76737434D01*
X128071500Y-76591762D01*
X128071500Y-76443238D01*
X128042524Y-76297566D01*
X127985686Y-76160347D01*
X127903170Y-76036853D01*
X127798147Y-75931830D01*
X127796757Y-75930901D01*
X127796500Y-75928289D01*
X127789569Y-75857915D01*
X127762179Y-75767623D01*
X127747069Y-75739354D01*
X127717700Y-75684408D01*
X127672839Y-75629745D01*
X127672838Y-75629744D01*
X127657843Y-75611472D01*
X127639571Y-75596477D01*
X115414000Y-63370908D01*
X115414000Y-61838238D01*
X131008500Y-61838238D01*
X131008500Y-61986762D01*
X131037476Y-62132434D01*
X131094314Y-62269653D01*
X131176830Y-62393147D01*
X131281853Y-62498170D01*
X131405347Y-62580686D01*
X131542566Y-62637524D01*
X131688238Y-62666500D01*
X131836762Y-62666500D01*
X131982434Y-62637524D01*
X132119653Y-62580686D01*
X132243147Y-62498170D01*
X132348170Y-62393147D01*
X132349270Y-62391500D01*
X138795730Y-62391500D01*
X138796830Y-62393147D01*
X138901853Y-62498170D01*
X139025347Y-62580686D01*
X139162566Y-62637524D01*
X139308238Y-62666500D01*
X139456762Y-62666500D01*
X139602434Y-62637524D01*
X139739653Y-62580686D01*
X139863147Y-62498170D01*
X139968170Y-62393147D01*
X140050686Y-62269653D01*
X140107524Y-62132434D01*
X140136500Y-61986762D01*
X140136500Y-61838238D01*
X140107524Y-61692566D01*
X140050686Y-61555347D01*
X139968170Y-61431853D01*
X139863147Y-61326830D01*
X139739653Y-61244314D01*
X139602434Y-61187476D01*
X139456762Y-61158500D01*
X139308238Y-61158500D01*
X139162566Y-61187476D01*
X139025347Y-61244314D01*
X138901853Y-61326830D01*
X138796830Y-61431853D01*
X138795730Y-61433500D01*
X132349270Y-61433500D01*
X132348170Y-61431853D01*
X132243147Y-61326830D01*
X132119653Y-61244314D01*
X131982434Y-61187476D01*
X131836762Y-61158500D01*
X131688238Y-61158500D01*
X131542566Y-61187476D01*
X131405347Y-61244314D01*
X131281853Y-61326830D01*
X131176830Y-61431853D01*
X131094314Y-61555347D01*
X131037476Y-61692566D01*
X131008500Y-61838238D01*
X115414000Y-61838238D01*
X115414000Y-55196770D01*
X115415647Y-55195670D01*
X115520670Y-55090647D01*
X115603186Y-54967153D01*
X115660024Y-54829934D01*
X115689000Y-54684262D01*
X115689000Y-54535738D01*
X115660024Y-54390066D01*
X115603186Y-54252847D01*
X115520670Y-54129353D01*
X115415647Y-54024330D01*
X115292153Y-53941814D01*
X115154934Y-53884976D01*
X115009262Y-53856000D01*
X114860738Y-53856000D01*
X114715066Y-53884976D01*
X114577847Y-53941814D01*
X114454353Y-54024330D01*
X114349330Y-54129353D01*
X114266814Y-54252847D01*
X114209976Y-54390066D01*
X114181000Y-54535738D01*
X114181000Y-54684262D01*
X114209976Y-54829934D01*
X114266814Y-54967153D01*
X114349330Y-55090647D01*
X114454353Y-55195670D01*
X114456001Y-55196771D01*
X114456000Y-63545792D01*
X114453683Y-63569315D01*
X114456000Y-63592838D01*
X114456000Y-63592840D01*
X114462931Y-63663214D01*
X114490321Y-63753506D01*
X114534800Y-63836720D01*
X114594657Y-63909658D01*
X114612940Y-63924662D01*
X126729146Y-76040870D01*
X126649314Y-76160347D01*
X126592476Y-76297566D01*
X126563500Y-76443238D01*
X126563500Y-76451964D01*
X119004475Y-68892940D01*
X118989471Y-68874657D01*
X118916533Y-68814800D01*
X118833320Y-68770321D01*
X118743028Y-68742931D01*
X118672654Y-68736000D01*
X118672651Y-68736000D01*
X118649128Y-68733683D01*
X118625605Y-68736000D01*
X98376770Y-68736000D01*
X98375670Y-68734353D01*
X98270647Y-68629330D01*
X98147153Y-68546814D01*
X98009934Y-68489976D01*
X97864262Y-68461000D01*
X97715738Y-68461000D01*
X97570066Y-68489976D01*
X97432847Y-68546814D01*
X97309353Y-68629330D01*
X97204330Y-68734353D01*
X97121814Y-68857847D01*
X97064976Y-68995066D01*
X97036000Y-69140738D01*
X97036000Y-69289262D01*
X97064976Y-69434934D01*
X97121814Y-69572153D01*
X97204330Y-69695647D01*
X97309353Y-69800670D01*
X97432847Y-69883186D01*
X97570066Y-69940024D01*
X97715738Y-69969000D01*
X97864262Y-69969000D01*
X98009934Y-69940024D01*
X98147153Y-69883186D01*
X98270647Y-69800670D01*
X98375670Y-69695647D01*
X98376770Y-69694000D01*
X118450721Y-69694000D01*
X125821648Y-77064927D01*
X125690347Y-77119314D01*
X125566853Y-77201830D01*
X125461830Y-77306853D01*
X125379314Y-77430347D01*
X125322476Y-77567566D01*
X125293500Y-77713238D01*
X125293500Y-77861762D01*
X125293887Y-77863705D01*
X124862942Y-78294651D01*
X124844659Y-78309655D01*
X124788893Y-78377608D01*
X124679934Y-78332476D01*
X124534262Y-78303500D01*
X124385738Y-78303500D01*
X124240066Y-78332476D01*
X124102847Y-78389314D01*
X123979353Y-78471830D01*
X123977300Y-78473883D01*
X122458933Y-76955515D01*
X122515347Y-76993210D01*
X122652566Y-77050048D01*
X122798238Y-77079024D01*
X122946762Y-77079024D01*
X123092434Y-77050048D01*
X123229653Y-76993210D01*
X123353147Y-76910694D01*
X123458170Y-76805671D01*
X123540686Y-76682177D01*
X123597524Y-76544958D01*
X123626500Y-76399286D01*
X123626500Y-76250762D01*
X123597524Y-76105090D01*
X123540686Y-75967871D01*
X123458170Y-75844377D01*
X123353147Y-75739354D01*
X123229653Y-75656838D01*
X123092434Y-75600000D01*
X122946762Y-75571024D01*
X122798238Y-75571024D01*
X122696479Y-75591265D01*
X120805016Y-73699803D01*
X120805403Y-73697859D01*
X120805403Y-73549335D01*
X120776427Y-73403663D01*
X120719589Y-73266444D01*
X120637073Y-73142950D01*
X120532050Y-73037927D01*
X120408556Y-72955411D01*
X120271337Y-72898573D01*
X120125665Y-72869597D01*
X119977141Y-72869597D01*
X119831469Y-72898573D01*
X119694250Y-72955411D01*
X119570756Y-73037927D01*
X119465733Y-73142950D01*
X119383217Y-73266444D01*
X119326379Y-73403663D01*
X119297403Y-73549335D01*
X119297403Y-73697859D01*
X119326379Y-73843531D01*
X119383217Y-73980750D01*
X119465733Y-74104244D01*
X119466356Y-74104867D01*
X119428947Y-74142275D01*
X119346431Y-74265769D01*
X119289593Y-74402988D01*
X119260617Y-74548660D01*
X119260617Y-74697184D01*
X119289593Y-74842856D01*
X119346431Y-74980075D01*
X119428947Y-75103569D01*
X119533970Y-75208592D01*
X119535360Y-75209521D01*
X119542549Y-75282507D01*
X119569939Y-75372799D01*
X119614417Y-75456012D01*
X119633895Y-75479746D01*
X119674275Y-75528950D01*
X119692553Y-75543950D01*
X123473363Y-79324761D01*
X123430304Y-79337823D01*
X123347090Y-79382302D01*
X123318821Y-79405502D01*
X123274153Y-79442159D01*
X123259156Y-79460434D01*
X122550440Y-80169151D01*
X122532157Y-80184155D01*
X122472300Y-80257093D01*
X122427821Y-80340307D01*
X122400431Y-80430599D01*
X122398060Y-80454678D01*
X122391183Y-80524498D01*
X122393500Y-80548021D01*
X122393501Y-94272375D01*
X114940828Y-101725049D01*
X114940822Y-101725054D01*
X114939097Y-101726779D01*
X114937154Y-101726392D01*
X114788630Y-101726392D01*
X114642958Y-101755368D01*
X114505739Y-101812206D01*
X114382245Y-101894722D01*
X114277222Y-101999745D01*
X114194706Y-102123239D01*
X114137868Y-102260458D01*
X114134851Y-102275628D01*
X109699000Y-97839778D01*
X109699000Y-94884270D01*
X109700647Y-94883170D01*
X109805670Y-94778147D01*
X109888186Y-94654653D01*
X109945024Y-94517434D01*
X109974000Y-94371762D01*
X109974000Y-94223238D01*
X109945024Y-94077566D01*
X109888186Y-93940347D01*
X109805670Y-93816853D01*
X109700647Y-93711830D01*
X109577153Y-93629314D01*
X109439934Y-93572476D01*
X109294262Y-93543500D01*
X109145738Y-93543500D01*
X109000066Y-93572476D01*
X108862847Y-93629314D01*
X108739353Y-93711830D01*
X108634330Y-93816853D01*
X108551814Y-93940347D01*
X108494976Y-94077566D01*
X108466000Y-94223238D01*
X108466000Y-94371762D01*
X108494976Y-94517434D01*
X108551814Y-94654653D01*
X108634330Y-94778147D01*
X108739353Y-94883170D01*
X108741000Y-94884270D01*
X108741000Y-94886710D01*
X108741001Y-94886720D01*
X108741000Y-98014662D01*
X108738683Y-98038185D01*
X108741000Y-98061708D01*
X108741000Y-98061710D01*
X108747931Y-98132084D01*
X108775321Y-98222376D01*
X108819800Y-98305590D01*
X108879657Y-98378528D01*
X108897940Y-98393532D01*
X115195243Y-104690835D01*
X95629000Y-124257078D01*
X95629000Y-86603238D01*
X108466000Y-86603238D01*
X108466000Y-86751762D01*
X108494976Y-86897434D01*
X108551814Y-87034653D01*
X108634330Y-87158147D01*
X108739353Y-87263170D01*
X108862847Y-87345686D01*
X109000066Y-87402524D01*
X109145738Y-87431500D01*
X109294262Y-87431500D01*
X109439934Y-87402524D01*
X109577153Y-87345686D01*
X109700647Y-87263170D01*
X109805670Y-87158147D01*
X109855000Y-87084319D01*
X109904330Y-87158147D01*
X110009353Y-87263170D01*
X110011000Y-87264271D01*
X110011001Y-88313229D01*
X110009353Y-88314330D01*
X109904330Y-88419353D01*
X109821814Y-88542847D01*
X109764976Y-88680066D01*
X109736000Y-88825738D01*
X109736000Y-88974262D01*
X109764976Y-89119934D01*
X109821814Y-89257153D01*
X109904330Y-89380647D01*
X110009353Y-89485670D01*
X110132847Y-89568186D01*
X110270066Y-89625024D01*
X110415738Y-89654000D01*
X110564262Y-89654000D01*
X110709934Y-89625024D01*
X110847153Y-89568186D01*
X110970647Y-89485670D01*
X111075670Y-89380647D01*
X111158186Y-89257153D01*
X111215024Y-89119934D01*
X111244000Y-88974262D01*
X111244000Y-88825738D01*
X111215024Y-88680066D01*
X111158186Y-88542847D01*
X111075670Y-88419353D01*
X110970647Y-88314330D01*
X110969000Y-88313230D01*
X110969000Y-87264270D01*
X110970647Y-87263170D01*
X111075670Y-87158147D01*
X111158186Y-87034653D01*
X111215024Y-86897434D01*
X111244000Y-86751762D01*
X111244000Y-86603238D01*
X111215024Y-86457566D01*
X111158186Y-86320347D01*
X111075670Y-86196853D01*
X110970647Y-86091830D01*
X110847153Y-86009314D01*
X110730773Y-85961108D01*
X116645338Y-85961108D01*
X116646438Y-85962755D01*
X116751461Y-86067778D01*
X116874955Y-86150294D01*
X117012174Y-86207132D01*
X117157846Y-86236108D01*
X117306370Y-86236108D01*
X117452042Y-86207132D01*
X117589261Y-86150294D01*
X117712755Y-86067778D01*
X117817778Y-85962755D01*
X117900294Y-85839261D01*
X117957132Y-85702042D01*
X117986108Y-85556370D01*
X117986108Y-85407846D01*
X117957132Y-85262174D01*
X117900294Y-85124955D01*
X117817778Y-85001461D01*
X117712755Y-84896438D01*
X117589261Y-84813922D01*
X117452042Y-84757084D01*
X117306370Y-84728108D01*
X117157846Y-84728108D01*
X117012174Y-84757084D01*
X116874955Y-84813922D01*
X116751461Y-84896438D01*
X116646438Y-85001461D01*
X116645338Y-85003108D01*
X110438915Y-85003108D01*
X110415392Y-85000791D01*
X110391869Y-85003108D01*
X110391866Y-85003108D01*
X110321492Y-85010039D01*
X110231200Y-85037429D01*
X110147986Y-85081908D01*
X110117809Y-85106673D01*
X110075049Y-85141765D01*
X110060049Y-85160043D01*
X109296206Y-85923887D01*
X109294262Y-85923500D01*
X109145738Y-85923500D01*
X109000066Y-85952476D01*
X108862847Y-86009314D01*
X108739353Y-86091830D01*
X108634330Y-86196853D01*
X108551814Y-86320347D01*
X108494976Y-86457566D01*
X108466000Y-86603238D01*
X95629000Y-86603238D01*
X95629000Y-50379000D01*
X169507078Y-50379000D01*
X140920493Y-78965585D01*
M02*
