G04 #@! TF.GenerationSoftware,KiCad,Pcbnew,(5.1.4)-1*
G04 #@! TF.CreationDate,2019-10-12T15:48:51-04:00*
G04 #@! TF.ProjectId,helvetica-sao,68656c76-6574-4696-9361-2d73616f2e6b,rev?*
G04 #@! TF.SameCoordinates,Original*
G04 #@! TF.FileFunction,Paste,Bot*
G04 #@! TF.FilePolarity,Positive*
%FSLAX46Y46*%
G04 Gerber Fmt 4.6, Leading zero omitted, Abs format (unit mm)*
G04 Created by KiCad (PCBNEW (5.1.4)-1) date 2019-10-12 15:48:51*
%MOMM*%
%LPD*%
G04 APERTURE LIST*
%ADD10R,2.710000X2.410000*%
%ADD11C,0.100000*%
%ADD12C,0.875000*%
%ADD13C,1.000000*%
%ADD14R,1.060000X0.650000*%
%ADD15C,0.600000*%
%ADD16R,0.600000X1.200000*%
%ADD17R,1.200000X0.600000*%
%ADD18R,1.500000X1.500000*%
%ADD19C,1.500000*%
%ADD20R,1.900000X1.175000*%
%ADD21R,1.900000X2.375000*%
%ADD22R,2.100000X1.475000*%
%ADD23R,1.380000X0.450000*%
%ADD24R,2.400000X0.740000*%
%ADD25R,1.100000X1.500000*%
%ADD26R,0.800000X0.650000*%
%ADD27C,0.650000*%
%ADD28R,0.650000X0.800000*%
G04 APERTURE END LIST*
D10*
X119040000Y-56515000D03*
X127340000Y-56515000D03*
D11*
G36*
X134377691Y-62391053D02*
G01*
X134398926Y-62394203D01*
X134419750Y-62399419D01*
X134439962Y-62406651D01*
X134459368Y-62415830D01*
X134477781Y-62426866D01*
X134495024Y-62439654D01*
X134510930Y-62454070D01*
X134525346Y-62469976D01*
X134538134Y-62487219D01*
X134549170Y-62505632D01*
X134558349Y-62525038D01*
X134565581Y-62545250D01*
X134570797Y-62566074D01*
X134573947Y-62587309D01*
X134575000Y-62608750D01*
X134575000Y-63121250D01*
X134573947Y-63142691D01*
X134570797Y-63163926D01*
X134565581Y-63184750D01*
X134558349Y-63204962D01*
X134549170Y-63224368D01*
X134538134Y-63242781D01*
X134525346Y-63260024D01*
X134510930Y-63275930D01*
X134495024Y-63290346D01*
X134477781Y-63303134D01*
X134459368Y-63314170D01*
X134439962Y-63323349D01*
X134419750Y-63330581D01*
X134398926Y-63335797D01*
X134377691Y-63338947D01*
X134356250Y-63340000D01*
X133918750Y-63340000D01*
X133897309Y-63338947D01*
X133876074Y-63335797D01*
X133855250Y-63330581D01*
X133835038Y-63323349D01*
X133815632Y-63314170D01*
X133797219Y-63303134D01*
X133779976Y-63290346D01*
X133764070Y-63275930D01*
X133749654Y-63260024D01*
X133736866Y-63242781D01*
X133725830Y-63224368D01*
X133716651Y-63204962D01*
X133709419Y-63184750D01*
X133704203Y-63163926D01*
X133701053Y-63142691D01*
X133700000Y-63121250D01*
X133700000Y-62608750D01*
X133701053Y-62587309D01*
X133704203Y-62566074D01*
X133709419Y-62545250D01*
X133716651Y-62525038D01*
X133725830Y-62505632D01*
X133736866Y-62487219D01*
X133749654Y-62469976D01*
X133764070Y-62454070D01*
X133779976Y-62439654D01*
X133797219Y-62426866D01*
X133815632Y-62415830D01*
X133835038Y-62406651D01*
X133855250Y-62399419D01*
X133876074Y-62394203D01*
X133897309Y-62391053D01*
X133918750Y-62390000D01*
X134356250Y-62390000D01*
X134377691Y-62391053D01*
X134377691Y-62391053D01*
G37*
D12*
X134137500Y-62865000D03*
D11*
G36*
X132802691Y-62391053D02*
G01*
X132823926Y-62394203D01*
X132844750Y-62399419D01*
X132864962Y-62406651D01*
X132884368Y-62415830D01*
X132902781Y-62426866D01*
X132920024Y-62439654D01*
X132935930Y-62454070D01*
X132950346Y-62469976D01*
X132963134Y-62487219D01*
X132974170Y-62505632D01*
X132983349Y-62525038D01*
X132990581Y-62545250D01*
X132995797Y-62566074D01*
X132998947Y-62587309D01*
X133000000Y-62608750D01*
X133000000Y-63121250D01*
X132998947Y-63142691D01*
X132995797Y-63163926D01*
X132990581Y-63184750D01*
X132983349Y-63204962D01*
X132974170Y-63224368D01*
X132963134Y-63242781D01*
X132950346Y-63260024D01*
X132935930Y-63275930D01*
X132920024Y-63290346D01*
X132902781Y-63303134D01*
X132884368Y-63314170D01*
X132864962Y-63323349D01*
X132844750Y-63330581D01*
X132823926Y-63335797D01*
X132802691Y-63338947D01*
X132781250Y-63340000D01*
X132343750Y-63340000D01*
X132322309Y-63338947D01*
X132301074Y-63335797D01*
X132280250Y-63330581D01*
X132260038Y-63323349D01*
X132240632Y-63314170D01*
X132222219Y-63303134D01*
X132204976Y-63290346D01*
X132189070Y-63275930D01*
X132174654Y-63260024D01*
X132161866Y-63242781D01*
X132150830Y-63224368D01*
X132141651Y-63204962D01*
X132134419Y-63184750D01*
X132129203Y-63163926D01*
X132126053Y-63142691D01*
X132125000Y-63121250D01*
X132125000Y-62608750D01*
X132126053Y-62587309D01*
X132129203Y-62566074D01*
X132134419Y-62545250D01*
X132141651Y-62525038D01*
X132150830Y-62505632D01*
X132161866Y-62487219D01*
X132174654Y-62469976D01*
X132189070Y-62454070D01*
X132204976Y-62439654D01*
X132222219Y-62426866D01*
X132240632Y-62415830D01*
X132260038Y-62406651D01*
X132280250Y-62399419D01*
X132301074Y-62394203D01*
X132322309Y-62391053D01*
X132343750Y-62390000D01*
X132781250Y-62390000D01*
X132802691Y-62391053D01*
X132802691Y-62391053D01*
G37*
D12*
X132562500Y-62865000D03*
D13*
X115023996Y-66029393D03*
D11*
G36*
X113556749Y-65269253D02*
G01*
X114263856Y-64562146D01*
X116491243Y-66789533D01*
X115784136Y-67496640D01*
X113556749Y-65269253D01*
X113556749Y-65269253D01*
G37*
D13*
X111453107Y-62458504D03*
D11*
G36*
X109985860Y-61698364D02*
G01*
X110692967Y-60991257D01*
X112920354Y-63218644D01*
X112213247Y-63925751D01*
X109985860Y-61698364D01*
X109985860Y-61698364D01*
G37*
D13*
X113227945Y-67825445D03*
D11*
G36*
X111760698Y-67065305D02*
G01*
X112467805Y-66358198D01*
X114695192Y-68585585D01*
X113988085Y-69292692D01*
X111760698Y-67065305D01*
X111760698Y-67065305D01*
G37*
D13*
X109657055Y-64254555D03*
D11*
G36*
X108189808Y-63494415D02*
G01*
X108896915Y-62787308D01*
X111124302Y-65014695D01*
X110417195Y-65721802D01*
X108189808Y-63494415D01*
X108189808Y-63494415D01*
G37*
D13*
X111431893Y-69621496D03*
D11*
G36*
X109964646Y-68861356D02*
G01*
X110671753Y-68154249D01*
X112899140Y-70381636D01*
X112192033Y-71088743D01*
X109964646Y-68861356D01*
X109964646Y-68861356D01*
G37*
D13*
X107861004Y-66050607D03*
D11*
G36*
X106393757Y-65290467D02*
G01*
X107100864Y-64583360D01*
X109328251Y-66810747D01*
X108621144Y-67517854D01*
X106393757Y-65290467D01*
X106393757Y-65290467D01*
G37*
D14*
X102382500Y-89850000D03*
X102382500Y-87950000D03*
X100182500Y-87950000D03*
X100182500Y-88900000D03*
X100182500Y-89850000D03*
X132250000Y-59690000D03*
X132250000Y-58740000D03*
X132250000Y-60640000D03*
X134450000Y-60640000D03*
X134450000Y-59690000D03*
X134450000Y-58740000D03*
D11*
G36*
X109384703Y-91700722D02*
G01*
X109399264Y-91702882D01*
X109413543Y-91706459D01*
X109427403Y-91711418D01*
X109440710Y-91717712D01*
X109453336Y-91725280D01*
X109465159Y-91734048D01*
X109476066Y-91743934D01*
X109485952Y-91754841D01*
X109494720Y-91766664D01*
X109502288Y-91779290D01*
X109508582Y-91792597D01*
X109513541Y-91806457D01*
X109517118Y-91820736D01*
X109519278Y-91835297D01*
X109520000Y-91850000D01*
X109520000Y-93150000D01*
X109519278Y-93164703D01*
X109517118Y-93179264D01*
X109513541Y-93193543D01*
X109508582Y-93207403D01*
X109502288Y-93220710D01*
X109494720Y-93233336D01*
X109485952Y-93245159D01*
X109476066Y-93256066D01*
X109465159Y-93265952D01*
X109453336Y-93274720D01*
X109440710Y-93282288D01*
X109427403Y-93288582D01*
X109413543Y-93293541D01*
X109399264Y-93297118D01*
X109384703Y-93299278D01*
X109370000Y-93300000D01*
X109070000Y-93300000D01*
X109055297Y-93299278D01*
X109040736Y-93297118D01*
X109026457Y-93293541D01*
X109012597Y-93288582D01*
X108999290Y-93282288D01*
X108986664Y-93274720D01*
X108974841Y-93265952D01*
X108963934Y-93256066D01*
X108954048Y-93245159D01*
X108945280Y-93233336D01*
X108937712Y-93220710D01*
X108931418Y-93207403D01*
X108926459Y-93193543D01*
X108922882Y-93179264D01*
X108920722Y-93164703D01*
X108920000Y-93150000D01*
X108920000Y-91850000D01*
X108920722Y-91835297D01*
X108922882Y-91820736D01*
X108926459Y-91806457D01*
X108931418Y-91792597D01*
X108937712Y-91779290D01*
X108945280Y-91766664D01*
X108954048Y-91754841D01*
X108963934Y-91743934D01*
X108974841Y-91734048D01*
X108986664Y-91725280D01*
X108999290Y-91717712D01*
X109012597Y-91711418D01*
X109026457Y-91706459D01*
X109040736Y-91702882D01*
X109055297Y-91700722D01*
X109070000Y-91700000D01*
X109370000Y-91700000D01*
X109384703Y-91700722D01*
X109384703Y-91700722D01*
G37*
D15*
X109220000Y-92500000D03*
D11*
G36*
X110654703Y-91700722D02*
G01*
X110669264Y-91702882D01*
X110683543Y-91706459D01*
X110697403Y-91711418D01*
X110710710Y-91717712D01*
X110723336Y-91725280D01*
X110735159Y-91734048D01*
X110746066Y-91743934D01*
X110755952Y-91754841D01*
X110764720Y-91766664D01*
X110772288Y-91779290D01*
X110778582Y-91792597D01*
X110783541Y-91806457D01*
X110787118Y-91820736D01*
X110789278Y-91835297D01*
X110790000Y-91850000D01*
X110790000Y-93150000D01*
X110789278Y-93164703D01*
X110787118Y-93179264D01*
X110783541Y-93193543D01*
X110778582Y-93207403D01*
X110772288Y-93220710D01*
X110764720Y-93233336D01*
X110755952Y-93245159D01*
X110746066Y-93256066D01*
X110735159Y-93265952D01*
X110723336Y-93274720D01*
X110710710Y-93282288D01*
X110697403Y-93288582D01*
X110683543Y-93293541D01*
X110669264Y-93297118D01*
X110654703Y-93299278D01*
X110640000Y-93300000D01*
X110340000Y-93300000D01*
X110325297Y-93299278D01*
X110310736Y-93297118D01*
X110296457Y-93293541D01*
X110282597Y-93288582D01*
X110269290Y-93282288D01*
X110256664Y-93274720D01*
X110244841Y-93265952D01*
X110233934Y-93256066D01*
X110224048Y-93245159D01*
X110215280Y-93233336D01*
X110207712Y-93220710D01*
X110201418Y-93207403D01*
X110196459Y-93193543D01*
X110192882Y-93179264D01*
X110190722Y-93164703D01*
X110190000Y-93150000D01*
X110190000Y-91850000D01*
X110190722Y-91835297D01*
X110192882Y-91820736D01*
X110196459Y-91806457D01*
X110201418Y-91792597D01*
X110207712Y-91779290D01*
X110215280Y-91766664D01*
X110224048Y-91754841D01*
X110233934Y-91743934D01*
X110244841Y-91734048D01*
X110256664Y-91725280D01*
X110269290Y-91717712D01*
X110282597Y-91711418D01*
X110296457Y-91706459D01*
X110310736Y-91702882D01*
X110325297Y-91700722D01*
X110340000Y-91700000D01*
X110640000Y-91700000D01*
X110654703Y-91700722D01*
X110654703Y-91700722D01*
G37*
D15*
X110490000Y-92500000D03*
D11*
G36*
X111924703Y-91700722D02*
G01*
X111939264Y-91702882D01*
X111953543Y-91706459D01*
X111967403Y-91711418D01*
X111980710Y-91717712D01*
X111993336Y-91725280D01*
X112005159Y-91734048D01*
X112016066Y-91743934D01*
X112025952Y-91754841D01*
X112034720Y-91766664D01*
X112042288Y-91779290D01*
X112048582Y-91792597D01*
X112053541Y-91806457D01*
X112057118Y-91820736D01*
X112059278Y-91835297D01*
X112060000Y-91850000D01*
X112060000Y-93150000D01*
X112059278Y-93164703D01*
X112057118Y-93179264D01*
X112053541Y-93193543D01*
X112048582Y-93207403D01*
X112042288Y-93220710D01*
X112034720Y-93233336D01*
X112025952Y-93245159D01*
X112016066Y-93256066D01*
X112005159Y-93265952D01*
X111993336Y-93274720D01*
X111980710Y-93282288D01*
X111967403Y-93288582D01*
X111953543Y-93293541D01*
X111939264Y-93297118D01*
X111924703Y-93299278D01*
X111910000Y-93300000D01*
X111610000Y-93300000D01*
X111595297Y-93299278D01*
X111580736Y-93297118D01*
X111566457Y-93293541D01*
X111552597Y-93288582D01*
X111539290Y-93282288D01*
X111526664Y-93274720D01*
X111514841Y-93265952D01*
X111503934Y-93256066D01*
X111494048Y-93245159D01*
X111485280Y-93233336D01*
X111477712Y-93220710D01*
X111471418Y-93207403D01*
X111466459Y-93193543D01*
X111462882Y-93179264D01*
X111460722Y-93164703D01*
X111460000Y-93150000D01*
X111460000Y-91850000D01*
X111460722Y-91835297D01*
X111462882Y-91820736D01*
X111466459Y-91806457D01*
X111471418Y-91792597D01*
X111477712Y-91779290D01*
X111485280Y-91766664D01*
X111494048Y-91754841D01*
X111503934Y-91743934D01*
X111514841Y-91734048D01*
X111526664Y-91725280D01*
X111539290Y-91717712D01*
X111552597Y-91711418D01*
X111566457Y-91706459D01*
X111580736Y-91702882D01*
X111595297Y-91700722D01*
X111610000Y-91700000D01*
X111910000Y-91700000D01*
X111924703Y-91700722D01*
X111924703Y-91700722D01*
G37*
D15*
X111760000Y-92500000D03*
D11*
G36*
X113194703Y-91700722D02*
G01*
X113209264Y-91702882D01*
X113223543Y-91706459D01*
X113237403Y-91711418D01*
X113250710Y-91717712D01*
X113263336Y-91725280D01*
X113275159Y-91734048D01*
X113286066Y-91743934D01*
X113295952Y-91754841D01*
X113304720Y-91766664D01*
X113312288Y-91779290D01*
X113318582Y-91792597D01*
X113323541Y-91806457D01*
X113327118Y-91820736D01*
X113329278Y-91835297D01*
X113330000Y-91850000D01*
X113330000Y-93150000D01*
X113329278Y-93164703D01*
X113327118Y-93179264D01*
X113323541Y-93193543D01*
X113318582Y-93207403D01*
X113312288Y-93220710D01*
X113304720Y-93233336D01*
X113295952Y-93245159D01*
X113286066Y-93256066D01*
X113275159Y-93265952D01*
X113263336Y-93274720D01*
X113250710Y-93282288D01*
X113237403Y-93288582D01*
X113223543Y-93293541D01*
X113209264Y-93297118D01*
X113194703Y-93299278D01*
X113180000Y-93300000D01*
X112880000Y-93300000D01*
X112865297Y-93299278D01*
X112850736Y-93297118D01*
X112836457Y-93293541D01*
X112822597Y-93288582D01*
X112809290Y-93282288D01*
X112796664Y-93274720D01*
X112784841Y-93265952D01*
X112773934Y-93256066D01*
X112764048Y-93245159D01*
X112755280Y-93233336D01*
X112747712Y-93220710D01*
X112741418Y-93207403D01*
X112736459Y-93193543D01*
X112732882Y-93179264D01*
X112730722Y-93164703D01*
X112730000Y-93150000D01*
X112730000Y-91850000D01*
X112730722Y-91835297D01*
X112732882Y-91820736D01*
X112736459Y-91806457D01*
X112741418Y-91792597D01*
X112747712Y-91779290D01*
X112755280Y-91766664D01*
X112764048Y-91754841D01*
X112773934Y-91743934D01*
X112784841Y-91734048D01*
X112796664Y-91725280D01*
X112809290Y-91717712D01*
X112822597Y-91711418D01*
X112836457Y-91706459D01*
X112850736Y-91702882D01*
X112865297Y-91700722D01*
X112880000Y-91700000D01*
X113180000Y-91700000D01*
X113194703Y-91700722D01*
X113194703Y-91700722D01*
G37*
D15*
X113030000Y-92500000D03*
D11*
G36*
X113194703Y-84500722D02*
G01*
X113209264Y-84502882D01*
X113223543Y-84506459D01*
X113237403Y-84511418D01*
X113250710Y-84517712D01*
X113263336Y-84525280D01*
X113275159Y-84534048D01*
X113286066Y-84543934D01*
X113295952Y-84554841D01*
X113304720Y-84566664D01*
X113312288Y-84579290D01*
X113318582Y-84592597D01*
X113323541Y-84606457D01*
X113327118Y-84620736D01*
X113329278Y-84635297D01*
X113330000Y-84650000D01*
X113330000Y-85950000D01*
X113329278Y-85964703D01*
X113327118Y-85979264D01*
X113323541Y-85993543D01*
X113318582Y-86007403D01*
X113312288Y-86020710D01*
X113304720Y-86033336D01*
X113295952Y-86045159D01*
X113286066Y-86056066D01*
X113275159Y-86065952D01*
X113263336Y-86074720D01*
X113250710Y-86082288D01*
X113237403Y-86088582D01*
X113223543Y-86093541D01*
X113209264Y-86097118D01*
X113194703Y-86099278D01*
X113180000Y-86100000D01*
X112880000Y-86100000D01*
X112865297Y-86099278D01*
X112850736Y-86097118D01*
X112836457Y-86093541D01*
X112822597Y-86088582D01*
X112809290Y-86082288D01*
X112796664Y-86074720D01*
X112784841Y-86065952D01*
X112773934Y-86056066D01*
X112764048Y-86045159D01*
X112755280Y-86033336D01*
X112747712Y-86020710D01*
X112741418Y-86007403D01*
X112736459Y-85993543D01*
X112732882Y-85979264D01*
X112730722Y-85964703D01*
X112730000Y-85950000D01*
X112730000Y-84650000D01*
X112730722Y-84635297D01*
X112732882Y-84620736D01*
X112736459Y-84606457D01*
X112741418Y-84592597D01*
X112747712Y-84579290D01*
X112755280Y-84566664D01*
X112764048Y-84554841D01*
X112773934Y-84543934D01*
X112784841Y-84534048D01*
X112796664Y-84525280D01*
X112809290Y-84517712D01*
X112822597Y-84511418D01*
X112836457Y-84506459D01*
X112850736Y-84502882D01*
X112865297Y-84500722D01*
X112880000Y-84500000D01*
X113180000Y-84500000D01*
X113194703Y-84500722D01*
X113194703Y-84500722D01*
G37*
D15*
X113030000Y-85300000D03*
D11*
G36*
X111924703Y-84500722D02*
G01*
X111939264Y-84502882D01*
X111953543Y-84506459D01*
X111967403Y-84511418D01*
X111980710Y-84517712D01*
X111993336Y-84525280D01*
X112005159Y-84534048D01*
X112016066Y-84543934D01*
X112025952Y-84554841D01*
X112034720Y-84566664D01*
X112042288Y-84579290D01*
X112048582Y-84592597D01*
X112053541Y-84606457D01*
X112057118Y-84620736D01*
X112059278Y-84635297D01*
X112060000Y-84650000D01*
X112060000Y-85950000D01*
X112059278Y-85964703D01*
X112057118Y-85979264D01*
X112053541Y-85993543D01*
X112048582Y-86007403D01*
X112042288Y-86020710D01*
X112034720Y-86033336D01*
X112025952Y-86045159D01*
X112016066Y-86056066D01*
X112005159Y-86065952D01*
X111993336Y-86074720D01*
X111980710Y-86082288D01*
X111967403Y-86088582D01*
X111953543Y-86093541D01*
X111939264Y-86097118D01*
X111924703Y-86099278D01*
X111910000Y-86100000D01*
X111610000Y-86100000D01*
X111595297Y-86099278D01*
X111580736Y-86097118D01*
X111566457Y-86093541D01*
X111552597Y-86088582D01*
X111539290Y-86082288D01*
X111526664Y-86074720D01*
X111514841Y-86065952D01*
X111503934Y-86056066D01*
X111494048Y-86045159D01*
X111485280Y-86033336D01*
X111477712Y-86020710D01*
X111471418Y-86007403D01*
X111466459Y-85993543D01*
X111462882Y-85979264D01*
X111460722Y-85964703D01*
X111460000Y-85950000D01*
X111460000Y-84650000D01*
X111460722Y-84635297D01*
X111462882Y-84620736D01*
X111466459Y-84606457D01*
X111471418Y-84592597D01*
X111477712Y-84579290D01*
X111485280Y-84566664D01*
X111494048Y-84554841D01*
X111503934Y-84543934D01*
X111514841Y-84534048D01*
X111526664Y-84525280D01*
X111539290Y-84517712D01*
X111552597Y-84511418D01*
X111566457Y-84506459D01*
X111580736Y-84502882D01*
X111595297Y-84500722D01*
X111610000Y-84500000D01*
X111910000Y-84500000D01*
X111924703Y-84500722D01*
X111924703Y-84500722D01*
G37*
D15*
X111760000Y-85300000D03*
D11*
G36*
X110654703Y-84500722D02*
G01*
X110669264Y-84502882D01*
X110683543Y-84506459D01*
X110697403Y-84511418D01*
X110710710Y-84517712D01*
X110723336Y-84525280D01*
X110735159Y-84534048D01*
X110746066Y-84543934D01*
X110755952Y-84554841D01*
X110764720Y-84566664D01*
X110772288Y-84579290D01*
X110778582Y-84592597D01*
X110783541Y-84606457D01*
X110787118Y-84620736D01*
X110789278Y-84635297D01*
X110790000Y-84650000D01*
X110790000Y-85950000D01*
X110789278Y-85964703D01*
X110787118Y-85979264D01*
X110783541Y-85993543D01*
X110778582Y-86007403D01*
X110772288Y-86020710D01*
X110764720Y-86033336D01*
X110755952Y-86045159D01*
X110746066Y-86056066D01*
X110735159Y-86065952D01*
X110723336Y-86074720D01*
X110710710Y-86082288D01*
X110697403Y-86088582D01*
X110683543Y-86093541D01*
X110669264Y-86097118D01*
X110654703Y-86099278D01*
X110640000Y-86100000D01*
X110340000Y-86100000D01*
X110325297Y-86099278D01*
X110310736Y-86097118D01*
X110296457Y-86093541D01*
X110282597Y-86088582D01*
X110269290Y-86082288D01*
X110256664Y-86074720D01*
X110244841Y-86065952D01*
X110233934Y-86056066D01*
X110224048Y-86045159D01*
X110215280Y-86033336D01*
X110207712Y-86020710D01*
X110201418Y-86007403D01*
X110196459Y-85993543D01*
X110192882Y-85979264D01*
X110190722Y-85964703D01*
X110190000Y-85950000D01*
X110190000Y-84650000D01*
X110190722Y-84635297D01*
X110192882Y-84620736D01*
X110196459Y-84606457D01*
X110201418Y-84592597D01*
X110207712Y-84579290D01*
X110215280Y-84566664D01*
X110224048Y-84554841D01*
X110233934Y-84543934D01*
X110244841Y-84534048D01*
X110256664Y-84525280D01*
X110269290Y-84517712D01*
X110282597Y-84511418D01*
X110296457Y-84506459D01*
X110310736Y-84502882D01*
X110325297Y-84500722D01*
X110340000Y-84500000D01*
X110640000Y-84500000D01*
X110654703Y-84500722D01*
X110654703Y-84500722D01*
G37*
D15*
X110490000Y-85300000D03*
D11*
G36*
X109384703Y-84500722D02*
G01*
X109399264Y-84502882D01*
X109413543Y-84506459D01*
X109427403Y-84511418D01*
X109440710Y-84517712D01*
X109453336Y-84525280D01*
X109465159Y-84534048D01*
X109476066Y-84543934D01*
X109485952Y-84554841D01*
X109494720Y-84566664D01*
X109502288Y-84579290D01*
X109508582Y-84592597D01*
X109513541Y-84606457D01*
X109517118Y-84620736D01*
X109519278Y-84635297D01*
X109520000Y-84650000D01*
X109520000Y-85950000D01*
X109519278Y-85964703D01*
X109517118Y-85979264D01*
X109513541Y-85993543D01*
X109508582Y-86007403D01*
X109502288Y-86020710D01*
X109494720Y-86033336D01*
X109485952Y-86045159D01*
X109476066Y-86056066D01*
X109465159Y-86065952D01*
X109453336Y-86074720D01*
X109440710Y-86082288D01*
X109427403Y-86088582D01*
X109413543Y-86093541D01*
X109399264Y-86097118D01*
X109384703Y-86099278D01*
X109370000Y-86100000D01*
X109070000Y-86100000D01*
X109055297Y-86099278D01*
X109040736Y-86097118D01*
X109026457Y-86093541D01*
X109012597Y-86088582D01*
X108999290Y-86082288D01*
X108986664Y-86074720D01*
X108974841Y-86065952D01*
X108963934Y-86056066D01*
X108954048Y-86045159D01*
X108945280Y-86033336D01*
X108937712Y-86020710D01*
X108931418Y-86007403D01*
X108926459Y-85993543D01*
X108922882Y-85979264D01*
X108920722Y-85964703D01*
X108920000Y-85950000D01*
X108920000Y-84650000D01*
X108920722Y-84635297D01*
X108922882Y-84620736D01*
X108926459Y-84606457D01*
X108931418Y-84592597D01*
X108937712Y-84579290D01*
X108945280Y-84566664D01*
X108954048Y-84554841D01*
X108963934Y-84543934D01*
X108974841Y-84534048D01*
X108986664Y-84525280D01*
X108999290Y-84517712D01*
X109012597Y-84511418D01*
X109026457Y-84506459D01*
X109040736Y-84502882D01*
X109055297Y-84500722D01*
X109070000Y-84500000D01*
X109370000Y-84500000D01*
X109384703Y-84500722D01*
X109384703Y-84500722D01*
G37*
D15*
X109220000Y-85300000D03*
D16*
X127577500Y-75125000D03*
X126777500Y-75125000D03*
X125977500Y-75125000D03*
X125177500Y-75125000D03*
X124377500Y-75125000D03*
X123577500Y-75125000D03*
X122777500Y-75125000D03*
X121977500Y-75125000D03*
D17*
X120527500Y-76575000D03*
X120527500Y-77375000D03*
X120527500Y-78175000D03*
X120527500Y-78975000D03*
X120527500Y-79775000D03*
X120527500Y-80575000D03*
X120527500Y-81375000D03*
X120527500Y-82175000D03*
D16*
X121977500Y-83625000D03*
X122777500Y-83625000D03*
X123577500Y-83625000D03*
X124377500Y-83625000D03*
X125177500Y-83625000D03*
X125977500Y-83625000D03*
X126777500Y-83625000D03*
X127577500Y-83625000D03*
D17*
X129027500Y-82175000D03*
X129027500Y-81375000D03*
X129027500Y-80575000D03*
X129027500Y-79775000D03*
X129027500Y-78975000D03*
X129027500Y-78175000D03*
X129027500Y-77375000D03*
X129027500Y-76575000D03*
D18*
X98107500Y-59600000D03*
X98107500Y-67400000D03*
X107225000Y-52705000D03*
X115025000Y-52705000D03*
D19*
X120232716Y-69314784D03*
D11*
G36*
X120232716Y-70375444D02*
G01*
X119172056Y-69314784D01*
X120232716Y-68254124D01*
X121293376Y-69314784D01*
X120232716Y-70375444D01*
X120232716Y-70375444D01*
G37*
D19*
X114717284Y-74830216D03*
D11*
G36*
X114717284Y-75890876D02*
G01*
X113656624Y-74830216D01*
X114717284Y-73769556D01*
X115777944Y-74830216D01*
X114717284Y-75890876D01*
X114717284Y-75890876D01*
G37*
G36*
X130452691Y-58466053D02*
G01*
X130473926Y-58469203D01*
X130494750Y-58474419D01*
X130514962Y-58481651D01*
X130534368Y-58490830D01*
X130552781Y-58501866D01*
X130570024Y-58514654D01*
X130585930Y-58529070D01*
X130600346Y-58544976D01*
X130613134Y-58562219D01*
X130624170Y-58580632D01*
X130633349Y-58600038D01*
X130640581Y-58620250D01*
X130645797Y-58641074D01*
X130648947Y-58662309D01*
X130650000Y-58683750D01*
X130650000Y-59121250D01*
X130648947Y-59142691D01*
X130645797Y-59163926D01*
X130640581Y-59184750D01*
X130633349Y-59204962D01*
X130624170Y-59224368D01*
X130613134Y-59242781D01*
X130600346Y-59260024D01*
X130585930Y-59275930D01*
X130570024Y-59290346D01*
X130552781Y-59303134D01*
X130534368Y-59314170D01*
X130514962Y-59323349D01*
X130494750Y-59330581D01*
X130473926Y-59335797D01*
X130452691Y-59338947D01*
X130431250Y-59340000D01*
X129918750Y-59340000D01*
X129897309Y-59338947D01*
X129876074Y-59335797D01*
X129855250Y-59330581D01*
X129835038Y-59323349D01*
X129815632Y-59314170D01*
X129797219Y-59303134D01*
X129779976Y-59290346D01*
X129764070Y-59275930D01*
X129749654Y-59260024D01*
X129736866Y-59242781D01*
X129725830Y-59224368D01*
X129716651Y-59204962D01*
X129709419Y-59184750D01*
X129704203Y-59163926D01*
X129701053Y-59142691D01*
X129700000Y-59121250D01*
X129700000Y-58683750D01*
X129701053Y-58662309D01*
X129704203Y-58641074D01*
X129709419Y-58620250D01*
X129716651Y-58600038D01*
X129725830Y-58580632D01*
X129736866Y-58562219D01*
X129749654Y-58544976D01*
X129764070Y-58529070D01*
X129779976Y-58514654D01*
X129797219Y-58501866D01*
X129815632Y-58490830D01*
X129835038Y-58481651D01*
X129855250Y-58474419D01*
X129876074Y-58469203D01*
X129897309Y-58466053D01*
X129918750Y-58465000D01*
X130431250Y-58465000D01*
X130452691Y-58466053D01*
X130452691Y-58466053D01*
G37*
D12*
X130175000Y-58902500D03*
D11*
G36*
X130452691Y-60041053D02*
G01*
X130473926Y-60044203D01*
X130494750Y-60049419D01*
X130514962Y-60056651D01*
X130534368Y-60065830D01*
X130552781Y-60076866D01*
X130570024Y-60089654D01*
X130585930Y-60104070D01*
X130600346Y-60119976D01*
X130613134Y-60137219D01*
X130624170Y-60155632D01*
X130633349Y-60175038D01*
X130640581Y-60195250D01*
X130645797Y-60216074D01*
X130648947Y-60237309D01*
X130650000Y-60258750D01*
X130650000Y-60696250D01*
X130648947Y-60717691D01*
X130645797Y-60738926D01*
X130640581Y-60759750D01*
X130633349Y-60779962D01*
X130624170Y-60799368D01*
X130613134Y-60817781D01*
X130600346Y-60835024D01*
X130585930Y-60850930D01*
X130570024Y-60865346D01*
X130552781Y-60878134D01*
X130534368Y-60889170D01*
X130514962Y-60898349D01*
X130494750Y-60905581D01*
X130473926Y-60910797D01*
X130452691Y-60913947D01*
X130431250Y-60915000D01*
X129918750Y-60915000D01*
X129897309Y-60913947D01*
X129876074Y-60910797D01*
X129855250Y-60905581D01*
X129835038Y-60898349D01*
X129815632Y-60889170D01*
X129797219Y-60878134D01*
X129779976Y-60865346D01*
X129764070Y-60850930D01*
X129749654Y-60835024D01*
X129736866Y-60817781D01*
X129725830Y-60799368D01*
X129716651Y-60779962D01*
X129709419Y-60759750D01*
X129704203Y-60738926D01*
X129701053Y-60717691D01*
X129700000Y-60696250D01*
X129700000Y-60258750D01*
X129701053Y-60237309D01*
X129704203Y-60216074D01*
X129709419Y-60195250D01*
X129716651Y-60175038D01*
X129725830Y-60155632D01*
X129736866Y-60137219D01*
X129749654Y-60119976D01*
X129764070Y-60104070D01*
X129779976Y-60089654D01*
X129797219Y-60076866D01*
X129815632Y-60065830D01*
X129835038Y-60056651D01*
X129855250Y-60049419D01*
X129876074Y-60044203D01*
X129897309Y-60041053D01*
X129918750Y-60040000D01*
X130431250Y-60040000D01*
X130452691Y-60041053D01*
X130452691Y-60041053D01*
G37*
D12*
X130175000Y-60477500D03*
D11*
G36*
X136802691Y-60041053D02*
G01*
X136823926Y-60044203D01*
X136844750Y-60049419D01*
X136864962Y-60056651D01*
X136884368Y-60065830D01*
X136902781Y-60076866D01*
X136920024Y-60089654D01*
X136935930Y-60104070D01*
X136950346Y-60119976D01*
X136963134Y-60137219D01*
X136974170Y-60155632D01*
X136983349Y-60175038D01*
X136990581Y-60195250D01*
X136995797Y-60216074D01*
X136998947Y-60237309D01*
X137000000Y-60258750D01*
X137000000Y-60696250D01*
X136998947Y-60717691D01*
X136995797Y-60738926D01*
X136990581Y-60759750D01*
X136983349Y-60779962D01*
X136974170Y-60799368D01*
X136963134Y-60817781D01*
X136950346Y-60835024D01*
X136935930Y-60850930D01*
X136920024Y-60865346D01*
X136902781Y-60878134D01*
X136884368Y-60889170D01*
X136864962Y-60898349D01*
X136844750Y-60905581D01*
X136823926Y-60910797D01*
X136802691Y-60913947D01*
X136781250Y-60915000D01*
X136268750Y-60915000D01*
X136247309Y-60913947D01*
X136226074Y-60910797D01*
X136205250Y-60905581D01*
X136185038Y-60898349D01*
X136165632Y-60889170D01*
X136147219Y-60878134D01*
X136129976Y-60865346D01*
X136114070Y-60850930D01*
X136099654Y-60835024D01*
X136086866Y-60817781D01*
X136075830Y-60799368D01*
X136066651Y-60779962D01*
X136059419Y-60759750D01*
X136054203Y-60738926D01*
X136051053Y-60717691D01*
X136050000Y-60696250D01*
X136050000Y-60258750D01*
X136051053Y-60237309D01*
X136054203Y-60216074D01*
X136059419Y-60195250D01*
X136066651Y-60175038D01*
X136075830Y-60155632D01*
X136086866Y-60137219D01*
X136099654Y-60119976D01*
X136114070Y-60104070D01*
X136129976Y-60089654D01*
X136147219Y-60076866D01*
X136165632Y-60065830D01*
X136185038Y-60056651D01*
X136205250Y-60049419D01*
X136226074Y-60044203D01*
X136247309Y-60041053D01*
X136268750Y-60040000D01*
X136781250Y-60040000D01*
X136802691Y-60041053D01*
X136802691Y-60041053D01*
G37*
D12*
X136525000Y-60477500D03*
D11*
G36*
X136802691Y-58466053D02*
G01*
X136823926Y-58469203D01*
X136844750Y-58474419D01*
X136864962Y-58481651D01*
X136884368Y-58490830D01*
X136902781Y-58501866D01*
X136920024Y-58514654D01*
X136935930Y-58529070D01*
X136950346Y-58544976D01*
X136963134Y-58562219D01*
X136974170Y-58580632D01*
X136983349Y-58600038D01*
X136990581Y-58620250D01*
X136995797Y-58641074D01*
X136998947Y-58662309D01*
X137000000Y-58683750D01*
X137000000Y-59121250D01*
X136998947Y-59142691D01*
X136995797Y-59163926D01*
X136990581Y-59184750D01*
X136983349Y-59204962D01*
X136974170Y-59224368D01*
X136963134Y-59242781D01*
X136950346Y-59260024D01*
X136935930Y-59275930D01*
X136920024Y-59290346D01*
X136902781Y-59303134D01*
X136884368Y-59314170D01*
X136864962Y-59323349D01*
X136844750Y-59330581D01*
X136823926Y-59335797D01*
X136802691Y-59338947D01*
X136781250Y-59340000D01*
X136268750Y-59340000D01*
X136247309Y-59338947D01*
X136226074Y-59335797D01*
X136205250Y-59330581D01*
X136185038Y-59323349D01*
X136165632Y-59314170D01*
X136147219Y-59303134D01*
X136129976Y-59290346D01*
X136114070Y-59275930D01*
X136099654Y-59260024D01*
X136086866Y-59242781D01*
X136075830Y-59224368D01*
X136066651Y-59204962D01*
X136059419Y-59184750D01*
X136054203Y-59163926D01*
X136051053Y-59142691D01*
X136050000Y-59121250D01*
X136050000Y-58683750D01*
X136051053Y-58662309D01*
X136054203Y-58641074D01*
X136059419Y-58620250D01*
X136066651Y-58600038D01*
X136075830Y-58580632D01*
X136086866Y-58562219D01*
X136099654Y-58544976D01*
X136114070Y-58529070D01*
X136129976Y-58514654D01*
X136147219Y-58501866D01*
X136165632Y-58490830D01*
X136185038Y-58481651D01*
X136205250Y-58474419D01*
X136226074Y-58469203D01*
X136247309Y-58466053D01*
X136268750Y-58465000D01*
X136781250Y-58465000D01*
X136802691Y-58466053D01*
X136802691Y-58466053D01*
G37*
D12*
X136525000Y-58902500D03*
D11*
G36*
X115962691Y-80806053D02*
G01*
X115983926Y-80809203D01*
X116004750Y-80814419D01*
X116024962Y-80821651D01*
X116044368Y-80830830D01*
X116062781Y-80841866D01*
X116080024Y-80854654D01*
X116095930Y-80869070D01*
X116110346Y-80884976D01*
X116123134Y-80902219D01*
X116134170Y-80920632D01*
X116143349Y-80940038D01*
X116150581Y-80960250D01*
X116155797Y-80981074D01*
X116158947Y-81002309D01*
X116160000Y-81023750D01*
X116160000Y-81536250D01*
X116158947Y-81557691D01*
X116155797Y-81578926D01*
X116150581Y-81599750D01*
X116143349Y-81619962D01*
X116134170Y-81639368D01*
X116123134Y-81657781D01*
X116110346Y-81675024D01*
X116095930Y-81690930D01*
X116080024Y-81705346D01*
X116062781Y-81718134D01*
X116044368Y-81729170D01*
X116024962Y-81738349D01*
X116004750Y-81745581D01*
X115983926Y-81750797D01*
X115962691Y-81753947D01*
X115941250Y-81755000D01*
X115503750Y-81755000D01*
X115482309Y-81753947D01*
X115461074Y-81750797D01*
X115440250Y-81745581D01*
X115420038Y-81738349D01*
X115400632Y-81729170D01*
X115382219Y-81718134D01*
X115364976Y-81705346D01*
X115349070Y-81690930D01*
X115334654Y-81675024D01*
X115321866Y-81657781D01*
X115310830Y-81639368D01*
X115301651Y-81619962D01*
X115294419Y-81599750D01*
X115289203Y-81578926D01*
X115286053Y-81557691D01*
X115285000Y-81536250D01*
X115285000Y-81023750D01*
X115286053Y-81002309D01*
X115289203Y-80981074D01*
X115294419Y-80960250D01*
X115301651Y-80940038D01*
X115310830Y-80920632D01*
X115321866Y-80902219D01*
X115334654Y-80884976D01*
X115349070Y-80869070D01*
X115364976Y-80854654D01*
X115382219Y-80841866D01*
X115400632Y-80830830D01*
X115420038Y-80821651D01*
X115440250Y-80814419D01*
X115461074Y-80809203D01*
X115482309Y-80806053D01*
X115503750Y-80805000D01*
X115941250Y-80805000D01*
X115962691Y-80806053D01*
X115962691Y-80806053D01*
G37*
D12*
X115722500Y-81280000D03*
D11*
G36*
X114387691Y-80806053D02*
G01*
X114408926Y-80809203D01*
X114429750Y-80814419D01*
X114449962Y-80821651D01*
X114469368Y-80830830D01*
X114487781Y-80841866D01*
X114505024Y-80854654D01*
X114520930Y-80869070D01*
X114535346Y-80884976D01*
X114548134Y-80902219D01*
X114559170Y-80920632D01*
X114568349Y-80940038D01*
X114575581Y-80960250D01*
X114580797Y-80981074D01*
X114583947Y-81002309D01*
X114585000Y-81023750D01*
X114585000Y-81536250D01*
X114583947Y-81557691D01*
X114580797Y-81578926D01*
X114575581Y-81599750D01*
X114568349Y-81619962D01*
X114559170Y-81639368D01*
X114548134Y-81657781D01*
X114535346Y-81675024D01*
X114520930Y-81690930D01*
X114505024Y-81705346D01*
X114487781Y-81718134D01*
X114469368Y-81729170D01*
X114449962Y-81738349D01*
X114429750Y-81745581D01*
X114408926Y-81750797D01*
X114387691Y-81753947D01*
X114366250Y-81755000D01*
X113928750Y-81755000D01*
X113907309Y-81753947D01*
X113886074Y-81750797D01*
X113865250Y-81745581D01*
X113845038Y-81738349D01*
X113825632Y-81729170D01*
X113807219Y-81718134D01*
X113789976Y-81705346D01*
X113774070Y-81690930D01*
X113759654Y-81675024D01*
X113746866Y-81657781D01*
X113735830Y-81639368D01*
X113726651Y-81619962D01*
X113719419Y-81599750D01*
X113714203Y-81578926D01*
X113711053Y-81557691D01*
X113710000Y-81536250D01*
X113710000Y-81023750D01*
X113711053Y-81002309D01*
X113714203Y-80981074D01*
X113719419Y-80960250D01*
X113726651Y-80940038D01*
X113735830Y-80920632D01*
X113746866Y-80902219D01*
X113759654Y-80884976D01*
X113774070Y-80869070D01*
X113789976Y-80854654D01*
X113807219Y-80841866D01*
X113825632Y-80830830D01*
X113845038Y-80821651D01*
X113865250Y-80814419D01*
X113886074Y-80809203D01*
X113907309Y-80806053D01*
X113928750Y-80805000D01*
X114366250Y-80805000D01*
X114387691Y-80806053D01*
X114387691Y-80806053D01*
G37*
D12*
X114147500Y-81280000D03*
D11*
G36*
X115962691Y-82393553D02*
G01*
X115983926Y-82396703D01*
X116004750Y-82401919D01*
X116024962Y-82409151D01*
X116044368Y-82418330D01*
X116062781Y-82429366D01*
X116080024Y-82442154D01*
X116095930Y-82456570D01*
X116110346Y-82472476D01*
X116123134Y-82489719D01*
X116134170Y-82508132D01*
X116143349Y-82527538D01*
X116150581Y-82547750D01*
X116155797Y-82568574D01*
X116158947Y-82589809D01*
X116160000Y-82611250D01*
X116160000Y-83123750D01*
X116158947Y-83145191D01*
X116155797Y-83166426D01*
X116150581Y-83187250D01*
X116143349Y-83207462D01*
X116134170Y-83226868D01*
X116123134Y-83245281D01*
X116110346Y-83262524D01*
X116095930Y-83278430D01*
X116080024Y-83292846D01*
X116062781Y-83305634D01*
X116044368Y-83316670D01*
X116024962Y-83325849D01*
X116004750Y-83333081D01*
X115983926Y-83338297D01*
X115962691Y-83341447D01*
X115941250Y-83342500D01*
X115503750Y-83342500D01*
X115482309Y-83341447D01*
X115461074Y-83338297D01*
X115440250Y-83333081D01*
X115420038Y-83325849D01*
X115400632Y-83316670D01*
X115382219Y-83305634D01*
X115364976Y-83292846D01*
X115349070Y-83278430D01*
X115334654Y-83262524D01*
X115321866Y-83245281D01*
X115310830Y-83226868D01*
X115301651Y-83207462D01*
X115294419Y-83187250D01*
X115289203Y-83166426D01*
X115286053Y-83145191D01*
X115285000Y-83123750D01*
X115285000Y-82611250D01*
X115286053Y-82589809D01*
X115289203Y-82568574D01*
X115294419Y-82547750D01*
X115301651Y-82527538D01*
X115310830Y-82508132D01*
X115321866Y-82489719D01*
X115334654Y-82472476D01*
X115349070Y-82456570D01*
X115364976Y-82442154D01*
X115382219Y-82429366D01*
X115400632Y-82418330D01*
X115420038Y-82409151D01*
X115440250Y-82401919D01*
X115461074Y-82396703D01*
X115482309Y-82393553D01*
X115503750Y-82392500D01*
X115941250Y-82392500D01*
X115962691Y-82393553D01*
X115962691Y-82393553D01*
G37*
D12*
X115722500Y-82867500D03*
D11*
G36*
X114387691Y-82393553D02*
G01*
X114408926Y-82396703D01*
X114429750Y-82401919D01*
X114449962Y-82409151D01*
X114469368Y-82418330D01*
X114487781Y-82429366D01*
X114505024Y-82442154D01*
X114520930Y-82456570D01*
X114535346Y-82472476D01*
X114548134Y-82489719D01*
X114559170Y-82508132D01*
X114568349Y-82527538D01*
X114575581Y-82547750D01*
X114580797Y-82568574D01*
X114583947Y-82589809D01*
X114585000Y-82611250D01*
X114585000Y-83123750D01*
X114583947Y-83145191D01*
X114580797Y-83166426D01*
X114575581Y-83187250D01*
X114568349Y-83207462D01*
X114559170Y-83226868D01*
X114548134Y-83245281D01*
X114535346Y-83262524D01*
X114520930Y-83278430D01*
X114505024Y-83292846D01*
X114487781Y-83305634D01*
X114469368Y-83316670D01*
X114449962Y-83325849D01*
X114429750Y-83333081D01*
X114408926Y-83338297D01*
X114387691Y-83341447D01*
X114366250Y-83342500D01*
X113928750Y-83342500D01*
X113907309Y-83341447D01*
X113886074Y-83338297D01*
X113865250Y-83333081D01*
X113845038Y-83325849D01*
X113825632Y-83316670D01*
X113807219Y-83305634D01*
X113789976Y-83292846D01*
X113774070Y-83278430D01*
X113759654Y-83262524D01*
X113746866Y-83245281D01*
X113735830Y-83226868D01*
X113726651Y-83207462D01*
X113719419Y-83187250D01*
X113714203Y-83166426D01*
X113711053Y-83145191D01*
X113710000Y-83123750D01*
X113710000Y-82611250D01*
X113711053Y-82589809D01*
X113714203Y-82568574D01*
X113719419Y-82547750D01*
X113726651Y-82527538D01*
X113735830Y-82508132D01*
X113746866Y-82489719D01*
X113759654Y-82472476D01*
X113774070Y-82456570D01*
X113789976Y-82442154D01*
X113807219Y-82429366D01*
X113825632Y-82418330D01*
X113845038Y-82409151D01*
X113865250Y-82401919D01*
X113886074Y-82396703D01*
X113907309Y-82393553D01*
X113928750Y-82392500D01*
X114366250Y-82392500D01*
X114387691Y-82393553D01*
X114387691Y-82393553D01*
G37*
D12*
X114147500Y-82867500D03*
D11*
G36*
X115962691Y-79218553D02*
G01*
X115983926Y-79221703D01*
X116004750Y-79226919D01*
X116024962Y-79234151D01*
X116044368Y-79243330D01*
X116062781Y-79254366D01*
X116080024Y-79267154D01*
X116095930Y-79281570D01*
X116110346Y-79297476D01*
X116123134Y-79314719D01*
X116134170Y-79333132D01*
X116143349Y-79352538D01*
X116150581Y-79372750D01*
X116155797Y-79393574D01*
X116158947Y-79414809D01*
X116160000Y-79436250D01*
X116160000Y-79948750D01*
X116158947Y-79970191D01*
X116155797Y-79991426D01*
X116150581Y-80012250D01*
X116143349Y-80032462D01*
X116134170Y-80051868D01*
X116123134Y-80070281D01*
X116110346Y-80087524D01*
X116095930Y-80103430D01*
X116080024Y-80117846D01*
X116062781Y-80130634D01*
X116044368Y-80141670D01*
X116024962Y-80150849D01*
X116004750Y-80158081D01*
X115983926Y-80163297D01*
X115962691Y-80166447D01*
X115941250Y-80167500D01*
X115503750Y-80167500D01*
X115482309Y-80166447D01*
X115461074Y-80163297D01*
X115440250Y-80158081D01*
X115420038Y-80150849D01*
X115400632Y-80141670D01*
X115382219Y-80130634D01*
X115364976Y-80117846D01*
X115349070Y-80103430D01*
X115334654Y-80087524D01*
X115321866Y-80070281D01*
X115310830Y-80051868D01*
X115301651Y-80032462D01*
X115294419Y-80012250D01*
X115289203Y-79991426D01*
X115286053Y-79970191D01*
X115285000Y-79948750D01*
X115285000Y-79436250D01*
X115286053Y-79414809D01*
X115289203Y-79393574D01*
X115294419Y-79372750D01*
X115301651Y-79352538D01*
X115310830Y-79333132D01*
X115321866Y-79314719D01*
X115334654Y-79297476D01*
X115349070Y-79281570D01*
X115364976Y-79267154D01*
X115382219Y-79254366D01*
X115400632Y-79243330D01*
X115420038Y-79234151D01*
X115440250Y-79226919D01*
X115461074Y-79221703D01*
X115482309Y-79218553D01*
X115503750Y-79217500D01*
X115941250Y-79217500D01*
X115962691Y-79218553D01*
X115962691Y-79218553D01*
G37*
D12*
X115722500Y-79692500D03*
D11*
G36*
X114387691Y-79218553D02*
G01*
X114408926Y-79221703D01*
X114429750Y-79226919D01*
X114449962Y-79234151D01*
X114469368Y-79243330D01*
X114487781Y-79254366D01*
X114505024Y-79267154D01*
X114520930Y-79281570D01*
X114535346Y-79297476D01*
X114548134Y-79314719D01*
X114559170Y-79333132D01*
X114568349Y-79352538D01*
X114575581Y-79372750D01*
X114580797Y-79393574D01*
X114583947Y-79414809D01*
X114585000Y-79436250D01*
X114585000Y-79948750D01*
X114583947Y-79970191D01*
X114580797Y-79991426D01*
X114575581Y-80012250D01*
X114568349Y-80032462D01*
X114559170Y-80051868D01*
X114548134Y-80070281D01*
X114535346Y-80087524D01*
X114520930Y-80103430D01*
X114505024Y-80117846D01*
X114487781Y-80130634D01*
X114469368Y-80141670D01*
X114449962Y-80150849D01*
X114429750Y-80158081D01*
X114408926Y-80163297D01*
X114387691Y-80166447D01*
X114366250Y-80167500D01*
X113928750Y-80167500D01*
X113907309Y-80166447D01*
X113886074Y-80163297D01*
X113865250Y-80158081D01*
X113845038Y-80150849D01*
X113825632Y-80141670D01*
X113807219Y-80130634D01*
X113789976Y-80117846D01*
X113774070Y-80103430D01*
X113759654Y-80087524D01*
X113746866Y-80070281D01*
X113735830Y-80051868D01*
X113726651Y-80032462D01*
X113719419Y-80012250D01*
X113714203Y-79991426D01*
X113711053Y-79970191D01*
X113710000Y-79948750D01*
X113710000Y-79436250D01*
X113711053Y-79414809D01*
X113714203Y-79393574D01*
X113719419Y-79372750D01*
X113726651Y-79352538D01*
X113735830Y-79333132D01*
X113746866Y-79314719D01*
X113759654Y-79297476D01*
X113774070Y-79281570D01*
X113789976Y-79267154D01*
X113807219Y-79254366D01*
X113825632Y-79243330D01*
X113845038Y-79234151D01*
X113865250Y-79226919D01*
X113886074Y-79221703D01*
X113907309Y-79218553D01*
X113928750Y-79217500D01*
X114366250Y-79217500D01*
X114387691Y-79218553D01*
X114387691Y-79218553D01*
G37*
D12*
X114147500Y-79692500D03*
D11*
G36*
X131850191Y-76678553D02*
G01*
X131871426Y-76681703D01*
X131892250Y-76686919D01*
X131912462Y-76694151D01*
X131931868Y-76703330D01*
X131950281Y-76714366D01*
X131967524Y-76727154D01*
X131983430Y-76741570D01*
X131997846Y-76757476D01*
X132010634Y-76774719D01*
X132021670Y-76793132D01*
X132030849Y-76812538D01*
X132038081Y-76832750D01*
X132043297Y-76853574D01*
X132046447Y-76874809D01*
X132047500Y-76896250D01*
X132047500Y-77408750D01*
X132046447Y-77430191D01*
X132043297Y-77451426D01*
X132038081Y-77472250D01*
X132030849Y-77492462D01*
X132021670Y-77511868D01*
X132010634Y-77530281D01*
X131997846Y-77547524D01*
X131983430Y-77563430D01*
X131967524Y-77577846D01*
X131950281Y-77590634D01*
X131931868Y-77601670D01*
X131912462Y-77610849D01*
X131892250Y-77618081D01*
X131871426Y-77623297D01*
X131850191Y-77626447D01*
X131828750Y-77627500D01*
X131391250Y-77627500D01*
X131369809Y-77626447D01*
X131348574Y-77623297D01*
X131327750Y-77618081D01*
X131307538Y-77610849D01*
X131288132Y-77601670D01*
X131269719Y-77590634D01*
X131252476Y-77577846D01*
X131236570Y-77563430D01*
X131222154Y-77547524D01*
X131209366Y-77530281D01*
X131198330Y-77511868D01*
X131189151Y-77492462D01*
X131181919Y-77472250D01*
X131176703Y-77451426D01*
X131173553Y-77430191D01*
X131172500Y-77408750D01*
X131172500Y-76896250D01*
X131173553Y-76874809D01*
X131176703Y-76853574D01*
X131181919Y-76832750D01*
X131189151Y-76812538D01*
X131198330Y-76793132D01*
X131209366Y-76774719D01*
X131222154Y-76757476D01*
X131236570Y-76741570D01*
X131252476Y-76727154D01*
X131269719Y-76714366D01*
X131288132Y-76703330D01*
X131307538Y-76694151D01*
X131327750Y-76686919D01*
X131348574Y-76681703D01*
X131369809Y-76678553D01*
X131391250Y-76677500D01*
X131828750Y-76677500D01*
X131850191Y-76678553D01*
X131850191Y-76678553D01*
G37*
D12*
X131610000Y-77152500D03*
D11*
G36*
X133425191Y-76678553D02*
G01*
X133446426Y-76681703D01*
X133467250Y-76686919D01*
X133487462Y-76694151D01*
X133506868Y-76703330D01*
X133525281Y-76714366D01*
X133542524Y-76727154D01*
X133558430Y-76741570D01*
X133572846Y-76757476D01*
X133585634Y-76774719D01*
X133596670Y-76793132D01*
X133605849Y-76812538D01*
X133613081Y-76832750D01*
X133618297Y-76853574D01*
X133621447Y-76874809D01*
X133622500Y-76896250D01*
X133622500Y-77408750D01*
X133621447Y-77430191D01*
X133618297Y-77451426D01*
X133613081Y-77472250D01*
X133605849Y-77492462D01*
X133596670Y-77511868D01*
X133585634Y-77530281D01*
X133572846Y-77547524D01*
X133558430Y-77563430D01*
X133542524Y-77577846D01*
X133525281Y-77590634D01*
X133506868Y-77601670D01*
X133487462Y-77610849D01*
X133467250Y-77618081D01*
X133446426Y-77623297D01*
X133425191Y-77626447D01*
X133403750Y-77627500D01*
X132966250Y-77627500D01*
X132944809Y-77626447D01*
X132923574Y-77623297D01*
X132902750Y-77618081D01*
X132882538Y-77610849D01*
X132863132Y-77601670D01*
X132844719Y-77590634D01*
X132827476Y-77577846D01*
X132811570Y-77563430D01*
X132797154Y-77547524D01*
X132784366Y-77530281D01*
X132773330Y-77511868D01*
X132764151Y-77492462D01*
X132756919Y-77472250D01*
X132751703Y-77451426D01*
X132748553Y-77430191D01*
X132747500Y-77408750D01*
X132747500Y-76896250D01*
X132748553Y-76874809D01*
X132751703Y-76853574D01*
X132756919Y-76832750D01*
X132764151Y-76812538D01*
X132773330Y-76793132D01*
X132784366Y-76774719D01*
X132797154Y-76757476D01*
X132811570Y-76741570D01*
X132827476Y-76727154D01*
X132844719Y-76714366D01*
X132863132Y-76703330D01*
X132882538Y-76694151D01*
X132902750Y-76686919D01*
X132923574Y-76681703D01*
X132944809Y-76678553D01*
X132966250Y-76677500D01*
X133403750Y-76677500D01*
X133425191Y-76678553D01*
X133425191Y-76678553D01*
G37*
D12*
X133185000Y-77152500D03*
D11*
G36*
X131850191Y-75091053D02*
G01*
X131871426Y-75094203D01*
X131892250Y-75099419D01*
X131912462Y-75106651D01*
X131931868Y-75115830D01*
X131950281Y-75126866D01*
X131967524Y-75139654D01*
X131983430Y-75154070D01*
X131997846Y-75169976D01*
X132010634Y-75187219D01*
X132021670Y-75205632D01*
X132030849Y-75225038D01*
X132038081Y-75245250D01*
X132043297Y-75266074D01*
X132046447Y-75287309D01*
X132047500Y-75308750D01*
X132047500Y-75821250D01*
X132046447Y-75842691D01*
X132043297Y-75863926D01*
X132038081Y-75884750D01*
X132030849Y-75904962D01*
X132021670Y-75924368D01*
X132010634Y-75942781D01*
X131997846Y-75960024D01*
X131983430Y-75975930D01*
X131967524Y-75990346D01*
X131950281Y-76003134D01*
X131931868Y-76014170D01*
X131912462Y-76023349D01*
X131892250Y-76030581D01*
X131871426Y-76035797D01*
X131850191Y-76038947D01*
X131828750Y-76040000D01*
X131391250Y-76040000D01*
X131369809Y-76038947D01*
X131348574Y-76035797D01*
X131327750Y-76030581D01*
X131307538Y-76023349D01*
X131288132Y-76014170D01*
X131269719Y-76003134D01*
X131252476Y-75990346D01*
X131236570Y-75975930D01*
X131222154Y-75960024D01*
X131209366Y-75942781D01*
X131198330Y-75924368D01*
X131189151Y-75904962D01*
X131181919Y-75884750D01*
X131176703Y-75863926D01*
X131173553Y-75842691D01*
X131172500Y-75821250D01*
X131172500Y-75308750D01*
X131173553Y-75287309D01*
X131176703Y-75266074D01*
X131181919Y-75245250D01*
X131189151Y-75225038D01*
X131198330Y-75205632D01*
X131209366Y-75187219D01*
X131222154Y-75169976D01*
X131236570Y-75154070D01*
X131252476Y-75139654D01*
X131269719Y-75126866D01*
X131288132Y-75115830D01*
X131307538Y-75106651D01*
X131327750Y-75099419D01*
X131348574Y-75094203D01*
X131369809Y-75091053D01*
X131391250Y-75090000D01*
X131828750Y-75090000D01*
X131850191Y-75091053D01*
X131850191Y-75091053D01*
G37*
D12*
X131610000Y-75565000D03*
D11*
G36*
X133425191Y-75091053D02*
G01*
X133446426Y-75094203D01*
X133467250Y-75099419D01*
X133487462Y-75106651D01*
X133506868Y-75115830D01*
X133525281Y-75126866D01*
X133542524Y-75139654D01*
X133558430Y-75154070D01*
X133572846Y-75169976D01*
X133585634Y-75187219D01*
X133596670Y-75205632D01*
X133605849Y-75225038D01*
X133613081Y-75245250D01*
X133618297Y-75266074D01*
X133621447Y-75287309D01*
X133622500Y-75308750D01*
X133622500Y-75821250D01*
X133621447Y-75842691D01*
X133618297Y-75863926D01*
X133613081Y-75884750D01*
X133605849Y-75904962D01*
X133596670Y-75924368D01*
X133585634Y-75942781D01*
X133572846Y-75960024D01*
X133558430Y-75975930D01*
X133542524Y-75990346D01*
X133525281Y-76003134D01*
X133506868Y-76014170D01*
X133487462Y-76023349D01*
X133467250Y-76030581D01*
X133446426Y-76035797D01*
X133425191Y-76038947D01*
X133403750Y-76040000D01*
X132966250Y-76040000D01*
X132944809Y-76038947D01*
X132923574Y-76035797D01*
X132902750Y-76030581D01*
X132882538Y-76023349D01*
X132863132Y-76014170D01*
X132844719Y-76003134D01*
X132827476Y-75990346D01*
X132811570Y-75975930D01*
X132797154Y-75960024D01*
X132784366Y-75942781D01*
X132773330Y-75924368D01*
X132764151Y-75904962D01*
X132756919Y-75884750D01*
X132751703Y-75863926D01*
X132748553Y-75842691D01*
X132747500Y-75821250D01*
X132747500Y-75308750D01*
X132748553Y-75287309D01*
X132751703Y-75266074D01*
X132756919Y-75245250D01*
X132764151Y-75225038D01*
X132773330Y-75205632D01*
X132784366Y-75187219D01*
X132797154Y-75169976D01*
X132811570Y-75154070D01*
X132827476Y-75139654D01*
X132844719Y-75126866D01*
X132863132Y-75115830D01*
X132882538Y-75106651D01*
X132902750Y-75099419D01*
X132923574Y-75094203D01*
X132944809Y-75091053D01*
X132966250Y-75090000D01*
X133403750Y-75090000D01*
X133425191Y-75091053D01*
X133425191Y-75091053D01*
G37*
D12*
X133185000Y-75565000D03*
D11*
G36*
X102322691Y-76996053D02*
G01*
X102343926Y-76999203D01*
X102364750Y-77004419D01*
X102384962Y-77011651D01*
X102404368Y-77020830D01*
X102422781Y-77031866D01*
X102440024Y-77044654D01*
X102455930Y-77059070D01*
X102470346Y-77074976D01*
X102483134Y-77092219D01*
X102494170Y-77110632D01*
X102503349Y-77130038D01*
X102510581Y-77150250D01*
X102515797Y-77171074D01*
X102518947Y-77192309D01*
X102520000Y-77213750D01*
X102520000Y-77726250D01*
X102518947Y-77747691D01*
X102515797Y-77768926D01*
X102510581Y-77789750D01*
X102503349Y-77809962D01*
X102494170Y-77829368D01*
X102483134Y-77847781D01*
X102470346Y-77865024D01*
X102455930Y-77880930D01*
X102440024Y-77895346D01*
X102422781Y-77908134D01*
X102404368Y-77919170D01*
X102384962Y-77928349D01*
X102364750Y-77935581D01*
X102343926Y-77940797D01*
X102322691Y-77943947D01*
X102301250Y-77945000D01*
X101863750Y-77945000D01*
X101842309Y-77943947D01*
X101821074Y-77940797D01*
X101800250Y-77935581D01*
X101780038Y-77928349D01*
X101760632Y-77919170D01*
X101742219Y-77908134D01*
X101724976Y-77895346D01*
X101709070Y-77880930D01*
X101694654Y-77865024D01*
X101681866Y-77847781D01*
X101670830Y-77829368D01*
X101661651Y-77809962D01*
X101654419Y-77789750D01*
X101649203Y-77768926D01*
X101646053Y-77747691D01*
X101645000Y-77726250D01*
X101645000Y-77213750D01*
X101646053Y-77192309D01*
X101649203Y-77171074D01*
X101654419Y-77150250D01*
X101661651Y-77130038D01*
X101670830Y-77110632D01*
X101681866Y-77092219D01*
X101694654Y-77074976D01*
X101709070Y-77059070D01*
X101724976Y-77044654D01*
X101742219Y-77031866D01*
X101760632Y-77020830D01*
X101780038Y-77011651D01*
X101800250Y-77004419D01*
X101821074Y-76999203D01*
X101842309Y-76996053D01*
X101863750Y-76995000D01*
X102301250Y-76995000D01*
X102322691Y-76996053D01*
X102322691Y-76996053D01*
G37*
D12*
X102082500Y-77470000D03*
D11*
G36*
X103897691Y-76996053D02*
G01*
X103918926Y-76999203D01*
X103939750Y-77004419D01*
X103959962Y-77011651D01*
X103979368Y-77020830D01*
X103997781Y-77031866D01*
X104015024Y-77044654D01*
X104030930Y-77059070D01*
X104045346Y-77074976D01*
X104058134Y-77092219D01*
X104069170Y-77110632D01*
X104078349Y-77130038D01*
X104085581Y-77150250D01*
X104090797Y-77171074D01*
X104093947Y-77192309D01*
X104095000Y-77213750D01*
X104095000Y-77726250D01*
X104093947Y-77747691D01*
X104090797Y-77768926D01*
X104085581Y-77789750D01*
X104078349Y-77809962D01*
X104069170Y-77829368D01*
X104058134Y-77847781D01*
X104045346Y-77865024D01*
X104030930Y-77880930D01*
X104015024Y-77895346D01*
X103997781Y-77908134D01*
X103979368Y-77919170D01*
X103959962Y-77928349D01*
X103939750Y-77935581D01*
X103918926Y-77940797D01*
X103897691Y-77943947D01*
X103876250Y-77945000D01*
X103438750Y-77945000D01*
X103417309Y-77943947D01*
X103396074Y-77940797D01*
X103375250Y-77935581D01*
X103355038Y-77928349D01*
X103335632Y-77919170D01*
X103317219Y-77908134D01*
X103299976Y-77895346D01*
X103284070Y-77880930D01*
X103269654Y-77865024D01*
X103256866Y-77847781D01*
X103245830Y-77829368D01*
X103236651Y-77809962D01*
X103229419Y-77789750D01*
X103224203Y-77768926D01*
X103221053Y-77747691D01*
X103220000Y-77726250D01*
X103220000Y-77213750D01*
X103221053Y-77192309D01*
X103224203Y-77171074D01*
X103229419Y-77150250D01*
X103236651Y-77130038D01*
X103245830Y-77110632D01*
X103256866Y-77092219D01*
X103269654Y-77074976D01*
X103284070Y-77059070D01*
X103299976Y-77044654D01*
X103317219Y-77031866D01*
X103335632Y-77020830D01*
X103355038Y-77011651D01*
X103375250Y-77004419D01*
X103396074Y-76999203D01*
X103417309Y-76996053D01*
X103438750Y-76995000D01*
X103876250Y-76995000D01*
X103897691Y-76996053D01*
X103897691Y-76996053D01*
G37*
D12*
X103657500Y-77470000D03*
D11*
G36*
X102322691Y-78901053D02*
G01*
X102343926Y-78904203D01*
X102364750Y-78909419D01*
X102384962Y-78916651D01*
X102404368Y-78925830D01*
X102422781Y-78936866D01*
X102440024Y-78949654D01*
X102455930Y-78964070D01*
X102470346Y-78979976D01*
X102483134Y-78997219D01*
X102494170Y-79015632D01*
X102503349Y-79035038D01*
X102510581Y-79055250D01*
X102515797Y-79076074D01*
X102518947Y-79097309D01*
X102520000Y-79118750D01*
X102520000Y-79631250D01*
X102518947Y-79652691D01*
X102515797Y-79673926D01*
X102510581Y-79694750D01*
X102503349Y-79714962D01*
X102494170Y-79734368D01*
X102483134Y-79752781D01*
X102470346Y-79770024D01*
X102455930Y-79785930D01*
X102440024Y-79800346D01*
X102422781Y-79813134D01*
X102404368Y-79824170D01*
X102384962Y-79833349D01*
X102364750Y-79840581D01*
X102343926Y-79845797D01*
X102322691Y-79848947D01*
X102301250Y-79850000D01*
X101863750Y-79850000D01*
X101842309Y-79848947D01*
X101821074Y-79845797D01*
X101800250Y-79840581D01*
X101780038Y-79833349D01*
X101760632Y-79824170D01*
X101742219Y-79813134D01*
X101724976Y-79800346D01*
X101709070Y-79785930D01*
X101694654Y-79770024D01*
X101681866Y-79752781D01*
X101670830Y-79734368D01*
X101661651Y-79714962D01*
X101654419Y-79694750D01*
X101649203Y-79673926D01*
X101646053Y-79652691D01*
X101645000Y-79631250D01*
X101645000Y-79118750D01*
X101646053Y-79097309D01*
X101649203Y-79076074D01*
X101654419Y-79055250D01*
X101661651Y-79035038D01*
X101670830Y-79015632D01*
X101681866Y-78997219D01*
X101694654Y-78979976D01*
X101709070Y-78964070D01*
X101724976Y-78949654D01*
X101742219Y-78936866D01*
X101760632Y-78925830D01*
X101780038Y-78916651D01*
X101800250Y-78909419D01*
X101821074Y-78904203D01*
X101842309Y-78901053D01*
X101863750Y-78900000D01*
X102301250Y-78900000D01*
X102322691Y-78901053D01*
X102322691Y-78901053D01*
G37*
D12*
X102082500Y-79375000D03*
D11*
G36*
X103897691Y-78901053D02*
G01*
X103918926Y-78904203D01*
X103939750Y-78909419D01*
X103959962Y-78916651D01*
X103979368Y-78925830D01*
X103997781Y-78936866D01*
X104015024Y-78949654D01*
X104030930Y-78964070D01*
X104045346Y-78979976D01*
X104058134Y-78997219D01*
X104069170Y-79015632D01*
X104078349Y-79035038D01*
X104085581Y-79055250D01*
X104090797Y-79076074D01*
X104093947Y-79097309D01*
X104095000Y-79118750D01*
X104095000Y-79631250D01*
X104093947Y-79652691D01*
X104090797Y-79673926D01*
X104085581Y-79694750D01*
X104078349Y-79714962D01*
X104069170Y-79734368D01*
X104058134Y-79752781D01*
X104045346Y-79770024D01*
X104030930Y-79785930D01*
X104015024Y-79800346D01*
X103997781Y-79813134D01*
X103979368Y-79824170D01*
X103959962Y-79833349D01*
X103939750Y-79840581D01*
X103918926Y-79845797D01*
X103897691Y-79848947D01*
X103876250Y-79850000D01*
X103438750Y-79850000D01*
X103417309Y-79848947D01*
X103396074Y-79845797D01*
X103375250Y-79840581D01*
X103355038Y-79833349D01*
X103335632Y-79824170D01*
X103317219Y-79813134D01*
X103299976Y-79800346D01*
X103284070Y-79785930D01*
X103269654Y-79770024D01*
X103256866Y-79752781D01*
X103245830Y-79734368D01*
X103236651Y-79714962D01*
X103229419Y-79694750D01*
X103224203Y-79673926D01*
X103221053Y-79652691D01*
X103220000Y-79631250D01*
X103220000Y-79118750D01*
X103221053Y-79097309D01*
X103224203Y-79076074D01*
X103229419Y-79055250D01*
X103236651Y-79035038D01*
X103245830Y-79015632D01*
X103256866Y-78997219D01*
X103269654Y-78979976D01*
X103284070Y-78964070D01*
X103299976Y-78949654D01*
X103317219Y-78936866D01*
X103335632Y-78925830D01*
X103355038Y-78916651D01*
X103375250Y-78909419D01*
X103396074Y-78904203D01*
X103417309Y-78901053D01*
X103438750Y-78900000D01*
X103876250Y-78900000D01*
X103897691Y-78901053D01*
X103897691Y-78901053D01*
G37*
D12*
X103657500Y-79375000D03*
D11*
G36*
X120776111Y-66199580D02*
G01*
X120797346Y-66202730D01*
X120818170Y-66207946D01*
X120838382Y-66215178D01*
X120857788Y-66224357D01*
X120876201Y-66235393D01*
X120893444Y-66248181D01*
X120909350Y-66262597D01*
X121218709Y-66571956D01*
X121233125Y-66587862D01*
X121245913Y-66605105D01*
X121256949Y-66623518D01*
X121266128Y-66642924D01*
X121273360Y-66663136D01*
X121278576Y-66683960D01*
X121281726Y-66705195D01*
X121282779Y-66726636D01*
X121281726Y-66748077D01*
X121278576Y-66769312D01*
X121273360Y-66790136D01*
X121266128Y-66810348D01*
X121256949Y-66829754D01*
X121245913Y-66848167D01*
X121233125Y-66865410D01*
X121218709Y-66881316D01*
X120856316Y-67243709D01*
X120840410Y-67258125D01*
X120823167Y-67270913D01*
X120804754Y-67281949D01*
X120785348Y-67291128D01*
X120765136Y-67298360D01*
X120744312Y-67303576D01*
X120723077Y-67306726D01*
X120701636Y-67307779D01*
X120680195Y-67306726D01*
X120658960Y-67303576D01*
X120638136Y-67298360D01*
X120617924Y-67291128D01*
X120598518Y-67281949D01*
X120580105Y-67270913D01*
X120562862Y-67258125D01*
X120546956Y-67243709D01*
X120237597Y-66934350D01*
X120223181Y-66918444D01*
X120210393Y-66901201D01*
X120199357Y-66882788D01*
X120190178Y-66863382D01*
X120182946Y-66843170D01*
X120177730Y-66822346D01*
X120174580Y-66801111D01*
X120173527Y-66779670D01*
X120174580Y-66758229D01*
X120177730Y-66736994D01*
X120182946Y-66716170D01*
X120190178Y-66695958D01*
X120199357Y-66676552D01*
X120210393Y-66658139D01*
X120223181Y-66640896D01*
X120237597Y-66624990D01*
X120599990Y-66262597D01*
X120615896Y-66248181D01*
X120633139Y-66235393D01*
X120651552Y-66224357D01*
X120670958Y-66215178D01*
X120691170Y-66207946D01*
X120711994Y-66202730D01*
X120733229Y-66199580D01*
X120754670Y-66198527D01*
X120776111Y-66199580D01*
X120776111Y-66199580D01*
G37*
D12*
X120728153Y-66753153D03*
D11*
G36*
X121889805Y-67313274D02*
G01*
X121911040Y-67316424D01*
X121931864Y-67321640D01*
X121952076Y-67328872D01*
X121971482Y-67338051D01*
X121989895Y-67349087D01*
X122007138Y-67361875D01*
X122023044Y-67376291D01*
X122332403Y-67685650D01*
X122346819Y-67701556D01*
X122359607Y-67718799D01*
X122370643Y-67737212D01*
X122379822Y-67756618D01*
X122387054Y-67776830D01*
X122392270Y-67797654D01*
X122395420Y-67818889D01*
X122396473Y-67840330D01*
X122395420Y-67861771D01*
X122392270Y-67883006D01*
X122387054Y-67903830D01*
X122379822Y-67924042D01*
X122370643Y-67943448D01*
X122359607Y-67961861D01*
X122346819Y-67979104D01*
X122332403Y-67995010D01*
X121970010Y-68357403D01*
X121954104Y-68371819D01*
X121936861Y-68384607D01*
X121918448Y-68395643D01*
X121899042Y-68404822D01*
X121878830Y-68412054D01*
X121858006Y-68417270D01*
X121836771Y-68420420D01*
X121815330Y-68421473D01*
X121793889Y-68420420D01*
X121772654Y-68417270D01*
X121751830Y-68412054D01*
X121731618Y-68404822D01*
X121712212Y-68395643D01*
X121693799Y-68384607D01*
X121676556Y-68371819D01*
X121660650Y-68357403D01*
X121351291Y-68048044D01*
X121336875Y-68032138D01*
X121324087Y-68014895D01*
X121313051Y-67996482D01*
X121303872Y-67977076D01*
X121296640Y-67956864D01*
X121291424Y-67936040D01*
X121288274Y-67914805D01*
X121287221Y-67893364D01*
X121288274Y-67871923D01*
X121291424Y-67850688D01*
X121296640Y-67829864D01*
X121303872Y-67809652D01*
X121313051Y-67790246D01*
X121324087Y-67771833D01*
X121336875Y-67754590D01*
X121351291Y-67738684D01*
X121713684Y-67376291D01*
X121729590Y-67361875D01*
X121746833Y-67349087D01*
X121765246Y-67338051D01*
X121784652Y-67328872D01*
X121804864Y-67321640D01*
X121825688Y-67316424D01*
X121846923Y-67313274D01*
X121868364Y-67312221D01*
X121889805Y-67313274D01*
X121889805Y-67313274D01*
G37*
D12*
X121841847Y-67866847D03*
D11*
G36*
X151205191Y-122081053D02*
G01*
X151226426Y-122084203D01*
X151247250Y-122089419D01*
X151267462Y-122096651D01*
X151286868Y-122105830D01*
X151305281Y-122116866D01*
X151322524Y-122129654D01*
X151338430Y-122144070D01*
X151352846Y-122159976D01*
X151365634Y-122177219D01*
X151376670Y-122195632D01*
X151385849Y-122215038D01*
X151393081Y-122235250D01*
X151398297Y-122256074D01*
X151401447Y-122277309D01*
X151402500Y-122298750D01*
X151402500Y-122811250D01*
X151401447Y-122832691D01*
X151398297Y-122853926D01*
X151393081Y-122874750D01*
X151385849Y-122894962D01*
X151376670Y-122914368D01*
X151365634Y-122932781D01*
X151352846Y-122950024D01*
X151338430Y-122965930D01*
X151322524Y-122980346D01*
X151305281Y-122993134D01*
X151286868Y-123004170D01*
X151267462Y-123013349D01*
X151247250Y-123020581D01*
X151226426Y-123025797D01*
X151205191Y-123028947D01*
X151183750Y-123030000D01*
X150746250Y-123030000D01*
X150724809Y-123028947D01*
X150703574Y-123025797D01*
X150682750Y-123020581D01*
X150662538Y-123013349D01*
X150643132Y-123004170D01*
X150624719Y-122993134D01*
X150607476Y-122980346D01*
X150591570Y-122965930D01*
X150577154Y-122950024D01*
X150564366Y-122932781D01*
X150553330Y-122914368D01*
X150544151Y-122894962D01*
X150536919Y-122874750D01*
X150531703Y-122853926D01*
X150528553Y-122832691D01*
X150527500Y-122811250D01*
X150527500Y-122298750D01*
X150528553Y-122277309D01*
X150531703Y-122256074D01*
X150536919Y-122235250D01*
X150544151Y-122215038D01*
X150553330Y-122195632D01*
X150564366Y-122177219D01*
X150577154Y-122159976D01*
X150591570Y-122144070D01*
X150607476Y-122129654D01*
X150624719Y-122116866D01*
X150643132Y-122105830D01*
X150662538Y-122096651D01*
X150682750Y-122089419D01*
X150703574Y-122084203D01*
X150724809Y-122081053D01*
X150746250Y-122080000D01*
X151183750Y-122080000D01*
X151205191Y-122081053D01*
X151205191Y-122081053D01*
G37*
D12*
X150965000Y-122555000D03*
D11*
G36*
X149630191Y-122081053D02*
G01*
X149651426Y-122084203D01*
X149672250Y-122089419D01*
X149692462Y-122096651D01*
X149711868Y-122105830D01*
X149730281Y-122116866D01*
X149747524Y-122129654D01*
X149763430Y-122144070D01*
X149777846Y-122159976D01*
X149790634Y-122177219D01*
X149801670Y-122195632D01*
X149810849Y-122215038D01*
X149818081Y-122235250D01*
X149823297Y-122256074D01*
X149826447Y-122277309D01*
X149827500Y-122298750D01*
X149827500Y-122811250D01*
X149826447Y-122832691D01*
X149823297Y-122853926D01*
X149818081Y-122874750D01*
X149810849Y-122894962D01*
X149801670Y-122914368D01*
X149790634Y-122932781D01*
X149777846Y-122950024D01*
X149763430Y-122965930D01*
X149747524Y-122980346D01*
X149730281Y-122993134D01*
X149711868Y-123004170D01*
X149692462Y-123013349D01*
X149672250Y-123020581D01*
X149651426Y-123025797D01*
X149630191Y-123028947D01*
X149608750Y-123030000D01*
X149171250Y-123030000D01*
X149149809Y-123028947D01*
X149128574Y-123025797D01*
X149107750Y-123020581D01*
X149087538Y-123013349D01*
X149068132Y-123004170D01*
X149049719Y-122993134D01*
X149032476Y-122980346D01*
X149016570Y-122965930D01*
X149002154Y-122950024D01*
X148989366Y-122932781D01*
X148978330Y-122914368D01*
X148969151Y-122894962D01*
X148961919Y-122874750D01*
X148956703Y-122853926D01*
X148953553Y-122832691D01*
X148952500Y-122811250D01*
X148952500Y-122298750D01*
X148953553Y-122277309D01*
X148956703Y-122256074D01*
X148961919Y-122235250D01*
X148969151Y-122215038D01*
X148978330Y-122195632D01*
X148989366Y-122177219D01*
X149002154Y-122159976D01*
X149016570Y-122144070D01*
X149032476Y-122129654D01*
X149049719Y-122116866D01*
X149068132Y-122105830D01*
X149087538Y-122096651D01*
X149107750Y-122089419D01*
X149128574Y-122084203D01*
X149149809Y-122081053D01*
X149171250Y-122080000D01*
X149608750Y-122080000D01*
X149630191Y-122081053D01*
X149630191Y-122081053D01*
G37*
D12*
X149390000Y-122555000D03*
D11*
G36*
X97242691Y-72233553D02*
G01*
X97263926Y-72236703D01*
X97284750Y-72241919D01*
X97304962Y-72249151D01*
X97324368Y-72258330D01*
X97342781Y-72269366D01*
X97360024Y-72282154D01*
X97375930Y-72296570D01*
X97390346Y-72312476D01*
X97403134Y-72329719D01*
X97414170Y-72348132D01*
X97423349Y-72367538D01*
X97430581Y-72387750D01*
X97435797Y-72408574D01*
X97438947Y-72429809D01*
X97440000Y-72451250D01*
X97440000Y-72963750D01*
X97438947Y-72985191D01*
X97435797Y-73006426D01*
X97430581Y-73027250D01*
X97423349Y-73047462D01*
X97414170Y-73066868D01*
X97403134Y-73085281D01*
X97390346Y-73102524D01*
X97375930Y-73118430D01*
X97360024Y-73132846D01*
X97342781Y-73145634D01*
X97324368Y-73156670D01*
X97304962Y-73165849D01*
X97284750Y-73173081D01*
X97263926Y-73178297D01*
X97242691Y-73181447D01*
X97221250Y-73182500D01*
X96783750Y-73182500D01*
X96762309Y-73181447D01*
X96741074Y-73178297D01*
X96720250Y-73173081D01*
X96700038Y-73165849D01*
X96680632Y-73156670D01*
X96662219Y-73145634D01*
X96644976Y-73132846D01*
X96629070Y-73118430D01*
X96614654Y-73102524D01*
X96601866Y-73085281D01*
X96590830Y-73066868D01*
X96581651Y-73047462D01*
X96574419Y-73027250D01*
X96569203Y-73006426D01*
X96566053Y-72985191D01*
X96565000Y-72963750D01*
X96565000Y-72451250D01*
X96566053Y-72429809D01*
X96569203Y-72408574D01*
X96574419Y-72387750D01*
X96581651Y-72367538D01*
X96590830Y-72348132D01*
X96601866Y-72329719D01*
X96614654Y-72312476D01*
X96629070Y-72296570D01*
X96644976Y-72282154D01*
X96662219Y-72269366D01*
X96680632Y-72258330D01*
X96700038Y-72249151D01*
X96720250Y-72241919D01*
X96741074Y-72236703D01*
X96762309Y-72233553D01*
X96783750Y-72232500D01*
X97221250Y-72232500D01*
X97242691Y-72233553D01*
X97242691Y-72233553D01*
G37*
D12*
X97002500Y-72707500D03*
D11*
G36*
X98817691Y-72233553D02*
G01*
X98838926Y-72236703D01*
X98859750Y-72241919D01*
X98879962Y-72249151D01*
X98899368Y-72258330D01*
X98917781Y-72269366D01*
X98935024Y-72282154D01*
X98950930Y-72296570D01*
X98965346Y-72312476D01*
X98978134Y-72329719D01*
X98989170Y-72348132D01*
X98998349Y-72367538D01*
X99005581Y-72387750D01*
X99010797Y-72408574D01*
X99013947Y-72429809D01*
X99015000Y-72451250D01*
X99015000Y-72963750D01*
X99013947Y-72985191D01*
X99010797Y-73006426D01*
X99005581Y-73027250D01*
X98998349Y-73047462D01*
X98989170Y-73066868D01*
X98978134Y-73085281D01*
X98965346Y-73102524D01*
X98950930Y-73118430D01*
X98935024Y-73132846D01*
X98917781Y-73145634D01*
X98899368Y-73156670D01*
X98879962Y-73165849D01*
X98859750Y-73173081D01*
X98838926Y-73178297D01*
X98817691Y-73181447D01*
X98796250Y-73182500D01*
X98358750Y-73182500D01*
X98337309Y-73181447D01*
X98316074Y-73178297D01*
X98295250Y-73173081D01*
X98275038Y-73165849D01*
X98255632Y-73156670D01*
X98237219Y-73145634D01*
X98219976Y-73132846D01*
X98204070Y-73118430D01*
X98189654Y-73102524D01*
X98176866Y-73085281D01*
X98165830Y-73066868D01*
X98156651Y-73047462D01*
X98149419Y-73027250D01*
X98144203Y-73006426D01*
X98141053Y-72985191D01*
X98140000Y-72963750D01*
X98140000Y-72451250D01*
X98141053Y-72429809D01*
X98144203Y-72408574D01*
X98149419Y-72387750D01*
X98156651Y-72367538D01*
X98165830Y-72348132D01*
X98176866Y-72329719D01*
X98189654Y-72312476D01*
X98204070Y-72296570D01*
X98219976Y-72282154D01*
X98237219Y-72269366D01*
X98255632Y-72258330D01*
X98275038Y-72249151D01*
X98295250Y-72241919D01*
X98316074Y-72236703D01*
X98337309Y-72233553D01*
X98358750Y-72232500D01*
X98796250Y-72232500D01*
X98817691Y-72233553D01*
X98817691Y-72233553D01*
G37*
D12*
X98577500Y-72707500D03*
D11*
G36*
X133107691Y-122081053D02*
G01*
X133128926Y-122084203D01*
X133149750Y-122089419D01*
X133169962Y-122096651D01*
X133189368Y-122105830D01*
X133207781Y-122116866D01*
X133225024Y-122129654D01*
X133240930Y-122144070D01*
X133255346Y-122159976D01*
X133268134Y-122177219D01*
X133279170Y-122195632D01*
X133288349Y-122215038D01*
X133295581Y-122235250D01*
X133300797Y-122256074D01*
X133303947Y-122277309D01*
X133305000Y-122298750D01*
X133305000Y-122811250D01*
X133303947Y-122832691D01*
X133300797Y-122853926D01*
X133295581Y-122874750D01*
X133288349Y-122894962D01*
X133279170Y-122914368D01*
X133268134Y-122932781D01*
X133255346Y-122950024D01*
X133240930Y-122965930D01*
X133225024Y-122980346D01*
X133207781Y-122993134D01*
X133189368Y-123004170D01*
X133169962Y-123013349D01*
X133149750Y-123020581D01*
X133128926Y-123025797D01*
X133107691Y-123028947D01*
X133086250Y-123030000D01*
X132648750Y-123030000D01*
X132627309Y-123028947D01*
X132606074Y-123025797D01*
X132585250Y-123020581D01*
X132565038Y-123013349D01*
X132545632Y-123004170D01*
X132527219Y-122993134D01*
X132509976Y-122980346D01*
X132494070Y-122965930D01*
X132479654Y-122950024D01*
X132466866Y-122932781D01*
X132455830Y-122914368D01*
X132446651Y-122894962D01*
X132439419Y-122874750D01*
X132434203Y-122853926D01*
X132431053Y-122832691D01*
X132430000Y-122811250D01*
X132430000Y-122298750D01*
X132431053Y-122277309D01*
X132434203Y-122256074D01*
X132439419Y-122235250D01*
X132446651Y-122215038D01*
X132455830Y-122195632D01*
X132466866Y-122177219D01*
X132479654Y-122159976D01*
X132494070Y-122144070D01*
X132509976Y-122129654D01*
X132527219Y-122116866D01*
X132545632Y-122105830D01*
X132565038Y-122096651D01*
X132585250Y-122089419D01*
X132606074Y-122084203D01*
X132627309Y-122081053D01*
X132648750Y-122080000D01*
X133086250Y-122080000D01*
X133107691Y-122081053D01*
X133107691Y-122081053D01*
G37*
D12*
X132867500Y-122555000D03*
D11*
G36*
X131532691Y-122081053D02*
G01*
X131553926Y-122084203D01*
X131574750Y-122089419D01*
X131594962Y-122096651D01*
X131614368Y-122105830D01*
X131632781Y-122116866D01*
X131650024Y-122129654D01*
X131665930Y-122144070D01*
X131680346Y-122159976D01*
X131693134Y-122177219D01*
X131704170Y-122195632D01*
X131713349Y-122215038D01*
X131720581Y-122235250D01*
X131725797Y-122256074D01*
X131728947Y-122277309D01*
X131730000Y-122298750D01*
X131730000Y-122811250D01*
X131728947Y-122832691D01*
X131725797Y-122853926D01*
X131720581Y-122874750D01*
X131713349Y-122894962D01*
X131704170Y-122914368D01*
X131693134Y-122932781D01*
X131680346Y-122950024D01*
X131665930Y-122965930D01*
X131650024Y-122980346D01*
X131632781Y-122993134D01*
X131614368Y-123004170D01*
X131594962Y-123013349D01*
X131574750Y-123020581D01*
X131553926Y-123025797D01*
X131532691Y-123028947D01*
X131511250Y-123030000D01*
X131073750Y-123030000D01*
X131052309Y-123028947D01*
X131031074Y-123025797D01*
X131010250Y-123020581D01*
X130990038Y-123013349D01*
X130970632Y-123004170D01*
X130952219Y-122993134D01*
X130934976Y-122980346D01*
X130919070Y-122965930D01*
X130904654Y-122950024D01*
X130891866Y-122932781D01*
X130880830Y-122914368D01*
X130871651Y-122894962D01*
X130864419Y-122874750D01*
X130859203Y-122853926D01*
X130856053Y-122832691D01*
X130855000Y-122811250D01*
X130855000Y-122298750D01*
X130856053Y-122277309D01*
X130859203Y-122256074D01*
X130864419Y-122235250D01*
X130871651Y-122215038D01*
X130880830Y-122195632D01*
X130891866Y-122177219D01*
X130904654Y-122159976D01*
X130919070Y-122144070D01*
X130934976Y-122129654D01*
X130952219Y-122116866D01*
X130970632Y-122105830D01*
X130990038Y-122096651D01*
X131010250Y-122089419D01*
X131031074Y-122084203D01*
X131052309Y-122081053D01*
X131073750Y-122080000D01*
X131511250Y-122080000D01*
X131532691Y-122081053D01*
X131532691Y-122081053D01*
G37*
D12*
X131292500Y-122555000D03*
D11*
G36*
X114692691Y-122081053D02*
G01*
X114713926Y-122084203D01*
X114734750Y-122089419D01*
X114754962Y-122096651D01*
X114774368Y-122105830D01*
X114792781Y-122116866D01*
X114810024Y-122129654D01*
X114825930Y-122144070D01*
X114840346Y-122159976D01*
X114853134Y-122177219D01*
X114864170Y-122195632D01*
X114873349Y-122215038D01*
X114880581Y-122235250D01*
X114885797Y-122256074D01*
X114888947Y-122277309D01*
X114890000Y-122298750D01*
X114890000Y-122811250D01*
X114888947Y-122832691D01*
X114885797Y-122853926D01*
X114880581Y-122874750D01*
X114873349Y-122894962D01*
X114864170Y-122914368D01*
X114853134Y-122932781D01*
X114840346Y-122950024D01*
X114825930Y-122965930D01*
X114810024Y-122980346D01*
X114792781Y-122993134D01*
X114774368Y-123004170D01*
X114754962Y-123013349D01*
X114734750Y-123020581D01*
X114713926Y-123025797D01*
X114692691Y-123028947D01*
X114671250Y-123030000D01*
X114233750Y-123030000D01*
X114212309Y-123028947D01*
X114191074Y-123025797D01*
X114170250Y-123020581D01*
X114150038Y-123013349D01*
X114130632Y-123004170D01*
X114112219Y-122993134D01*
X114094976Y-122980346D01*
X114079070Y-122965930D01*
X114064654Y-122950024D01*
X114051866Y-122932781D01*
X114040830Y-122914368D01*
X114031651Y-122894962D01*
X114024419Y-122874750D01*
X114019203Y-122853926D01*
X114016053Y-122832691D01*
X114015000Y-122811250D01*
X114015000Y-122298750D01*
X114016053Y-122277309D01*
X114019203Y-122256074D01*
X114024419Y-122235250D01*
X114031651Y-122215038D01*
X114040830Y-122195632D01*
X114051866Y-122177219D01*
X114064654Y-122159976D01*
X114079070Y-122144070D01*
X114094976Y-122129654D01*
X114112219Y-122116866D01*
X114130632Y-122105830D01*
X114150038Y-122096651D01*
X114170250Y-122089419D01*
X114191074Y-122084203D01*
X114212309Y-122081053D01*
X114233750Y-122080000D01*
X114671250Y-122080000D01*
X114692691Y-122081053D01*
X114692691Y-122081053D01*
G37*
D12*
X114452500Y-122555000D03*
D11*
G36*
X113117691Y-122081053D02*
G01*
X113138926Y-122084203D01*
X113159750Y-122089419D01*
X113179962Y-122096651D01*
X113199368Y-122105830D01*
X113217781Y-122116866D01*
X113235024Y-122129654D01*
X113250930Y-122144070D01*
X113265346Y-122159976D01*
X113278134Y-122177219D01*
X113289170Y-122195632D01*
X113298349Y-122215038D01*
X113305581Y-122235250D01*
X113310797Y-122256074D01*
X113313947Y-122277309D01*
X113315000Y-122298750D01*
X113315000Y-122811250D01*
X113313947Y-122832691D01*
X113310797Y-122853926D01*
X113305581Y-122874750D01*
X113298349Y-122894962D01*
X113289170Y-122914368D01*
X113278134Y-122932781D01*
X113265346Y-122950024D01*
X113250930Y-122965930D01*
X113235024Y-122980346D01*
X113217781Y-122993134D01*
X113199368Y-123004170D01*
X113179962Y-123013349D01*
X113159750Y-123020581D01*
X113138926Y-123025797D01*
X113117691Y-123028947D01*
X113096250Y-123030000D01*
X112658750Y-123030000D01*
X112637309Y-123028947D01*
X112616074Y-123025797D01*
X112595250Y-123020581D01*
X112575038Y-123013349D01*
X112555632Y-123004170D01*
X112537219Y-122993134D01*
X112519976Y-122980346D01*
X112504070Y-122965930D01*
X112489654Y-122950024D01*
X112476866Y-122932781D01*
X112465830Y-122914368D01*
X112456651Y-122894962D01*
X112449419Y-122874750D01*
X112444203Y-122853926D01*
X112441053Y-122832691D01*
X112440000Y-122811250D01*
X112440000Y-122298750D01*
X112441053Y-122277309D01*
X112444203Y-122256074D01*
X112449419Y-122235250D01*
X112456651Y-122215038D01*
X112465830Y-122195632D01*
X112476866Y-122177219D01*
X112489654Y-122159976D01*
X112504070Y-122144070D01*
X112519976Y-122129654D01*
X112537219Y-122116866D01*
X112555632Y-122105830D01*
X112575038Y-122096651D01*
X112595250Y-122089419D01*
X112616074Y-122084203D01*
X112637309Y-122081053D01*
X112658750Y-122080000D01*
X113096250Y-122080000D01*
X113117691Y-122081053D01*
X113117691Y-122081053D01*
G37*
D12*
X112877500Y-122555000D03*
D11*
G36*
X119770577Y-100968274D02*
G01*
X119791812Y-100971424D01*
X119812636Y-100976640D01*
X119832848Y-100983872D01*
X119852254Y-100993051D01*
X119870667Y-101004087D01*
X119887910Y-101016875D01*
X119903816Y-101031291D01*
X120266209Y-101393684D01*
X120280625Y-101409590D01*
X120293413Y-101426833D01*
X120304449Y-101445246D01*
X120313628Y-101464652D01*
X120320860Y-101484864D01*
X120326076Y-101505688D01*
X120329226Y-101526923D01*
X120330279Y-101548364D01*
X120329226Y-101569805D01*
X120326076Y-101591040D01*
X120320860Y-101611864D01*
X120313628Y-101632076D01*
X120304449Y-101651482D01*
X120293413Y-101669895D01*
X120280625Y-101687138D01*
X120266209Y-101703044D01*
X119956850Y-102012403D01*
X119940944Y-102026819D01*
X119923701Y-102039607D01*
X119905288Y-102050643D01*
X119885882Y-102059822D01*
X119865670Y-102067054D01*
X119844846Y-102072270D01*
X119823611Y-102075420D01*
X119802170Y-102076473D01*
X119780729Y-102075420D01*
X119759494Y-102072270D01*
X119738670Y-102067054D01*
X119718458Y-102059822D01*
X119699052Y-102050643D01*
X119680639Y-102039607D01*
X119663396Y-102026819D01*
X119647490Y-102012403D01*
X119285097Y-101650010D01*
X119270681Y-101634104D01*
X119257893Y-101616861D01*
X119246857Y-101598448D01*
X119237678Y-101579042D01*
X119230446Y-101558830D01*
X119225230Y-101538006D01*
X119222080Y-101516771D01*
X119221027Y-101495330D01*
X119222080Y-101473889D01*
X119225230Y-101452654D01*
X119230446Y-101431830D01*
X119237678Y-101411618D01*
X119246857Y-101392212D01*
X119257893Y-101373799D01*
X119270681Y-101356556D01*
X119285097Y-101340650D01*
X119594456Y-101031291D01*
X119610362Y-101016875D01*
X119627605Y-101004087D01*
X119646018Y-100993051D01*
X119665424Y-100983872D01*
X119685636Y-100976640D01*
X119706460Y-100971424D01*
X119727695Y-100968274D01*
X119749136Y-100967221D01*
X119770577Y-100968274D01*
X119770577Y-100968274D01*
G37*
D12*
X119775653Y-101521847D03*
D11*
G36*
X120884271Y-99854580D02*
G01*
X120905506Y-99857730D01*
X120926330Y-99862946D01*
X120946542Y-99870178D01*
X120965948Y-99879357D01*
X120984361Y-99890393D01*
X121001604Y-99903181D01*
X121017510Y-99917597D01*
X121379903Y-100279990D01*
X121394319Y-100295896D01*
X121407107Y-100313139D01*
X121418143Y-100331552D01*
X121427322Y-100350958D01*
X121434554Y-100371170D01*
X121439770Y-100391994D01*
X121442920Y-100413229D01*
X121443973Y-100434670D01*
X121442920Y-100456111D01*
X121439770Y-100477346D01*
X121434554Y-100498170D01*
X121427322Y-100518382D01*
X121418143Y-100537788D01*
X121407107Y-100556201D01*
X121394319Y-100573444D01*
X121379903Y-100589350D01*
X121070544Y-100898709D01*
X121054638Y-100913125D01*
X121037395Y-100925913D01*
X121018982Y-100936949D01*
X120999576Y-100946128D01*
X120979364Y-100953360D01*
X120958540Y-100958576D01*
X120937305Y-100961726D01*
X120915864Y-100962779D01*
X120894423Y-100961726D01*
X120873188Y-100958576D01*
X120852364Y-100953360D01*
X120832152Y-100946128D01*
X120812746Y-100936949D01*
X120794333Y-100925913D01*
X120777090Y-100913125D01*
X120761184Y-100898709D01*
X120398791Y-100536316D01*
X120384375Y-100520410D01*
X120371587Y-100503167D01*
X120360551Y-100484754D01*
X120351372Y-100465348D01*
X120344140Y-100445136D01*
X120338924Y-100424312D01*
X120335774Y-100403077D01*
X120334721Y-100381636D01*
X120335774Y-100360195D01*
X120338924Y-100338960D01*
X120344140Y-100318136D01*
X120351372Y-100297924D01*
X120360551Y-100278518D01*
X120371587Y-100260105D01*
X120384375Y-100242862D01*
X120398791Y-100226956D01*
X120708150Y-99917597D01*
X120724056Y-99903181D01*
X120741299Y-99890393D01*
X120759712Y-99879357D01*
X120779118Y-99870178D01*
X120799330Y-99862946D01*
X120820154Y-99857730D01*
X120841389Y-99854580D01*
X120862830Y-99853527D01*
X120884271Y-99854580D01*
X120884271Y-99854580D01*
G37*
D12*
X120889347Y-100408153D03*
D11*
G36*
X135328077Y-85410774D02*
G01*
X135349312Y-85413924D01*
X135370136Y-85419140D01*
X135390348Y-85426372D01*
X135409754Y-85435551D01*
X135428167Y-85446587D01*
X135445410Y-85459375D01*
X135461316Y-85473791D01*
X135823709Y-85836184D01*
X135838125Y-85852090D01*
X135850913Y-85869333D01*
X135861949Y-85887746D01*
X135871128Y-85907152D01*
X135878360Y-85927364D01*
X135883576Y-85948188D01*
X135886726Y-85969423D01*
X135887779Y-85990864D01*
X135886726Y-86012305D01*
X135883576Y-86033540D01*
X135878360Y-86054364D01*
X135871128Y-86074576D01*
X135861949Y-86093982D01*
X135850913Y-86112395D01*
X135838125Y-86129638D01*
X135823709Y-86145544D01*
X135514350Y-86454903D01*
X135498444Y-86469319D01*
X135481201Y-86482107D01*
X135462788Y-86493143D01*
X135443382Y-86502322D01*
X135423170Y-86509554D01*
X135402346Y-86514770D01*
X135381111Y-86517920D01*
X135359670Y-86518973D01*
X135338229Y-86517920D01*
X135316994Y-86514770D01*
X135296170Y-86509554D01*
X135275958Y-86502322D01*
X135256552Y-86493143D01*
X135238139Y-86482107D01*
X135220896Y-86469319D01*
X135204990Y-86454903D01*
X134842597Y-86092510D01*
X134828181Y-86076604D01*
X134815393Y-86059361D01*
X134804357Y-86040948D01*
X134795178Y-86021542D01*
X134787946Y-86001330D01*
X134782730Y-85980506D01*
X134779580Y-85959271D01*
X134778527Y-85937830D01*
X134779580Y-85916389D01*
X134782730Y-85895154D01*
X134787946Y-85874330D01*
X134795178Y-85854118D01*
X134804357Y-85834712D01*
X134815393Y-85816299D01*
X134828181Y-85799056D01*
X134842597Y-85783150D01*
X135151956Y-85473791D01*
X135167862Y-85459375D01*
X135185105Y-85446587D01*
X135203518Y-85435551D01*
X135222924Y-85426372D01*
X135243136Y-85419140D01*
X135263960Y-85413924D01*
X135285195Y-85410774D01*
X135306636Y-85409721D01*
X135328077Y-85410774D01*
X135328077Y-85410774D01*
G37*
D12*
X135333153Y-85964347D03*
D11*
G36*
X136441771Y-84297080D02*
G01*
X136463006Y-84300230D01*
X136483830Y-84305446D01*
X136504042Y-84312678D01*
X136523448Y-84321857D01*
X136541861Y-84332893D01*
X136559104Y-84345681D01*
X136575010Y-84360097D01*
X136937403Y-84722490D01*
X136951819Y-84738396D01*
X136964607Y-84755639D01*
X136975643Y-84774052D01*
X136984822Y-84793458D01*
X136992054Y-84813670D01*
X136997270Y-84834494D01*
X137000420Y-84855729D01*
X137001473Y-84877170D01*
X137000420Y-84898611D01*
X136997270Y-84919846D01*
X136992054Y-84940670D01*
X136984822Y-84960882D01*
X136975643Y-84980288D01*
X136964607Y-84998701D01*
X136951819Y-85015944D01*
X136937403Y-85031850D01*
X136628044Y-85341209D01*
X136612138Y-85355625D01*
X136594895Y-85368413D01*
X136576482Y-85379449D01*
X136557076Y-85388628D01*
X136536864Y-85395860D01*
X136516040Y-85401076D01*
X136494805Y-85404226D01*
X136473364Y-85405279D01*
X136451923Y-85404226D01*
X136430688Y-85401076D01*
X136409864Y-85395860D01*
X136389652Y-85388628D01*
X136370246Y-85379449D01*
X136351833Y-85368413D01*
X136334590Y-85355625D01*
X136318684Y-85341209D01*
X135956291Y-84978816D01*
X135941875Y-84962910D01*
X135929087Y-84945667D01*
X135918051Y-84927254D01*
X135908872Y-84907848D01*
X135901640Y-84887636D01*
X135896424Y-84866812D01*
X135893274Y-84845577D01*
X135892221Y-84824136D01*
X135893274Y-84802695D01*
X135896424Y-84781460D01*
X135901640Y-84760636D01*
X135908872Y-84740424D01*
X135918051Y-84721018D01*
X135929087Y-84702605D01*
X135941875Y-84685362D01*
X135956291Y-84669456D01*
X136265650Y-84360097D01*
X136281556Y-84345681D01*
X136298799Y-84332893D01*
X136317212Y-84321857D01*
X136336618Y-84312678D01*
X136356830Y-84305446D01*
X136377654Y-84300230D01*
X136398889Y-84297080D01*
X136420330Y-84296027D01*
X136441771Y-84297080D01*
X136441771Y-84297080D01*
G37*
D12*
X136446847Y-84850653D03*
D11*
G36*
X149933077Y-70805774D02*
G01*
X149954312Y-70808924D01*
X149975136Y-70814140D01*
X149995348Y-70821372D01*
X150014754Y-70830551D01*
X150033167Y-70841587D01*
X150050410Y-70854375D01*
X150066316Y-70868791D01*
X150428709Y-71231184D01*
X150443125Y-71247090D01*
X150455913Y-71264333D01*
X150466949Y-71282746D01*
X150476128Y-71302152D01*
X150483360Y-71322364D01*
X150488576Y-71343188D01*
X150491726Y-71364423D01*
X150492779Y-71385864D01*
X150491726Y-71407305D01*
X150488576Y-71428540D01*
X150483360Y-71449364D01*
X150476128Y-71469576D01*
X150466949Y-71488982D01*
X150455913Y-71507395D01*
X150443125Y-71524638D01*
X150428709Y-71540544D01*
X150119350Y-71849903D01*
X150103444Y-71864319D01*
X150086201Y-71877107D01*
X150067788Y-71888143D01*
X150048382Y-71897322D01*
X150028170Y-71904554D01*
X150007346Y-71909770D01*
X149986111Y-71912920D01*
X149964670Y-71913973D01*
X149943229Y-71912920D01*
X149921994Y-71909770D01*
X149901170Y-71904554D01*
X149880958Y-71897322D01*
X149861552Y-71888143D01*
X149843139Y-71877107D01*
X149825896Y-71864319D01*
X149809990Y-71849903D01*
X149447597Y-71487510D01*
X149433181Y-71471604D01*
X149420393Y-71454361D01*
X149409357Y-71435948D01*
X149400178Y-71416542D01*
X149392946Y-71396330D01*
X149387730Y-71375506D01*
X149384580Y-71354271D01*
X149383527Y-71332830D01*
X149384580Y-71311389D01*
X149387730Y-71290154D01*
X149392946Y-71269330D01*
X149400178Y-71249118D01*
X149409357Y-71229712D01*
X149420393Y-71211299D01*
X149433181Y-71194056D01*
X149447597Y-71178150D01*
X149756956Y-70868791D01*
X149772862Y-70854375D01*
X149790105Y-70841587D01*
X149808518Y-70830551D01*
X149827924Y-70821372D01*
X149848136Y-70814140D01*
X149868960Y-70808924D01*
X149890195Y-70805774D01*
X149911636Y-70804721D01*
X149933077Y-70805774D01*
X149933077Y-70805774D01*
G37*
D12*
X149938153Y-71359347D03*
D11*
G36*
X151046771Y-69692080D02*
G01*
X151068006Y-69695230D01*
X151088830Y-69700446D01*
X151109042Y-69707678D01*
X151128448Y-69716857D01*
X151146861Y-69727893D01*
X151164104Y-69740681D01*
X151180010Y-69755097D01*
X151542403Y-70117490D01*
X151556819Y-70133396D01*
X151569607Y-70150639D01*
X151580643Y-70169052D01*
X151589822Y-70188458D01*
X151597054Y-70208670D01*
X151602270Y-70229494D01*
X151605420Y-70250729D01*
X151606473Y-70272170D01*
X151605420Y-70293611D01*
X151602270Y-70314846D01*
X151597054Y-70335670D01*
X151589822Y-70355882D01*
X151580643Y-70375288D01*
X151569607Y-70393701D01*
X151556819Y-70410944D01*
X151542403Y-70426850D01*
X151233044Y-70736209D01*
X151217138Y-70750625D01*
X151199895Y-70763413D01*
X151181482Y-70774449D01*
X151162076Y-70783628D01*
X151141864Y-70790860D01*
X151121040Y-70796076D01*
X151099805Y-70799226D01*
X151078364Y-70800279D01*
X151056923Y-70799226D01*
X151035688Y-70796076D01*
X151014864Y-70790860D01*
X150994652Y-70783628D01*
X150975246Y-70774449D01*
X150956833Y-70763413D01*
X150939590Y-70750625D01*
X150923684Y-70736209D01*
X150561291Y-70373816D01*
X150546875Y-70357910D01*
X150534087Y-70340667D01*
X150523051Y-70322254D01*
X150513872Y-70302848D01*
X150506640Y-70282636D01*
X150501424Y-70261812D01*
X150498274Y-70240577D01*
X150497221Y-70219136D01*
X150498274Y-70197695D01*
X150501424Y-70176460D01*
X150506640Y-70155636D01*
X150513872Y-70135424D01*
X150523051Y-70116018D01*
X150534087Y-70097605D01*
X150546875Y-70080362D01*
X150561291Y-70064456D01*
X150870650Y-69755097D01*
X150886556Y-69740681D01*
X150903799Y-69727893D01*
X150922212Y-69716857D01*
X150941618Y-69707678D01*
X150961830Y-69700446D01*
X150982654Y-69695230D01*
X151003889Y-69692080D01*
X151025330Y-69691027D01*
X151046771Y-69692080D01*
X151046771Y-69692080D01*
G37*
D12*
X151051847Y-70245653D03*
D11*
G36*
X167917691Y-75611053D02*
G01*
X167938926Y-75614203D01*
X167959750Y-75619419D01*
X167979962Y-75626651D01*
X167999368Y-75635830D01*
X168017781Y-75646866D01*
X168035024Y-75659654D01*
X168050930Y-75674070D01*
X168065346Y-75689976D01*
X168078134Y-75707219D01*
X168089170Y-75725632D01*
X168098349Y-75745038D01*
X168105581Y-75765250D01*
X168110797Y-75786074D01*
X168113947Y-75807309D01*
X168115000Y-75828750D01*
X168115000Y-76266250D01*
X168113947Y-76287691D01*
X168110797Y-76308926D01*
X168105581Y-76329750D01*
X168098349Y-76349962D01*
X168089170Y-76369368D01*
X168078134Y-76387781D01*
X168065346Y-76405024D01*
X168050930Y-76420930D01*
X168035024Y-76435346D01*
X168017781Y-76448134D01*
X167999368Y-76459170D01*
X167979962Y-76468349D01*
X167959750Y-76475581D01*
X167938926Y-76480797D01*
X167917691Y-76483947D01*
X167896250Y-76485000D01*
X167383750Y-76485000D01*
X167362309Y-76483947D01*
X167341074Y-76480797D01*
X167320250Y-76475581D01*
X167300038Y-76468349D01*
X167280632Y-76459170D01*
X167262219Y-76448134D01*
X167244976Y-76435346D01*
X167229070Y-76420930D01*
X167214654Y-76405024D01*
X167201866Y-76387781D01*
X167190830Y-76369368D01*
X167181651Y-76349962D01*
X167174419Y-76329750D01*
X167169203Y-76308926D01*
X167166053Y-76287691D01*
X167165000Y-76266250D01*
X167165000Y-75828750D01*
X167166053Y-75807309D01*
X167169203Y-75786074D01*
X167174419Y-75765250D01*
X167181651Y-75745038D01*
X167190830Y-75725632D01*
X167201866Y-75707219D01*
X167214654Y-75689976D01*
X167229070Y-75674070D01*
X167244976Y-75659654D01*
X167262219Y-75646866D01*
X167280632Y-75635830D01*
X167300038Y-75626651D01*
X167320250Y-75619419D01*
X167341074Y-75614203D01*
X167362309Y-75611053D01*
X167383750Y-75610000D01*
X167896250Y-75610000D01*
X167917691Y-75611053D01*
X167917691Y-75611053D01*
G37*
D12*
X167640000Y-76047500D03*
D11*
G36*
X167917691Y-77186053D02*
G01*
X167938926Y-77189203D01*
X167959750Y-77194419D01*
X167979962Y-77201651D01*
X167999368Y-77210830D01*
X168017781Y-77221866D01*
X168035024Y-77234654D01*
X168050930Y-77249070D01*
X168065346Y-77264976D01*
X168078134Y-77282219D01*
X168089170Y-77300632D01*
X168098349Y-77320038D01*
X168105581Y-77340250D01*
X168110797Y-77361074D01*
X168113947Y-77382309D01*
X168115000Y-77403750D01*
X168115000Y-77841250D01*
X168113947Y-77862691D01*
X168110797Y-77883926D01*
X168105581Y-77904750D01*
X168098349Y-77924962D01*
X168089170Y-77944368D01*
X168078134Y-77962781D01*
X168065346Y-77980024D01*
X168050930Y-77995930D01*
X168035024Y-78010346D01*
X168017781Y-78023134D01*
X167999368Y-78034170D01*
X167979962Y-78043349D01*
X167959750Y-78050581D01*
X167938926Y-78055797D01*
X167917691Y-78058947D01*
X167896250Y-78060000D01*
X167383750Y-78060000D01*
X167362309Y-78058947D01*
X167341074Y-78055797D01*
X167320250Y-78050581D01*
X167300038Y-78043349D01*
X167280632Y-78034170D01*
X167262219Y-78023134D01*
X167244976Y-78010346D01*
X167229070Y-77995930D01*
X167214654Y-77980024D01*
X167201866Y-77962781D01*
X167190830Y-77944368D01*
X167181651Y-77924962D01*
X167174419Y-77904750D01*
X167169203Y-77883926D01*
X167166053Y-77862691D01*
X167165000Y-77841250D01*
X167165000Y-77403750D01*
X167166053Y-77382309D01*
X167169203Y-77361074D01*
X167174419Y-77340250D01*
X167181651Y-77320038D01*
X167190830Y-77300632D01*
X167201866Y-77282219D01*
X167214654Y-77264976D01*
X167229070Y-77249070D01*
X167244976Y-77234654D01*
X167262219Y-77221866D01*
X167280632Y-77210830D01*
X167300038Y-77201651D01*
X167320250Y-77194419D01*
X167341074Y-77189203D01*
X167362309Y-77186053D01*
X167383750Y-77185000D01*
X167896250Y-77185000D01*
X167917691Y-77186053D01*
X167917691Y-77186053D01*
G37*
D12*
X167640000Y-77622500D03*
D11*
G36*
X167917691Y-94661053D02*
G01*
X167938926Y-94664203D01*
X167959750Y-94669419D01*
X167979962Y-94676651D01*
X167999368Y-94685830D01*
X168017781Y-94696866D01*
X168035024Y-94709654D01*
X168050930Y-94724070D01*
X168065346Y-94739976D01*
X168078134Y-94757219D01*
X168089170Y-94775632D01*
X168098349Y-94795038D01*
X168105581Y-94815250D01*
X168110797Y-94836074D01*
X168113947Y-94857309D01*
X168115000Y-94878750D01*
X168115000Y-95316250D01*
X168113947Y-95337691D01*
X168110797Y-95358926D01*
X168105581Y-95379750D01*
X168098349Y-95399962D01*
X168089170Y-95419368D01*
X168078134Y-95437781D01*
X168065346Y-95455024D01*
X168050930Y-95470930D01*
X168035024Y-95485346D01*
X168017781Y-95498134D01*
X167999368Y-95509170D01*
X167979962Y-95518349D01*
X167959750Y-95525581D01*
X167938926Y-95530797D01*
X167917691Y-95533947D01*
X167896250Y-95535000D01*
X167383750Y-95535000D01*
X167362309Y-95533947D01*
X167341074Y-95530797D01*
X167320250Y-95525581D01*
X167300038Y-95518349D01*
X167280632Y-95509170D01*
X167262219Y-95498134D01*
X167244976Y-95485346D01*
X167229070Y-95470930D01*
X167214654Y-95455024D01*
X167201866Y-95437781D01*
X167190830Y-95419368D01*
X167181651Y-95399962D01*
X167174419Y-95379750D01*
X167169203Y-95358926D01*
X167166053Y-95337691D01*
X167165000Y-95316250D01*
X167165000Y-94878750D01*
X167166053Y-94857309D01*
X167169203Y-94836074D01*
X167174419Y-94815250D01*
X167181651Y-94795038D01*
X167190830Y-94775632D01*
X167201866Y-94757219D01*
X167214654Y-94739976D01*
X167229070Y-94724070D01*
X167244976Y-94709654D01*
X167262219Y-94696866D01*
X167280632Y-94685830D01*
X167300038Y-94676651D01*
X167320250Y-94669419D01*
X167341074Y-94664203D01*
X167362309Y-94661053D01*
X167383750Y-94660000D01*
X167896250Y-94660000D01*
X167917691Y-94661053D01*
X167917691Y-94661053D01*
G37*
D12*
X167640000Y-95097500D03*
D11*
G36*
X167917691Y-96236053D02*
G01*
X167938926Y-96239203D01*
X167959750Y-96244419D01*
X167979962Y-96251651D01*
X167999368Y-96260830D01*
X168017781Y-96271866D01*
X168035024Y-96284654D01*
X168050930Y-96299070D01*
X168065346Y-96314976D01*
X168078134Y-96332219D01*
X168089170Y-96350632D01*
X168098349Y-96370038D01*
X168105581Y-96390250D01*
X168110797Y-96411074D01*
X168113947Y-96432309D01*
X168115000Y-96453750D01*
X168115000Y-96891250D01*
X168113947Y-96912691D01*
X168110797Y-96933926D01*
X168105581Y-96954750D01*
X168098349Y-96974962D01*
X168089170Y-96994368D01*
X168078134Y-97012781D01*
X168065346Y-97030024D01*
X168050930Y-97045930D01*
X168035024Y-97060346D01*
X168017781Y-97073134D01*
X167999368Y-97084170D01*
X167979962Y-97093349D01*
X167959750Y-97100581D01*
X167938926Y-97105797D01*
X167917691Y-97108947D01*
X167896250Y-97110000D01*
X167383750Y-97110000D01*
X167362309Y-97108947D01*
X167341074Y-97105797D01*
X167320250Y-97100581D01*
X167300038Y-97093349D01*
X167280632Y-97084170D01*
X167262219Y-97073134D01*
X167244976Y-97060346D01*
X167229070Y-97045930D01*
X167214654Y-97030024D01*
X167201866Y-97012781D01*
X167190830Y-96994368D01*
X167181651Y-96974962D01*
X167174419Y-96954750D01*
X167169203Y-96933926D01*
X167166053Y-96912691D01*
X167165000Y-96891250D01*
X167165000Y-96453750D01*
X167166053Y-96432309D01*
X167169203Y-96411074D01*
X167174419Y-96390250D01*
X167181651Y-96370038D01*
X167190830Y-96350632D01*
X167201866Y-96332219D01*
X167214654Y-96314976D01*
X167229070Y-96299070D01*
X167244976Y-96284654D01*
X167262219Y-96271866D01*
X167280632Y-96260830D01*
X167300038Y-96251651D01*
X167320250Y-96244419D01*
X167341074Y-96239203D01*
X167362309Y-96236053D01*
X167383750Y-96235000D01*
X167896250Y-96235000D01*
X167917691Y-96236053D01*
X167917691Y-96236053D01*
G37*
D12*
X167640000Y-96672500D03*
D11*
G36*
X167917691Y-112123553D02*
G01*
X167938926Y-112126703D01*
X167959750Y-112131919D01*
X167979962Y-112139151D01*
X167999368Y-112148330D01*
X168017781Y-112159366D01*
X168035024Y-112172154D01*
X168050930Y-112186570D01*
X168065346Y-112202476D01*
X168078134Y-112219719D01*
X168089170Y-112238132D01*
X168098349Y-112257538D01*
X168105581Y-112277750D01*
X168110797Y-112298574D01*
X168113947Y-112319809D01*
X168115000Y-112341250D01*
X168115000Y-112778750D01*
X168113947Y-112800191D01*
X168110797Y-112821426D01*
X168105581Y-112842250D01*
X168098349Y-112862462D01*
X168089170Y-112881868D01*
X168078134Y-112900281D01*
X168065346Y-112917524D01*
X168050930Y-112933430D01*
X168035024Y-112947846D01*
X168017781Y-112960634D01*
X167999368Y-112971670D01*
X167979962Y-112980849D01*
X167959750Y-112988081D01*
X167938926Y-112993297D01*
X167917691Y-112996447D01*
X167896250Y-112997500D01*
X167383750Y-112997500D01*
X167362309Y-112996447D01*
X167341074Y-112993297D01*
X167320250Y-112988081D01*
X167300038Y-112980849D01*
X167280632Y-112971670D01*
X167262219Y-112960634D01*
X167244976Y-112947846D01*
X167229070Y-112933430D01*
X167214654Y-112917524D01*
X167201866Y-112900281D01*
X167190830Y-112881868D01*
X167181651Y-112862462D01*
X167174419Y-112842250D01*
X167169203Y-112821426D01*
X167166053Y-112800191D01*
X167165000Y-112778750D01*
X167165000Y-112341250D01*
X167166053Y-112319809D01*
X167169203Y-112298574D01*
X167174419Y-112277750D01*
X167181651Y-112257538D01*
X167190830Y-112238132D01*
X167201866Y-112219719D01*
X167214654Y-112202476D01*
X167229070Y-112186570D01*
X167244976Y-112172154D01*
X167262219Y-112159366D01*
X167280632Y-112148330D01*
X167300038Y-112139151D01*
X167320250Y-112131919D01*
X167341074Y-112126703D01*
X167362309Y-112123553D01*
X167383750Y-112122500D01*
X167896250Y-112122500D01*
X167917691Y-112123553D01*
X167917691Y-112123553D01*
G37*
D12*
X167640000Y-112560000D03*
D11*
G36*
X167917691Y-113698553D02*
G01*
X167938926Y-113701703D01*
X167959750Y-113706919D01*
X167979962Y-113714151D01*
X167999368Y-113723330D01*
X168017781Y-113734366D01*
X168035024Y-113747154D01*
X168050930Y-113761570D01*
X168065346Y-113777476D01*
X168078134Y-113794719D01*
X168089170Y-113813132D01*
X168098349Y-113832538D01*
X168105581Y-113852750D01*
X168110797Y-113873574D01*
X168113947Y-113894809D01*
X168115000Y-113916250D01*
X168115000Y-114353750D01*
X168113947Y-114375191D01*
X168110797Y-114396426D01*
X168105581Y-114417250D01*
X168098349Y-114437462D01*
X168089170Y-114456868D01*
X168078134Y-114475281D01*
X168065346Y-114492524D01*
X168050930Y-114508430D01*
X168035024Y-114522846D01*
X168017781Y-114535634D01*
X167999368Y-114546670D01*
X167979962Y-114555849D01*
X167959750Y-114563081D01*
X167938926Y-114568297D01*
X167917691Y-114571447D01*
X167896250Y-114572500D01*
X167383750Y-114572500D01*
X167362309Y-114571447D01*
X167341074Y-114568297D01*
X167320250Y-114563081D01*
X167300038Y-114555849D01*
X167280632Y-114546670D01*
X167262219Y-114535634D01*
X167244976Y-114522846D01*
X167229070Y-114508430D01*
X167214654Y-114492524D01*
X167201866Y-114475281D01*
X167190830Y-114456868D01*
X167181651Y-114437462D01*
X167174419Y-114417250D01*
X167169203Y-114396426D01*
X167166053Y-114375191D01*
X167165000Y-114353750D01*
X167165000Y-113916250D01*
X167166053Y-113894809D01*
X167169203Y-113873574D01*
X167174419Y-113852750D01*
X167181651Y-113832538D01*
X167190830Y-113813132D01*
X167201866Y-113794719D01*
X167214654Y-113777476D01*
X167229070Y-113761570D01*
X167244976Y-113747154D01*
X167262219Y-113734366D01*
X167280632Y-113723330D01*
X167300038Y-113714151D01*
X167320250Y-113706919D01*
X167341074Y-113701703D01*
X167362309Y-113698553D01*
X167383750Y-113697500D01*
X167896250Y-113697500D01*
X167917691Y-113698553D01*
X167917691Y-113698553D01*
G37*
D12*
X167640000Y-114135000D03*
D20*
X96590000Y-77582500D03*
X96590000Y-79262500D03*
D21*
X96590000Y-75512500D03*
X96590000Y-81332500D03*
D22*
X98890000Y-75960000D03*
X98890000Y-80885000D03*
D23*
X99250000Y-77122500D03*
X99250000Y-77772500D03*
X99250000Y-78422500D03*
X99250000Y-79072500D03*
X99250000Y-79722500D03*
D24*
X134030000Y-67310000D03*
X130130000Y-67310000D03*
X134030000Y-68580000D03*
X130130000Y-68580000D03*
X134030000Y-69850000D03*
X130130000Y-69850000D03*
X134030000Y-71120000D03*
X130130000Y-71120000D03*
X134030000Y-72390000D03*
X130130000Y-72390000D03*
D25*
X110375000Y-82780000D03*
X110375000Y-79780000D03*
X111875000Y-79780000D03*
X111875000Y-82780000D03*
D26*
X154937500Y-122555000D03*
X153037500Y-122555000D03*
X137157500Y-122555000D03*
X135257500Y-122555000D03*
X118425000Y-122555000D03*
X116525000Y-122555000D03*
D27*
X117438249Y-103859251D03*
D11*
G36*
X117385216Y-104371903D02*
G01*
X116925597Y-103912284D01*
X117491282Y-103346599D01*
X117950901Y-103806218D01*
X117385216Y-104371903D01*
X117385216Y-104371903D01*
G37*
D27*
X118781751Y-102515749D03*
D11*
G36*
X118728718Y-103028401D02*
G01*
X118269099Y-102568782D01*
X118834784Y-102003097D01*
X119294403Y-102462716D01*
X118728718Y-103028401D01*
X118728718Y-103028401D01*
G37*
D27*
X132678249Y-88619251D03*
D11*
G36*
X132625216Y-89131903D02*
G01*
X132165597Y-88672284D01*
X132731282Y-88106599D01*
X133190901Y-88566218D01*
X132625216Y-89131903D01*
X132625216Y-89131903D01*
G37*
D27*
X134021751Y-87275749D03*
D11*
G36*
X133968718Y-87788401D02*
G01*
X133509099Y-87328782D01*
X134074784Y-86763097D01*
X134534403Y-87222716D01*
X133968718Y-87788401D01*
X133968718Y-87788401D01*
G37*
D27*
X147600749Y-73696751D03*
D11*
G36*
X147547716Y-74209403D02*
G01*
X147088097Y-73749784D01*
X147653782Y-73184099D01*
X148113401Y-73643718D01*
X147547716Y-74209403D01*
X147547716Y-74209403D01*
G37*
D27*
X148944251Y-72353249D03*
D11*
G36*
X148891218Y-72865901D02*
G01*
X148431599Y-72406282D01*
X148997284Y-71840597D01*
X149456903Y-72300216D01*
X148891218Y-72865901D01*
X148891218Y-72865901D01*
G37*
D28*
X167640000Y-71757500D03*
X167640000Y-73657500D03*
X167640000Y-90807500D03*
X167640000Y-92707500D03*
X167640000Y-108587500D03*
X167640000Y-110487500D03*
D11*
G36*
X104735191Y-87676053D02*
G01*
X104756426Y-87679203D01*
X104777250Y-87684419D01*
X104797462Y-87691651D01*
X104816868Y-87700830D01*
X104835281Y-87711866D01*
X104852524Y-87724654D01*
X104868430Y-87739070D01*
X104882846Y-87754976D01*
X104895634Y-87772219D01*
X104906670Y-87790632D01*
X104915849Y-87810038D01*
X104923081Y-87830250D01*
X104928297Y-87851074D01*
X104931447Y-87872309D01*
X104932500Y-87893750D01*
X104932500Y-88331250D01*
X104931447Y-88352691D01*
X104928297Y-88373926D01*
X104923081Y-88394750D01*
X104915849Y-88414962D01*
X104906670Y-88434368D01*
X104895634Y-88452781D01*
X104882846Y-88470024D01*
X104868430Y-88485930D01*
X104852524Y-88500346D01*
X104835281Y-88513134D01*
X104816868Y-88524170D01*
X104797462Y-88533349D01*
X104777250Y-88540581D01*
X104756426Y-88545797D01*
X104735191Y-88548947D01*
X104713750Y-88550000D01*
X104201250Y-88550000D01*
X104179809Y-88548947D01*
X104158574Y-88545797D01*
X104137750Y-88540581D01*
X104117538Y-88533349D01*
X104098132Y-88524170D01*
X104079719Y-88513134D01*
X104062476Y-88500346D01*
X104046570Y-88485930D01*
X104032154Y-88470024D01*
X104019366Y-88452781D01*
X104008330Y-88434368D01*
X103999151Y-88414962D01*
X103991919Y-88394750D01*
X103986703Y-88373926D01*
X103983553Y-88352691D01*
X103982500Y-88331250D01*
X103982500Y-87893750D01*
X103983553Y-87872309D01*
X103986703Y-87851074D01*
X103991919Y-87830250D01*
X103999151Y-87810038D01*
X104008330Y-87790632D01*
X104019366Y-87772219D01*
X104032154Y-87754976D01*
X104046570Y-87739070D01*
X104062476Y-87724654D01*
X104079719Y-87711866D01*
X104098132Y-87700830D01*
X104117538Y-87691651D01*
X104137750Y-87684419D01*
X104158574Y-87679203D01*
X104179809Y-87676053D01*
X104201250Y-87675000D01*
X104713750Y-87675000D01*
X104735191Y-87676053D01*
X104735191Y-87676053D01*
G37*
D12*
X104457500Y-88112500D03*
D11*
G36*
X104735191Y-89251053D02*
G01*
X104756426Y-89254203D01*
X104777250Y-89259419D01*
X104797462Y-89266651D01*
X104816868Y-89275830D01*
X104835281Y-89286866D01*
X104852524Y-89299654D01*
X104868430Y-89314070D01*
X104882846Y-89329976D01*
X104895634Y-89347219D01*
X104906670Y-89365632D01*
X104915849Y-89385038D01*
X104923081Y-89405250D01*
X104928297Y-89426074D01*
X104931447Y-89447309D01*
X104932500Y-89468750D01*
X104932500Y-89906250D01*
X104931447Y-89927691D01*
X104928297Y-89948926D01*
X104923081Y-89969750D01*
X104915849Y-89989962D01*
X104906670Y-90009368D01*
X104895634Y-90027781D01*
X104882846Y-90045024D01*
X104868430Y-90060930D01*
X104852524Y-90075346D01*
X104835281Y-90088134D01*
X104816868Y-90099170D01*
X104797462Y-90108349D01*
X104777250Y-90115581D01*
X104756426Y-90120797D01*
X104735191Y-90123947D01*
X104713750Y-90125000D01*
X104201250Y-90125000D01*
X104179809Y-90123947D01*
X104158574Y-90120797D01*
X104137750Y-90115581D01*
X104117538Y-90108349D01*
X104098132Y-90099170D01*
X104079719Y-90088134D01*
X104062476Y-90075346D01*
X104046570Y-90060930D01*
X104032154Y-90045024D01*
X104019366Y-90027781D01*
X104008330Y-90009368D01*
X103999151Y-89989962D01*
X103991919Y-89969750D01*
X103986703Y-89948926D01*
X103983553Y-89927691D01*
X103982500Y-89906250D01*
X103982500Y-89468750D01*
X103983553Y-89447309D01*
X103986703Y-89426074D01*
X103991919Y-89405250D01*
X103999151Y-89385038D01*
X104008330Y-89365632D01*
X104019366Y-89347219D01*
X104032154Y-89329976D01*
X104046570Y-89314070D01*
X104062476Y-89299654D01*
X104079719Y-89286866D01*
X104098132Y-89275830D01*
X104117538Y-89266651D01*
X104137750Y-89259419D01*
X104158574Y-89254203D01*
X104179809Y-89251053D01*
X104201250Y-89250000D01*
X104713750Y-89250000D01*
X104735191Y-89251053D01*
X104735191Y-89251053D01*
G37*
D12*
X104457500Y-89687500D03*
D11*
G36*
X98385191Y-89251053D02*
G01*
X98406426Y-89254203D01*
X98427250Y-89259419D01*
X98447462Y-89266651D01*
X98466868Y-89275830D01*
X98485281Y-89286866D01*
X98502524Y-89299654D01*
X98518430Y-89314070D01*
X98532846Y-89329976D01*
X98545634Y-89347219D01*
X98556670Y-89365632D01*
X98565849Y-89385038D01*
X98573081Y-89405250D01*
X98578297Y-89426074D01*
X98581447Y-89447309D01*
X98582500Y-89468750D01*
X98582500Y-89906250D01*
X98581447Y-89927691D01*
X98578297Y-89948926D01*
X98573081Y-89969750D01*
X98565849Y-89989962D01*
X98556670Y-90009368D01*
X98545634Y-90027781D01*
X98532846Y-90045024D01*
X98518430Y-90060930D01*
X98502524Y-90075346D01*
X98485281Y-90088134D01*
X98466868Y-90099170D01*
X98447462Y-90108349D01*
X98427250Y-90115581D01*
X98406426Y-90120797D01*
X98385191Y-90123947D01*
X98363750Y-90125000D01*
X97851250Y-90125000D01*
X97829809Y-90123947D01*
X97808574Y-90120797D01*
X97787750Y-90115581D01*
X97767538Y-90108349D01*
X97748132Y-90099170D01*
X97729719Y-90088134D01*
X97712476Y-90075346D01*
X97696570Y-90060930D01*
X97682154Y-90045024D01*
X97669366Y-90027781D01*
X97658330Y-90009368D01*
X97649151Y-89989962D01*
X97641919Y-89969750D01*
X97636703Y-89948926D01*
X97633553Y-89927691D01*
X97632500Y-89906250D01*
X97632500Y-89468750D01*
X97633553Y-89447309D01*
X97636703Y-89426074D01*
X97641919Y-89405250D01*
X97649151Y-89385038D01*
X97658330Y-89365632D01*
X97669366Y-89347219D01*
X97682154Y-89329976D01*
X97696570Y-89314070D01*
X97712476Y-89299654D01*
X97729719Y-89286866D01*
X97748132Y-89275830D01*
X97767538Y-89266651D01*
X97787750Y-89259419D01*
X97808574Y-89254203D01*
X97829809Y-89251053D01*
X97851250Y-89250000D01*
X98363750Y-89250000D01*
X98385191Y-89251053D01*
X98385191Y-89251053D01*
G37*
D12*
X98107500Y-89687500D03*
D11*
G36*
X98385191Y-87676053D02*
G01*
X98406426Y-87679203D01*
X98427250Y-87684419D01*
X98447462Y-87691651D01*
X98466868Y-87700830D01*
X98485281Y-87711866D01*
X98502524Y-87724654D01*
X98518430Y-87739070D01*
X98532846Y-87754976D01*
X98545634Y-87772219D01*
X98556670Y-87790632D01*
X98565849Y-87810038D01*
X98573081Y-87830250D01*
X98578297Y-87851074D01*
X98581447Y-87872309D01*
X98582500Y-87893750D01*
X98582500Y-88331250D01*
X98581447Y-88352691D01*
X98578297Y-88373926D01*
X98573081Y-88394750D01*
X98565849Y-88414962D01*
X98556670Y-88434368D01*
X98545634Y-88452781D01*
X98532846Y-88470024D01*
X98518430Y-88485930D01*
X98502524Y-88500346D01*
X98485281Y-88513134D01*
X98466868Y-88524170D01*
X98447462Y-88533349D01*
X98427250Y-88540581D01*
X98406426Y-88545797D01*
X98385191Y-88548947D01*
X98363750Y-88550000D01*
X97851250Y-88550000D01*
X97829809Y-88548947D01*
X97808574Y-88545797D01*
X97787750Y-88540581D01*
X97767538Y-88533349D01*
X97748132Y-88524170D01*
X97729719Y-88513134D01*
X97712476Y-88500346D01*
X97696570Y-88485930D01*
X97682154Y-88470024D01*
X97669366Y-88452781D01*
X97658330Y-88434368D01*
X97649151Y-88414962D01*
X97641919Y-88394750D01*
X97636703Y-88373926D01*
X97633553Y-88352691D01*
X97632500Y-88331250D01*
X97632500Y-87893750D01*
X97633553Y-87872309D01*
X97636703Y-87851074D01*
X97641919Y-87830250D01*
X97649151Y-87810038D01*
X97658330Y-87790632D01*
X97669366Y-87772219D01*
X97682154Y-87754976D01*
X97696570Y-87739070D01*
X97712476Y-87724654D01*
X97729719Y-87711866D01*
X97748132Y-87700830D01*
X97767538Y-87691651D01*
X97787750Y-87684419D01*
X97808574Y-87679203D01*
X97829809Y-87676053D01*
X97851250Y-87675000D01*
X98363750Y-87675000D01*
X98385191Y-87676053D01*
X98385191Y-87676053D01*
G37*
D12*
X98107500Y-88112500D03*
D11*
G36*
X138707691Y-60041053D02*
G01*
X138728926Y-60044203D01*
X138749750Y-60049419D01*
X138769962Y-60056651D01*
X138789368Y-60065830D01*
X138807781Y-60076866D01*
X138825024Y-60089654D01*
X138840930Y-60104070D01*
X138855346Y-60119976D01*
X138868134Y-60137219D01*
X138879170Y-60155632D01*
X138888349Y-60175038D01*
X138895581Y-60195250D01*
X138900797Y-60216074D01*
X138903947Y-60237309D01*
X138905000Y-60258750D01*
X138905000Y-60696250D01*
X138903947Y-60717691D01*
X138900797Y-60738926D01*
X138895581Y-60759750D01*
X138888349Y-60779962D01*
X138879170Y-60799368D01*
X138868134Y-60817781D01*
X138855346Y-60835024D01*
X138840930Y-60850930D01*
X138825024Y-60865346D01*
X138807781Y-60878134D01*
X138789368Y-60889170D01*
X138769962Y-60898349D01*
X138749750Y-60905581D01*
X138728926Y-60910797D01*
X138707691Y-60913947D01*
X138686250Y-60915000D01*
X138173750Y-60915000D01*
X138152309Y-60913947D01*
X138131074Y-60910797D01*
X138110250Y-60905581D01*
X138090038Y-60898349D01*
X138070632Y-60889170D01*
X138052219Y-60878134D01*
X138034976Y-60865346D01*
X138019070Y-60850930D01*
X138004654Y-60835024D01*
X137991866Y-60817781D01*
X137980830Y-60799368D01*
X137971651Y-60779962D01*
X137964419Y-60759750D01*
X137959203Y-60738926D01*
X137956053Y-60717691D01*
X137955000Y-60696250D01*
X137955000Y-60258750D01*
X137956053Y-60237309D01*
X137959203Y-60216074D01*
X137964419Y-60195250D01*
X137971651Y-60175038D01*
X137980830Y-60155632D01*
X137991866Y-60137219D01*
X138004654Y-60119976D01*
X138019070Y-60104070D01*
X138034976Y-60089654D01*
X138052219Y-60076866D01*
X138070632Y-60065830D01*
X138090038Y-60056651D01*
X138110250Y-60049419D01*
X138131074Y-60044203D01*
X138152309Y-60041053D01*
X138173750Y-60040000D01*
X138686250Y-60040000D01*
X138707691Y-60041053D01*
X138707691Y-60041053D01*
G37*
D12*
X138430000Y-60477500D03*
D11*
G36*
X138707691Y-58466053D02*
G01*
X138728926Y-58469203D01*
X138749750Y-58474419D01*
X138769962Y-58481651D01*
X138789368Y-58490830D01*
X138807781Y-58501866D01*
X138825024Y-58514654D01*
X138840930Y-58529070D01*
X138855346Y-58544976D01*
X138868134Y-58562219D01*
X138879170Y-58580632D01*
X138888349Y-58600038D01*
X138895581Y-58620250D01*
X138900797Y-58641074D01*
X138903947Y-58662309D01*
X138905000Y-58683750D01*
X138905000Y-59121250D01*
X138903947Y-59142691D01*
X138900797Y-59163926D01*
X138895581Y-59184750D01*
X138888349Y-59204962D01*
X138879170Y-59224368D01*
X138868134Y-59242781D01*
X138855346Y-59260024D01*
X138840930Y-59275930D01*
X138825024Y-59290346D01*
X138807781Y-59303134D01*
X138789368Y-59314170D01*
X138769962Y-59323349D01*
X138749750Y-59330581D01*
X138728926Y-59335797D01*
X138707691Y-59338947D01*
X138686250Y-59340000D01*
X138173750Y-59340000D01*
X138152309Y-59338947D01*
X138131074Y-59335797D01*
X138110250Y-59330581D01*
X138090038Y-59323349D01*
X138070632Y-59314170D01*
X138052219Y-59303134D01*
X138034976Y-59290346D01*
X138019070Y-59275930D01*
X138004654Y-59260024D01*
X137991866Y-59242781D01*
X137980830Y-59224368D01*
X137971651Y-59204962D01*
X137964419Y-59184750D01*
X137959203Y-59163926D01*
X137956053Y-59142691D01*
X137955000Y-59121250D01*
X137955000Y-58683750D01*
X137956053Y-58662309D01*
X137959203Y-58641074D01*
X137964419Y-58620250D01*
X137971651Y-58600038D01*
X137980830Y-58580632D01*
X137991866Y-58562219D01*
X138004654Y-58544976D01*
X138019070Y-58529070D01*
X138034976Y-58514654D01*
X138052219Y-58501866D01*
X138070632Y-58490830D01*
X138090038Y-58481651D01*
X138110250Y-58474419D01*
X138131074Y-58469203D01*
X138152309Y-58466053D01*
X138173750Y-58465000D01*
X138686250Y-58465000D01*
X138707691Y-58466053D01*
X138707691Y-58466053D01*
G37*
D12*
X138430000Y-58902500D03*
D11*
G36*
X107275191Y-87676053D02*
G01*
X107296426Y-87679203D01*
X107317250Y-87684419D01*
X107337462Y-87691651D01*
X107356868Y-87700830D01*
X107375281Y-87711866D01*
X107392524Y-87724654D01*
X107408430Y-87739070D01*
X107422846Y-87754976D01*
X107435634Y-87772219D01*
X107446670Y-87790632D01*
X107455849Y-87810038D01*
X107463081Y-87830250D01*
X107468297Y-87851074D01*
X107471447Y-87872309D01*
X107472500Y-87893750D01*
X107472500Y-88331250D01*
X107471447Y-88352691D01*
X107468297Y-88373926D01*
X107463081Y-88394750D01*
X107455849Y-88414962D01*
X107446670Y-88434368D01*
X107435634Y-88452781D01*
X107422846Y-88470024D01*
X107408430Y-88485930D01*
X107392524Y-88500346D01*
X107375281Y-88513134D01*
X107356868Y-88524170D01*
X107337462Y-88533349D01*
X107317250Y-88540581D01*
X107296426Y-88545797D01*
X107275191Y-88548947D01*
X107253750Y-88550000D01*
X106741250Y-88550000D01*
X106719809Y-88548947D01*
X106698574Y-88545797D01*
X106677750Y-88540581D01*
X106657538Y-88533349D01*
X106638132Y-88524170D01*
X106619719Y-88513134D01*
X106602476Y-88500346D01*
X106586570Y-88485930D01*
X106572154Y-88470024D01*
X106559366Y-88452781D01*
X106548330Y-88434368D01*
X106539151Y-88414962D01*
X106531919Y-88394750D01*
X106526703Y-88373926D01*
X106523553Y-88352691D01*
X106522500Y-88331250D01*
X106522500Y-87893750D01*
X106523553Y-87872309D01*
X106526703Y-87851074D01*
X106531919Y-87830250D01*
X106539151Y-87810038D01*
X106548330Y-87790632D01*
X106559366Y-87772219D01*
X106572154Y-87754976D01*
X106586570Y-87739070D01*
X106602476Y-87724654D01*
X106619719Y-87711866D01*
X106638132Y-87700830D01*
X106657538Y-87691651D01*
X106677750Y-87684419D01*
X106698574Y-87679203D01*
X106719809Y-87676053D01*
X106741250Y-87675000D01*
X107253750Y-87675000D01*
X107275191Y-87676053D01*
X107275191Y-87676053D01*
G37*
D12*
X106997500Y-88112500D03*
D11*
G36*
X107275191Y-89251053D02*
G01*
X107296426Y-89254203D01*
X107317250Y-89259419D01*
X107337462Y-89266651D01*
X107356868Y-89275830D01*
X107375281Y-89286866D01*
X107392524Y-89299654D01*
X107408430Y-89314070D01*
X107422846Y-89329976D01*
X107435634Y-89347219D01*
X107446670Y-89365632D01*
X107455849Y-89385038D01*
X107463081Y-89405250D01*
X107468297Y-89426074D01*
X107471447Y-89447309D01*
X107472500Y-89468750D01*
X107472500Y-89906250D01*
X107471447Y-89927691D01*
X107468297Y-89948926D01*
X107463081Y-89969750D01*
X107455849Y-89989962D01*
X107446670Y-90009368D01*
X107435634Y-90027781D01*
X107422846Y-90045024D01*
X107408430Y-90060930D01*
X107392524Y-90075346D01*
X107375281Y-90088134D01*
X107356868Y-90099170D01*
X107337462Y-90108349D01*
X107317250Y-90115581D01*
X107296426Y-90120797D01*
X107275191Y-90123947D01*
X107253750Y-90125000D01*
X106741250Y-90125000D01*
X106719809Y-90123947D01*
X106698574Y-90120797D01*
X106677750Y-90115581D01*
X106657538Y-90108349D01*
X106638132Y-90099170D01*
X106619719Y-90088134D01*
X106602476Y-90075346D01*
X106586570Y-90060930D01*
X106572154Y-90045024D01*
X106559366Y-90027781D01*
X106548330Y-90009368D01*
X106539151Y-89989962D01*
X106531919Y-89969750D01*
X106526703Y-89948926D01*
X106523553Y-89927691D01*
X106522500Y-89906250D01*
X106522500Y-89468750D01*
X106523553Y-89447309D01*
X106526703Y-89426074D01*
X106531919Y-89405250D01*
X106539151Y-89385038D01*
X106548330Y-89365632D01*
X106559366Y-89347219D01*
X106572154Y-89329976D01*
X106586570Y-89314070D01*
X106602476Y-89299654D01*
X106619719Y-89286866D01*
X106638132Y-89275830D01*
X106657538Y-89266651D01*
X106677750Y-89259419D01*
X106698574Y-89254203D01*
X106719809Y-89251053D01*
X106741250Y-89250000D01*
X107253750Y-89250000D01*
X107275191Y-89251053D01*
X107275191Y-89251053D01*
G37*
D12*
X106997500Y-89687500D03*
D11*
G36*
X127912691Y-86711053D02*
G01*
X127933926Y-86714203D01*
X127954750Y-86719419D01*
X127974962Y-86726651D01*
X127994368Y-86735830D01*
X128012781Y-86746866D01*
X128030024Y-86759654D01*
X128045930Y-86774070D01*
X128060346Y-86789976D01*
X128073134Y-86807219D01*
X128084170Y-86825632D01*
X128093349Y-86845038D01*
X128100581Y-86865250D01*
X128105797Y-86886074D01*
X128108947Y-86907309D01*
X128110000Y-86928750D01*
X128110000Y-87366250D01*
X128108947Y-87387691D01*
X128105797Y-87408926D01*
X128100581Y-87429750D01*
X128093349Y-87449962D01*
X128084170Y-87469368D01*
X128073134Y-87487781D01*
X128060346Y-87505024D01*
X128045930Y-87520930D01*
X128030024Y-87535346D01*
X128012781Y-87548134D01*
X127994368Y-87559170D01*
X127974962Y-87568349D01*
X127954750Y-87575581D01*
X127933926Y-87580797D01*
X127912691Y-87583947D01*
X127891250Y-87585000D01*
X127378750Y-87585000D01*
X127357309Y-87583947D01*
X127336074Y-87580797D01*
X127315250Y-87575581D01*
X127295038Y-87568349D01*
X127275632Y-87559170D01*
X127257219Y-87548134D01*
X127239976Y-87535346D01*
X127224070Y-87520930D01*
X127209654Y-87505024D01*
X127196866Y-87487781D01*
X127185830Y-87469368D01*
X127176651Y-87449962D01*
X127169419Y-87429750D01*
X127164203Y-87408926D01*
X127161053Y-87387691D01*
X127160000Y-87366250D01*
X127160000Y-86928750D01*
X127161053Y-86907309D01*
X127164203Y-86886074D01*
X127169419Y-86865250D01*
X127176651Y-86845038D01*
X127185830Y-86825632D01*
X127196866Y-86807219D01*
X127209654Y-86789976D01*
X127224070Y-86774070D01*
X127239976Y-86759654D01*
X127257219Y-86746866D01*
X127275632Y-86735830D01*
X127295038Y-86726651D01*
X127315250Y-86719419D01*
X127336074Y-86714203D01*
X127357309Y-86711053D01*
X127378750Y-86710000D01*
X127891250Y-86710000D01*
X127912691Y-86711053D01*
X127912691Y-86711053D01*
G37*
D12*
X127635000Y-87147500D03*
D11*
G36*
X127912691Y-85136053D02*
G01*
X127933926Y-85139203D01*
X127954750Y-85144419D01*
X127974962Y-85151651D01*
X127994368Y-85160830D01*
X128012781Y-85171866D01*
X128030024Y-85184654D01*
X128045930Y-85199070D01*
X128060346Y-85214976D01*
X128073134Y-85232219D01*
X128084170Y-85250632D01*
X128093349Y-85270038D01*
X128100581Y-85290250D01*
X128105797Y-85311074D01*
X128108947Y-85332309D01*
X128110000Y-85353750D01*
X128110000Y-85791250D01*
X128108947Y-85812691D01*
X128105797Y-85833926D01*
X128100581Y-85854750D01*
X128093349Y-85874962D01*
X128084170Y-85894368D01*
X128073134Y-85912781D01*
X128060346Y-85930024D01*
X128045930Y-85945930D01*
X128030024Y-85960346D01*
X128012781Y-85973134D01*
X127994368Y-85984170D01*
X127974962Y-85993349D01*
X127954750Y-86000581D01*
X127933926Y-86005797D01*
X127912691Y-86008947D01*
X127891250Y-86010000D01*
X127378750Y-86010000D01*
X127357309Y-86008947D01*
X127336074Y-86005797D01*
X127315250Y-86000581D01*
X127295038Y-85993349D01*
X127275632Y-85984170D01*
X127257219Y-85973134D01*
X127239976Y-85960346D01*
X127224070Y-85945930D01*
X127209654Y-85930024D01*
X127196866Y-85912781D01*
X127185830Y-85894368D01*
X127176651Y-85874962D01*
X127169419Y-85854750D01*
X127164203Y-85833926D01*
X127161053Y-85812691D01*
X127160000Y-85791250D01*
X127160000Y-85353750D01*
X127161053Y-85332309D01*
X127164203Y-85311074D01*
X127169419Y-85290250D01*
X127176651Y-85270038D01*
X127185830Y-85250632D01*
X127196866Y-85232219D01*
X127209654Y-85214976D01*
X127224070Y-85199070D01*
X127239976Y-85184654D01*
X127257219Y-85171866D01*
X127275632Y-85160830D01*
X127295038Y-85151651D01*
X127315250Y-85144419D01*
X127336074Y-85139203D01*
X127357309Y-85136053D01*
X127378750Y-85135000D01*
X127891250Y-85135000D01*
X127912691Y-85136053D01*
X127912691Y-85136053D01*
G37*
D12*
X127635000Y-85572500D03*
D11*
G36*
X126642691Y-70848553D02*
G01*
X126663926Y-70851703D01*
X126684750Y-70856919D01*
X126704962Y-70864151D01*
X126724368Y-70873330D01*
X126742781Y-70884366D01*
X126760024Y-70897154D01*
X126775930Y-70911570D01*
X126790346Y-70927476D01*
X126803134Y-70944719D01*
X126814170Y-70963132D01*
X126823349Y-70982538D01*
X126830581Y-71002750D01*
X126835797Y-71023574D01*
X126838947Y-71044809D01*
X126840000Y-71066250D01*
X126840000Y-71503750D01*
X126838947Y-71525191D01*
X126835797Y-71546426D01*
X126830581Y-71567250D01*
X126823349Y-71587462D01*
X126814170Y-71606868D01*
X126803134Y-71625281D01*
X126790346Y-71642524D01*
X126775930Y-71658430D01*
X126760024Y-71672846D01*
X126742781Y-71685634D01*
X126724368Y-71696670D01*
X126704962Y-71705849D01*
X126684750Y-71713081D01*
X126663926Y-71718297D01*
X126642691Y-71721447D01*
X126621250Y-71722500D01*
X126108750Y-71722500D01*
X126087309Y-71721447D01*
X126066074Y-71718297D01*
X126045250Y-71713081D01*
X126025038Y-71705849D01*
X126005632Y-71696670D01*
X125987219Y-71685634D01*
X125969976Y-71672846D01*
X125954070Y-71658430D01*
X125939654Y-71642524D01*
X125926866Y-71625281D01*
X125915830Y-71606868D01*
X125906651Y-71587462D01*
X125899419Y-71567250D01*
X125894203Y-71546426D01*
X125891053Y-71525191D01*
X125890000Y-71503750D01*
X125890000Y-71066250D01*
X125891053Y-71044809D01*
X125894203Y-71023574D01*
X125899419Y-71002750D01*
X125906651Y-70982538D01*
X125915830Y-70963132D01*
X125926866Y-70944719D01*
X125939654Y-70927476D01*
X125954070Y-70911570D01*
X125969976Y-70897154D01*
X125987219Y-70884366D01*
X126005632Y-70873330D01*
X126025038Y-70864151D01*
X126045250Y-70856919D01*
X126066074Y-70851703D01*
X126087309Y-70848553D01*
X126108750Y-70847500D01*
X126621250Y-70847500D01*
X126642691Y-70848553D01*
X126642691Y-70848553D01*
G37*
D12*
X126365000Y-71285000D03*
D11*
G36*
X126642691Y-72423553D02*
G01*
X126663926Y-72426703D01*
X126684750Y-72431919D01*
X126704962Y-72439151D01*
X126724368Y-72448330D01*
X126742781Y-72459366D01*
X126760024Y-72472154D01*
X126775930Y-72486570D01*
X126790346Y-72502476D01*
X126803134Y-72519719D01*
X126814170Y-72538132D01*
X126823349Y-72557538D01*
X126830581Y-72577750D01*
X126835797Y-72598574D01*
X126838947Y-72619809D01*
X126840000Y-72641250D01*
X126840000Y-73078750D01*
X126838947Y-73100191D01*
X126835797Y-73121426D01*
X126830581Y-73142250D01*
X126823349Y-73162462D01*
X126814170Y-73181868D01*
X126803134Y-73200281D01*
X126790346Y-73217524D01*
X126775930Y-73233430D01*
X126760024Y-73247846D01*
X126742781Y-73260634D01*
X126724368Y-73271670D01*
X126704962Y-73280849D01*
X126684750Y-73288081D01*
X126663926Y-73293297D01*
X126642691Y-73296447D01*
X126621250Y-73297500D01*
X126108750Y-73297500D01*
X126087309Y-73296447D01*
X126066074Y-73293297D01*
X126045250Y-73288081D01*
X126025038Y-73280849D01*
X126005632Y-73271670D01*
X125987219Y-73260634D01*
X125969976Y-73247846D01*
X125954070Y-73233430D01*
X125939654Y-73217524D01*
X125926866Y-73200281D01*
X125915830Y-73181868D01*
X125906651Y-73162462D01*
X125899419Y-73142250D01*
X125894203Y-73121426D01*
X125891053Y-73100191D01*
X125890000Y-73078750D01*
X125890000Y-72641250D01*
X125891053Y-72619809D01*
X125894203Y-72598574D01*
X125899419Y-72577750D01*
X125906651Y-72557538D01*
X125915830Y-72538132D01*
X125926866Y-72519719D01*
X125939654Y-72502476D01*
X125954070Y-72486570D01*
X125969976Y-72472154D01*
X125987219Y-72459366D01*
X126005632Y-72448330D01*
X126025038Y-72439151D01*
X126045250Y-72431919D01*
X126066074Y-72426703D01*
X126087309Y-72423553D01*
X126108750Y-72422500D01*
X126621250Y-72422500D01*
X126642691Y-72423553D01*
X126642691Y-72423553D01*
G37*
D12*
X126365000Y-72860000D03*
D11*
G36*
X125055191Y-70848553D02*
G01*
X125076426Y-70851703D01*
X125097250Y-70856919D01*
X125117462Y-70864151D01*
X125136868Y-70873330D01*
X125155281Y-70884366D01*
X125172524Y-70897154D01*
X125188430Y-70911570D01*
X125202846Y-70927476D01*
X125215634Y-70944719D01*
X125226670Y-70963132D01*
X125235849Y-70982538D01*
X125243081Y-71002750D01*
X125248297Y-71023574D01*
X125251447Y-71044809D01*
X125252500Y-71066250D01*
X125252500Y-71503750D01*
X125251447Y-71525191D01*
X125248297Y-71546426D01*
X125243081Y-71567250D01*
X125235849Y-71587462D01*
X125226670Y-71606868D01*
X125215634Y-71625281D01*
X125202846Y-71642524D01*
X125188430Y-71658430D01*
X125172524Y-71672846D01*
X125155281Y-71685634D01*
X125136868Y-71696670D01*
X125117462Y-71705849D01*
X125097250Y-71713081D01*
X125076426Y-71718297D01*
X125055191Y-71721447D01*
X125033750Y-71722500D01*
X124521250Y-71722500D01*
X124499809Y-71721447D01*
X124478574Y-71718297D01*
X124457750Y-71713081D01*
X124437538Y-71705849D01*
X124418132Y-71696670D01*
X124399719Y-71685634D01*
X124382476Y-71672846D01*
X124366570Y-71658430D01*
X124352154Y-71642524D01*
X124339366Y-71625281D01*
X124328330Y-71606868D01*
X124319151Y-71587462D01*
X124311919Y-71567250D01*
X124306703Y-71546426D01*
X124303553Y-71525191D01*
X124302500Y-71503750D01*
X124302500Y-71066250D01*
X124303553Y-71044809D01*
X124306703Y-71023574D01*
X124311919Y-71002750D01*
X124319151Y-70982538D01*
X124328330Y-70963132D01*
X124339366Y-70944719D01*
X124352154Y-70927476D01*
X124366570Y-70911570D01*
X124382476Y-70897154D01*
X124399719Y-70884366D01*
X124418132Y-70873330D01*
X124437538Y-70864151D01*
X124457750Y-70856919D01*
X124478574Y-70851703D01*
X124499809Y-70848553D01*
X124521250Y-70847500D01*
X125033750Y-70847500D01*
X125055191Y-70848553D01*
X125055191Y-70848553D01*
G37*
D12*
X124777500Y-71285000D03*
D11*
G36*
X125055191Y-72423553D02*
G01*
X125076426Y-72426703D01*
X125097250Y-72431919D01*
X125117462Y-72439151D01*
X125136868Y-72448330D01*
X125155281Y-72459366D01*
X125172524Y-72472154D01*
X125188430Y-72486570D01*
X125202846Y-72502476D01*
X125215634Y-72519719D01*
X125226670Y-72538132D01*
X125235849Y-72557538D01*
X125243081Y-72577750D01*
X125248297Y-72598574D01*
X125251447Y-72619809D01*
X125252500Y-72641250D01*
X125252500Y-73078750D01*
X125251447Y-73100191D01*
X125248297Y-73121426D01*
X125243081Y-73142250D01*
X125235849Y-73162462D01*
X125226670Y-73181868D01*
X125215634Y-73200281D01*
X125202846Y-73217524D01*
X125188430Y-73233430D01*
X125172524Y-73247846D01*
X125155281Y-73260634D01*
X125136868Y-73271670D01*
X125117462Y-73280849D01*
X125097250Y-73288081D01*
X125076426Y-73293297D01*
X125055191Y-73296447D01*
X125033750Y-73297500D01*
X124521250Y-73297500D01*
X124499809Y-73296447D01*
X124478574Y-73293297D01*
X124457750Y-73288081D01*
X124437538Y-73280849D01*
X124418132Y-73271670D01*
X124399719Y-73260634D01*
X124382476Y-73247846D01*
X124366570Y-73233430D01*
X124352154Y-73217524D01*
X124339366Y-73200281D01*
X124328330Y-73181868D01*
X124319151Y-73162462D01*
X124311919Y-73142250D01*
X124306703Y-73121426D01*
X124303553Y-73100191D01*
X124302500Y-73078750D01*
X124302500Y-72641250D01*
X124303553Y-72619809D01*
X124306703Y-72598574D01*
X124311919Y-72577750D01*
X124319151Y-72557538D01*
X124328330Y-72538132D01*
X124339366Y-72519719D01*
X124352154Y-72502476D01*
X124366570Y-72486570D01*
X124382476Y-72472154D01*
X124399719Y-72459366D01*
X124418132Y-72448330D01*
X124437538Y-72439151D01*
X124457750Y-72431919D01*
X124478574Y-72426703D01*
X124499809Y-72423553D01*
X124521250Y-72422500D01*
X125033750Y-72422500D01*
X125055191Y-72423553D01*
X125055191Y-72423553D01*
G37*
D12*
X124777500Y-72860000D03*
D11*
G36*
X98817691Y-83663553D02*
G01*
X98838926Y-83666703D01*
X98859750Y-83671919D01*
X98879962Y-83679151D01*
X98899368Y-83688330D01*
X98917781Y-83699366D01*
X98935024Y-83712154D01*
X98950930Y-83726570D01*
X98965346Y-83742476D01*
X98978134Y-83759719D01*
X98989170Y-83778132D01*
X98998349Y-83797538D01*
X99005581Y-83817750D01*
X99010797Y-83838574D01*
X99013947Y-83859809D01*
X99015000Y-83881250D01*
X99015000Y-84393750D01*
X99013947Y-84415191D01*
X99010797Y-84436426D01*
X99005581Y-84457250D01*
X98998349Y-84477462D01*
X98989170Y-84496868D01*
X98978134Y-84515281D01*
X98965346Y-84532524D01*
X98950930Y-84548430D01*
X98935024Y-84562846D01*
X98917781Y-84575634D01*
X98899368Y-84586670D01*
X98879962Y-84595849D01*
X98859750Y-84603081D01*
X98838926Y-84608297D01*
X98817691Y-84611447D01*
X98796250Y-84612500D01*
X98358750Y-84612500D01*
X98337309Y-84611447D01*
X98316074Y-84608297D01*
X98295250Y-84603081D01*
X98275038Y-84595849D01*
X98255632Y-84586670D01*
X98237219Y-84575634D01*
X98219976Y-84562846D01*
X98204070Y-84548430D01*
X98189654Y-84532524D01*
X98176866Y-84515281D01*
X98165830Y-84496868D01*
X98156651Y-84477462D01*
X98149419Y-84457250D01*
X98144203Y-84436426D01*
X98141053Y-84415191D01*
X98140000Y-84393750D01*
X98140000Y-83881250D01*
X98141053Y-83859809D01*
X98144203Y-83838574D01*
X98149419Y-83817750D01*
X98156651Y-83797538D01*
X98165830Y-83778132D01*
X98176866Y-83759719D01*
X98189654Y-83742476D01*
X98204070Y-83726570D01*
X98219976Y-83712154D01*
X98237219Y-83699366D01*
X98255632Y-83688330D01*
X98275038Y-83679151D01*
X98295250Y-83671919D01*
X98316074Y-83666703D01*
X98337309Y-83663553D01*
X98358750Y-83662500D01*
X98796250Y-83662500D01*
X98817691Y-83663553D01*
X98817691Y-83663553D01*
G37*
D12*
X98577500Y-84137500D03*
D11*
G36*
X97242691Y-83663553D02*
G01*
X97263926Y-83666703D01*
X97284750Y-83671919D01*
X97304962Y-83679151D01*
X97324368Y-83688330D01*
X97342781Y-83699366D01*
X97360024Y-83712154D01*
X97375930Y-83726570D01*
X97390346Y-83742476D01*
X97403134Y-83759719D01*
X97414170Y-83778132D01*
X97423349Y-83797538D01*
X97430581Y-83817750D01*
X97435797Y-83838574D01*
X97438947Y-83859809D01*
X97440000Y-83881250D01*
X97440000Y-84393750D01*
X97438947Y-84415191D01*
X97435797Y-84436426D01*
X97430581Y-84457250D01*
X97423349Y-84477462D01*
X97414170Y-84496868D01*
X97403134Y-84515281D01*
X97390346Y-84532524D01*
X97375930Y-84548430D01*
X97360024Y-84562846D01*
X97342781Y-84575634D01*
X97324368Y-84586670D01*
X97304962Y-84595849D01*
X97284750Y-84603081D01*
X97263926Y-84608297D01*
X97242691Y-84611447D01*
X97221250Y-84612500D01*
X96783750Y-84612500D01*
X96762309Y-84611447D01*
X96741074Y-84608297D01*
X96720250Y-84603081D01*
X96700038Y-84595849D01*
X96680632Y-84586670D01*
X96662219Y-84575634D01*
X96644976Y-84562846D01*
X96629070Y-84548430D01*
X96614654Y-84532524D01*
X96601866Y-84515281D01*
X96590830Y-84496868D01*
X96581651Y-84477462D01*
X96574419Y-84457250D01*
X96569203Y-84436426D01*
X96566053Y-84415191D01*
X96565000Y-84393750D01*
X96565000Y-83881250D01*
X96566053Y-83859809D01*
X96569203Y-83838574D01*
X96574419Y-83817750D01*
X96581651Y-83797538D01*
X96590830Y-83778132D01*
X96601866Y-83759719D01*
X96614654Y-83742476D01*
X96629070Y-83726570D01*
X96644976Y-83712154D01*
X96662219Y-83699366D01*
X96680632Y-83688330D01*
X96700038Y-83679151D01*
X96720250Y-83671919D01*
X96741074Y-83666703D01*
X96762309Y-83663553D01*
X96783750Y-83662500D01*
X97221250Y-83662500D01*
X97242691Y-83663553D01*
X97242691Y-83663553D01*
G37*
D12*
X97002500Y-84137500D03*
M02*
