M48
INCH,TZ
T1C0.0157
%
G90
G05
T1
X38500Y-27250
X39000Y-35000
X41125Y-34250
X42125Y-34250
X43000Y-34125
X43000Y-37125
X43500Y-34125
X43500Y-35000
X44500Y-33000
X44750Y-29875
X45222Y-40347
X45250Y-21500
X45500Y-40625
X45875Y-41250
X46154Y-33654
X47250Y-29379
X47250Y-48375
X47264Y-28986
X48375Y-30049
X48750Y-31750
X49000Y-31125
X49625Y-30625
X49875Y-31000
X50125Y-30125
X50228Y-32272
X50326Y-30864
X51875Y-24375
X51875Y-35250
X52000Y-26625
X52435Y-30065
X53250Y-24750
X53375Y-23500
X54625Y-48375
X54875Y-24375
X57750Y-29375
X61625Y-48375
X66125Y-35125
X66125Y-27625
X66125Y-42250
T0
M30
